<?xml version="1.0" encoding="utf-8"?>
<!-- Generator: Adobe Illustrator 25.2.1, SVG Export Plug-In . SVG Version: 6.00 Build 0)  -->
<svg version="1.1" id="pieFifth" xmlns="http://www.w3.org/2000/svg" xmlns:xlink="http://www.w3.org/1999/xlink" x="0px" y="0px"
	 viewBox="0 0 855.9 281.2" style="enable-background:new 0 0 855.9 281.2;" xml:space="preserve">
<path d="M739.3,265.9v-42.1c0-4.3-2.6-7.8-5.7-7.8l-54.7-0.4c-0.1,0-0.2-0.1-0.2-0.3v-77.7c0-1-21.4-15.8-21.4,1.4
	c-0.2,43.7-0.4,92.4-0.4,92.4c0,7.3,4.2,13.3,9.4,13.3l45.7,0.1v21c0,4.3,2.6,7.8,5.7,7.8h15.9C736.7,273.8,739.3,270.3,739.3,265.9
	z"/>
<g id="XMLID_28_">
	<g>
		<polygon points="850.6,114.8 849.7,140 825.5,140.2 614.4,145.7 610,146 610.7,122.6 		"/>
		<path d="M603.9,94.3C603.6,71.5,615,38.8,670.5,11l180.2,103.8l-239.9,7.8C610.7,122.6,604.1,111.1,603.9,94.3z"/>
		<path d="M610.7,122.6L610,146l-1.8,0.1c-1.2-5.2-6.3-28.5-4.3-51.8C604.1,111.1,610.7,122.6,610.7,122.6z"/>
	</g>
</g>
<g>
	<path d="M635.1,54.3c-0.4-0.3-0.8-0.6-1.2-0.8s-0.8-0.2-1.2-0.2c-0.5,0-0.9,0.1-1.2,0.3s-0.5,0.5-0.5,0.9c0,0.3,0.1,0.5,0.2,0.6
		c0.2,0.2,0.4,0.3,0.6,0.4c0.3,0.1,0.5,0.2,0.9,0.3c0.3,0.1,0.6,0.2,0.9,0.3c1.2,0.4,2.2,1,2.7,1.7c0.6,0.7,0.9,1.6,0.9,2.7
		c0,0.8-0.1,1.4-0.4,2c-0.3,0.6-0.6,1.1-1.1,1.6c-0.5,0.4-1.1,0.8-1.8,1s-1.5,0.4-2.4,0.4c-1.9,0-3.6-0.6-5.2-1.7l1.6-3.1
		c0.6,0.5,1.1,0.9,1.7,1.1c0.6,0.2,1.1,0.4,1.7,0.4c0.6,0,1.1-0.1,1.4-0.4s0.5-0.6,0.5-1c0-0.2,0-0.4-0.1-0.6s-0.2-0.3-0.4-0.5
		c-0.2-0.1-0.4-0.3-0.7-0.4c-0.3-0.1-0.6-0.2-1.1-0.4s-1-0.3-1.5-0.5s-0.9-0.4-1.3-0.8c-0.4-0.3-0.7-0.7-0.9-1.2s-0.3-1.1-0.3-1.8
		s0.1-1.4,0.4-2c0.2-0.6,0.6-1.1,1-1.5s1-0.7,1.6-1c0.6-0.2,1.3-0.3,2.1-0.3c0.7,0,1.5,0.1,2.3,0.3s1.6,0.5,2.3,0.9L635.1,54.3z"/>
	<path d="M643.4,56.3h5.5v-5.7h3.8l-0.1,14.7h-3.8v-6.1h-5.5v6.1h-3.8l0.1-14.7h3.8V56.3z"/>
	<path d="M655.2,58c0-1.1,0.2-2.1,0.6-3.1c0.4-0.9,1-1.8,1.7-2.5s1.6-1.2,2.6-1.6c1-0.4,2.1-0.6,3.3-0.6s2.3,0.2,3.3,0.6
		c1,0.4,1.9,1,2.6,1.7c0.7,0.7,1.3,1.5,1.7,2.5c0.4,0.9,0.6,2,0.6,3.1s-0.2,2.1-0.6,3c-0.4,0.9-1,1.8-1.7,2.5s-1.6,1.2-2.6,1.6
		s-2.1,0.6-3.3,0.6s-2.3-0.2-3.3-0.6s-1.8-1-2.6-1.7c-0.7-0.7-1.3-1.5-1.7-2.5C655.4,60.1,655.2,59.1,655.2,58z M659.2,58
		c0,0.6,0.1,1.1,0.3,1.6s0.5,0.9,0.9,1.3c0.4,0.4,0.8,0.7,1.3,0.9s1,0.3,1.6,0.3s1.1-0.1,1.6-0.3s0.9-0.5,1.3-0.8
		c0.4-0.4,0.7-0.8,0.9-1.3s0.3-1,0.3-1.6s-0.1-1.1-0.3-1.6s-0.5-0.9-0.9-1.3c-0.4-0.4-0.8-0.6-1.3-0.9s-1-0.3-1.6-0.3
		s-1.1,0.1-1.6,0.3s-0.9,0.5-1.3,0.8c-0.4,0.4-0.7,0.8-0.9,1.3S659.2,57.4,659.2,58z"/>
	<path d="M686.1,65.5h-4.8l-3.6-5.7v5.7h-3.8l0.1-14.7h5.9c0.8,0,1.5,0.1,2.1,0.4c0.6,0.2,1.1,0.6,1.5,1s0.7,0.9,0.9,1.4
		s0.3,1.1,0.3,1.8c0,1.1-0.3,2-0.8,2.7s-1.3,1.2-2.4,1.4L686.1,65.5z M677.7,57.3h0.7c0.8,0,1.3-0.2,1.7-0.5s0.6-0.8,0.6-1.3
		s-0.2-1-0.6-1.3s-1-0.5-1.7-0.5h-0.7V57.3z"/>
	<path d="M693.3,54v11.5h-3.8V54h-3.1v-3.2h10.1V54H693.3z"/>
	<path d="M626.9,74h5.7c1,0,1.9,0.2,2.8,0.6c0.9,0.4,1.6,0.9,2.3,1.6s1.2,1.5,1.5,2.3c0.4,0.9,0.6,1.8,0.6,2.8s-0.2,1.9-0.6,2.8
		c-0.4,0.9-0.9,1.7-1.5,2.3c-0.7,0.7-1.4,1.2-2.3,1.6c-0.9,0.4-1.8,0.6-2.8,0.6h-5.7V74z M630.7,85.4h0.9c0.7,0,1.3-0.1,1.8-0.3
		c0.5-0.2,1-0.5,1.3-0.9c0.4-0.4,0.6-0.8,0.8-1.3s0.3-1,0.3-1.6s-0.1-1.1-0.3-1.6s-0.5-0.9-0.8-1.3s-0.8-0.7-1.3-0.9
		c-0.5-0.2-1.1-0.3-1.8-0.3h-0.9V85.4z"/>
	<path d="M646.1,74v8c0,0.4,0,0.9,0,1.3s0.1,0.9,0.3,1.2c0.2,0.4,0.4,0.7,0.8,0.9c0.3,0.2,0.8,0.3,1.5,0.3c0.6,0,1.1-0.1,1.5-0.3
		s0.6-0.5,0.8-0.9s0.3-0.8,0.3-1.2c0-0.4,0.1-0.9,0.1-1.3v-8h3.8v8.5c0,2.3-0.5,4-1.6,5c-1,1-2.7,1.6-4.8,1.6
		c-2.2,0-3.8-0.5-4.8-1.6s-1.6-2.7-1.6-5V74H646.1z"/>
	<path d="M670.3,88.8h-4.8l-3.6-5.7v5.7h-3.8l0.1-14.7h5.9c0.8,0,1.5,0.1,2.1,0.4c0.6,0.2,1.1,0.6,1.5,1s0.7,0.9,0.9,1.4
		s0.3,1.1,0.3,1.8c0,1.1-0.3,2-0.8,2.7s-1.3,1.2-2.4,1.4L670.3,88.8z M661.9,80.7h0.7c0.8,0,1.3-0.2,1.7-0.5s0.6-0.8,0.6-1.3
		s-0.2-1-0.6-1.3s-1-0.5-1.7-0.5h-0.7V80.7z"/>
	<path d="M680.9,86.3h-5.5l-0.9,2.6h-4.1l5.6-14.7h4.2l5.5,14.7h-4.1L680.9,86.3z M679.9,83.4l-1.7-4.9l-1.7,4.9H679.9z"/>
	<path d="M692.5,77.4v11.5h-3.8V77.4h-3.1v-3.2h10.1v3.2H692.5z"/>
	<path d="M701.2,74.2l-0.1,14.7h-3.8l0.1-14.7H701.2z"/>
	<path d="M703.6,81.6c0-1.1,0.2-2.1,0.6-3.1c0.4-0.9,1-1.8,1.7-2.5s1.6-1.2,2.6-1.6s2.1-0.6,3.3-0.6s2.3,0.2,3.3,0.6s1.9,1,2.6,1.7
		c0.7,0.7,1.3,1.5,1.7,2.5c0.4,0.9,0.6,2,0.6,3.1s-0.2,2.1-0.6,3s-1,1.8-1.7,2.5s-1.6,1.2-2.6,1.6s-2.1,0.6-3.3,0.6
		s-2.3-0.2-3.3-0.6s-1.8-1-2.6-1.7c-0.7-0.7-1.3-1.5-1.7-2.5C703.8,83.7,703.6,82.7,703.6,81.6z M707.6,81.6c0,0.6,0.1,1.1,0.3,1.6
		s0.5,0.9,0.9,1.3s0.8,0.6,1.3,0.9c0.5,0.2,1,0.3,1.6,0.3s1.1-0.1,1.6-0.3s0.9-0.5,1.3-0.8c0.4-0.4,0.7-0.8,0.9-1.3s0.3-1,0.3-1.6
		s-0.1-1.1-0.3-1.6s-0.5-0.9-0.9-1.3s-0.8-0.6-1.3-0.9s-1-0.3-1.6-0.3s-1.1,0.1-1.6,0.3c-0.5,0.2-0.9,0.5-1.3,0.8
		c-0.4,0.4-0.7,0.8-0.9,1.3C707.7,80.5,707.6,81,707.6,81.6z"/>
	<path d="M722.3,89l0.1-14.7h3.8l7,9v-9h3.8L736.9,89h-3.8l-7-9v9H722.3z"/>
	<path d="M626.8,97.4h5.7c1.4,0,2.4,0.3,3.1,1c0.7,0.7,1,1.6,1,2.8c0,0.7-0.1,1.4-0.4,1.8c-0.3,0.5-0.7,0.9-1.2,1.2
		c0.5,0.1,1,0.3,1.4,0.5s0.7,0.5,0.9,0.8s0.4,0.7,0.5,1.1s0.2,0.8,0.2,1.2c0,0.7-0.1,1.3-0.4,1.8c-0.2,0.5-0.6,1-1,1.3
		s-1,0.6-1.6,0.8s-1.3,0.3-2.1,0.3h-6.1L626.8,97.4z M630.6,109.1h0.8c1,0,1.7-0.1,2.1-0.4c0.4-0.2,0.6-0.6,0.6-1.2
		s-0.2-0.9-0.6-1.2c-0.4-0.2-1.1-0.4-2.1-0.4h-0.8V109.1z M630.6,103.2h0.7c1.2,0,1.8-0.5,1.8-1.4s-0.6-1.4-1.8-1.4h-0.7V103.2z"/>
	<path d="M639.5,104.8c0-1.1,0.2-2.1,0.6-3.1c0.4-0.9,1-1.8,1.7-2.5s1.6-1.2,2.6-1.6s2.1-0.6,3.3-0.6s2.3,0.2,3.3,0.6s1.9,1,2.6,1.7
		c0.7,0.7,1.3,1.5,1.7,2.5c0.4,0.9,0.6,2,0.6,3.1s-0.2,2.1-0.6,3c-0.4,0.9-1,1.8-1.7,2.5s-1.6,1.2-2.6,1.6s-2.1,0.6-3.3,0.6
		s-2.3-0.2-3.3-0.6s-1.8-1-2.6-1.7c-0.7-0.7-1.3-1.5-1.7-2.5C639.7,106.9,639.5,105.9,639.5,104.8z M643.5,104.8
		c0,0.6,0.1,1.1,0.3,1.6s0.5,0.9,0.9,1.3s0.8,0.7,1.3,0.9s1,0.3,1.6,0.3s1.1-0.1,1.6-0.3c0.5-0.2,0.9-0.5,1.3-0.8
		c0.4-0.4,0.7-0.8,0.9-1.3s0.3-1,0.3-1.6s-0.1-1.1-0.3-1.6s-0.5-0.9-0.9-1.3s-0.8-0.6-1.3-0.9s-1-0.3-1.6-0.3s-1.1,0.1-1.6,0.3
		c-0.5,0.2-0.9,0.5-1.3,0.8s-0.7,0.8-0.9,1.3C643.6,103.7,643.5,104.2,643.5,104.8z"/>
	<path d="M658.2,112.2l0.1-14.7h3.8l7,9v-9h3.8l-0.1,14.7H669l-7-9v9H658.2z"/>
	<path d="M676,97.5h5.7c1,0,1.9,0.2,2.8,0.6c0.9,0.4,1.6,0.9,2.3,1.6s1.2,1.5,1.5,2.3c0.4,0.9,0.6,1.8,0.6,2.8s-0.2,1.9-0.6,2.8
		c-0.4,0.9-0.9,1.7-1.6,2.3c-0.7,0.7-1.4,1.2-2.3,1.6c-0.9,0.4-1.8,0.6-2.8,0.6h-5.7L676,97.5z M679.8,109h0.9
		c0.7,0,1.3-0.1,1.8-0.3c0.5-0.2,1-0.5,1.3-0.9c0.4-0.4,0.6-0.8,0.8-1.3s0.3-1,0.3-1.6s-0.1-1.1-0.3-1.6s-0.5-0.9-0.8-1.3
		c-0.4-0.4-0.8-0.7-1.3-0.9c-0.5-0.2-1.1-0.3-1.8-0.3h-0.9V109z"/>
</g>
</svg>
