<?xml version="1.0" encoding="utf-8"?>
<!-- Generator: Adobe Illustrator 25.2.0, SVG Export Plug-In . SVG Version: 6.00 Build 0)  -->
<svg version="1.1" id="Layer_1" xmlns="http://www.w3.org/2000/svg" xmlns:xlink="http://www.w3.org/1999/xlink" x="0px" y="0px"
	 width="250px" height="250px" viewBox="0 0 250 250" style="enable-background:new 0 0 250 250;" xml:space="preserve">
<style type="text/css">
	.st0{fill:url(#fullLogo_1_);}
	.st1{fill:url(#fullLogo-2_1_);}
	.st2{opacity:0.1;enable-background:new    ;}
	.st3{fill:url(#fullLogo-5_1_);}
	.st4{fill:url(#fullLogo-6_1_);}
	.st5{fill:url(#fullLogo-7_1_);}
	.st6{fill:url(#fullLogo-8_1_);}
	.st7{fill:url(#fullLogo-9_1_);}
	.st8{fill:url(#fullLogo-10_1_);}
	.st9{fill:url(#fullLogo-11_1_);}
	.st10{fill:url(#fullLogo-14_1_);}
	.st11{fill:url(#fullLogo-15_1_);}
	.st12{fill:url(#fullLogo-16_1_);}
	.st13{fill:url(#fullLogo-17_1_);}
	.st14{fill:url(#fullLogo-18_1_);}
	.st15{fill:url(#fullLogo-19_1_);}
	.st16{fill:url(#fullLogo-20_1_);}
	.st17{fill:url(#fullLogo-21_1_);}
	.st18{fill:url(#fullLogo-22_1_);}
	.st19{fill:url(#fullLogo-24_1_);}
	.st20{opacity:5.000000e-03;enable-background:new    ;}
	.st21{fill-rule:evenodd;clip-rule:evenodd;fill:url(#fullLogo-26_1_);}
	.st22{fill-rule:evenodd;clip-rule:evenodd;fill:url(#fullLogo-27_1_);}
	.st23{fill-rule:evenodd;clip-rule:evenodd;fill:url(#fullLogo-28_1_);}
	.st24{fill-rule:evenodd;clip-rule:evenodd;fill:url(#fullLogo-29_1_);}
	.st25{fill-rule:evenodd;clip-rule:evenodd;fill:url(#fullLogo-30_1_);}
	.st26{fill-rule:evenodd;clip-rule:evenodd;fill:url(#fullLogo-31_1_);}
	.st27{fill-rule:evenodd;clip-rule:evenodd;fill:url(#fullLogo-32_1_);}
	.st28{fill-rule:evenodd;clip-rule:evenodd;fill:url(#fullLogo-33_1_);}
	.st29{fill-rule:evenodd;clip-rule:evenodd;fill:url(#fullLogo-34_1_);}
	.st30{fill-rule:evenodd;clip-rule:evenodd;fill:url(#fullLogo-35_1_);}
	.st31{fill-rule:evenodd;clip-rule:evenodd;fill:url(#fullLogo-36_1_);}
	.st32{fill:url(#fullLogo-37_1_);}
	.st33{fill:url(#fullLogo-38_1_);}
	.st34{fill:url(#fullLogo-39_1_);}
	.st35{fill:url(#fullLogo-40_1_);}
	.st36{fill:url(#fullLogo-41_1_);}
	.st37{fill:url(#fullLogo-42_1_);}
	.st38{fill:url(#fullLogo-43_1_);}
	.st39{fill:#E0E895;}
	.st40{fill:#2F4972;}
	.st41{fill:#4C96CC;}
	.st42{fill:#00B19D;}
	.st43{fill:#699E42;}
	.st44{fill:#95C64F;}
	.st45{fill:#CFDF75;}
	.st46{fill-rule:evenodd;clip-rule:evenodd;fill:url(#fullLogo-51_1_);}
	.st47{fill-rule:evenodd;clip-rule:evenodd;fill:url(#fullLogo-52_1_);}
	.st48{fill-rule:evenodd;clip-rule:evenodd;fill:url(#fullLogo-53_1_);}
	.st49{fill-rule:evenodd;clip-rule:evenodd;fill:url(#fullLogo-54_1_);}
	.st50{fill-rule:evenodd;clip-rule:evenodd;fill:url(#fullLogo-55_1_);}
	.st51{fill-rule:evenodd;clip-rule:evenodd;fill:url(#fullLogo-56_1_);}
	.st52{fill-rule:evenodd;clip-rule:evenodd;fill:url(#fullLogo-79_1_);}
</style>
<g>
	
		<radialGradient id="fullLogo_1_" cx="9191.8252" cy="-21868.8008" r="85.5552" gradientTransform="matrix(0 -1.0086 1.0489 0 23119.2539 9525.1377)" gradientUnits="userSpaceOnUse">
		<stop  offset="0" style="stop-color:#FFFFFF"/>
		<stop  offset="0.5" style="stop-color:#28B1E6"/>
		<stop  offset="1" style="stop-color:#3E4398"/>
	</radialGradient>
	<path id="fullLogo_2_" class="st0" d="M177.5,249.8c-1.6,0.2-3.3-0.1-4.6-1c-0.6-0.3-1-0.7-1.4-1.2l0,0c-0.1-0.1-0.2-0.2-0.2-0.3
		c-1.1-1.5-2.6-2.9-4.2-4c-0.6-0.4-1.1-0.7-1.8-1c-1.2-0.6-2.5-1-3.9-1.2c-0.3,0-0.6-0.1-0.9-0.2c-3-0.9-6-1.8-8.9-2.9
		c-0.3,0.1-0.6,0.2-0.9,0.2c-1.8-0.1-3.5-0.3-5.3-0.5c-28.5-3.6-54.5-15.5-73.2-33.3c-24.8-24.6-25.2-52.9-22.4-70.7
		c0.9-7,4.4-13.6,10.2-18.9c0.1-0.1,0.2-0.1,0.3-0.2c0.6,0,1.2,0,1.8,0c5.1,0.2,9.1,3.7,8.8,7.9c0,0.7-0.2,1.3-0.4,2
		c-11.2,27.1,6.1,58.8,36.4,70.4c0.1,0,0.1,0,0.2,0.1c12.1,7.3,25.6,12.9,39.9,16.5c16.6,4.1,33.9,5.9,51.2,5.3
		c1.2-0.5,2.4-1.1,3.6-1.7c-0.1,0.1-0.2,0.2-0.2,0.3l-2.6,2.9c-1.7,1.9-3.6,4-3.6,4c-0.6,0.7-1,1.5-1.1,2.3c-0.3,2.3,2.5,4,5.8,4.6
		c1.1,0.3,2.3,0.4,3.5,0.3c0.2,0,0.5,0,0.7,0c2.8,0.1,5,2,4.9,4.3c-0.1,1.9-1.7,3.5-4,3.9c0,0,0,0-0.1,0c-0.3,0-0.6,0.1-0.9,0.1H204
		c-0.9,0-1.8,0-2.7,0c-1.6,0-3.2-0.4-4.5-1.1c-1-1-1.9-2-2.6-3.1c-2.6-2.6-6.7-0.8-10,0.3c-2,0.7-3.9,1.6-5.7,2.6
		c-0.9,0.4-1.3,1.2-1.3,2c0,0.1,0,0.2,0,0.2c0.3,1.3,1.7,1.3,2.7,1.8c0.2,0.1,0.4,0.3,0.6,0.4c2.6,1.8,2.8,5,0.6,7.1
		C180.2,249,178.9,249.6,177.5,249.8L177.5,249.8z"/>
	
		<linearGradient id="fullLogo-2_1_" gradientUnits="userSpaceOnUse" x1="3829.1807" y1="-20364.2715" x2="3829.5911" y2="-20364.002" gradientTransform="matrix(6.998787e-04 1 1 -6.998787e-04 20565.1914 -3614.0286)">
		<stop  offset="7.600000e-03" style="stop-color:#2E6791"/>
		<stop  offset="0.3865" style="stop-color:#5CBE87"/>
		<stop  offset="1" style="stop-color:#47C2DA"/>
	</linearGradient>
	<path id="fullLogo-2_2_" class="st1" d="M204.1,229.6c-0.2,0-0.5,0-0.7,0C203.6,229.6,203.8,229.6,204.1,229.6L204.1,229.6z"/>
	<polygon id="fullLogo-3_2_" class="st2" points="106.8,193.9 106.8,193.9 106.8,193.9 	"/>
	<path id="fullLogo-4_2_" class="st2" d="M154.5,213c-1.2-0.3-2.3-0.6-3.5-0.8C152.2,212.5,153.3,212.7,154.5,213z"/>
	
		<radialGradient id="fullLogo-5_1_" cx="7567.6479" cy="-22156.9531" r="87.4537" gradientTransform="matrix(-0.3687 0.9443 0.9827 0.3547 24734.7305 880.6783)" gradientUnits="userSpaceOnUse">
		<stop  offset="0" style="stop-color:#FFFFFF"/>
		<stop  offset="0.5" style="stop-color:#28B1E6"/>
		<stop  offset="1" style="stop-color:#3E4398"/>
	</radialGradient>
	<path id="fullLogo-5_2_" class="st3" d="M226.8,167.4c0.9-2.4,1.1-4.9,0.7-7.4c-0.4-1.8-1.5-3.5-3-4.8c-1.5-1.5-3.7-2.4-6.1-2.6
		c-1.6,0.1-3.2,0.1-4.8-0.1c-1.5-0.5-2.9-1.3-3.8-2.5c-4.9-5.3-6.2-12.5-12-17.1c-1.4-1-3.4-2.6-5.3-1.5c-1.2,0.8-1.4,2.2-0.5,3.3
		c2.8,3.5,5.3,7.2,7.4,11c11,18.8,6.9,32.7-6.1,46.4c-0.5,0.6-1.1,1.1-1.7,1.7l0,0c0,0-1.6,1.7-4,3.9
		C203.8,190.7,217.3,180.2,226.8,167.4z"/>
	
		<radialGradient id="fullLogo-6_1_" cx="-1336.5337" cy="453.2295" r="37.1835" gradientTransform="matrix(1.0489 0 0 -1.4584 1558.4304 858.9783)" gradientUnits="userSpaceOnUse">
		<stop  offset="0" style="stop-color:#FFFFFF"/>
		<stop  offset="0.5" style="stop-color:#28B1E6"/>
	</radialGradient>
	<path id="fullLogo-6_2_" class="st4" d="M149.4,201.1c-5.1,1.2-10.3,1.9-15.6,2c14.9,2.9,30.5,2.1,44.9-2.1c-2-1-2.8-2.9-2.1-4.7
		c0,0,0-0.1,0-0.1c0.1-0.1,0.1-0.3,0.2-0.4c0,0,0,0,0,0c1-1.4,1.4-3,1.2-4.6l0,0"/>
	
		<linearGradient id="fullLogo-7_1_" gradientUnits="userSpaceOnUse" x1="7029.8911" y1="-20721.9648" x2="7029.8687" y2="-20721.9648" gradientTransform="matrix(-0.3515 0.9362 0.9362 0.3515 22095.7109 874.5658)">
		<stop  offset="7.600000e-03" style="stop-color:#3A7093"/>
		<stop  offset="0.3865" style="stop-color:#5CBE87"/>
		<stop  offset="1" style="stop-color:#47C2DA"/>
	</linearGradient>
	<polygon id="fullLogo-7_2_" class="st5" points="225,172.4 225,172.4 225,172.3 	"/>
	
		<linearGradient id="fullLogo-8_1_" gradientUnits="userSpaceOnUse" x1="7095.627" y1="-20826.2949" x2="7095.623" y2="-20826.2949" gradientTransform="matrix(-0.3515 0.9362 0.9362 0.3515 22095.7109 874.5658)">
		<stop  offset="7.600000e-03" style="stop-color:#3A7093"/>
		<stop  offset="0.3865" style="stop-color:#5CBE87"/>
		<stop  offset="1" style="stop-color:#47C2DA"/>
	</linearGradient>
	<polygon id="fullLogo-8_2_" class="st6" points="104.1,197.5 104.1,197.5 104.1,197.5 	"/>
	
		<radialGradient id="fullLogo-9_1_" cx="7567.6763" cy="-22143.3047" r="60.0835" gradientTransform="matrix(-0.3687 0.9443 0.9821 0.3545 24735.7285 881.0071)" gradientUnits="userSpaceOnUse">
		<stop  offset="0" style="stop-color:#FFFFFF"/>
		<stop  offset="0.5" style="stop-color:#28B1E6"/>
		<stop  offset="1" style="stop-color:#3E4398"/>
	</radialGradient>
	<path id="fullLogo-9_2_" class="st7" d="M199.8,171.9c-0.3-1.9-1.1-3.7-2.4-5.4c-1.6-2.1-4-3.7-5.7-5.7c-0.3-0.3-0.4-0.6-0.5-0.9
		c-0.1-1,1.1-2.1,2.4-2.5c1.5-0.5,3.3-0.3,4.6,0.6c1.1,0.9,1.8,2,2.1,3.2c1.1,3.5,0.9,7.3-0.4,10.7"/>
	
		<radialGradient id="fullLogo-10_1_" cx="7523.7759" cy="-22169.9453" r="32.7921" gradientTransform="matrix(-0.3687 0.9443 0.9821 0.3545 24735.7285 881.0071)" gradientUnits="userSpaceOnUse">
		<stop  offset="0" style="stop-color:#FFFFFF"/>
		<stop  offset="0.5" style="stop-color:#28B1E6"/>
		<stop  offset="1" style="stop-color:#3E4398"/>
	</radialGradient>
	<path id="fullLogo-10_2_" class="st8" d="M192,123.2c0.5-0.9,0.2-1.9-0.6-2.5l0,0c-1.1-1.1-1.8-2.5-1.8-4c0.1-0.9,0-1.9-0.3-2.8
		c-0.8-1.2-2.5-1.8-4.1-1.4c-1.5,0.5-2.5,1.6-2.6,2.9c-0.1,1.3,0.2,2.6,0.9,3.8c0.7,1.3,1.7,2.6,2.9,3.6c0.6,0.5,1.3,1,2.1,1.3
		C189.8,124.5,191.3,124.1,192,123.2z"/>
	
		<radialGradient id="fullLogo-11_1_" cx="7540.0376" cy="-21922.9297" r="71.7411" gradientTransform="matrix(-0.3687 0.9443 0.8472 0.3058 21561.3047 -264.9738)" gradientUnits="userSpaceOnUse">
		<stop  offset="0" style="stop-color:#FFFFFF"/>
		<stop  offset="0.5" style="stop-color:#28B1E6"/>
		<stop  offset="1" style="stop-color:#3E4398"/>
	</radialGradient>
	<path id="fullLogo-11_2_" class="st9" d="M216.8,139.5c1.5,0.6,3.4,0.1,4.2-1.1c1.5-1.7,2.4-3.7,2.4-5.9c0-0.8-0.3-1.6-0.6-2.3
		c-1.3-1.9-4.1-2.6-6.5-1.6c-0.3,0.1-0.5,0.2-0.7,0.4c-2.1,1.7-2.9,4.3-2.1,6.7C213.9,137.3,215.1,138.7,216.8,139.5z"/>
	<path id="fullLogo-12_2_" class="st2" d="M206.4,210.5c-19.3,2.7-39,1.9-57.8-2.4c-12-2.7-26.2-6.3-36.4-12.1
		c-2.9-0.8-5.7-1.7-8.5-2.8c11.8,7.6,25.1,13.5,39.3,17.5c16.9,4.6,34.6,6.9,52.4,6.7C195.9,217.1,202.2,211.5,206.4,210.5z"/>
	<path id="fullLogo-13_2_" class="st2" d="M205,190.9c4.4-1.6,8.7-3.3,12.9-5.2c0.2-0.1,0.3-0.3,0.5-0.4
		C214,187.3,209.5,189.2,205,190.9z"/>
	
		<radialGradient id="fullLogo-14_1_" cx="7786.5757" cy="-24683.6504" r="125.5212" gradientTransform="matrix(1.0483 3.651148e-02 3.979864e-02 -1.0569 -6923.4541 -26223.1445)" gradientUnits="userSpaceOnUse">
		<stop  offset="0" style="stop-color:#FFFFFF"/>
		<stop  offset="0.3684" style="stop-color:#72C2EC"/>
		<stop  offset="0.5" style="stop-color:#28B1E6"/>
		<stop  offset="1" style="stop-color:#3E4398"/>
	</radialGradient>
	<path id="fullLogo-14_2_" class="st10" d="M105.5,194.4L105.5,194.4c14.1,9.2,30.3,15.9,47.7,19.8c11.2,2.1,22.8,3.2,34.3,3.1l0,0
		c2.1-0.4,4.3-0.4,6.4,0c1,0.2,2,0.4,2.9,0.7c2.9,0.9,5.5,2.1,7.9,3.7c0.1,0.1,0.3,0.2,0.4,0.3l0,0c0.7,0.5,1.6,0.9,2.5,1.1
		c4.5,1.1,9.2-0.7,10.9-4.3c0.1-0.2,0.2-0.4,0.2-0.6c0.9-3.5-1.4-7-5.4-8.4c-0.3-0.2-0.7-0.3-1-0.3c-1.6-0.3-3.4,0.1-4.6-1.4
		c-0.1-0.1-0.1-0.2-0.2-0.3c-0.6-1.1-0.4-2.3,0.5-3.2c1.8-2,3.9-3.9,6.2-5.6c3.6-3.1,9-4.2,14-2.8c1.9,0.9,3.8,1.7,5.9,2.3
		c2.2,0.2,4.5-0.2,6.4-1.2c4.6-1.8,9.2-4.5,9.3-8.8c0-2.5-2-4.8-5.1-5.4c-2.5-0.3-5.1,0.4-6.8,2c-1.9,1.2-4,2-6.3,2.5
		c-3.9,0.9-8.1-0.9-9.2-4.1c-0.1-0.2-0.1-0.4-0.2-0.6c-0.3-1.2-0.3-2.4,0.2-3.5c0,0,1.3-3.5,2.6-6.7c1-2.6,1.6-4.9,1.6-4.9
		S185.6,228.5,105.5,194.4z"/>
	
		<radialGradient id="fullLogo-15_1_" cx="7134.6328" cy="-20886.4688" r="30.1399" gradientTransform="matrix(-0.429 0.9443 1.1425 0.3545 27158.6582 881.0071)" gradientUnits="userSpaceOnUse">
		<stop  offset="4.500000e-03" style="stop-color:#FFFFFF"/>
		<stop  offset="0.117" style="stop-color:#FFFFFF;stop-opacity:0.7909"/>
		<stop  offset="0.2441" style="stop-color:#FFFFFF;stop-opacity:0.5835"/>
		<stop  offset="0.373" style="stop-color:#FFFFFF;stop-opacity:0.4047"/>
		<stop  offset="0.5011" style="stop-color:#FFFFFF;stop-opacity:0.2587"/>
		<stop  offset="0.6284" style="stop-color:#FFFFFF;stop-opacity:0.1454"/>
		<stop  offset="0.7545" style="stop-color:#FFFFFF;stop-opacity:6.460000e-02"/>
		<stop  offset="0.879" style="stop-color:#FFFFFF;stop-opacity:1.620000e-02"/>
		<stop  offset="1" style="stop-color:#FFFFFF;stop-opacity:0"/>
	</radialGradient>
	<path id="fullLogo-15_2_" class="st11" d="M206.8,201.6c-2.3,1.7-4.3,3.6-6.2,5.6c-0.9,0.9-1.1,2.1-0.5,3.2
		c0.1,0.1,0.1,0.2,0.2,0.3c1.1,1.6,3,1.1,4.6,1.4c0.4,0.1,0.7,0.2,1,0.3c4,1.4,6.3,4.9,5.4,8.4c0,0.2-0.1,0.4-0.2,0.6
		c-0.4,0.6-0.8,1.2-1.3,1.7c3.9,0.2,7.5-1.7,9-4.6c0.1-0.2,0.2-0.4,0.2-0.6c0.9-3.5-1.4-7-5.4-8.4c-0.3-0.2-0.7-0.3-1-0.3
		c-1.6-0.3-3.4,0.1-4.6-1.4c-0.1-0.1-0.1-0.2-0.2-0.3c-0.6-1.1-0.4-2.3,0.5-3.2c1.8-2,3.9-3.9,6.2-5.6c0.3-0.2,0.5-0.4,0.8-0.5
		C212,198.6,209.1,199.8,206.8,201.6z"/>
	
		<radialGradient id="fullLogo-16_1_" cx="206.7825" cy="62.0366" r="6.635" gradientTransform="matrix(1.2398 0 0 -1.0086 -13.0646 253.0836)" gradientUnits="userSpaceOnUse">
		<stop  offset="4.500000e-03" style="stop-color:#FFFFFF"/>
		<stop  offset="0.117" style="stop-color:#FFFFFF;stop-opacity:0.7909"/>
		<stop  offset="0.2441" style="stop-color:#FFFFFF;stop-opacity:0.5835"/>
		<stop  offset="0.373" style="stop-color:#FFFFFF;stop-opacity:0.4047"/>
		<stop  offset="0.5011" style="stop-color:#FFFFFF;stop-opacity:0.2587"/>
		<stop  offset="0.6284" style="stop-color:#FFFFFF;stop-opacity:0.1454"/>
		<stop  offset="0.7545" style="stop-color:#FFFFFF;stop-opacity:6.460000e-02"/>
		<stop  offset="0.879" style="stop-color:#FFFFFF;stop-opacity:1.620000e-02"/>
		<stop  offset="1" style="stop-color:#FFFFFF;stop-opacity:0"/>
	</radialGradient>
	<path id="fullLogo-16_2_" class="st12" d="M238.1,184.8c-0.5,0.3-1,0.6-1.5,0.8c0.2,0,0.4,0,0.7,0.1c3,0.6,5.1,2.9,5.1,5.4
		c-0.3,3-2.4,5.7-5.7,7.1c1.4-0.2,2.8-0.6,4-1.2c4.6-1.8,9.2-4.5,9.3-8.8c0-2.5-2-4.8-5.1-5.4C242.4,182.5,239.9,183.3,238.1,184.8z
		"/>
	
		<radialGradient id="fullLogo-17_1_" cx="190.1864" cy="73.5627" r="9.2869" gradientTransform="matrix(1.2398 0 0 -1.0086 -13.0646 253.0836)" gradientUnits="userSpaceOnUse">
		<stop  offset="4.500000e-03" style="stop-color:#FFFFFF"/>
		<stop  offset="0.117" style="stop-color:#FFFFFF;stop-opacity:0.7909"/>
		<stop  offset="0.2441" style="stop-color:#FFFFFF;stop-opacity:0.5835"/>
		<stop  offset="0.373" style="stop-color:#FFFFFF;stop-opacity:0.4047"/>
		<stop  offset="0.5011" style="stop-color:#FFFFFF;stop-opacity:0.2587"/>
		<stop  offset="0.6284" style="stop-color:#FFFFFF;stop-opacity:0.1454"/>
		<stop  offset="0.7545" style="stop-color:#FFFFFF;stop-opacity:6.460000e-02"/>
		<stop  offset="0.879" style="stop-color:#FFFFFF;stop-opacity:1.620000e-02"/>
		<stop  offset="1" style="stop-color:#FFFFFF;stop-opacity:0"/>
	</radialGradient>
	<path id="fullLogo-17_2_" class="st13" d="M215,181.9c-0.5,1.1-0.5,2.4-0.2,3.5c0.7,3.3,4.6,5.5,8.7,4.8c0.2,0,0.5-0.1,0.7-0.1
		c2.3-0.5,4.4-1.3,6.3-2.5l0.4-0.2c-3.9,0.4-7.6-1.7-8.4-4.9c-0.3-1.2-0.3-2.4,0.2-3.5c0,0,1.3-3.5,2.6-6.7c1-2.6,1.6-4.9,1.6-4.9
		c-3.1,4.3-6.8,8.4-10.9,12.1C215.4,180.9,215,181.9,215,181.9z"/>
	
		<radialGradient id="fullLogo-18_1_" cx="-1298.3141" cy="71.2172" r="68.4096" fx="-1338.5115" fy="118.4183" gradientTransform="matrix(1.0489 0 0 -1.0086 1558.4304 253.0836)" gradientUnits="userSpaceOnUse">
		<stop  offset="0" style="stop-color:#FFFFFF"/>
		<stop  offset="0.5" style="stop-color:#28B1E6"/>
		<stop  offset="1" style="stop-color:#3E4398"/>
	</radialGradient>
	<path id="fullLogo-18_2_" class="st14" d="M226.8,167.4c0.9-2.4,1.1-4.9,0.7-7.4c-0.4-1.8-1.5-3.5-3-4.8c-1.5-1.5-3.7-2.4-6.1-2.6
		c-1.6,0.1-3.2,0.1-4.8-0.1c-0.5-0.1-0.9-0.3-1.4-0.5c-0.5,11.4-4.8,22.5-12.4,32.1c-1.9,2.8-4.1,5.5-6.5,8.1
		c-0.5,0.6-1.1,1.1-1.7,1.7l0,0c0,0-1.6,1.7-4,3.9C203.8,190.7,217.3,180.2,226.8,167.4z"/>
	
		<linearGradient id="fullLogo-19_1_" gradientUnits="userSpaceOnUse" x1="187.5981" y1="75.6105" x2="227.7055" y2="75.6105" gradientTransform="matrix(1 0 0 -1 0 252)">
		<stop  offset="0" style="stop-color:#23B1E6"/>
		<stop  offset="0.9993" style="stop-color:#23B1E6;stop-opacity:0"/>
	</linearGradient>
	<path id="fullLogo-19_2_" class="st15" d="M187.6,197.8c16.2-7.1,29.7-17.6,39.2-30.4c0.9-2.4,1.1-4.9,0.7-7.4
		c-0.4-1.8-1.5-3.5-3-4.8c-0.1-0.1-0.2-0.1-0.2-0.2C216,171.2,203.5,185.9,187.6,197.8z"/>
	
		<linearGradient id="fullLogo-20_1_" gradientUnits="userSpaceOnUse" x1="7065.8003" y1="-20758.502" x2="7065.2217" y2="-20758.502" gradientTransform="matrix(-0.3515 0.9362 0.9362 0.3515 22095.7109 874.5658)">
		<stop  offset="7.600000e-03" style="stop-color:#3A7093"/>
		<stop  offset="0.3865" style="stop-color:#5CBE87"/>
		<stop  offset="1" style="stop-color:#47C2DA"/>
	</linearGradient>
	<path id="fullLogo-20_2_" class="st16" d="M178.4,192.7c-0.1,0.2-0.2,0.3-0.2,0.5c0,0,0-0.1,0-0.1
		C178.2,192.9,178.3,192.8,178.4,192.7z"/>
	
		<radialGradient id="fullLogo-21_1_" cx="110.2482" cy="49.8698" r="11.8836" gradientTransform="matrix(1.2398 0 0 -1.0086 -13.0646 253.0836)" gradientUnits="userSpaceOnUse">
		<stop  offset="4.500000e-03" style="stop-color:#FFFFFF"/>
		<stop  offset="0.117" style="stop-color:#FFFFFF;stop-opacity:0.7909"/>
		<stop  offset="0.2441" style="stop-color:#FFFFFF;stop-opacity:0.5835"/>
		<stop  offset="0.373" style="stop-color:#FFFFFF;stop-opacity:0.4047"/>
		<stop  offset="0.5011" style="stop-color:#FFFFFF;stop-opacity:0.2587"/>
		<stop  offset="0.6284" style="stop-color:#FFFFFF;stop-opacity:0.1454"/>
		<stop  offset="0.7545" style="stop-color:#FFFFFF;stop-opacity:6.460000e-02"/>
		<stop  offset="0.879" style="stop-color:#FFFFFF;stop-opacity:1.620000e-02"/>
		<stop  offset="1" style="stop-color:#FFFFFF;stop-opacity:0"/>
	</radialGradient>
	<path id="fullLogo-21_2_" class="st17" d="M108.1,195.4c-0.9-0.3-1.7-0.7-2.6-1.1c11,7,23.2,12.7,36.2,16.8
		C129.7,207.2,118.4,201.9,108.1,195.4z"/>
	
		<radialGradient id="fullLogo-22_1_" cx="150.6322" cy="66.1779" r="33.074" gradientTransform="matrix(1.2398 0 0 -1.0086 -13.0646 253.0836)" gradientUnits="userSpaceOnUse">
		<stop  offset="4.500000e-03" style="stop-color:#FFFFFF"/>
		<stop  offset="0.117" style="stop-color:#FFFFFF;stop-opacity:0.7909"/>
		<stop  offset="0.2441" style="stop-color:#FFFFFF;stop-opacity:0.5835"/>
		<stop  offset="0.373" style="stop-color:#FFFFFF;stop-opacity:0.4047"/>
		<stop  offset="0.5011" style="stop-color:#FFFFFF;stop-opacity:0.2587"/>
		<stop  offset="0.6284" style="stop-color:#FFFFFF;stop-opacity:0.1454"/>
		<stop  offset="0.7545" style="stop-color:#FFFFFF;stop-opacity:6.460000e-02"/>
		<stop  offset="0.879" style="stop-color:#FFFFFF;stop-opacity:1.620000e-02"/>
		<stop  offset="1" style="stop-color:#FFFFFF;stop-opacity:0"/>
	</radialGradient>
	<path id="fullLogo-22_2_" class="st18" d="M225.4,172c0.9-2.5,1.5-4.6,1.5-4.6s-36,53.5-106.2,32.5
		C179.8,218.5,215.1,184.2,225.4,172z"/>
	<path id="fullLogo-23_2_" class="st2" d="M145.5,237.8c-31.6-3.9-60-18.1-78.7-39.2c-15.3-18.2-20.4-41-17.2-62.8l0,0
		c0.5-4.7,1.9-9.3,4.4-13.6l0,0c1.6-2.8,3.7-5.3,6.4-7.5c-13.4,2.2-18.1,18.2-20.5,27.7c-5,18.2-2.2,37.2,7.9,54
		c17.7,29.8,62.7,52,103.1,42C149.1,238.2,147.3,238,145.5,237.8z"/>
	
		<radialGradient id="fullLogo-24_1_" cx="-1316.1893" cy="58.4066" r="94.1142" gradientTransform="matrix(1.0489 0 0 -1.0086 1558.4304 253.0836)" gradientUnits="userSpaceOnUse">
		<stop  offset="0" style="stop-color:#FFFFFF"/>
		<stop  offset="0.3782" style="stop-color:#28B1E6"/>
		<stop  offset="1" style="stop-color:#3E4398"/>
	</radialGradient>
	<path id="fullLogo-24_2_" class="st19" d="M192.3,217.9l1.1-0.6c0.6,0,1.1,0,1.7,0c0.6,0.1,1.2,0.3,1.9,0.5
		c0.6,0.2,1.2,0.4,1.9,0.6c-1.7,1.9-3.5,3.9-3.5,3.9c-0.6,0.7-1,1.5-1.1,2.3c-0.3,2.3,2.5,4,5.8,4.6c1.1,0.3,2.3,0.4,3.5,0.3
		c0.2,0,0.5,0,0.7,0c2.8,0.1,5,2,4.9,4.3c-0.1,1.9-1.7,3.5-4,3.9c0,0,0,0-0.1,0c-0.3,0-0.6,0.1-0.9,0.1H204c-0.9,0-1.8,0-2.7,0
		c-1.6,0-3.2-0.4-4.5-1.1c-1-1-1.9-2-2.6-3.1c-2.6-2.6-6.7-0.8-10,0.3c-2,0.7-3.9,1.6-5.7,2.6c-0.9,0.4-1.3,1.2-1.3,2
		c0,0.1,0,0.2,0,0.2c0.3,1.3,1.7,1.3,2.7,1.8c0.2,0.1,0.4,0.3,0.6,0.4c2.6,1.8,2.8,5,0.6,7.1c-0.9,0.9-2.2,1.5-3.6,1.7
		c-1.6,0.2-3.3-0.1-4.6-1c-0.6-0.3-1-0.7-1.4-1.2v0c-0.1-0.1-0.1-0.2-0.2-0.3c-1.1-1.5-2.6-2.9-4.2-4c-0.6-0.4-1.1-0.7-1.8-1
		c-1.2-0.6-2.5-1-3.9-1.2c-0.3,0-0.6-0.1-0.9-0.2c-3-0.9-6-1.8-8.9-2.9c-0.3,0.1-0.6,0.2-0.9,0.2c-1.8-0.1-3.5-0.3-5.3-0.5
		c-28.5-3.6-54.5-15.5-73.2-33.3c-13.6-13.5-21.6-30.1-23.1-47.5h0C50.7,157.8,77.1,243.6,192.3,217.9z"/>
	<path id="fullLogo-25_2_" class="st20" d="M58.5,115.1c-11.4,3.1-15.8,16.7-18.3,25.8C44,131.4,50.2,122.6,58.5,115.1z"/>
	
		<radialGradient id="fullLogo-26_1_" cx="16226.8799" cy="3400.9866" r="476.8863" gradientTransform="matrix(-0.6549 0 0 -0.7066 10860.7393 2404.8831)" gradientUnits="userSpaceOnUse">
		<stop  offset="0" style="stop-color:#FFFFFF"/>
		<stop  offset="0.5" style="stop-color:#28B1E6"/>
		<stop  offset="1" style="stop-color:#3E4398"/>
	</radialGradient>
	<path id="fullLogo-26_2_" class="st21" d="M68.7,198.8c4.6-2.9,2.8-5.1-0.3-6c-3.4-1-5.9-2.9-4.7-5.4c0.9,1.1,2,2.1,3.3,3
		c3.5,2.5,6.1,3.4,8.1,7.5c1.7,3.7,3.8,7.3,6.4,10.6c-0.5,0.2-1.1,0.4-1.6,0.6c-3.8,0.7-7.7,1.1-11.6,1.1
		c-14.6-0.2-28.6-4.9-39.1-13.2C40.9,204.6,59,204.9,68.7,198.8z"/>
	
		<linearGradient id="fullLogo-27_1_" gradientUnits="userSpaceOnUse" x1="11326.3135" y1="50.8571" x2="11415.0273" y2="50.8571" gradientTransform="matrix(-1 0 0 -1 11446.3906 252)">
		<stop  offset="0" style="stop-color:#3E4398"/>
		<stop  offset="1" style="stop-color:#3E4398;stop-opacity:0"/>
	</linearGradient>
	<path id="fullLogo-27_2_" class="st22" d="M68.7,198.8c0.5-0.3,1-0.7,1.5-1.1c1.8,1.3,2,3.3-1.8,5.2c-10.1,5-28.2,2.1-38.8-5.7
		c-0.1-0.1-0.2-0.2-0.4-0.3C40.9,204.6,59,204.9,68.7,198.8z"/>
	
		<radialGradient id="fullLogo-28_1_" cx="16424.3398" cy="3557.427" r="439.3396" gradientTransform="matrix(-0.6549 0 0 -0.7066 10860.7393 2404.8831)" gradientUnits="userSpaceOnUse">
		<stop  offset="0.4711" style="stop-color:#FFFFFF"/>
		<stop  offset="0.6967" style="stop-color:#28B1E6"/>
		<stop  offset="1" style="stop-color:#216FB6"/>
	</radialGradient>
	<path id="fullLogo-28_2_" class="st23" d="M28.8,63.6c3.9-17.8,5.7-24.9-3.1-45.7c-9-21.4,19.1-23.7,26.6,1
		c2.5,8.3,0,18.8-1.4,27.2c-2.1,12.2,6.7,13.3,12.4,6.6c3-3.6,6.3-4.5,8.2-1.6c7.5,11.3-24.3,40.7-31,51.5
		c-12.4,19.9-16.5,43.8-1,55.1c-2.4,1.3-5.5,1.5-8,0.3c-9-3.7-16.4-17.2-15.5-35.7C17.1,104.7,29.2,79,28.8,63.6z"/>
	
		<linearGradient id="fullLogo-29_1_" gradientUnits="userSpaceOnUse" x1="11418.5059" y1="214.1076" x2="11418.5059" y2="121.0844" gradientTransform="matrix(-1 0 0 -1 11446.3906 252)">
		<stop  offset="0" style="stop-color:#3E4398"/>
		<stop  offset="1" style="stop-color:#3E4398;stop-opacity:0"/>
	</linearGradient>
	<path id="fullLogo-29_2_" class="st24" d="M28.8,63.6c1.6,15.3-8.5,42-8,59.5c0.6,20.1,4.6,28.7,18.8,34.5c-2.4,1.3-5.5,1.5-8,0.3
		c-9-3.7-16.4-17.2-15.5-35.7C17.1,104.7,29.2,79,28.8,63.6z"/>
	
		<linearGradient id="fullLogo-30_1_" gradientUnits="userSpaceOnUse" x1="11413.1514" y1="190.3144" x2="11388.5498" y2="190.3144" gradientTransform="matrix(-1 0 0 -1 11446.3906 252)">
		<stop  offset="0" style="stop-color:#3E4398"/>
		<stop  offset="1" style="stop-color:#3E4398;stop-opacity:0"/>
	</linearGradient>
	<path id="fullLogo-30_2_" class="st25" d="M63.4,52.6c3-3.6,6.3-4.5,8.2-1.6c3,4.5-0.2,11.8-5.6,19.6C51.8,84.4,44,77.1,51,46
		C48.8,58.2,57.7,59.4,63.4,52.6z"/>
	
		<radialGradient id="fullLogo-31_1_" cx="16345.6436" cy="3104.7981" r="419.2104" gradientTransform="matrix(-0.6549 0 0 -0.7066 10860.7393 2404.8831)" gradientUnits="userSpaceOnUse">
		<stop  offset="0" style="stop-color:#FFFFFF"/>
		<stop  offset="0.5" style="stop-color:#28B1E6"/>
		<stop  offset="1" style="stop-color:#3E4398"/>
	</radialGradient>
	<path id="fullLogo-31_2_" class="st26" d="M28.8,63.6c0.4,15.4-11.7,41.1-12.6,58.6c-1,18.5,6.5,32,15.5,35.7
		c2.5,1.2,5.6,1.1,8-0.3c0.8-0.4,1.6-1,2.2-1.6c0.6,3,1.5,5.9,2.6,8.7l0,0.1c-1.5,2.5-0.2,5.5,2.8,6.7c0.3,0.1,0.5,0.2,0.8,0.3
		c0.6,0.9,1.2,1.8,1.9,2.6c2.7,3.3,6.4,5.9,10.8,7.5c0.6,2,1.6,3.8,3.1,5.5c-1.2,2.5,1.3,4.4,4.7,5.4c3.1,0.9,4.8,3.2,0.3,6
		c-9.7,6.1-27.9,5.8-39.5-1.9C11.6,183.6,0,161.4,0,136.4C0,98.6,23.5,88.1,28.8,63.6z"/>
	
		<radialGradient id="fullLogo-32_1_" cx="16515.9141" cy="3237.8691" r="120.2511" gradientTransform="matrix(-0.6549 0 0 -0.7066 10860.7393 2404.8831)" gradientUnits="userSpaceOnUse">
		<stop  offset="0" style="stop-color:#FFFFFF"/>
		<stop  offset="0.5" style="stop-color:#28B1E6"/>
		<stop  offset="1" style="stop-color:#3E4398"/>
	</radialGradient>
	<path id="fullLogo-32_2_" class="st27" d="M28.8,63.6c0.4,15.4-11.7,41.1-12.6,58.6c-1,18.5,6.5,32,15.5,35.7
		c-9.5-2.2-18.1-17.6-17.2-36.1C15.4,104.3,28.4,78.2,28.8,63.6z"/>
	
		<linearGradient id="fullLogo-33_1_" gradientUnits="userSpaceOnUse" x1="11401.6162" y1="81.6838" x2="11386.7949" y2="57.2753" gradientTransform="matrix(-1 0 0 -1 11446.3906 252)">
		<stop  offset="0" style="stop-color:#3E4398"/>
		<stop  offset="1" style="stop-color:#3E4398;stop-opacity:0"/>
	</linearGradient>
	<path id="fullLogo-33_2_" class="st28" d="M62.9,186.2c0.3,0.4,0.6,0.8,0.9,1.2c-1.2,2.5,1.3,4.4,4.7,5.4c3.1,0.9,4.8,3.2,0.3,6
		C48.6,205.2,42,197.2,62.9,186.2z"/>
	
		<linearGradient id="fullLogo-34_1_" gradientUnits="userSpaceOnUse" x1="11346.9307" y1="76.1513" x2="11397.3311" y2="76.1513" gradientTransform="matrix(-1 0 0 -1 11446.3906 252)">
		<stop  offset="0" style="stop-color:#3E4398"/>
		<stop  offset="1" style="stop-color:#3E4398;stop-opacity:0"/>
	</linearGradient>
	<path id="fullLogo-34_2_" class="st29" d="M48.1,171.8c0.6,0.9,1.2,1.8,1.9,2.6c2,2.5,4.6,4.5,7.7,6.1c-8.7,15.2-22,0.1-13.2-15.7
		c-1.5,2.5-0.2,5.5,2.8,6.7C47.5,171.6,47.8,171.7,48.1,171.8z"/>
	
		<linearGradient id="fullLogo-35_1_" gradientUnits="userSpaceOnUse" x1="11491.8711" y1="121.7463" x2="11428.458" y2="121.7463" gradientTransform="matrix(-1 0 0 -1 11446.3906 252)">
		<stop  offset="0" style="stop-color:#FFFFFF"/>
		<stop  offset="1" style="stop-color:#FFFFFF;stop-opacity:0"/>
	</linearGradient>
	<path id="fullLogo-35_2_" class="st30" d="M15.1,97.7C1,130.8,6.2,167.3,29.3,196.9C11.6,183.6,0,161.4,0,136.4
		c0-37.8,23.5-48.3,28.8-72.8C27.3,74.6,20.5,85.4,15.1,97.7z"/>
	
		<radialGradient id="fullLogo-36_1_" cx="-283.7559" cy="317.3132" r="143.1542" gradientTransform="matrix(1.1819 0 0 -0.9615 337.1743 588.5469)" gradientUnits="userSpaceOnUse">
		<stop  offset="0" style="stop-color:#FFFFFF"/>
		<stop  offset="0.5" style="stop-color:#28B1E6"/>
		<stop  offset="1" style="stop-color:#3E4398"/>
	</radialGradient>
	<path id="fullLogo-36_2_" class="st31" d="M14.6,136.6c0,0-7.6,53.5,14.3,73.1c17.2,15.4,28.9,2.9,12.6-12.2
		C25.2,182.3,14.6,136.6,14.6,136.6z"/>
	
		<linearGradient id="fullLogo-37_1_" gradientUnits="userSpaceOnUse" x1="46.1247" y1="69.8299" x2="46.1247" y2="161.2838" gradientTransform="matrix(1 0 0 -1 0 252)">
		<stop  offset="0" style="stop-color:#00B19D"/>
		<stop  offset="0.5085" style="stop-color:#00807F"/>
		<stop  offset="1" style="stop-color:#00B19D"/>
	</linearGradient>
	<path id="fullLogo-37_2_" class="st32" d="M47.1,90.8L75.2,147c0.5,1,0.3,2-0.3,2.9l-38.3,30.8c-0.5,0.4-16.4,1.1-16.6,0.1
		c-6.7-30.8-2.6-67.3,10.4-90.6C30.8,89.5,46.7,90,47.1,90.8z"/>
	
		<linearGradient id="fullLogo-38_1_" gradientUnits="userSpaceOnUse" x1="37.334" y1="59.2451" x2="83.265" y2="59.2451" gradientTransform="matrix(1 0 0 -1 0 252)">
		<stop  offset="0" style="stop-color:#4C96CC"/>
		<stop  offset="0.5029" style="stop-color:#046689"/>
		<stop  offset="0.9987" style="stop-color:#4C96CC"/>
	</linearGradient>
	<path id="fullLogo-38_2_" class="st33" d="M46.6,226.2c-8.2-8.1-5-24.8-9.2-39.8c-0.3-0.8-0.1-1.7,0.5-2.5L60.4,153
		c0.6-0.5,17.3,0.2,17.4,1.4l5.5,75.2c0.1,1-0.3,2-0.9,2.1C73.4,233,54.5,234,46.6,226.2z"/>
	
		<linearGradient id="fullLogo-39_1_" gradientUnits="userSpaceOnUse" x1="88.4001" y1="22.0356" x2="88.4001" y2="97.0251" gradientTransform="matrix(1 0 0 -1 0 252)">
		<stop  offset="0.5044" style="stop-color:#3B454E"/>
		<stop  offset="0.9993" style="stop-color:#2F4972"/>
	</linearGradient>
	<path id="fullLogo-39_2_" class="st34" d="M102.9,188.4l8.9,13.8c0.4,0.8,0.5,1.8,0.1,2.6c-3.4,7-8.4,13.4-14.7,18.8
		c-3,2.5-6.6,4.5-10.5,5.9c-0.6,0.2-16.3,1-16.3,0L64.6,156c-0.1-1.7,16.6-1.1,17.3-0.1L102.9,188.4z"/>
	
		<linearGradient id="fullLogo-40_1_" gradientUnits="userSpaceOnUse" x1="49.5973" y1="147.7631" x2="80.9813" y2="147.7631" gradientTransform="matrix(1 0 0 -1 0 252)">
		<stop  offset="0" style="stop-color:#699E42"/>
		<stop  offset="0.4989" style="stop-color:#518944"/>
		<stop  offset="0.9997" style="stop-color:#699E42"/>
	</linearGradient>
	<path id="fullLogo-40_2_" class="st35" d="M49.9,87.9c-0.4-0.9-0.3-1.8,0.1-2.6c3.2-4.7-1.4-12.4,2.4-15.4c6.2-5,20.9-3.6,27.6-3.3
		c0.6,0,1,0.9,1,2l-2.7,71.7c-0.1,1.6-16.7,2.8-17.3,1.6L49.9,87.9z"/>
	
		<linearGradient id="fullLogo-41_1_" gradientUnits="userSpaceOnUse" x1="46.3799" y1="133.8371" x2="114.6242" y2="167.6464" gradientTransform="matrix(1 0 0 -1 0 252)">
		<stop  offset="0.5075" style="stop-color:#76A247"/>
		<stop  offset="1" style="stop-color:#95C64F"/>
	</linearGradient>
	<path id="fullLogo-41_2_" class="st36" d="M112.6,92.7l-29.4,47.9c-0.7,1.1-17.1,1.9-17,0.3l3.2-74.8c0-1,15.4-0.1,16,0
		c10.4,2.2,20,10.6,27.4,24C113.1,91,113,91.9,112.6,92.7z"/>
	
		<linearGradient id="fullLogo-42_1_" gradientUnits="userSpaceOnUse" x1="94.8794" y1="95.056" x2="102.8691" y2="155.711" gradientTransform="matrix(1 0 0 -1 0 252)">
		<stop  offset="0.2985" style="stop-color:#B7C54C"/>
		<stop  offset="0.9997" style="stop-color:#CFDF75"/>
	</linearGradient>
	<path id="fullLogo-42_2_" class="st37" d="M124.3,133.4c0.1,1-0.3,2-0.8,2.2l-5.8,1.8l-31.2,9.5c-1,0.3-17.4,0.9-16.6-0.3
		l28.5-48.6c0.4-0.7,16.3-0.2,16.6,0.6c2.7,6.1,4.9,12.4,6.4,18.8C122.7,122.5,123.6,127.9,124.3,133.4z"/>
	
		<linearGradient id="fullLogo-43_1_" gradientUnits="userSpaceOnUse" x1="80.8823" y1="78.2708" x2="122.3551" y2="83.3109" gradientTransform="matrix(1 0 0 -1 0 252)">
		<stop  offset="0" style="stop-color:#E0E895"/>
		<stop  offset="3.820000e-02" style="stop-color:#DFE58F"/>
		<stop  offset="0.2577" style="stop-color:#D5D575"/>
		<stop  offset="0.4509" style="stop-color:#CDCB62"/>
		<stop  offset="0.5959" style="stop-color:#CBC65E"/>
		<stop  offset="0.6983" style="stop-color:#CECC65"/>
		<stop  offset="0.8599" style="stop-color:#D7D97D"/>
		<stop  offset="0.9997" style="stop-color:#E0E895"/>
	</linearGradient>
	<path id="fullLogo-43_2_" class="st38" d="M97.9,201.9l-15.3-47.8c-0.7-1-0.4-2.9,0.5-3.2l24-12.2c0.6-0.2,16.9,0.6,17,1.6
		c1.7,20.6-1.5,41.3-9.4,60.9C114.3,202,98.3,202.6,97.9,201.9z"/>
	<path id="fullLogo-44_2_" class="st39" d="M97.2,201.5l-30.6-47.4c-0.7-1-0.4-2.9,0.5-3.2l39.8-12.1l0,0c0.6-0.2,1.1,0.5,1.2,1.6
		c1.7,20.6-1.5,41.3-9.4,60.9C98.3,202,97.7,202.1,97.2,201.5z"/>
	<path id="fullLogo-45_2_" class="st40" d="M86.9,188.4l8.9,13.8c0.4,0.8,0.5,1.8,0.1,2.6c-3.4,7-8.4,13.4-14.7,18.8
		c-3,2.5-6.6,4.5-10.5,5.9c-0.6,0.2-1.1-0.5-1.2-1.6l-5.2-70.3c-0.1-1.7,1-2.7,1.7-1.6L86.9,188.4z"/>
	<path id="fullLogo-46_2_" class="st41" d="M40.4,221.7c-8.2-8.1-14.7-20.3-18.9-35.3c-0.3-0.8-0.1-1.7,0.5-2.5L60.4,153
		c0.6-0.5,1.3,0.2,1.4,1.4l5.5,75.2c0.1,1-0.3,2-0.9,2.1C57.4,233,48.3,229.6,40.4,221.7z"/>
	<path id="fullLogo-47_2_" class="st42" d="M31.2,90.8L59.2,147c0.5,1,0.3,2-0.3,2.9l-38.3,30.8c-0.5,0.4-1.1,0-1.4-1
		c-6.7-30.8-2.6-65.7,10.4-89C30.1,90,30.8,90,31.2,90.8z"/>
	<path id="fullLogo-48_2_" class="st43" d="M33.9,87.9c-0.4-0.9-0.3-1.8,0.1-2.6c2.8-4.2,6.3-8.1,10.4-11.6c5-4.5,12.1-7.2,19.6-7.2
		c0.6,0,1,0.9,1,2l-2.7,71.7c-0.1,1.6-1.2,2.3-1.8,1.1L33.9,87.9z"/>
	<path id="fullLogo-49_2_" class="st44" d="M96.6,92.7l-29.4,47.9c-0.7,1.1-1.7,0.2-1.7-1.5l2.7-71.3c0-1,0.5-1.8,1.1-1.7
		c10.4,2.2,20,10.6,27.4,24C97.1,91,97.1,91.9,96.6,92.7z"/>
	<path id="fullLogo-50_2_" class="st45" d="M108.3,133.4c0.1,1-0.3,2-0.8,2.2l-5.8,1.8l-31.2,9.5c-1,0.3-1.6-1.9-0.8-3.2l27.9-45.4
		c0.4-0.7,1.1-0.6,1.5,0.2c2.7,6.1,4.9,12.4,6.4,18.8C106.7,122.5,107.7,127.9,108.3,133.4z"/>
	
		<radialGradient id="fullLogo-51_1_" cx="-4087.9316" cy="-1703.8049" r="346.8791" gradientTransform="matrix(0.9167 0.2243 0.2199 -0.935 4071.0674 -379.0116)" gradientUnits="userSpaceOnUse">
		<stop  offset="0" style="stop-color:#FFFFFF"/>
		<stop  offset="0.5" style="stop-color:#28B1E6"/>
		<stop  offset="1" style="stop-color:#3E4398"/>
	</radialGradient>
	<path id="fullLogo-51_2_" class="st46" d="M143.3,179.6c-3.3-0.3-7.8,1.9-11.8,8.2c-3,5.5-6.4,10.8-10.3,16
		c-5.2,6-12.2,7.3-13.3-3.4c-0.6-5.1-6.1-9.9-14.5,1c-3.7,4.9-8.5,9.2-14.2,12.6c-26.5,15.7-58.9-0.1-61-33.6
		c-3.6,27.7,8.1,57.5,29.7,65.9c35.2,9.2,66.4-17.7,94.3-38.2c-15.2,5.2-2.1-11.7,1.6-15C151.1,186.8,148.6,180,143.3,179.6z"/>
	
		<radialGradient id="fullLogo-52_1_" cx="-3867.1792" cy="-1462.8584" r="143.6645" gradientTransform="matrix(0.9167 0.2243 0.2199 -0.935 4071.0674 -379.0116)" gradientUnits="userSpaceOnUse">
		<stop  offset="0" style="stop-color:#FFFFFF"/>
		<stop  offset="0.5" style="stop-color:#28B1E6"/>
		<stop  offset="1" style="stop-color:#3E4398"/>
	</radialGradient>
	<path id="fullLogo-52_2_" class="st47" d="M158.6,169.5c-1.9-1.7-5.4-0.9-7.9,1.8c-2.5,2.7-3,6.4-1.1,8.1c1.9,1.7,5.4,0.9,7.9-1.8
		C159.9,174.9,160.4,171.2,158.6,169.5z"/>
	
		<linearGradient id="fullLogo-53_1_" gradientUnits="userSpaceOnUse" x1="-1430.5956" y1="-1355.8601" x2="-1467.1415" y2="-1336.072" gradientTransform="matrix(0.9724 0.2333 0.2333 -0.9724 1835.741 -754.3411)">
		<stop  offset="0" style="stop-color:#3E4398"/>
		<stop  offset="1" style="stop-color:#3E4398;stop-opacity:0"/>
	</linearGradient>
	<path id="fullLogo-53_2_" class="st48" d="M107.9,200.3c-0.6-5.1-6.1-9.9-14.5,1c-13,19,7.6,28.4,27.8,2.4
		C116.1,209.8,109.1,211.1,107.9,200.3z"/>
	
		<radialGradient id="fullLogo-54_1_" cx="-3813.7659" cy="-1513.1787" r="277.9412" gradientTransform="matrix(0.9167 0.2243 0.2199 -0.935 4071.0674 -379.0116)" gradientUnits="userSpaceOnUse">
		<stop  offset="0" style="stop-color:#FFFFFF"/>
		<stop  offset="0.5" style="stop-color:#28B1E6"/>
		<stop  offset="1" style="stop-color:#3E4398"/>
	</radialGradient>
	<path id="fullLogo-54_2_" class="st49" d="M164.2,193.8c-7.7,4.3-15.1,9.1-21.9,14.3c-28,20.4-59.1,47.4-94.3,38.2
		c32.4,12.7,62.6-4,90.6-1.1c15.7,1.7,23.8-7.1,13-10.6c-6.2-2-9.4-6.7-4.7-11.7c6.8-7.2,20.6-7.7,30.1-10.3
		C204.4,205.3,187.6,181.5,164.2,193.8z"/>
	
		<radialGradient id="fullLogo-55_1_" cx="-3954.4963" cy="-1603.3752" r="96.5951" gradientTransform="matrix(0.9167 0.2243 0.2199 -0.935 4071.0674 -379.0116)" gradientUnits="userSpaceOnUse">
		<stop  offset="0" style="stop-color:#FFFFFF"/>
		<stop  offset="0.5" style="stop-color:#28B1E6"/>
		<stop  offset="1" style="stop-color:#3E4398"/>
	</radialGradient>
	<path id="fullLogo-55_2_" class="st50" d="M47.9,246.2c35.2,10.9,67.7-16.1,94.3-38.2C114.3,228.5,83.1,255.5,47.9,246.2z"/>
	
		<linearGradient id="fullLogo-56_1_" gradientUnits="userSpaceOnUse" x1="-1432.689" y1="-1331.2112" x2="-1415.155" y2="-1358.127" gradientTransform="matrix(0.9724 0.2333 0.2333 -0.9724 1835.741 -754.3411)">
		<stop  offset="0" style="stop-color:#3E4398"/>
		<stop  offset="1" style="stop-color:#3E4398;stop-opacity:0"/>
	</linearGradient>
	<path id="fullLogo-56_2_" class="st51" d="M151.5,234.6c-6.2-2-9.4-6.7-4.7-11.7c1.4-1.5,3.2-2.8,5.1-3.8
		c-25.5,9.9-30.7,23-13.5,26C154.1,246.9,162.3,238.1,151.5,234.6z"/>
	
		<radialGradient id="fullLogo-79_1_" cx="11602.5283" cy="73.1602" r="214.7339" gradientTransform="matrix(-1.0651 0 0 -1.0464 12444.5693 -31.2125)" gradientUnits="userSpaceOnUse">
		<stop  offset="0.1954" style="stop-color:#DDEDF9"/>
		<stop  offset="0.2544" style="stop-color:#FFFFFF"/>
		<stop  offset="0.6904" style="stop-color:#28B1E6"/>
		<stop  offset="1" style="stop-color:#3E4398"/>
	</radialGradient>
	<path id="fullLogo-79_2_" class="st52" d="M68.1,6.8c0,0,6.5,21.7,5.1,26.6s-5.2,8.1-8.7,7.2c-3.5-0.9-4.8-6.2-1.6-10.5
		C67.7,23,69.5,14.8,68.1,6.8z"/>
</g>
<g>
</g>
<g>
</g>
<g>
</g>
<g>
</g>
<g>
</g>
<g>
</g>
<g>
</g>
<g>
</g>
<g>
</g>
<g>
</g>
<g>
</g>
<g>
</g>
<g>
</g>
<g>
</g>
<g>
</g>
</svg>
