
<svg version="1.1" id="pieFifth" xmlns="http://www.w3.org/2000/svg" xmlns:xlink="http://www.w3.org/1999/xlink" x="0px" y="0px" viewBox="0 0 855.9 281.2" style="enable-background:new 0 0 855.9 281.2;" xml:space="preserve">

  <lineargradient id="SVGID_A_" gradientUnits="userSpaceOnUse" x1="3875.3337" y1="1646.3646" x2="4018.0427" y2="1646.3646" gradientTransform="matrix(2.832769e-16 1 -1 2.832769e-16 2344.3999 -3743.2517)">
    <stop offset="0.2746" style="stop-color:#2F4972" />
    <stop offset="0.5242" style="stop-color:#30A9DC;stop-opacity:0.7614" />
    <stop offset="0.6813" style="stop-color:#65A4AB;stop-opacity:0.9937" />
    <stop offset="0.7947" style="stop-color:#6BA6AD;stop-opacity:0.987" />
    <stop offset="0.8092" style="stop-color:#6CA6AE;stop-opacity:0.9862" />
    <stop offset="0.8801" style="stop-color:#8EB8C1;stop-opacity:0.9839" />
    <stop offset="0.9939" style="stop-color:#CCD9E5;stop-opacity:0.9803" />
  </lineargradient>
  <path class="c-A" d="M739.3,265.9v-42.1c0-4.3-2.6-7.8-5.7-7.8l-54.7-0.4c-0.1,0-0.2-0.1-0.2-0.3v-77.7c0-1-21.4-15.8-21.4,1.4
c-0.2,43.7-0.4,92.4-0.4,92.4c0,7.3,4.2,13.3,9.4,13.3l45.7,0.1v21c0,4.3,2.6,7.8,5.7,7.8h15.9C736.7,273.8,739.3,270.3,739.3,265.9
z" />

  <g id="XMLID_28_">
    <g>
      <polygon class="c-283E5E" points="850.6,114.8 849.7,140 825.5,140.2 614.4,145.7 610,146 610.7,122.6 		" />
      <path class="c-2F4972" d="M603.9,94.3c-0.3-22.8,11.1-55.5,66.6-83.3l180.2,103.8l-239.9,7.8C610.7,122.6,604.1,111.1,603.9,94.3z" />
      <path class="c-20344C" d="M610.7,122.6L610,146l-1.8,0.1c-1.2-5.2-6.3-28.5-4.3-51.8C604.1,111.1,610.7,122.6,610.7,122.6z" />
    </g>
    <g>
    </g>
  </g>
  <lineargradient id="SVGID_B_" gradientUnits="userSpaceOnUse" x1="600.0402" y1="15.3699" x2="737.9784" y2="15.3699">
    <stop offset="0" style="stop-color:#1B75BB" />
    <stop offset="0.209" style="stop-color:#26A9E0" />
    <stop offset="0.6981" style="stop-color:#26A9E0;stop-opacity:0.6504" />
    <stop offset="0.8946" style="stop-color:#1E84C5;stop-opacity:0.8779" />
    <stop offset="1" style="stop-color:#1B75BB" />
  </lineargradient>
  <path class="c-B" d="M600,12.6c0,0,21.8,6.9,36.3,1.3s16.1-10.2,25.3-5.6s10.5,5.6,23.5,3.3c13.1-2.3,14.6-5.6,20.2-1.5
s32.5,2.6,32.5,2.6S698.8,27,665,23.9s-54.3-7.2-54.3-7.2L600,12.6z" />
  <g id="XMLID_27_">
    <g>
      <path class="c-283E5E" d="M738.9,12.5c0.2,0.1,0.3,0.2,0.3,0.4c0,0.2-0.1,0.3-0.3,0.4l-0.3,0.1l-52,22.2c-1,0.4-2,0.9-3,1.1
c-5,0.8-7.1,0.9-11.6,0.9c-4.2,0-10.9,0.1-13.5-0.3c-3.9-0.6-5.9-1.6-6.1-1.6c0,0,0,0,0,0l-50.3-21.7l-1.5-0.7
c-0.2-0.1-0.3-0.2-0.3-0.4C601.1,13.1,666.6,37.8,738.9,12.5z" />
      <lineargradient id="SVGID_C_" gradientUnits="userSpaceOnUse" x1="600.3026" y1="10.703" x2="738.8754" y2="10.703">
        <stop offset="0" style="stop-color:#1B75BB" />
        <stop offset="0.209" style="stop-color:#26A9E0;stop-opacity:0.65" />
        <stop offset="0.6981" style="stop-color:#26A9E0;stop-opacity:0.6504" />
        <stop offset="0.8946" style="stop-color:#1E84C5;stop-opacity:0.8779" />
        <stop offset="1" style="stop-color:#1B75BB" />
      </lineargradient>
      <path class="c-C" d="M738.9,12.5l-37.4,7.3l-26.4,1.7l-32.8-1.7l-21-2.2l-10.4-2.4l-10.6-2.4c0-0.1,0.1-0.3,0.2-0.3
C604.9,9.9,630.1-0.1,668,0C688.3,0.1,712.4,0.8,738.9,12.5z" />
      <lineargradient id="SVGID_D_" gradientUnits="userSpaceOnUse" x1="600.3026" y1="18.1706" x2="738.8754" y2="18.1706">
        <stop offset="0" style="stop-color:#1B75BB" />
        <stop offset="0.209" style="stop-color:#26A9E0;stop-opacity:0.65" />
        <stop offset="0.6981" style="stop-color:#26A9E0;stop-opacity:0.6504" />
        <stop offset="0.8946" style="stop-color:#1E84C5;stop-opacity:0.8779" />
        <stop offset="1" style="stop-color:#1B75BB" />
      </lineargradient>
      <path class="c-D" d="M701.5,19.7l37.4-7.3c-72.2,25.3-137.8,0.6-138.6,0.3l10.6,2.4l10.4,2.4l21,2.2l32.8,1.7L701.5,19.7z" />
      <lineargradient id="SVGID_E_" gradientUnits="userSpaceOnUse" x1="600.2952" y1="12.7704" x2="600.3026" y2="12.7704">
        <stop offset="0" style="stop-color:#1B75BB" />
        <stop offset="0.209" style="stop-color:#26A9E0;stop-opacity:0.65" />
        <stop offset="0.6981" style="stop-color:#26A9E0;stop-opacity:0.6504" />
        <stop offset="0.8946" style="stop-color:#1E84C5;stop-opacity:0.8779" />
        <stop offset="1" style="stop-color:#1B75BB" />
      </lineargradient>
      <path class="c-E" d="M600.3,12.8L600.3,12.8C600.3,12.8,600.3,12.8,600.3,12.8z" />
    </g>

  </g>
  <lineargradient id="SVGID_F_" gradientUnits="userSpaceOnUse" x1="620.1751" y1="16.2021" x2="716.6075" y2="16.2021">
    <stop offset="0" style="stop-color:#1B75BB;stop-opacity:0.8" />
    <stop offset="0.209" style="stop-color:#26A9E0" />
    <stop offset="0.668" style="stop-color:#26A9E0;stop-opacity:0.87" />
    <stop offset="0.6981" style="stop-color:#26A9E0;stop-opacity:0.8" />
    <stop offset="0.8946" style="stop-color:#1E84C5;stop-opacity:0.9301" />
    <stop offset="1" style="stop-color:#1B75BB" />
  </lineargradient>
  <path class="c-F" d="M620.2,18.3c0,0,24.1-9.6,30.4-7.2c6.3,2.4,8.7,4.8,16.7,0c8-4.8,16.1-2.3,21,1.2c4.9,3.5,9.4,3.5,12.2,1.4
s18.7,3.8,15.7,5.2c-1.8,0.8-22.8,5.3-43.7,5C649.3,23.6,626,20.2,620.2,18.3z" />

  <g class="title">
    <path class="c-212228" d="M635.1,54.3c-0.4-0.3-0.8-0.6-1.2-0.8s-0.8-0.2-1.2-0.2c-0.5,0-0.9,0.1-1.2,0.3c-0.3,0.2-0.5,0.5-0.5,0.9
c0,0.3,0.1,0.5,0.2,0.6c0.2,0.2,0.4,0.3,0.6,0.4c0.3,0.1,0.5,0.2,0.9,0.3c0.3,0.1,0.6,0.2,0.9,0.3c1.2,0.4,2.2,1,2.7,1.7
c0.6,0.7,0.9,1.6,0.9,2.7c0,0.8-0.1,1.4-0.4,2c-0.3,0.6-0.6,1.1-1.1,1.6c-0.5,0.4-1.1,0.8-1.8,1s-1.5,0.4-2.4,0.4
c-1.9,0-3.6-0.6-5.2-1.7l1.6-3.1c0.6,0.5,1.1,0.9,1.7,1.1c0.6,0.2,1.1,0.4,1.7,0.4c0.6,0,1.1-0.1,1.4-0.4s0.5-0.6,0.5-1
c0-0.2,0-0.4-0.1-0.6s-0.2-0.3-0.4-0.5c-0.2-0.1-0.4-0.3-0.7-0.4c-0.3-0.1-0.6-0.2-1.1-0.4c-0.5-0.2-1-0.3-1.5-0.5
c-0.5-0.2-0.9-0.4-1.3-0.8c-0.4-0.3-0.7-0.7-0.9-1.2c-0.2-0.5-0.3-1.1-0.3-1.8c0-0.7,0.1-1.4,0.4-2c0.2-0.6,0.6-1.1,1-1.5
c0.4-0.4,1-0.7,1.6-1c0.6-0.2,1.3-0.3,2.1-0.3c0.7,0,1.5,0.1,2.3,0.3c0.8,0.2,1.6,0.5,2.3,0.9L635.1,54.3z" />
    <path class="c-212228" d="M643.4,56.3l5.5,0l0-5.7l3.8,0l-0.1,14.7l-3.8,0l0-6.1l-5.5,0l0,6.1l-3.8,0l0.1-14.7l3.8,0L643.4,56.3z" />
    <path class="c-212228" d="M655.2,58c0-1.1,0.2-2.1,0.6-3.1c0.4-0.9,1-1.8,1.7-2.5c0.7-0.7,1.6-1.2,2.6-1.6c1-0.4,2.1-0.6,3.3-0.6
c1.2,0,2.3,0.2,3.3,0.6c1,0.4,1.9,1,2.6,1.7c0.7,0.7,1.3,1.5,1.7,2.5c0.4,0.9,0.6,2,0.6,3.1c0,1.1-0.2,2.1-0.6,3
c-0.4,0.9-1,1.8-1.7,2.5c-0.7,0.7-1.6,1.2-2.6,1.6c-1,0.4-2.1,0.6-3.3,0.6c-1.2,0-2.3-0.2-3.3-0.6c-1-0.4-1.8-1-2.6-1.7
c-0.7-0.7-1.3-1.5-1.7-2.5C655.4,60.1,655.2,59.1,655.2,58z M659.2,58c0,0.6,0.1,1.1,0.3,1.6c0.2,0.5,0.5,0.9,0.9,1.3
c0.4,0.4,0.8,0.7,1.3,0.9s1,0.3,1.6,0.3s1.1-0.1,1.6-0.3c0.5-0.2,0.9-0.5,1.3-0.8c0.4-0.4,0.7-0.8,0.9-1.3s0.3-1,0.3-1.6
c0-0.6-0.1-1.1-0.3-1.6c-0.2-0.5-0.5-0.9-0.9-1.3c-0.4-0.4-0.8-0.6-1.3-0.9s-1-0.3-1.6-0.3c-0.6,0-1.1,0.1-1.6,0.3
s-0.9,0.5-1.3,0.8c-0.4,0.4-0.7,0.8-0.9,1.3S659.2,57.4,659.2,58z" />
    <path class="c-212228" d="M686.1,65.5l-4.8,0l-3.6-5.7l0,5.7l-3.8,0l0.1-14.7l5.9,0c0.8,0,1.5,0.1,2.1,0.4c0.6,0.2,1.1,0.6,1.5,1
s0.7,0.9,0.9,1.4s0.3,1.1,0.3,1.8c0,1.1-0.3,2-0.8,2.7c-0.5,0.7-1.3,1.2-2.4,1.4L686.1,65.5z M677.7,57.3l0.7,0
c0.8,0,1.3-0.2,1.7-0.5s0.6-0.8,0.6-1.3s-0.2-1-0.6-1.3s-1-0.5-1.7-0.5l-0.7,0L677.7,57.3z" />
    <path class="c-212228" d="M693.3,54l0,11.5l-3.8,0l0-11.5l-3.1,0l0-3.2l10.1,0l0,3.2L693.3,54z" />
    <path class="c-212228" d="M626.9,74l5.7,0c1,0,1.9,0.2,2.8,0.6c0.9,0.4,1.6,0.9,2.3,1.6c0.7,0.7,1.2,1.5,1.5,2.3
c0.4,0.9,0.6,1.8,0.6,2.8c0,1-0.2,1.9-0.6,2.8c-0.4,0.9-0.9,1.7-1.5,2.3c-0.7,0.7-1.4,1.2-2.3,1.6c-0.9,0.4-1.8,0.6-2.8,0.6
l-5.7,0L626.9,74z M630.7,85.4l0.9,0c0.7,0,1.3-0.1,1.8-0.3c0.5-0.2,1-0.5,1.3-0.9c0.4-0.4,0.6-0.8,0.8-1.3
c0.2-0.5,0.3-1,0.3-1.6c0-0.6-0.1-1.1-0.3-1.6c-0.2-0.5-0.5-0.9-0.8-1.3s-0.8-0.7-1.3-0.9c-0.5-0.2-1.1-0.3-1.8-0.3l-0.9,0
L630.7,85.4z" />
    <path class="c-212228" d="M646.1,74l0,8c0,0.4,0,0.9,0,1.3c0,0.4,0.1,0.9,0.3,1.2c0.2,0.4,0.4,0.7,0.8,0.9c0.3,0.2,0.8,0.3,1.5,0.3
c0.6,0,1.1-0.1,1.5-0.3s0.6-0.5,0.8-0.9s0.3-0.8,0.3-1.2c0-0.4,0.1-0.9,0.1-1.3l0-8l3.8,0l0,8.5c0,2.3-0.5,4-1.6,5
c-1,1-2.7,1.6-4.8,1.6c-2.2,0-3.8-0.5-4.8-1.6c-1-1.1-1.6-2.7-1.6-5l0-8.5L646.1,74z" />
    <path class="c-212228" d="M670.3,88.8l-4.8,0l-3.6-5.7l0,5.7l-3.8,0l0.1-14.7l5.9,0c0.8,0,1.5,0.1,2.1,0.4c0.6,0.2,1.1,0.6,1.5,1
c0.4,0.4,0.7,0.9,0.9,1.4s0.3,1.1,0.3,1.8c0,1.1-0.3,2-0.8,2.7c-0.5,0.7-1.3,1.2-2.4,1.4L670.3,88.8z M661.9,80.7l0.7,0
c0.8,0,1.3-0.2,1.7-0.5c0.4-0.3,0.6-0.8,0.6-1.3s-0.2-1-0.6-1.3s-1-0.5-1.7-0.5l-0.7,0L661.9,80.7z" />
    <path class="c-212228" d="M680.9,86.3l-5.5,0l-0.9,2.6l-4.1,0l5.6-14.7l4.2,0l5.5,14.7l-4.1,0L680.9,86.3z M679.9,83.4l-1.7-4.9
l-1.7,4.9L679.9,83.4z" />
    <path class="c-212228" d="M692.5,77.4l0,11.5l-3.8,0l0-11.5l-3.1,0l0-3.2l10.1,0l0,3.2L692.5,77.4z" />
    <path class="c-212228" d="M701.2,74.2l-0.1,14.7l-3.8,0l0.1-14.7L701.2,74.2z" />
    <path class="c-212228" d="M703.6,81.6c0-1.1,0.2-2.1,0.6-3.1c0.4-0.9,1-1.8,1.7-2.5c0.7-0.7,1.6-1.2,2.6-1.6c1-0.4,2.1-0.6,3.3-0.6
c1.2,0,2.3,0.2,3.3,0.6c1,0.4,1.9,1,2.6,1.7c0.7,0.7,1.3,1.5,1.7,2.5c0.4,0.9,0.6,2,0.6,3.1c0,1.1-0.2,2.1-0.6,3s-1,1.8-1.7,2.5
c-0.7,0.7-1.6,1.2-2.6,1.6c-1,0.4-2.1,0.6-3.3,0.6c-1.2,0-2.3-0.2-3.3-0.6c-1-0.4-1.8-1-2.6-1.7c-0.7-0.7-1.3-1.5-1.7-2.5
C703.8,83.7,703.6,82.7,703.6,81.6z M707.6,81.6c0,0.6,0.1,1.1,0.3,1.6c0.2,0.5,0.5,0.9,0.9,1.3c0.4,0.4,0.8,0.6,1.3,0.9
c0.5,0.2,1,0.3,1.6,0.3c0.6,0,1.1-0.1,1.6-0.3s0.9-0.5,1.3-0.8c0.4-0.4,0.7-0.8,0.9-1.3s0.3-1,0.3-1.6s-0.1-1.1-0.3-1.6
c-0.2-0.5-0.5-0.9-0.9-1.3c-0.4-0.4-0.8-0.6-1.3-0.9s-1-0.3-1.6-0.3c-0.6,0-1.1,0.1-1.6,0.3c-0.5,0.2-0.9,0.5-1.3,0.8
c-0.4,0.4-0.7,0.8-0.9,1.3C707.7,80.5,707.6,81,707.6,81.6z" />
    <path class="c-212228" d="M722.3,89l0.1-14.7l3.8,0l7,9l0-9l3.8,0L736.9,89l-3.8,0l-7-9l0,9L722.3,89z" />
    <path class="c-212228" d="M626.8,97.4l5.7,0c1.4,0,2.4,0.3,3.1,1c0.7,0.7,1,1.6,1,2.8c0,0.7-0.1,1.4-0.4,1.8c-0.3,0.5-0.7,0.9-1.2,1.2
c0.5,0.1,1,0.3,1.4,0.5s0.7,0.5,0.9,0.8c0.2,0.3,0.4,0.7,0.5,1.1c0.1,0.4,0.2,0.8,0.2,1.2c0,0.7-0.1,1.3-0.4,1.8
c-0.2,0.5-0.6,1-1,1.3s-1,0.6-1.6,0.8s-1.3,0.3-2.1,0.3l-6.1,0L626.8,97.4z M630.6,109.1l0.8,0c1,0,1.7-0.1,2.1-0.4
c0.4-0.2,0.6-0.6,0.6-1.2s-0.2-0.9-0.6-1.2c-0.4-0.2-1.1-0.4-2.1-0.4l-0.8,0L630.6,109.1z M630.6,103.2l0.7,0
c1.2,0,1.8-0.5,1.8-1.4c0-0.9-0.6-1.4-1.8-1.4l-0.7,0L630.6,103.2z" />
    <path class="c-212228" d="M639.5,104.8c0-1.1,0.2-2.1,0.6-3.1c0.4-0.9,1-1.8,1.7-2.5c0.7-0.7,1.6-1.2,2.6-1.6c1-0.4,2.1-0.6,3.3-0.6
c1.2,0,2.3,0.2,3.3,0.6c1,0.4,1.9,1,2.6,1.7c0.7,0.7,1.3,1.5,1.7,2.5c0.4,0.9,0.6,2,0.6,3.1c0,1.1-0.2,2.1-0.6,3
c-0.4,0.9-1,1.8-1.7,2.5c-0.7,0.7-1.6,1.2-2.6,1.6c-1,0.4-2.1,0.6-3.3,0.6c-1.2,0-2.3-0.2-3.3-0.6c-1-0.4-1.8-1-2.6-1.7
c-0.7-0.7-1.3-1.5-1.7-2.5C639.7,106.9,639.5,105.9,639.5,104.8z M643.5,104.8c0,0.6,0.1,1.1,0.3,1.6c0.2,0.5,0.5,0.9,0.9,1.3
c0.4,0.4,0.8,0.7,1.3,0.9s1,0.3,1.6,0.3c0.6,0,1.1-0.1,1.6-0.3c0.5-0.2,0.9-0.5,1.3-0.8c0.4-0.4,0.7-0.8,0.9-1.3
c0.2-0.5,0.3-1,0.3-1.6c0-0.6-0.1-1.1-0.3-1.6s-0.5-0.9-0.9-1.3c-0.4-0.4-0.8-0.6-1.3-0.9s-1-0.3-1.6-0.3s-1.1,0.1-1.6,0.3
c-0.5,0.2-0.9,0.5-1.3,0.8s-0.7,0.8-0.9,1.3C643.6,103.7,643.5,104.2,643.5,104.8z" />
    <path class="c-212228" d="M658.2,112.2l0.1-14.7l3.8,0l7,9l0-9l3.8,0l-0.1,14.7l-3.8,0l-7-9l0,9L658.2,112.2z" />
    <path class="c-212228" d="M676,97.5l5.7,0c1,0,1.9,0.2,2.8,0.6c0.9,0.4,1.6,0.9,2.3,1.6c0.7,0.7,1.2,1.5,1.5,2.3
c0.4,0.9,0.6,1.8,0.6,2.8c0,1-0.2,1.9-0.6,2.8c-0.4,0.9-0.9,1.7-1.6,2.3c-0.7,0.7-1.4,1.2-2.3,1.6c-0.9,0.4-1.8,0.6-2.8,0.6
l-5.7,0L676,97.5z M679.8,109l0.9,0c0.7,0,1.3-0.1,1.8-0.3c0.5-0.2,1-0.5,1.3-0.9c0.4-0.4,0.6-0.8,0.8-1.3s0.3-1,0.3-1.6
c0-0.6-0.1-1.1-0.3-1.6s-0.5-0.9-0.8-1.3c-0.4-0.4-0.8-0.7-1.3-0.9c-0.5-0.2-1.1-0.3-1.8-0.3l-0.9,0L679.8,109z" />
  </g>

</svg>
