<?xml version="1.0" encoding="utf-8"?>
<!-- Generator: Adobe Illustrator 25.1.0, SVG Export Plug-In . SVG Version: 6.00 Build 0)  -->
<svg version="1.1" id="Layer_1" xmlns="http://www.w3.org/2000/svg" xmlns:xlink="http://www.w3.org/1999/xlink" x="0px" y="0px"
	 viewBox="0 0 40.2 62.3" style="enable-background:new 0 0 40.2 62.3;" xml:space="preserve">
<style type="text/css">
	.st0{fill:url(#SVGID_1_);}
	.st1{fill:#2B2B35;}
	.st2{fill:#E8E8E9;}
</style>
<linearGradient id="SVGID_1_" gradientUnits="userSpaceOnUse" x1="0" y1="31.1595" x2="40.2247" y2="31.1595">
	<stop  offset="0" style="stop-color:#1B75BB"/>
	<stop  offset="0.209" style="stop-color:#26A9E0;stop-opacity:0.9"/>
	<stop  offset="0.6981" style="stop-color:#26A9E0;stop-opacity:0.6504"/>
	<stop  offset="0.8946" style="stop-color:#1E84C5;stop-opacity:0.8779"/>
	<stop  offset="1" style="stop-color:#1B75BB"/>
</linearGradient>
<path class="st0" d="M39.8,48.2c-9,22.8-30.9,14.4-38.4,0.5S20.1,0,20.1,0S43.6,38.4,39.8,48.2z"/>
<circle class="st1" cx="20.9" cy="39.9" r="12"/>
<g>
	<path class="st2" d="M21.6,32.4v1.7c1,0.1,1.9,0.4,2.5,0.8l-1,2c-0.6-0.5-1.2-0.7-1.8-0.7c-0.4,0-0.6,0.1-0.9,0.2
		c-0.2,0.2-0.3,0.3-0.3,0.6c0,0.2,0.1,0.4,0.3,0.5c0.2,0.2,0.4,0.3,0.7,0.4l0.8,0.3c0.9,0.3,1.6,0.7,2,1.2c0.4,0.5,0.6,1.1,0.6,1.8
		c0,0.4-0.1,0.8-0.2,1.2c-0.1,0.3-0.3,0.7-0.5,0.9c-0.2,0.3-0.5,0.5-0.9,0.7c-0.4,0.2-0.8,0.4-1.4,0.6v1.7h-1.3v-1.7
		c-0.3,0-0.6,0-0.9-0.1s-0.6-0.2-1-0.3s-0.6-0.3-0.9-0.4c-0.3-0.2-0.5-0.3-0.7-0.5l1.1-2.1c0.9,0.8,1.7,1.2,2.6,1.2
		c0.3,0,0.6-0.1,0.9-0.3c0.3-0.2,0.4-0.4,0.4-0.7c0-0.4-0.3-0.7-0.9-0.9l-0.8-0.3c-0.5-0.1-0.9-0.3-1.2-0.5
		c-0.3-0.2-0.6-0.4-0.8-0.6c-0.2-0.2-0.4-0.5-0.5-0.8c-0.1-0.3-0.2-0.6-0.2-1c0-0.4,0.1-0.8,0.2-1.2c0.1-0.4,0.3-0.7,0.5-1
		c0.2-0.3,0.5-0.5,0.9-0.7c0.4-0.2,0.8-0.3,1.3-0.4v-1.7H21.6z"/>
</g>
<g>
</g>
<g>
</g>
<g>
</g>
<g>
</g>
<g>
</g>
<g>
</g>
<g>
</g>
<g>
</g>
<g>
</g>
<g>
</g>
<g>
</g>
<g>
</g>
<g>
</g>
<g>
</g>
<g>
</g>
</svg>
