<svg xmlns="http://www.w3.org/2000/svg" xmlns:xlink="http://www.w3.org/1999/xlink" width="186.58" height="110.21" viewBox="0 0 186.58 110.21">
  <defs>
    <style>
      .cls-1 {
        fill: url(#linear-gradient);
      }

      .cls-2 {
        fill: url(#linear-gradient-2);
      }

      .cls-3 {
        fill: url(#linear-gradient-3);
      }

      .cls-4 {
        fill: url(#linear-gradient-4);
      }

      .cls-5 {
        fill: url(#linear-gradient-5);
      }

      .cls-6 {
        fill: url(#linear-gradient-6);
      }

      .cls-7 {
        fill: url(#linear-gradient-7);
      }
    </style>
    <linearGradient id="linear-gradient" x1="-148.22" y1="542.59" x2="-96.79" y2="542.59" gradientTransform="matrix(0.91, 0.18, -0.22, 1.1, 274.06, -510.61)" gradientUnits="userSpaceOnUse">
      <stop offset="0.1" stop-color="#2f4972"/>
      <stop offset="0.3" stop-color="#30a9dc" stop-opacity="0.76"/>
      <stop offset="0.65" stop-color="#65a4ab" stop-opacity="0.99"/>
      <stop offset="0.8" stop-color="#6ca6ae" stop-opacity="0.99"/>
      <stop offset="0.81" stop-color="#6ca6ae" stop-opacity="0.99"/>
      <stop offset="0.88" stop-color="#8fb9c2" stop-opacity="0.98"/>
      <stop offset="0.99" stop-color="#ccd9e5" stop-opacity="0.98"/>
    </linearGradient>
    <linearGradient id="linear-gradient-2" x1="79.44" y1="55.53" x2="119.45" y2="55.53" gradientTransform="translate(88.19 -57.81) rotate(55.15)" xlink:href="#linear-gradient"/>
    <linearGradient id="linear-gradient-3" x1="138.46" y1="44.71" x2="162.7" y2="44.71" gradientTransform="translate(116.85 -108.71) rotate(61.06)" xlink:href="#linear-gradient"/>
    <linearGradient id="linear-gradient-4" x1="0" y1="94.93" x2="30.92" y2="94.93" gradientTransform="matrix(1, 0, 0, 1, 0, 0)" xlink:href="#linear-gradient"/>
    <linearGradient id="linear-gradient-5" x1="51.97" y1="36.83" x2="82.89" y2="36.83" gradientTransform="matrix(1, 0, 0, 1, 0, 0)" xlink:href="#linear-gradient"/>
    <linearGradient id="linear-gradient-6" x1="117.02" y1="75.09" x2="147.94" y2="75.09" gradientTransform="matrix(1, 0, 0, 1, 0, 0)" xlink:href="#linear-gradient"/>
    <linearGradient id="linear-gradient-7" x1="30.92" y1="-11.37" x2="61.84" y2="-11.37" gradientTransform="matrix(0.54, -0.84, 0.84, 0.54, 155.8, 60.59)" xlink:href="#linear-gradient"/>
  </defs>
  <g id="Layer_2" data-name="Layer 2">
    <g id="Graphics">
      <g>
        <rect class="cls-1" x="17" y="63.74" width="48.13" height="3" transform="translate(-35.26 54.47) rotate(-49.78)"/>
        <rect class="cls-2" x="97.94" y="32.19" width="3" height="46.67" transform="translate(-2.95 105.41) rotate(-55.15)"/>
        <rect class="cls-3" x="128.24" y="43.21" width="44.68" height="3" transform="translate(38.6 154.86) rotate(-61.06)"/>
        <path class="cls-4" d="M15.46,110.21A15.28,15.28,0,1,1,30.92,94.93,15.39,15.39,0,0,1,15.46,110.21Zm0-27.55A12.28,12.28,0,1,0,27.92,94.93,12.38,12.38,0,0,0,15.46,82.66Z"/>
        <path class="cls-5" d="M67.43,52.1A15.27,15.27,0,1,1,82.89,36.83a15,15,0,0,1-1.22,6A15.44,15.44,0,0,1,67.43,52.1Zm0-27.54a12.27,12.27,0,1,0,11.48,17,12,12,0,0,0,1-4.77A12.38,12.38,0,0,0,67.43,24.56Z"/>
        <path class="cls-6" d="M132.48,90.36a15.27,15.27,0,1,1,15.46-15.27A15.38,15.38,0,0,1,132.48,90.36Zm0-27.54a12.27,12.27,0,1,0,12.46,12.27A12.38,12.38,0,0,0,132.48,62.82Z"/>
        <path class="cls-7" d="M171.06,30.82a15,15,0,0,1-8.14-2.39,15.5,15.5,0,0,1,5.14-28,15.06,15.06,0,0,1,11.54,2,15.5,15.5,0,0,1-5.14,28A15.15,15.15,0,0,1,171.06,30.82ZM171.46,3a12.18,12.18,0,0,0-2.74.31,12.5,12.5,0,0,0-4.19,22.59,12.13,12.13,0,0,0,9.27,1.62A12.51,12.51,0,0,0,178,4.92,12,12,0,0,0,171.46,3Z"/>
      </g>
    </g>
  </g>
</svg>
