<svg xmlns="http://www.w3.org/2000/svg" xmlns:xlink="http://www.w3.org/1999/xlink" width="109.41" height="125" viewBox="0 0 109.41 125">
  <defs>
    <style>
      .lowintgrad-1 {
        fill: url(#low-linear-gradient);
      }

      .lowintgrad-2 {
        fill: url(#low-linear-gradient-2);
      }

      .lowintgrad-3 {
        fill: #95c64f;
      }
    </style>
    <linearGradient id="low-linear-gradient" x1="4.9" y1="62.74" x2="98.28" y2="62.74" gradientTransform="translate(37.47 142.73) rotate(-130.56)" gradientUnits="userSpaceOnUse">
      <stop offset="0" stop-color="#4e6c33"/>
      <stop offset="0.31" stop-color="#699e42"/>
      <stop offset="0.59" stop-color="#648e3d"/>
      <stop offset="0.69" stop-color="#779f43"/>
      <stop offset="0.79" stop-color="#91b74b"/>
    </linearGradient>
    <linearGradient id="low-linear-gradient-2" x1="0" y1="108.46" x2="28.56" y2="108.46" gradientTransform="matrix(1, 0, 0, 1, 0, 0)" xlink:href="#low-linear-gradient"/>
  </defs>
  <g id="Layer_2_low" data-name="Layer 2 low">
    <g id="Graphics_low">
      <g>
        <rect class="lowintgrad-1" x="-16.71" y="59.73" width="136.6" height="6.01" transform="translate(132.8 64.34) rotate(130.56)"/>
        <polygon class="lowintgrad-2" points="0 125 28.56 112.75 4.21 91.91 0 125"/>
        <path class="lowintgrad-3" d="M13.29,21.34a20.3,20.3,0,0,1,6.43-15A21.13,21.13,0,0,1,35.09,0,20.74,20.74,0,0,1,50.3,6.34a20.73,20.73,0,0,1,6.37,15.24,20.4,20.4,0,0,1-6.4,15.19A21.41,21.41,0,0,1,34.77,43a21.48,21.48,0,0,1-14.44-5.56Q13.3,31.31,13.29,21.34Zm6.32.08a15,15,0,0,0,4.62,11.32,14.87,14.87,0,0,0,10.62,4.43,14.92,14.92,0,0,0,11-4.52,15.26,15.26,0,0,0,4.48-11.12A15.18,15.18,0,0,0,45.92,10.4,14.64,14.64,0,0,0,35,5.89,14.77,14.77,0,0,0,24.07,10.4,15,15,0,0,0,19.61,21.42Z"/>
        <path class="lowintgrad-3" d="M66,92.91a20.33,20.33,0,0,1,6.42-15,21.15,21.15,0,0,1,15.37-6.29,21.7,21.7,0,0,1,21.58,21.58A20.43,20.43,0,0,1,103,108.34a21.92,21.92,0,0,1-29.94.69Q66,102.88,66,92.91Zm6.31.08a15.38,15.38,0,0,0,26.26,11.23,16.09,16.09,0,0,0,0-22.25,14.64,14.64,0,0,0-10.91-4.52A14.8,14.8,0,0,0,76.81,82,15,15,0,0,0,72.35,93Z"/>
      </g>
    </g>
  </g>
</svg>
