<svg xmlns="http://www.w3.org/2000/svg" xmlns:xlink="http://www.w3.org/1999/xlink" viewBox="0 0 248.33 747.49"><defs><style>.cls-1{fill:#2f4972;}.cls-2{fill:url(#linear-gradient);}.cls-3{fill:#16161a;}.cls-4{fill:#cecdd6;}.cls-5{fill:url(#linear-gradient-2);}.cls-6{fill:url(#linear-gradient-3);}.cls-7{fill:url(#linear-gradient-4);}.cls-8{fill:none;stroke:#000;stroke-linecap:round;stroke-linejoin:round;stroke-width:0.5px;}</style><linearGradient id="linear-gradient" x1="110.05" y1="539.42" x2="221.16" y2="539.42" gradientUnits="userSpaceOnUse"><stop offset="0" stop-color="#2f4972"/><stop offset="0.19" stop-color="#307dab" stop-opacity="0.87"/><stop offset="0.37" stop-color="#30a9dc" stop-opacity="0.76"/><stop offset="0.65" stop-color="#65a4ab" stop-opacity="0.99"/><stop offset="0.99" stop-color="#ccd9e5" stop-opacity="0.98"/></linearGradient><linearGradient id="linear-gradient-2" x1="73.74" y1="450.91" x2="133.38" y2="450.91" xlink:href="#linear-gradient"/><linearGradient id="linear-gradient-3" x1="87.46" y1="648.52" x2="105.4" y2="648.52" xlink:href="#linear-gradient"/><linearGradient id="linear-gradient-4" x1="43.14" y1="634.04" x2="61.52" y2="634.04" xlink:href="#linear-gradient"/></defs><g id="Layer_2" data-name="Layer 2"><g id="Layer_15" data-name="Layer 15"><path class="cls-1" d="M248,13.2a29.91,29.91,0,0,1-.76,9.17L188.4,334Q151.57,529.2,114.76,724.37a70.15,70.15,0,0,1-2.08,8.65c-1.53,4.7-3.88,9-8,11.45-3.75,2.26-8.32,2.61-12.69,2.72A159.13,159.13,0,0,1,8.54,725.76C2.05,722-.48,713.54.43,706.08s4.55-14.26,7.91-21c22.82-45.65,34.83-96,42.37-146.45C60.7,471.78,63.13,404,69.38,336.7c.83-9,3.25-19.89,11.91-22.4,3.37-1,7-.35,10.41.27l76,13.83q22.74-125.46,45.49-250.91c3.65-20.14,7.31-40.6,5.28-61C217.75,8.87,224,1.19,231.6.33S247,5.57,248,13.2ZM142.78,363c1-7,2.06-14.45-1-20.81-3.76-7.86-12.7-11.75-21.18-13.77a93.39,93.39,0,0,0-22.1-2.53c-6.5,0-13.81,1.2-17.64,6.45-2.17,3-2.82,6.77-3.4,10.41-4.14,25.72-8.29,51.54-9.08,77.58-.46,15.11.21,30.24-.47,45.34-1.16,25.9-6.26,51.43-11.35,76.85l-17.1,85.38c-1.95,9.78-3.94,19.64-7.84,28.82-5.12,12.07-13.37,22.52-20.34,33.63-2.7,4.32-5.31,9.48-3.67,14.3,1.38,4,5.33,6.55,9,8.73,7.85,4.64,15.81,9.32,24.58,11.8s18.6,2.53,26.59-1.85c6.75-3.7,11.51-10.09,16.06-16.3,7.27-9.91,14.63-20,19.07-31.43,2.93-7.56,4.52-15.57,6.1-23.52q12.81-64.51,25.61-129c2.55-12.85,5.11-25.9,4.12-39A558.2,558.2,0,0,1,142.78,363Z"/><path class="cls-2" d="M220.81,346.85c.78,3.47.12,7.08-.55,10.57Q185.18,540.32,148.85,723c-.88,4.42-1.84,9-4.56,12.59-7.39,9.71-22.32,7-34.24,9.57a46,46,0,0,0,5.23-11.31,130.32,130.32,0,0,0,3.64-15.54l67.29-352.95c1.95-10.27,3.92-20.67,3.2-31.1,6.16-.54,12.48-1.07,18.45.59S219.44,340.81,220.81,346.85Zm-8.37,5.86c1-5.51.62-13.27-4.91-14.18,2.79,9.16,1,19-.82,28.41l-71.1,368.51c3.11-1.62,4.11-5.51,4.79-9q35-177.32,68.49-354.93Q210.66,362.14,212.44,352.71Z"/><path class="cls-3" d="M141.79,342.16c3.05,6.36,2,13.83,1,20.81a558.2,558.2,0,0,0-4,121.11c1,13.06-1.57,26.11-4.12,39q-12.81,64.5-25.61,129c-1.58,8-3.17,16-6.1,23.52C98.49,687,91.13,697.09,83.86,707c-4.55,6.21-9.31,12.6-16.06,16.3-8,4.38-17.82,4.33-26.59,1.85S24.48,718,16.63,713.35c-3.68-2.18-7.63-4.68-9-8.73-1.64-4.82,1-10,3.67-14.3,7-11.11,15.22-21.56,20.34-33.63,3.9-9.18,5.89-19,7.84-28.82l17.1-85.38c5.09-25.42,10.19-50.95,11.35-76.85.68-15.1,0-30.23.47-45.34.79-26,4.94-51.86,9.08-77.58.58-3.64,1.23-7.43,3.4-10.41,3.83-5.25,11.14-6.41,17.64-6.45a93.39,93.39,0,0,1,22.1,2.53C129.09,330.41,138,334.3,141.79,342.16Zm-7.94,160.65c.16-1.67.28-3.49-.63-4.9s-2.88-2.1-4.62-2.58l-5.95-1.65a4.84,4.84,0,0,0-2.52-.22c-1.53.42-2.21,2.16-2.67,3.68-1.15,3.78-1.79,8.91,1.72,10.73,2.3,1.2,5.51.23,7.42,2,1.56,1.43,4.26.64,5.53-1S133.65,504.91,133.85,502.81Zm-1.34-29c1-1.46.92-3.4.78-5.17l-1.83-23.48a10,10,0,0,0-1-4.35c-1.33-2.26-4.13-3.09-6.67-3.74L83.34,426.75c-2.67-.69-5.87-1.25-7.88.65-1.63,1.54-1.73,4.06-1.72,6.31q.06,9.74.13,19.48c0,2.52.11,5.28,1.78,7.17C77,461.88,79.06,462.5,81,463L123.67,475C126.74,475.85,130.68,476.42,132.51,473.82ZM128.7,530c2.17-3.08,1.23-7.65-1.47-10.28s-6.69-3.55-10.45-3.33c-2.1.12-3.8,1.91-4.5,3.89a16.2,16.2,0,0,0-.46,6.25c.1,1.73.93,4.07,2.62,3.72,2.38-.51,4.48,1.52,6.8,2.26A6.84,6.84,0,0,0,128.7,530Zm-2.85-172a2.32,2.32,0,1,0-3.49-2A2.44,2.44,0,0,0,125.85,358Zm-2,194.13c.7-2.31,1.41-4.73.94-7.1s-2.57-4.59-5-4.32c-2.8.31-5.29-2.38-8.08-2-3.41.44-4.52,4.76-4.84,8.19a7.28,7.28,0,0,0,.44,4.17c1,1.77,3.14,2.41,5.1,2.89l6.37,1.54a4.63,4.63,0,0,0,2.6.13C122.79,555.16,123.4,553.55,123.83,552.14Zm.56-183.79-.12,0a2.11,2.11,0,1,0-4-1.45,2.17,2.17,0,0,0,4.08,1.48ZM122,381.49a2.33,2.33,0,1,0-3.69-1.65A2.46,2.46,0,0,0,122,381.49Zm-3.25,194.9c1.12-2.3,2.27-4.82,1.75-7.33-.95-4.58-6.5-6.24-11.11-7a7.63,7.63,0,0,0-2.69-.14c-3.4.63-4.26,5-4.36,8.49,0,1.69,0,3.6,1.22,4.75a5.73,5.73,0,0,0,2.1,1.07,56.76,56.76,0,0,0,9.36,2.27,3.7,3.7,0,0,0,2.19-.13A3.78,3.78,0,0,0,118.71,576.39Zm-4.25-220.27c1.9-.63,2.11-3.67.48-4.81l-2.78,1.3,0-.09C110.65,353.84,112.57,356.74,114.46,356.12Zm-.14,246.74c.06-1.62,0-3.44-1.14-4.56a5.65,5.65,0,0,0-2.39-1.14l-6.94-2.09c-1.78-.53-3.87-1-5.34.11-2.2,1.67-1.16,5.28-2.51,7.69-1.17,6.36,6.2,7,10.84,8.27,2.5.7,4.72.48,6.15-1.9C114.13,607.36,114.24,605.06,114.32,602.86ZM114,366.68a2.26,2.26,0,1,0-3.91.07A2.38,2.38,0,0,0,114,366.68Zm-1.75,127.45c.27-1.42.46-3.09-.54-4.12a4.55,4.55,0,0,0-2.18-1L101,486.71c-1.25-.33-2.72-.62-3.73.18a4.21,4.21,0,0,0-1.15,2c-.82,2.29-1.65,4.68-1.43,7.1s1.81,4.91,4.2,5.34l9.07,1.62a3,3,0,0,0,2-.1,3,3,0,0,0,1.12-2.18Q111.62,497.39,112.24,494.13Zm-2.08-114.19a2.31,2.31,0,1,0-2.8-2.85A2.43,2.43,0,0,0,110.16,379.94Zm-1.43,250.31c1.48-8-.17-9.64-6.16-11.5-3.87-1.21-9-1.22-10.41,3.47-.62,2.16-1.25,4.46-.63,6.62,1.18,4.14,8.55,3.91,12.12,4.45C106.32,633.69,108.18,633.2,108.73,630.25Zm-1.48-109.16c.54-2.13,1-4.38.46-6.49s-2.6-4-4.76-3.65c-2.87.48-5.42-2.51-8.3-2.15-3.38.42-4.43,4.74-4.67,8.13a7.32,7.32,0,0,0,.52,4.16c.94,1.66,3,2.29,4.81,2.78l4.94,1.33c1.54.42,3.28.81,4.66,0S106.86,522.67,107.25,521.09Zm-1.89-166.78a2.18,2.18,0,1,0-3.21-2A2.29,2.29,0,0,0,105.36,354.31ZM105,651.73c.58-2.82,1-6.26-1.27-8.08a7.93,7.93,0,0,0-3.24-1.33l-6.88-1.68a5.14,5.14,0,0,0-2.39-.19,3.75,3.75,0,0,0-1.71,1.06c-2.73,2.77-2.54,7.61-.16,10.68s6.45,4.49,10.33,4.47a5.52,5.52,0,0,0,3.48-.94C104.28,654.78,104.65,653.2,105,651.73ZM102,366a2.1,2.1,0,1,0-1.27-3.41A2.22,2.22,0,0,0,102,366Zm.19,178.94c1.06-3.45,1.85-7.88-1-10.11a8.94,8.94,0,0,0-3.51-1.42l-5.37-1.34a6.8,6.8,0,0,0-3.06-.28c-2.63.58-3.55,3.77-4,6.43-.36,2.18-.64,4.68.78,6.38,1,1.22,2.69,1.68,4.24,2.08L97,548.39a4.88,4.88,0,0,0,2.56.18C101.08,548.12,101.75,546.42,102.21,544.92ZM102,376.86a2.07,2.07,0,1,0-3.55.52A2.19,2.19,0,0,0,102,376.86ZM97.28,567.73c1-3.45,1.83-7.85-1-10.09a9,9,0,0,0-3.51-1.43l-5.35-1.34a7,7,0,0,0-3.06-.29c-2.63.57-3.57,3.78-4,6.43-.36,2.18-.65,4.67.76,6.37,1,1.25,2.7,1.72,4.27,2.12l6.71,1.74a4.79,4.79,0,0,0,2.51.2C96.13,571,96.81,569.25,97.28,567.73Zm-6.81,35c1-2.47,2.13-5,1.74-7.76a6.58,6.58,0,0,0-4.59-4.8l-7.43-1.86c-1.37-.34-3-.63-4.06.31A4.42,4.42,0,0,0,75,591.2l-.72,3.68A7.07,7.07,0,0,0,80,603.17l7.46,1.36a3,3,0,0,0,1.67,0A3,3,0,0,0,90.47,602.76ZM90,492.28a13.23,13.23,0,0,0,.93-6.22c-.35-2.09-2-4.12-4.07-4.25s-4-1.26-6-1.89-4.56-.62-5.86,1.05a6.43,6.43,0,0,0-1,2.36c-1,3.82-1.59,8.92,1.91,10.76,2.64,1.39,6.37,0,8.57,2a2.83,2.83,0,0,0,3.66-.29A7.81,7.81,0,0,0,90,492.28Zm-.6,127.36a7.45,7.45,0,0,0-.36-4.09c-.89-1.79-3-2.55-4.91-3.09-3.13-.88-6.29-1.62-9.49-2.2a2.36,2.36,0,0,0-1.74.13,2.41,2.41,0,0,0-.81,1.69q-.82,4.45-1.64,8.93a2.29,2.29,0,0,0,2.08,3.3L83,626.84a5,5,0,0,0,4.75-1.5C89,623.7,89.19,621.63,89.38,619.64Zm-4-104.24c1-2.2.88-4.72.76-7.13-.14-2.63-3.28-3.84-5.85-4.42l-6.73-1.51a4,4,0,0,0-2.88.09,4,4,0,0,0-1.47,2.86c-.36,1.78-.71,3.57-1.06,5.35-.27,1.38-.5,3,.37,4.08a5,5,0,0,0,2.65,1.43l8.42,2.49C82,519.33,84.42,517.59,85.42,515.4ZM82.09,646c.73-2.15,1.48-4.38,1.2-6.63-.2-1.56-1.05-3.47-2.54-4.15a10.27,10.27,0,0,0-2.8-.64c-2.68-.39-7.3-3-9.7-2.46a2,2,0,0,0-.81.37c-2.42,2-2.79,8.8-2.75,11.62a2.57,2.57,0,0,0,.39,1.61,2.81,2.81,0,0,0,1.59.84l9.65,2.67a5.17,5.17,0,0,0,3.44.14C81.05,648.8,81.63,647.33,82.09,646Zm-2-107.35c.81-2.28,1.64-4.68,1.3-7.08s-2.28-4.77-4.7-4.7c-3.47.08-6.86-3.39-10-1.86-1.81.9-2.48,3.08-3,5a13.47,13.47,0,0,0-.6,5.15,4.58,4.58,0,0,0,3,3.89l8.29,2.2c1.36.37,2.92.7,4.08-.11A4.88,4.88,0,0,0,80.08,538.65Zm-3.75,16.26a5.67,5.67,0,0,0-.35-2.78c-1.24-2.63-5-2.24-7.77-3.18-1.58-.54-3-1.65-4.71-1.57-3.12.14-4.44,4-5,7.06-.39,2.33-.62,5.12,1.18,6.65a6.81,6.81,0,0,0,2.78,1.2l8.05,2.14a4.61,4.61,0,0,0,2.59.17c1.36-.46,1.95-2,2.28-3.43A35.78,35.78,0,0,0,76.33,554.91Zm-6,35.27a8.49,8.49,0,0,0-.34-4.75c-1-1.95-3.2-2.84-5.28-3.44a58.69,58.69,0,0,0-8.18-1.76,2.74,2.74,0,0,0-2.06.28,2.78,2.78,0,0,0-.78,1.72q-.65,3.3-1.3,6.62c-.28,1.46-.5,3.18.53,4.25a4.73,4.73,0,0,0,2,1l9.49,3.13c1.68.55,3.56-.52,4.51-2A12.27,12.27,0,0,0,70.32,590.18Zm-5.2,26.88c2.44-3,1.25-7.77-1.64-10.31s-6.92-3.3-10.75-3.53c-3.32-.2-4.76,4.07-5.13,7.37-.17,1.58-.32,3.32.58,4.64a6.81,6.81,0,0,0,3,2.1,22.3,22.3,0,0,0,7.12,2.2A7.91,7.91,0,0,0,65.12,617.06Zm-5,22.56a17.6,17.6,0,0,0,1.38-6.24,6,6,0,0,0-3-5.29c-1.49-.69-3.22-.5-4.8-.91-2-.51-3.8-2-5.81-1.64-2.73.45-3.82,3.72-4.36,6.43-.46,2.33-.8,5.08.86,6.78a7.32,7.32,0,0,0,3.51,1.64l6.83,1.82c1.29.35,2.76.66,3.87-.08A4.82,4.82,0,0,0,60.14,639.62Zm-8.62,69c1.64-1.16-.22-3.65-2-4.54a32.76,32.76,0,0,0-7.65-2.67c-1.54-.33-3.78,0-3.82,1.54,0,1,.9,1.68,1.76,2.16a35.53,35.53,0,0,0,9.33,3.66A3,3,0,0,0,51.52,708.58Z"/><path class="cls-4" d="M133.22,497.91c.91,1.41.79,3.23.63,4.9-.2,2.1-.44,4.33-1.72,6s-4,2.47-5.53,1c-1.91-1.76-5.12-.79-7.42-2-3.51-1.82-2.87-6.95-1.72-10.73.46-1.52,1.14-3.26,2.67-3.68a4.84,4.84,0,0,1,2.52.22l5.95,1.65C130.34,495.81,132.23,496.4,133.22,497.91Z"/><path class="cls-5" d="M133.29,468.65c.14,1.77.24,3.71-.78,5.17-1.83,2.6-5.77,2-8.84,1.17L81,463c-2-.54-4-1.16-5.36-2.68-1.67-1.89-1.77-4.65-1.78-7.17q-.06-9.74-.13-19.48c0-2.25.09-4.77,1.72-6.31,2-1.9,5.21-1.34,7.88-.65l40.44,10.33c2.54.65,5.34,1.48,6.67,3.74a10,10,0,0,1,1,4.35Z"/><path class="cls-4" d="M127.23,519.69c2.7,2.63,3.64,7.2,1.47,10.28a6.84,6.84,0,0,1-7.46,2.51c-2.32-.74-4.42-2.77-6.8-2.26-1.69.35-2.52-2-2.62-3.72a16.2,16.2,0,0,1,.46-6.25c.7-2,2.4-3.77,4.5-3.89C120.54,516.14,124.54,517.06,127.23,519.69Z"/><path class="cls-4" d="M125.83,354a2.32,2.32,0,1,1-3.47,2A2.44,2.44,0,0,1,125.83,354Z"/><path class="cls-4" d="M124.77,545c.47,2.37-.24,4.79-.94,7.1-.43,1.41-1,3-2.44,3.49a4.63,4.63,0,0,1-2.6-.13L112.42,554c-2-.48-4.14-1.12-5.1-2.89a7.28,7.28,0,0,1-.44-4.17c.32-3.43,1.43-7.75,4.84-8.19,2.79-.37,5.28,2.32,8.08,2C122.2,540.45,124.29,542.68,124.77,545Z"/><path class="cls-4" d="M124.27,368.32l.12,0a2.17,2.17,0,0,1-4.08-1.48,2.11,2.11,0,1,1,4,1.45Z"/><path class="cls-4" d="M121.54,377.47a2.33,2.33,0,1,1-3.27,2.37A2.46,2.46,0,0,1,121.54,377.47Z"/><path class="cls-4" d="M120.46,569.06c.52,2.51-.63,5-1.75,7.33a3.78,3.78,0,0,1-1.54,1.94,3.7,3.7,0,0,1-2.19.13,56.76,56.76,0,0,1-9.36-2.27,5.73,5.73,0,0,1-2.1-1.07c-1.24-1.15-1.27-3.06-1.22-4.75.1-3.46,1-7.86,4.36-8.49a7.63,7.63,0,0,1,2.69.14C114,562.82,119.51,564.48,120.46,569.06Z"/><path class="cls-4" d="M114.94,351.31c1.63,1.14,1.42,4.18-.48,4.81s-3.81-2.28-2.32-3.6l0,.09Z"/><path class="cls-4" d="M113.18,598.3c1.18,1.12,1.2,2.94,1.14,4.56-.08,2.2-.19,4.5-1.33,6.38-1.43,2.38-3.65,2.6-6.15,1.9-4.64-1.29-12-1.91-10.84-8.27,1.35-2.41.31-6,2.51-7.69,1.47-1.12,3.56-.64,5.34-.11l6.94,2.09A5.65,5.65,0,0,1,113.18,598.3Z"/><path class="cls-4" d="M112,363.33a2.26,2.26,0,1,1-1.9,3.42A2.38,2.38,0,0,1,112,363.33Z"/><path class="cls-4" d="M111.7,490c1,1,.81,2.7.54,4.12q-.61,3.25-1.22,6.51a3,3,0,0,1-1.12,2.18,3,3,0,0,1-2,.1l-9.07-1.62c-2.39-.43-4-2.91-4.2-5.34s.61-4.81,1.43-7.1a4.21,4.21,0,0,1,1.15-2c1-.8,2.48-.51,3.73-.18l8.55,2.27A4.55,4.55,0,0,1,111.7,490Z"/><path class="cls-4" d="M111.23,376.09a2.31,2.31,0,1,1-3.87,1A2.43,2.43,0,0,1,111.23,376.09Z"/><path class="cls-4" d="M102.57,618.75c6,1.86,7.64,3.45,6.16,11.5-.55,3-2.41,3.44-5.08,3-3.57-.54-10.94-.31-12.12-4.45-.62-2.16,0-4.46.63-6.62C93.52,617.53,98.7,617.54,102.57,618.75Z"/><path class="cls-4" d="M107.71,514.6c.58,2.11.08,4.36-.46,6.49-.39,1.58-.92,3.32-2.34,4.13s-3.12.4-4.66,0l-4.94-1.33c-1.84-.49-3.87-1.12-4.81-2.78a7.32,7.32,0,0,1-.52-4.16c.24-3.39,1.29-7.71,4.67-8.13,2.88-.36,5.43,2.63,8.3,2.15C105.11,510.59,107.14,512.48,107.71,514.6Z"/><path class="cls-4" d="M105.48,350.54a2.18,2.18,0,1,1-3.33,1.79A2.29,2.29,0,0,1,105.48,350.54Z"/><path class="cls-6" d="M103.68,643.65c2.23,1.82,1.85,5.26,1.27,8.08-.3,1.47-.67,3-1.84,4a5.52,5.52,0,0,1-3.48.94c-3.88,0-7.94-1.4-10.33-4.47s-2.57-7.91.16-10.68a3.75,3.75,0,0,1,1.71-1.06,5.14,5.14,0,0,1,2.39.19l6.88,1.68A7.93,7.93,0,0,1,103.68,643.65Z"/><path class="cls-4" d="M104.34,363.17a2.1,2.1,0,1,1-3.59-.6A2.22,2.22,0,0,1,104.34,363.17Z"/><path class="cls-4" d="M101.22,534.81c2.84,2.23,2,6.66,1,10.11-.46,1.5-1.13,3.2-2.62,3.65a4.88,4.88,0,0,1-2.56-.18l-6.72-1.73c-1.55-.4-3.21-.86-4.24-2.08-1.42-1.7-1.14-4.2-.78-6.38.44-2.66,1.36-5.85,4-6.43a6.8,6.8,0,0,1,3.06.28l5.37,1.34A8.94,8.94,0,0,1,101.22,534.81Z"/><path class="cls-4" d="M99.8,374a2.07,2.07,0,1,1-1.32,3.34A2.19,2.19,0,0,1,99.8,374Z"/><path class="cls-4" d="M96.28,557.64c2.83,2.24,2,6.64,1,10.09-.47,1.52-1.15,3.27-2.68,3.71a4.79,4.79,0,0,1-2.51-.2l-6.71-1.74c-1.57-.4-3.24-.87-4.27-2.12-1.41-1.7-1.12-4.19-.76-6.37.44-2.65,1.38-5.86,4-6.43a7,7,0,0,1,3.06.29l5.35,1.34A9,9,0,0,1,96.28,557.64Z"/><path class="cls-4" d="M92.21,595c.39,2.71-.69,5.29-1.74,7.76a3,3,0,0,1-1.37,1.76,3,3,0,0,1-1.67,0L80,603.17a7.07,7.07,0,0,1-5.66-8.29L75,591.2a4.42,4.42,0,0,1,1.1-2.55c1.06-.94,2.69-.65,4.06-.31l7.43,1.86A6.58,6.58,0,0,1,92.21,595Z"/><path class="cls-4" d="M90.91,486.06a13.23,13.23,0,0,1-.93,6.22,7.81,7.81,0,0,1-1.9,3.51,2.83,2.83,0,0,1-3.66.29c-2.2-2-5.93-.6-8.57-2-3.5-1.84-3-6.94-1.91-10.76a6.43,6.43,0,0,1,1-2.36c1.3-1.67,3.84-1.69,5.86-1.05s3.93,1.76,6,1.89S90.56,484,90.91,486.06Z"/><path class="cls-4" d="M89,615.55a7.45,7.45,0,0,1,.36,4.09c-.19,2-.41,4.06-1.64,5.7a5,5,0,0,1-4.75,1.5l-10.48-2.53a2.29,2.29,0,0,1-2.08-3.3q.81-4.47,1.64-8.93a2.41,2.41,0,0,1,.81-1.69,2.36,2.36,0,0,1,1.74-.13c3.2.58,6.36,1.32,9.49,2.2C86,613,88.13,613.76,89,615.55Z"/><path class="cls-4" d="M86.18,508.27c.12,2.41.23,4.93-.76,7.13s-3.47,3.93-5.79,3.24l-8.42-2.49a5,5,0,0,1-2.65-1.43c-.87-1.11-.64-2.7-.37-4.08.35-1.78.7-3.57,1.06-5.35a4,4,0,0,1,1.47-2.86,4,4,0,0,1,2.88-.09l6.73,1.51C82.9,504.43,86,505.64,86.18,508.27Z"/><path class="cls-4" d="M83.29,639.37c.28,2.25-.47,4.48-1.2,6.63-.46,1.33-1,2.8-2.33,3.37a5.17,5.17,0,0,1-3.44-.14l-9.65-2.67a2.81,2.81,0,0,1-1.59-.84,2.57,2.57,0,0,1-.39-1.61c0-2.82.33-9.65,2.75-11.62a2,2,0,0,1,.81-.37c2.4-.52,7,2.07,9.7,2.46a10.27,10.27,0,0,1,2.8.64C82.24,635.9,83.09,637.81,83.29,639.37Z"/><path class="cls-4" d="M81.38,531.57c.34,2.4-.49,4.8-1.3,7.08a4.88,4.88,0,0,1-1.55,2.53c-1.16.81-2.72.48-4.08.11l-8.29-2.2a4.58,4.58,0,0,1-3-3.89,13.47,13.47,0,0,1,.6-5.15c.5-2,1.17-4.14,3-5,3.1-1.53,6.49,1.94,10,1.86C79.1,526.8,81,529.17,81.38,531.57Z"/><path class="cls-4" d="M76,552.13a5.67,5.67,0,0,1,.35,2.78,35.78,35.78,0,0,1-.9,6.26c-.33,1.4-.92,3-2.28,3.43a4.61,4.61,0,0,1-2.59-.17l-8.05-2.14a6.81,6.81,0,0,1-2.78-1.2c-1.8-1.53-1.57-4.32-1.18-6.65.51-3.08,1.83-6.92,5-7.06,1.67-.08,3.13,1,4.71,1.57C71,549.89,74.74,549.5,76,552.13Z"/><path class="cls-4" d="M70,585.43a8.49,8.49,0,0,1,.34,4.75,12.27,12.27,0,0,1-1.4,5.08c-1,1.5-2.83,2.57-4.51,2l-9.49-3.13a4.73,4.73,0,0,1-2-1c-1-1.07-.81-2.79-.53-4.25q.66-3.32,1.3-6.62a2.78,2.78,0,0,1,.78-1.72,2.74,2.74,0,0,1,2.06-.28A58.69,58.69,0,0,1,64.7,582C66.78,582.59,69,583.48,70,585.43Z"/><path class="cls-4" d="M63.48,606.75c2.89,2.54,4.08,7.33,1.64,10.31a7.91,7.91,0,0,1-6.77,2.47,22.3,22.3,0,0,1-7.12-2.2,6.81,6.81,0,0,1-3-2.1c-.9-1.32-.75-3.06-.58-4.64.37-3.3,1.81-7.57,5.13-7.37C56.56,603.45,60.59,604.21,63.48,606.75Z"/><path class="cls-7" d="M61.52,633.38a17.6,17.6,0,0,1-1.38,6.24,4.82,4.82,0,0,1-1.55,2.51c-1.11.74-2.58.43-3.87.08l-6.83-1.82a7.32,7.32,0,0,1-3.51-1.64c-1.66-1.7-1.32-4.45-.86-6.78.54-2.71,1.63-6,4.36-6.43,2-.33,3.83,1.13,5.81,1.64,1.58.41,3.31.22,4.8.91A6,6,0,0,1,61.52,633.38Z"/><path class="cls-4" d="M49.5,704c1.8.89,3.66,3.38,2,4.54a3,3,0,0,1-2.4.15,35.53,35.53,0,0,1-9.33-3.66c-.86-.48-1.79-1.18-1.76-2.16,0-1.58,2.28-1.87,3.82-1.54A32.76,32.76,0,0,1,49.5,704Z"/><path class="cls-8" d="M98.51,595.18c1.47-1.12,3.56-.64,5.34-.11l6.94,2.09a5.65,5.65,0,0,1,2.39,1.14c1.18,1.12,1.2,2.94,1.14,4.56-.08,2.2-.19,4.5-1.33,6.38-1.43,2.38-3.65,2.6-6.15,1.9-4.64-1.29-12-1.91-10.84-8.27C97.35,600.46,96.31,596.85,98.51,595.18Z"/><path class="cls-8" d="M65.12,617.06a7.91,7.91,0,0,1-6.77,2.47,22.3,22.3,0,0,1-7.12-2.2,6.81,6.81,0,0,1-3-2.1c-.9-1.32-.75-3.06-.58-4.64.37-3.3,1.81-7.57,5.13-7.37,3.83.23,7.86,1,10.75,3.53S67.56,614.08,65.12,617.06Z"/><path class="cls-8" d="M68.25,632.12c2.4-.52,7,2.07,9.7,2.46a10.27,10.27,0,0,1,2.8.64c1.49.68,2.34,2.59,2.54,4.15.28,2.25-.47,4.48-1.2,6.63-.46,1.33-1,2.8-2.33,3.37a5.17,5.17,0,0,1-3.44-.14l-9.65-2.67a2.81,2.81,0,0,1-1.59-.84,2.57,2.57,0,0,1-.39-1.61c0-2.82.33-9.65,2.75-11.62A2,2,0,0,1,68.25,632.12Z"/><path class="cls-8" d="M76.33,554.91a35.78,35.78,0,0,1-.9,6.26c-.33,1.4-.92,3-2.28,3.43a4.61,4.61,0,0,1-2.59-.17l-8.05-2.14a6.81,6.81,0,0,1-2.78-1.2c-1.8-1.53-1.57-4.32-1.18-6.65.51-3.08,1.83-6.92,5-7.06,1.67-.08,3.13,1,4.71,1.57,2.75.94,6.53.55,7.77,3.18A5.67,5.67,0,0,1,76.33,554.91Z"/><path class="cls-8" d="M64.7,582c2.08.6,4.33,1.49,5.28,3.44a8.49,8.49,0,0,1,.34,4.75,12.27,12.27,0,0,1-1.4,5.08c-1,1.5-2.83,2.57-4.51,2l-9.49-3.13a4.73,4.73,0,0,1-2-1c-1-1.07-.81-2.79-.53-4.25q.66-3.32,1.3-6.62a2.78,2.78,0,0,1,.78-1.72,2.74,2.74,0,0,1,2.06-.28A58.69,58.69,0,0,1,64.7,582Z"/><path class="cls-8" d="M70.61,623.33a3.08,3.08,0,0,1-.18-2.32q.81-4.47,1.64-8.93a2.41,2.41,0,0,1,.81-1.69,2.36,2.36,0,0,1,1.74-.13c3.2.58,6.36,1.32,9.49,2.2,1.92.54,4,1.3,4.91,3.09a7.45,7.45,0,0,1,.36,4.09c-.19,2-.41,4.06-1.64,5.7a5,5,0,0,1-4.75,1.5l-10.48-2.53A3.1,3.1,0,0,1,70.61,623.33Z"/><path class="cls-8" d="M131.46,445.17l1.83,23.48c.14,1.77.24,3.71-.78,5.17-1.83,2.6-5.77,2-8.84,1.17L81,463c-2-.54-4-1.16-5.36-2.68-1.67-1.89-1.77-4.65-1.78-7.17q-.06-9.74-.13-19.48c0-2.25.09-4.77,1.72-6.31,2-1.9,5.21-1.34,7.88-.65l40.44,10.33c2.54.65,5.34,1.48,6.67,3.74A10,10,0,0,1,131.46,445.17Z"/><path class="cls-8" d="M87.42,554.87l5.35,1.34a9,9,0,0,1,3.51,1.43c2.83,2.24,2,6.64,1,10.09-.47,1.52-1.15,3.27-2.68,3.71a4.79,4.79,0,0,1-2.51-.2l-6.71-1.74c-1.57-.4-3.24-.87-4.27-2.12-1.41-1.7-1.12-4.19-.76-6.37.44-2.65,1.38-5.86,4-6.43A7,7,0,0,1,87.42,554.87Z"/><path class="cls-8" d="M76.68,526.87c2.42-.07,4.36,2.3,4.7,4.7s-.49,4.8-1.3,7.08a4.88,4.88,0,0,1-1.55,2.53c-1.16.81-2.72.48-4.08.11l-8.29-2.2a4.58,4.58,0,0,1-3-3.89,13.47,13.47,0,0,1,.6-5.15c.5-2,1.17-4.14,3-5C69.82,523.48,73.21,527,76.68,526.87Z"/><path class="cls-8" d="M92.34,532.05l5.37,1.34a8.94,8.94,0,0,1,3.51,1.42c2.84,2.23,2,6.66,1,10.11-.46,1.5-1.13,3.2-2.62,3.65a4.88,4.88,0,0,1-2.56-.18l-6.72-1.73c-1.55-.4-3.21-.86-4.24-2.08-1.42-1.7-1.14-4.2-.78-6.38.44-2.66,1.36-5.85,4-6.43A6.8,6.8,0,0,1,92.34,532.05Z"/><path class="cls-8" d="M109.35,562c4.61.8,10.16,2.46,11.11,7,.52,2.51-.63,5-1.75,7.33a3.78,3.78,0,0,1-1.54,1.94,3.7,3.7,0,0,1-2.19.13,56.76,56.76,0,0,1-9.36-2.27,5.73,5.73,0,0,1-2.1-1.07c-1.24-1.15-1.27-3.06-1.22-4.75.1-3.46,1-7.86,4.36-8.49A7.63,7.63,0,0,1,109.35,562Z"/><path class="cls-8" d="M123.83,552.14c-.43,1.41-1,3-2.44,3.49a4.63,4.63,0,0,1-2.6-.13L112.42,554c-2-.48-4.14-1.12-5.1-2.89a7.28,7.28,0,0,1-.44-4.17c.32-3.43,1.43-7.75,4.84-8.19,2.79-.37,5.28,2.32,8.08,2,2.4-.27,4.49,2,5,4.32S124.53,549.83,123.83,552.14Z"/><path class="cls-8" d="M80.19,588.34l7.43,1.86a6.58,6.58,0,0,1,4.59,4.8c.39,2.71-.69,5.29-1.74,7.76a3,3,0,0,1-1.37,1.76,3,3,0,0,1-1.67,0L80,603.17a7.07,7.07,0,0,1-5.66-8.29L75,591.2a4.42,4.42,0,0,1,1.1-2.55C77.19,587.71,78.82,588,80.19,588.34Z"/><path class="cls-8" d="M112.68,733c-1.53,4.7-3.88,9-8,11.45-3.75,2.26-8.32,2.61-12.69,2.72A159.13,159.13,0,0,1,8.54,725.76C2.05,722-.48,713.54.43,706.08s4.55-14.26,7.91-21c22.82-45.65,34.83-96,42.37-146.45C60.7,471.78,63.13,404,69.38,336.7c.83-9,3.25-19.89,11.91-22.4,3.37-1,7-.35,10.41.27l76,13.83q22.74-125.46,45.49-250.91c3.65-20.14,7.31-40.6,5.28-61C217.75,8.87,224,1.19,231.6.33S247,5.57,248,13.2a29.91,29.91,0,0,1-.76,9.17L188.4,334Q151.57,529.2,114.76,724.37A70.15,70.15,0,0,1,112.68,733Z"/><path class="cls-8" d="M77.47,342.72c-4.14,25.72-8.29,51.54-9.08,77.58-.46,15.11.21,30.24-.47,45.34-1.16,25.9-6.26,51.43-11.35,76.85l-17.1,85.38c-1.95,9.78-3.94,19.64-7.84,28.82-5.12,12.07-13.37,22.52-20.34,33.63-2.7,4.32-5.31,9.48-3.67,14.3,1.38,4,5.33,6.55,9,8.73,7.85,4.64,15.81,9.32,24.58,11.8s18.6,2.53,26.59-1.85c6.75-3.7,11.51-10.09,16.06-16.3,7.27-9.91,14.63-20,19.07-31.43,2.93-7.56,4.52-15.57,6.1-23.52q12.81-64.51,25.61-129c2.55-12.85,5.11-25.9,4.12-39a558.2,558.2,0,0,1,4-121.11c1-7,2.06-14.45-1-20.81-3.76-7.86-12.7-11.75-21.18-13.77a93.39,93.39,0,0,0-22.1-2.53c-6.5,0-13.81,1.2-17.64,6.45C78.7,335.29,78.05,339.08,77.47,342.72Z"/><path class="cls-8" d="M128.7,530a6.84,6.84,0,0,1-7.46,2.51c-2.32-.74-4.42-2.77-6.8-2.26-1.69.35-2.52-2-2.62-3.72a16.2,16.2,0,0,1,.46-6.25c.7-2,2.4-3.77,4.5-3.89,3.76-.22,7.76.7,10.45,3.33S130.87,526.89,128.7,530Z"/><path class="cls-8" d="M68.56,514.72c-.87-1.11-.64-2.7-.37-4.08.35-1.78.7-3.57,1.06-5.35a4,4,0,0,1,1.47-2.86,4,4,0,0,1,2.88-.09l6.73,1.51c2.57.58,5.71,1.79,5.85,4.42.12,2.41.23,4.93-.76,7.13s-3.47,3.93-5.79,3.24l-8.42-2.49A5,5,0,0,1,68.56,514.72Z"/><path class="cls-8" d="M75.85,494.09c-3.5-1.84-3-6.94-1.91-10.76a6.43,6.43,0,0,1,1-2.36c1.3-1.67,3.84-1.69,5.86-1.05s3.93,1.76,6,1.89,3.72,2.16,4.07,4.25a13.23,13.23,0,0,1-.93,6.22,7.81,7.81,0,0,1-1.9,3.51,2.83,2.83,0,0,1-3.66.29C82.22,494.06,78.49,495.48,75.85,494.09Z"/><path class="cls-8" d="M95.31,523.87c-1.84-.49-3.87-1.12-4.81-2.78a7.32,7.32,0,0,1-.52-4.16c.24-3.39,1.29-7.71,4.67-8.13,2.88-.36,5.43,2.63,8.3,2.15,2.16-.36,4.19,1.53,4.76,3.65s.08,4.36-.46,6.49c-.39,1.58-.92,3.32-2.34,4.13s-3.12.4-4.66,0Z"/><path class="cls-8" d="M98.86,501.3c-2.39-.43-4-2.91-4.2-5.34s.61-4.81,1.43-7.1a4.21,4.21,0,0,1,1.15-2c1-.8,2.48-.51,3.73-.18l8.55,2.27a4.55,4.55,0,0,1,2.18,1c1,1,.81,2.7.54,4.12q-.61,3.25-1.22,6.51a3,3,0,0,1-1.12,2.18,3,3,0,0,1-2,.1Z"/><path class="cls-8" d="M128.6,495.33c1.74.48,3.63,1.07,4.62,2.58s.79,3.23.63,4.9c-.2,2.1-.44,4.33-1.72,6s-4,2.47-5.53,1c-1.91-1.76-5.12-.79-7.42-2-3.51-1.82-2.87-6.95-1.72-10.73.46-1.52,1.14-3.26,2.67-3.68a4.84,4.84,0,0,1,2.52.22Z"/><path class="cls-8" d="M112.16,352.61l2.78-1.3c1.63,1.14,1.42,4.18-.48,4.81s-3.81-2.28-2.32-3.6Z"/><path class="cls-8" d="M49.12,708.73a35.53,35.53,0,0,1-9.33-3.66c-.86-.48-1.79-1.18-1.76-2.16,0-1.58,2.28-1.87,3.82-1.54A32.76,32.76,0,0,1,49.5,704c1.8.89,3.66,3.38,2,4.54A3,3,0,0,1,49.12,708.73Z"/><path class="cls-8" d="M92.16,622.22c1.36-4.69,6.54-4.68,10.41-3.47,6,1.86,7.64,3.45,6.16,11.5-.55,3-2.41,3.44-5.08,3-3.57-.54-10.94-.31-12.12-4.45C90.91,626.68,91.54,624.38,92.16,622.22Z"/><path class="cls-8" d="M47.88,625.54c2-.33,3.83,1.13,5.81,1.64,1.58.41,3.31.22,4.8.91a6,6,0,0,1,3,5.29,17.6,17.6,0,0,1-1.38,6.24,4.82,4.82,0,0,1-1.55,2.51c-1.11.74-2.58.43-3.87.08l-6.83-1.82a7.32,7.32,0,0,1-3.51-1.64c-1.66-1.7-1.32-4.45-.86-6.78C44.06,629.26,45.15,626,47.88,625.54Z"/><path class="cls-8" d="M118.27,379.84a2.33,2.33,0,1,0,3.27-2.37A2.46,2.46,0,0,0,118.27,379.84Z"/><path class="cls-8" d="M107.36,377.09a2.31,2.31,0,1,0,3.87-1A2.43,2.43,0,0,0,107.36,377.09Z"/><path class="cls-8" d="M91.17,640.45a5.14,5.14,0,0,1,2.39.19l6.88,1.68a7.93,7.93,0,0,1,3.24,1.33c2.23,1.82,1.85,5.26,1.27,8.08-.3,1.47-.67,3-1.84,4a5.52,5.52,0,0,1-3.48.94c-3.88,0-7.94-1.4-10.33-4.47s-2.57-7.91.16-10.68A3.75,3.75,0,0,1,91.17,640.45Z"/><path class="cls-8" d="M124.39,368.35a2.17,2.17,0,0,1-4.08-1.48,2.11,2.11,0,1,1,4,1.45Z"/><path class="cls-8" d="M102.15,352.33a2.18,2.18,0,1,0,3.33-1.79A2.3,2.3,0,0,0,102.15,352.33Z"/><path class="cls-8" d="M110.08,366.75a2.26,2.26,0,1,0,1.9-3.42A2.38,2.38,0,0,0,110.08,366.75Z"/><path class="cls-8" d="M104.34,363.17A2.1,2.1,0,1,0,102,366,2.22,2.22,0,0,0,104.34,363.17Z"/><path class="cls-8" d="M122.36,356a2.32,2.32,0,1,0,3.47-2A2.45,2.45,0,0,0,122.36,356Z"/><path class="cls-8" d="M102,376.86a2.07,2.07,0,1,0-3.55.52A2.19,2.19,0,0,0,102,376.86Z"/><path class="cls-8" d="M189.41,334.23c6.16-.54,12.48-1.07,18.45.59s11.58,6,12.95,12c.78,3.47.12,7.08-.55,10.57Q185.18,540.32,148.85,723c-.88,4.42-1.84,9-4.56,12.59-7.39,9.71-22.32,7-34.24,9.57a46,46,0,0,0,5.23-11.31,130.32,130.32,0,0,0,3.64-15.54l67.29-352.95C188.16,355.06,190.13,344.66,189.41,334.23Z"/><path class="cls-8" d="M140.4,726.49q35-177.32,68.49-354.93,1.77-9.42,3.55-18.85c1-5.51.62-13.27-4.91-14.18,2.79,9.16,1,19-.82,28.41l-71.1,368.51C138.72,733.83,139.72,729.94,140.4,726.49Z"/></g></g></svg>