<svg xmlns="http://www.w3.org/2000/svg" xmlns:xlink="http://www.w3.org/1999/xlink" viewBox="0 0 370.29 394.08"><defs><style>.cls-1{fill:#16161a;}.cls-2{fill:#2f4972;}.cls-3{fill:url(#linear-gradient);}.cls-4{fill:url(#linear-gradient-2);}.cls-5{fill:url(#linear-gradient-3);}.cls-6{fill:url(#linear-gradient-4);}.cls-7{fill:url(#linear-gradient-5);}.cls-8{fill:url(#linear-gradient-6);}.cls-9{fill:url(#linear-gradient-7);}.cls-10{fill:url(#linear-gradient-8);}.cls-11{fill:url(#linear-gradient-9);}.cls-12{fill:url(#linear-gradient-10);}.cls-13{fill:url(#linear-gradient-11);}</style><linearGradient id="linear-gradient" x1="235.48" y1="326.83" x2="350.33" y2="326.83" gradientUnits="userSpaceOnUse"><stop offset="0" stop-color="#2f4972"/><stop offset="0.19" stop-color="#307dab" stop-opacity="0.87"/><stop offset="0.37" stop-color="#30a9dc" stop-opacity="0.76"/><stop offset="0.65" stop-color="#65a4ab" stop-opacity="0.99"/><stop offset="0.99" stop-color="#ccd9e5" stop-opacity="0.98"/></linearGradient><linearGradient id="linear-gradient-2" x1="135.37" y1="167.1" x2="218.43" y2="167.1" xlink:href="#linear-gradient"/><linearGradient id="linear-gradient-3" x1="155.92" y1="116.6" x2="164.28" y2="116.6" gradientUnits="userSpaceOnUse"><stop offset="0" stop-color="#b3b3b3"/><stop offset="0.02" stop-color="#c1c1c1"/><stop offset="0.04" stop-color="#d2d2d2"/><stop offset="0.08" stop-color="#ddd"/><stop offset="0.13" stop-color="#e4e4e4"/><stop offset="0.27" stop-color="#e6e6e6"/><stop offset="0.46" stop-color="#ececec"/><stop offset="0.76" stop-color="#f7f7f7"/><stop offset="0.81" stop-color="#f1f1f1"/><stop offset="0.88" stop-color="#e1e1e1"/><stop offset="0.95" stop-color="#c6c6c6"/><stop offset="1" stop-color="#b3b3b3"/></linearGradient><linearGradient id="linear-gradient-4" x1="148.61" y1="106.76" x2="157.19" y2="106.76" xlink:href="#linear-gradient-3"/><linearGradient id="linear-gradient-5" x1="145.32" y1="124.38" x2="153.8" y2="124.38" xlink:href="#linear-gradient-3"/><linearGradient id="linear-gradient-6" x1="141.06" y1="96.62" x2="149.61" y2="96.62" xlink:href="#linear-gradient-3"/><linearGradient id="linear-gradient-7" x1="138.06" y1="114.78" x2="146.66" y2="114.78" xlink:href="#linear-gradient-3"/><linearGradient id="linear-gradient-8" x1="135.21" y1="132.16" x2="143.17" y2="132.16" xlink:href="#linear-gradient-3"/><linearGradient id="linear-gradient-9" x1="130.73" y1="104.54" x2="139.24" y2="104.54" xlink:href="#linear-gradient-3"/><linearGradient id="linear-gradient-10" x1="128.11" y1="122.44" x2="136.5" y2="122.44" xlink:href="#linear-gradient-3"/><linearGradient id="linear-gradient-11" x1="120.45" y1="112.28" x2="129.03" y2="112.28" xlink:href="#linear-gradient-3"/></defs><g id="Layer_2" data-name="Layer 2"><g id="Graphics"><path class="cls-1" d="M219.92,260.12c5.59-1.8,12.11,2.9,11.08,8.17a12.28,12.28,0,0,1-9.14,9.86c-5.41,1.57-11.86-2.83-10.84-8.57A12.45,12.45,0,0,1,219.92,260.12Z"/><path class="cls-1" d="M239.37,245.2c4.9-1.85,11,1.28,10.87,6.85-.53,2-.61,4.31-1.68,6-2.5,3.94-6.36,5.45-11.08,5.18A7.53,7.53,0,0,1,231,254C232.21,249.46,235.28,246.74,239.37,245.2Z"/><path class="cls-1" d="M258.05,248.7c-4-.19-8.79-4.95-8.05-8.3,1.38-6.26,7.17-11,12.88-10.62,4.64.28,9,5.79,6.78,10.81a14.34,14.34,0,0,1-8.84,8.12C259.89,248.71,259,248.75,258.05,248.7Z"/><path class="cls-1" d="M254.51,215.35c2.08,1,4.34,4.55,3,9.44s-8,8.73-13.07,7.8c-3-.55-4.59-2.42-5.6-5.14a7.3,7.3,0,0,1,1.36-7.57,17.83,17.83,0,0,1,3.13-3.13C247.18,213.82,250.49,213.37,254.51,215.35Z"/><path class="cls-1" d="M232,229.19c4.09.35,6.84,5.29,6.34,8.55-.72,4.62-3.76,7.1-7.4,9-4.05,2.13-10.65.41-11.74-4-.72-2.9-1-6.62,2.92-9.93A11.71,11.71,0,0,1,232,229.19Z"/><path class="cls-1" d="M215.62,245.24c3.42,2.75,4.06,6,2.07,11-.85.85-1.67,1.73-2.55,2.55-2.67,2.48-5.59,4.26-9.5,3.88s-6.8-4.77-6.44-8.74c.34-3.74,2.89-5.57,5.14-7.58C208,243.06,212.62,242.84,215.62,245.24Z"/><path class="cls-1" d="M200.16,228.68c4.93,0,7.62,5.23,6.73,9-1,4.14-3.85,6.37-7.07,8.2-4.08,2.32-7.51,1.48-10.4-1.31-2.32-2.23-2.89-7.06-.29-10.26,1.71-2.09,4.18-3.58,6.59-5.61Z"/><path class="cls-1" d="M225.62,217.65c1,2.07.33,4.92.14,7.69-1.75,1.76-3.3,3.82-5.31,5.21-3.72,2.57-10.88,2.21-12.84-3.07-2.23-6,2.37-11.63,7.59-13.2C220.78,212.59,223.89,214,225.62,217.65Z"/><path class="cls-1" d="M244,200.91c1.74,1.81,2.94,4.07,2.08,7A12.41,12.41,0,0,1,233.9,217c-5.3,0-8.3-4.5-6.91-9.68,1-3.6,3.53-5.44,6.56-7.57L236,199A7.49,7.49,0,0,1,244,200.91Z"/><path class="cls-1" d="M232.73,186.08c2.09,2.18,1.86,4.53,1.24,7.19-.76,3.33-3.55,4.72-6,7-.39.19-.76.4-1.16.56-4.28,1.74-7.69,1.23-10.81-2.5-1.7-2-1.44-6.91.28-9.79,1.87-3.13,4.74-4.46,8.07-5.25S230.39,183.65,232.73,186.08Z"/><path class="cls-1" d="M207.7,198c4.46.24,8.17,5.31,6.87,9.6-1.37,4.5-4.89,7.05-8.8,8.53-2.44.92-5.79,1.21-8-1.56-3.18-4-4-6.15.17-12.63A11.34,11.34,0,0,1,207.7,198Z"/><path class="cls-1" d="M190.8,213.66a7.59,7.59,0,0,1,3.69,10.13c-1.82,4.12-5.21,6.05-9.39,7.27a6.84,6.84,0,0,1-6.78-1.51c-2.1-1.78-3.51-4.28-2.85-7.07,1.3-5.42,6.84-10.48,13-9.94Z"/><path class="cls-1" d="M174.79,111.63a48.84,48.84,0,0,1-.38,12.45,27.89,27.89,0,0,1-10,16.43,29.31,29.31,0,0,1-16.64,6.86,31,31,0,0,1-21.34-5.77c-3.52-3.42-7.9-6.32-10.38-10.38-4.82-7.88-7-16.61-4.68-26.06,2.28-9.24,7.23-16.2,15.78-20.62a30.18,30.18,0,0,1,19.56-2.8,33.49,33.49,0,0,1,17.51,8.73C170.31,96.13,174.29,103.14,174.79,111.63Zm-15.21,9.11c3.12.43,3.91-.27,4.7-4.45-.76-2.39-1.7-4.23-4.48-3.91-2,.22-3.73.6-3.87,3.08C155.78,118.37,157.18,120.41,159.58,120.74Zm-6-9.6c2.93-.94,4.1-2.6,3.44-5.29-.57-2.28-2.2-3.91-4.58-3.35a5.51,5.51,0,0,0-3.57,3,4.18,4.18,0,0,0,2,5.23A6.69,6.69,0,0,0,153.57,111.14Zm-2.09,17.29c1.78-.41,2.6-2.1,2.23-4.35-1.63-4.12-4.5-5.07-7-2.75-1.7,1.55-1.6,3.17-.76,5C147.08,128.92,149.43,128.89,151.48,128.43Zm-3.23-28.37a6.27,6.27,0,0,0,1.28-4.76c-.49-2.32-2.59-3.2-5.28-2.94-3.08.1-3.31,2.64-3.15,4.18a6.4,6.4,0,0,0,3,4.08A4.3,4.3,0,0,0,148.25,100.06Zm-1.64,15.81c.4-3.11-1.61-4.79-3.87-5.52-1-.33-3.06,1.05-4,2.19-1.47,1.84-.52,4.81,1.46,6C142.79,120,144.48,119.33,146.61,115.87ZM143,134.55c.42-1.5-.05-3.26-.28-5.05-1.75-2.25-3.61-2.44-5.79-1s-1.85,3.48-1.49,5.3c.47,2.31,2.83,2.77,4.7,2.92A3.73,3.73,0,0,0,143,134.55Zm-3.76-28.84c.09-3.56-3-6.46-5.92-5.48-2.31.78-3.23,3.41-2.13,6.06,1,2.49,3.26,3.46,5.5,2.18A9.65,9.65,0,0,0,139.24,105.71Zm-6,21.15a4.76,4.76,0,0,0,3.18-5.21,4.71,4.71,0,0,0-4.41-3.69,4.21,4.21,0,0,0-3.94,4.17,4.26,4.26,0,0,0,.14,1.25C129,125.49,131.58,127.28,133.28,126.86Zm-4.46-12.35a7.1,7.1,0,0,0-.63-4.94c-.78-1.56-2.59-2-4.42-1.46a14.47,14.47,0,0,0-1.64.53c-1.84,1.57-2.14,3.58-1,5.18a7.13,7.13,0,0,0,4.18,2.84A4.22,4.22,0,0,0,128.82,114.51Z"/><path class="cls-2" d="M364.85,315c5.11,4.21,8.33,12.22,1.71,17.71-2.13,1.78-4.24,3.59-6.42,5.31q-8.38,6.57-16.83,13.09c-5.12,4-10.27,7.9-15.37,11.9-5.54,4.35-11,8.81-16.55,13.12-6,4.67-12.26,9.05-18.16,13.86-7.62,6.22-12.6,4.67-18.41,0-2.81-2.25-5-5.31-7.51-7.91Q253.6,368,239.81,354c-6.76-6.85-13.65-13.57-20.39-20.45-3.14-3.22-5.82-6.77-6.84-11.36a3.19,3.19,0,0,0-2.61-1.64c-4.71.37-8.34-2.24-10.83-5.28-5.73-7-10.87-14.49-15.9-22-9.44-14.13-18.59-28.46-27.92-42.66-6.23-9.48-12.57-18.9-18.87-28.34q-7.84-11.78-15.73-23.53-9.94-14.92-19.87-29.87c-4.12-6.18-8.3-12.31-12.37-18.52-6.68-10.18-14.25-19.78-19.74-30.76-4-7.93-8.43-15.62-12.73-23.38-2.8-5.06-5.54-10.17-8.63-15-2.68-4.23-2.76-5.6,1.33-8.75,1.53-1.18,2.1-2.29.52-4.27-3.39-4.25-6.31-8.87-9.53-13.27Q31.1,43.13,22.38,31.46q-4.69-6.29-9.65-12.39a3.23,3.23,0,0,0-2.49-1.18c-2.74.47-4.08-1.38-5.45-3s-2.21-3.36-3.4-5C-1.27,6.27-.26.62,5.7,0c3.39.2,9.91,6.89,9.89,10.78s1.53,6.65,3.92,9.59C24.1,26,28.06,32.21,32.4,38.08c6.63,9,13.38,17.82,20,26.76,1.75,2.35,2.74,2.59,5.16,1,1.23-.82,2.48-1.62,3.75-2.36,1.57-.92,3-.94,4.28.64,1.71,2.17,3.47,4.3,5.18,6.48s3,4.93,5.12,6.41c5.26,3.63,11,6.61,16.41,10a5,5,0,0,0,6.11-.14c1.28-.88,2.7-1.57,4-2.44q12.46-8.53,24.9-17.11c6.83-4.72,13.74-8.42,22.69-6.75,7.16,1.33,12.58,5.3,16.75,10.42,6.74,8.29,12.54,17.35,18.63,26.16,5.91,8.57,11.63,17.26,17.53,25.83S215,140.2,221,148.81c7.58,10.77,15.27,21.47,22.79,32.29,6.84,9.84,13.45,19.85,20.29,29.69,5.93,8.51,12.14,16.83,18,25.36,4.67,6.76,10.05,13.14,12.08,21.42a6.21,6.21,0,0,0,1.95,3.05c4.95,4.08,10,8,15,12,5.29,4.25,10.53,8.57,15.85,12.78,6.69,5.3,13.44,10.51,20.17,15.76C353.11,305.77,359.1,310.23,364.85,315Zm-15.23,13.26c1.73-2.87.1-6.3-2.64-8.45-5.22-4.08-10.24-8.4-15.41-12.55q-12.19-9.78-24.47-19.48c-3.62-2.88-7.15-5.91-10.9-8.61-4.33-3.12-7.67-2.56-11.61.79-5.22,4.44-10.75,8.51-16.07,12.84-5.57,4.52-11,9.2-16.57,13.74-4.42,3.6-8.87,7.17-13.41,10.61s-3.81,9.19.23,13.51c4.69,5,9.7,9.71,14.51,14.6,9.19,9.33,18.33,18.72,27.54,28a24.41,24.41,0,0,0,3.64,2.59c4.19,1.85,7-.24,9.79-2.52,4.22-3.41,8.54-6.68,12.82-10q9.58-7.41,19.19-14.8c5.2-4,10.56-7.78,15.59-12A35,35,0,0,0,349.62,328.24Zm-60.14-63.81c.54-.47.4-1.72.57-2.62-1-.1-2.31-.65-3-.22-3,1.9-5.76,4.06-8.58,6.18-6.08,4.57-12.12,9.21-18.23,13.75-6.93,5.15-13.93,10.22-20.89,15.35-6.4,4.71-12.8,9.41-19.15,14.18a35.06,35.06,0,0,0-3.36,3.32c-.09,3.15.17,3.42,2.58,1.8,4.67-3.13,9.22-6.45,13.74-9.8,9.09-6.75,18.1-13.6,27.17-20.38q11.67-8.72,23.4-17.36C285.65,267.22,287.7,266,289.48,264.43Zm-19.82-23.84c2.25-5-2.14-10.53-6.78-10.81-5.71-.34-11.5,4.36-12.88,10.62-.74,3.35,4,8.11,8.05,8.3.92.05,1.84,0,2.77,0A14.34,14.34,0,0,0,269.66,240.59Zm-12.18-15.8c1.37-4.89-.89-8.42-3-9.44-4-2-7.33-1.53-11.21,1.4a17.83,17.83,0,0,0-3.13,3.13,7.3,7.3,0,0,0-1.36,7.57c1,2.72,2.61,4.59,5.6,5.14C249.44,233.52,256.09,229.6,257.48,224.79Zm-7.24,27.26c.17-5.57-6-8.7-10.87-6.85-4.09,1.54-7.16,4.26-8.4,8.81a7.53,7.53,0,0,0,6.51,9.21c4.72.27,8.58-1.24,11.08-5.18C249.63,256.36,249.71,254.06,250.24,252.05Zm-4.12-44.15c.86-2.92-.34-5.18-2.08-7a7.49,7.49,0,0,0-8-1.94l-2.45.78c-3,2.13-5.59,4-6.56,7.57-1.39,5.18,1.61,9.68,6.91,9.68A12.41,12.41,0,0,0,246.12,207.9Zm-7.75,29.84c.5-3.26-2.25-8.2-6.34-8.55a11.71,11.71,0,0,0-9.88,3.66c-3.94,3.31-3.64,7-2.92,9.93,1.09,4.4,7.69,6.12,11.74,4C234.61,244.84,237.65,242.36,238.37,237.74ZM234,193.27c.62-2.66.85-5-1.24-7.19-2.34-2.43-5-3.56-8.36-2.76s-6.2,2.12-8.07,5.25c-1.72,2.88-2,7.75-.28,9.79,3.12,3.73,6.53,4.24,10.81,2.5.4-.16.77-.37,1.16-.56C230.42,198,233.21,196.6,234,193.27Zm-3,75c1-5.27-5.49-10-11.08-8.17a12.45,12.45,0,0,0-8.9,9.46c-1,5.74,5.43,10.14,10.84,8.57A12.28,12.28,0,0,0,231,268.29Zm-5.24-43c.19-2.77.84-5.62-.14-7.69-1.73-3.65-4.84-5.06-10.42-3.37-5.22,1.57-9.82,7.19-7.59,13.2,2,5.28,9.12,5.64,12.84,3.07C222.46,229.16,224,227.1,225.76,225.34Zm-8.07,30.88c2-5,1.35-8.23-2.07-11-3-2.4-7.62-2.18-11.28,1.09-2.25,2-4.8,3.84-5.14,7.58-.36,4,2.49,8.35,6.44,8.74s6.83-1.4,9.5-3.88C216,258,216.84,257.07,217.69,256.22ZM217,159a3,3,0,0,0,.75-4.53q-7.6-11.33-15.34-22.57a2.9,2.9,0,0,0-4.32-.66q-13,9.26-25.93,18.67c-9.27,6.77-18.46,13.63-27.7,20.43-2.48,1.82-5.06,3.5-7.52,5.34-2.07,1.54-1.92,2.92-.42,5,3.63,5,7,10.24,10.54,15.37a11.44,11.44,0,0,0,1.1,1.21,46.45,46.45,0,0,0,3.34,5c1.39,1.93,2.92,1.63,4.6.41q12-8.67,24-17.31Q198.51,172.16,217,159Zm-2.41,48.64c1.3-4.29-2.41-9.36-6.87-9.6a11.34,11.34,0,0,0-9.76,3.94c-4.12,6.48-3.35,8.64-.17,12.63,2.21,2.77,5.56,2.48,8,1.56C209.68,214.68,213.2,212.13,214.57,207.63Zm-.46,102.81c.07-1,.6-2.3.16-3-3.68-5.92-7.54-11.72-11.33-17.57-4.73-7.31-9.39-14.66-14.19-21.93-5.3-8-10.79-15.92-16.08-23.94-5.46-8.29-10.74-16.7-16.2-25-4.23-6.43-8.64-12.73-12.91-19.13q-8.88-13.27-17.66-26.61c-4.51-6.84-8.89-13.77-13.43-20.58-6.6-9.89-13.33-19.7-20-29.56-6-9-12.09-17.85-19.28-26-6.38-7.21-12.1-15-18.2-22.45-1-1.19-2-3-3.92-2.17-.23.1.22,3,1,4.12,3.7,4.92,7.57,9.72,11.55,14.42,8.37,9.92,17,19.63,23.8,30.76,2.14,3.49,4.44,6.88,6.66,10.31,10.2,15.08,20.14,29.88,30,44.69q6.47,9.69,12.8,19.45c4.71,7.23,9.35,14.5,14.08,21.7q11.85,18,23.8,36c5.65,8.51,11.44,16.94,17.08,25.47,4.75,7.19,9.37,14.47,14,21.71,1.69,2.64,3.25,5.37,5.12,7.87C211.7,309.84,213.09,310,214.11,310.44Zm-7.22-72.78c.89-3.75-1.8-9-6.73-9h-4.44c-2.41,2-4.88,3.52-6.59,5.61-2.6,3.2-2,8,.29,10.26,2.89,2.79,6.32,3.63,10.4,1.31C203,244,205.9,241.8,206.89,237.66Zm-12.4-13.87a7.59,7.59,0,0,0-3.69-10.13l-2.32-1.12c-6.17-.54-11.71,4.52-13,9.94-.66,2.79.75,5.29,2.85,7.07a6.84,6.84,0,0,0,6.78,1.51C189.28,229.84,192.67,227.91,194.49,223.79Zm-20.08-99.71a48.84,48.84,0,0,0,.38-12.45c-.5-8.49-4.48-15.5-10.56-21.16a33.49,33.49,0,0,0-17.51-8.73,30.18,30.18,0,0,0-19.56,2.8c-8.55,4.42-13.5,11.38-15.78,20.62-2.34,9.45-.14,18.18,4.68,26.06,2.48,4.06,6.86,7,10.38,10.38a31,31,0,0,0,21.34,5.77,29.31,29.31,0,0,0,16.64-6.86A27.89,27.89,0,0,0,174.41,124.08Z"/><path class="cls-3" d="M347,319.79c2.74,2.15,4.37,5.58,2.64,8.45a35,35,0,0,1-7.77,8.32c-5,4.19-10.39,8-15.59,12q-9.61,7.38-19.19,14.8c-4.28,3.32-8.6,6.59-12.82,10-2.82,2.28-5.6,4.37-9.79,2.52a24.41,24.41,0,0,1-3.64-2.59c-9.21-9.3-18.35-18.69-27.54-28-4.81-4.89-9.82-9.59-14.51-14.6-4-4.32-4.64-10.18-.23-13.51s9-7,13.41-10.61c5.56-4.54,11-9.22,16.57-13.74,5.32-4.33,10.85-8.4,16.07-12.84,3.94-3.35,7.28-3.91,11.61-.79,3.75,2.7,7.28,5.73,10.9,8.61q12.24,9.74,24.47,19.48C336.74,311.39,341.76,315.71,347,319.79Z"/><path class="cls-4" d="M217.73,154.46A3,3,0,0,1,217,159q-18.45,13.22-36.92,26.37-12,8.63-24,17.31c-1.68,1.22-3.21,1.52-4.6-.41a46.45,46.45,0,0,1-3.34-5A11.44,11.44,0,0,1,147,196c-3.51-5.13-6.91-10.33-10.54-15.37-1.5-2.07-1.65-3.45.42-5,2.46-1.84,5-3.52,7.52-5.34,9.24-6.8,18.43-13.66,27.7-20.43q12.9-9.42,25.93-18.67a2.9,2.9,0,0,1,4.32.66Q210.12,143.14,217.73,154.46Z"/><path class="cls-5" d="M164.28,116.29c-.79,4.18-1.58,4.88-4.7,4.45-2.4-.33-3.8-2.37-3.65-5.28.14-2.48,1.9-2.86,3.87-3.08C162.58,112.06,163.52,113.9,164.28,116.29Z"/><path class="cls-6" d="M157,105.85c.66,2.69-.51,4.35-3.44,5.29a6.69,6.69,0,0,1-2.66-.45,4.18,4.18,0,0,1-2-5.23,5.51,5.51,0,0,1,3.57-3C154.81,101.94,156.44,103.57,157,105.85Z"/><path class="cls-7" d="M153.71,124.08c.37,2.25-.45,3.94-2.23,4.35-2,.46-4.4.49-5.57-2.07-.84-1.86-.94-3.48.76-5C149.21,119,152.08,120,153.71,124.08Z"/><path class="cls-8" d="M149.53,95.3a6.27,6.27,0,0,1-1.28,4.76,4.3,4.3,0,0,1-4.13.56,6.4,6.4,0,0,1-3-4.08c-.16-1.54.07-4.08,3.15-4.18C146.94,92.1,149,93,149.53,95.3Z"/><path class="cls-9" d="M142.74,110.35c2.26.73,4.27,2.41,3.87,5.52-2.13,3.46-3.82,4.14-6.38,2.64-2-1.16-2.93-4.13-1.46-6C139.68,111.4,141.73,110,142.74,110.35Z"/><path class="cls-10" d="M142.72,129.5c.23,1.79.7,3.55.28,5.05a3.73,3.73,0,0,1-2.86,2.18c-1.87-.15-4.23-.61-4.7-2.92-.36-1.82-.56-3.93,1.49-5.3S141,127.25,142.72,129.5Z"/><path class="cls-11" d="M133.32,100.23c2.94-1,6,1.92,5.92,5.48a9.65,9.65,0,0,1-2.55,2.76c-2.24,1.28-4.46.31-5.5-2.18C130.09,103.64,131,101,133.32,100.23Z"/><path class="cls-12" d="M136.46,121.65a4.76,4.76,0,0,1-3.18,5.21c-1.7.42-4.32-1.37-5-3.48a4.26,4.26,0,0,1-.14-1.25,4.21,4.21,0,0,1,3.94-4.17A4.71,4.71,0,0,1,136.46,121.65Z"/><path class="cls-13" d="M128.19,109.57a7.1,7.1,0,0,1,.63,4.94,4.22,4.22,0,0,1-3.55,2.15,7.13,7.13,0,0,1-4.18-2.84c-1.1-1.6-.8-3.61,1-5.18a14.47,14.47,0,0,1,1.64-.53C125.6,107.55,127.41,108,128.19,109.57Z"/></g></g></svg>