<?xml version="1.0" encoding="utf-8"?>
<!-- Generator: Adobe Illustrator 25.2.0, SVG Export Plug-In . SVG Version: 6.00 Build 0)  -->
<svg version="1.1" id="Layer_1" xmlns="http://www.w3.org/2000/svg" xmlns:xlink="http://www.w3.org/1999/xlink" x="0px" y="0px"
	 viewBox="0 0 450 225" style="enable-background:new 0 0 450 225;" xml:space="preserve">
<style type="text/css">
	.st0{clip-path:url(#SVGID_2_);}
	.st1{clip-path:url(#SVGID_4_);}
	.st2{clip-path:url(#SVGID_6_);}
	.st3{fill:#B1B1B2;}
	.st4{opacity:0.46;fill:#7E7E80;enable-background:new    ;}
	.st5{fill:#2B2B35;}
	.st6{enable-background:new    ;}
</style>
<g id="Graphics">
	<g>
		<defs>
			<path id="SVGID_1_" d="M12.4,0h425.3c6.8,0,12.3,5.5,12.3,12.3v200.3c0,6.8-5.5,12.3-12.3,12.3H12.4c-6.8,0-12.3-5.5-12.3-12.3
				V12.3C0.1,5.5,5.6,0,12.4,0z"/>
		</defs>
		<clipPath id="SVGID_2_">
			<use xlink:href="#SVGID_1_"  style="overflow:visible;"/>
		</clipPath>
		<g class="st0">
			<g>
				<defs>
					<rect id="SVGID_3_" x="-5.1" y="-5.1" width="460.3" height="235.3"/>
				</defs>
				<clipPath id="SVGID_4_">
					<use xlink:href="#SVGID_3_"  style="overflow:visible;"/>
				</clipPath>
				<g class="st1">
					<g>
						<defs>
							<rect id="SVGID_5_" x="-5.1" y="-5.1" width="460.3" height="235.3"/>
						</defs>
						<clipPath id="SVGID_6_">
							<use xlink:href="#SVGID_5_"  style="overflow:visible;"/>
						</clipPath>
						<g class="st2">
							
								<image style="overflow:visible;enable-background:new    ;" width="934" height="477" xlink:href="BD1DB6F7EC052D34.png"  transform="matrix(0.4934 0 0 0.4936 -5.4137 -5.224)">
							</image>
						</g>
					</g>
				</g>
			</g>
		</g>
	</g>
	<rect x="100.4" y="84.2" class="st3" width="249.1" height="2.1"/>
	<rect x="38" y="126.3" class="st3" width="316.6" height="2.1"/>
	<rect x="36.1" y="197.2" class="st3" width="90.6" height="2.1"/>
	<rect x="319.8" y="195.6" class="st3" width="100.4" height="2.1"/>
	<rect x="364.4" y="83.8" class="st3" width="51.1" height="2.1"/>
	<g>
		<path class="st3" d="M20.3,67.5h1c1.7,0,3.2-0.8,3.2-2.8c0-2-1.4-2.6-3.2-2.6h-2.8l0,8.2h1.9V67.5z M20.3,63.6h0.9
			c1,0,1.5,0.3,1.5,1.2c0,0.9-0.5,1.3-1.5,1.3h-0.9V63.6z"/>
		<path class="st3" d="M26.6,68.3h2.5l0.5,1.9h2L29,62.1h-2.2l-2.6,8.2h1.9L26.6,68.3z M27.8,63.5h0.1c0.2,0.9,0.4,1.8,0.7,2.6
			l0.2,0.7H27l0.2-0.7C27.4,65.4,27.6,64.4,27.8,63.5z"/>
		<path class="st3" d="M35.5,67.4l2.5-5.3H36L35.3,64c-0.2,0.6-0.5,1.2-0.7,1.8h-0.1c-0.2-0.6-0.5-1.2-0.7-1.8l-0.7-1.9h-2l2.5,5.3
			l0,2.9h1.9V67.4z"/>
		<polygon class="st3" points="44.4,70.3 44.4,63.7 46.7,63.7 46.7,62.1 40.3,62.1 40.3,63.7 42.6,63.7 42.6,70.3 		"/>
		<path class="st3" d="M54.6,66.2c0-2.7-1.5-4.2-3.7-4.2c-2.2,0-3.7,1.5-3.7,4.2c0,2.7,1.5,4.3,3.7,4.3S54.6,68.8,54.6,66.2z
			 M50.9,68.8c-1.1,0-1.8-1-1.8-2.7c0-1.6,0.7-2.6,1.8-2.6c1.1,0,1.8,1,1.8,2.6C52.7,67.8,52.1,68.8,50.9,68.8z"/>
		<polygon class="st3" points="17.8,78.7 20,78.7 20,85.4 21.9,85.4 21.9,78.7 24.1,78.7 24.1,77.1 17.8,77.1 		"/>
		<polygon class="st3" points="30.1,80.3 27.3,80.3 27.3,77.1 25.4,77.1 25.4,85.4 27.3,85.4 27.3,81.9 30.1,81.9 30.1,85.4 
			31.9,85.4 31.9,77.1 30.1,77.1 		"/>
		<polygon class="st3" points="35.7,81.9 38.5,81.9 38.5,80.3 35.7,80.3 35.7,78.7 39,78.7 39,77.1 33.8,77.1 33.9,85.4 39.1,85.4 
			39.1,83.7 35.7,83.7 		"/>
		<path class="st3" d="M46.5,77c-2.2,0-3.7,1.5-3.7,4.2c0,2.6,1.5,4.3,3.7,4.3c2.2,0,3.7-1.6,3.7-4.3C50.2,78.6,48.7,77,46.5,77z
			 M46.6,83.9c-1.1,0-1.8-1-1.8-2.7c0-1.6,0.7-2.6,1.8-2.6s1.8,1,1.8,2.6C48.4,82.8,47.7,83.9,46.6,83.9z"/>
		<path class="st3" d="M57.9,79.7c0-1.9-1.4-2.6-3.2-2.6h-2.9v8.2h1.9v-3h1l1.6,3h2.1l-1.9-3.3C57.3,81.7,57.9,80.9,57.9,79.7z
			 M53.6,81v-2.3h0.9c1,0,1.5,0.2,1.5,1c0,0.8-0.5,1.2-1.5,1.2L53.6,81z"/>
		<path class="st3" d="M61.7,77.1h-2.3v8.2h2.4c2.4,0,4-1.3,4-4.1C65.8,78.4,64.2,77.1,61.7,77.1z M61.6,83.8l-0.3-0.1v-5.1h0.3
			c1.4,0,2.3,0.6,2.3,2.6C64,83.1,63,83.8,61.6,83.8z"/>
		<polygon class="st3" points="69.3,81.9 72,81.9 72,80.3 69.3,80.3 69.3,78.7 72.5,78.7 72.5,77.1 67.4,77.1 67.4,85.4 72.7,85.4 
			72.7,83.7 69.3,83.7 		"/>
		<path class="st3" d="M80.4,79.7c0-1.9-1.4-2.6-3.2-2.6h-2.9l0,8.2h1.9v-3h1l1.6,3h2.1L78.9,82C79.8,81.7,80.4,80.9,80.4,79.7z
			 M76.1,78.6h0.9c1,0,1.5,0.2,1.5,1c0,0.8-0.5,1.2-1.5,1.2l-0.9,0.1V78.6z"/>
		<path class="st3" d="M87.8,77c-2.2,0-3.7,1.5-3.7,4.2c0,2.6,1.5,4.3,3.7,4.3c2.2,0,3.7-1.6,3.7-4.3C91.5,78.6,90,77,87.8,77z
			 M87.8,83.9c-1.1,0-1.8-1-1.8-2.7c0-1.6,0.7-2.6,1.8-2.6c1.1,0,1.8,1,1.8,2.6C89.6,82.8,88.9,83.9,87.8,83.9z"/>
		<polygon class="st3" points="98.2,78.7 98.2,77.1 93,77.1 93,85.4 94.9,85.4 94.9,82.1 97.7,82.1 97.7,80.6 94.9,80.6 94.9,78.7 
					"/>
	</g>
	<g>
		<path class="st3" d="M364.1,117.5h-2.8v9.8h2.9c2.9,0,4.8-1.6,4.8-4.9C369,119,367.1,117.5,364.1,117.5z M363.9,125.5l-0.4,0v-6.2
			h0.4c1.7,0,2.8,0.7,2.8,3.1C366.7,124.7,365.6,125.5,363.9,125.5z"/>
		<path class="st3" d="M374.8,117.3c-2.6,0-4.4,1.8-4.4,5c0,3.2,1.8,5.1,4.4,5.1c2.6,0,4.5-2,4.5-5.1
			C379.3,119.2,377.5,117.3,374.8,117.3z M374.8,125.6c-1.3,0-2.2-1.3-2.2-3.2c0-1.9,0.8-3.1,2.2-3.1s2.2,1.1,2.2,3.1
			C377,124.3,376.1,125.6,374.8,125.6z"/>
		<polygon class="st3" points="383.3,117.5 381.1,117.5 381.1,127.3 387.2,127.3 387.2,125.5 383.3,125.5 		"/>
		<polygon class="st3" points="391.1,117.5 388.9,117.5 388.9,127.3 395,127.3 395,125.5 391.1,125.5 		"/>
		<path class="st3" d="M398.4,117.5l-3.1,9.8h2.3l0.6-2.4h3l0.6,2.3h2.3l-3.1-9.8H398.4z M398.7,123.2l0.2-0.9
			c0.3-1,0.5-2.1,0.8-3.2h0.1c0.3,1,0.5,2.1,0.8,3.2l0.2,0.9H398.7z"/>
		<path class="st3" d="M412.4,120.6c0-2.4-1.7-3.1-3.8-3.1h-3.5v9.8h2.2v-3.5h1.2l1.9,3.5h2.5l-2.2-3.9
			C411.7,123,412.4,122.1,412.4,120.6z M407.3,119.3h1.1c1.2,0,1.8,0.3,1.8,1.3s-0.6,1.5-1.8,1.5h-1.1V119.3z"/>
		<path class="st3" d="M418.8,121.8l-1.3-0.5c-0.9-0.3-1.5-0.6-1.5-1.2c0-0.6,0.5-0.9,1.3-0.9c0.8,0,1.5,0.3,2.1,0.8l1.1-1.4
			c-0.8-0.8-2-1.3-3.1-1.3c-2,0-3.5,1.3-3.5,2.9c0,1.2,0.8,2.3,2,2.7l1.3,0.5c0.9,0.4,1.4,0.6,1.4,1.2s-0.5,0.9-1.4,0.9
			c-0.9-0.1-1.7-0.4-2.4-1l-1.3,1.5c1,0.9,2.3,1.4,3.6,1.5c2.3,0,3.7-1.4,3.7-3.1C420.8,123.2,420,122.1,418.8,121.8z"/>
	</g>
	<path class="st4" d="M369.5,78.1c0-2.4-3.3-2.3-3.3-3.5c0-0.6,0.3-0.8,0.9-0.8c0.5,0,1,0.2,1.4,0.6l0.9-1c-0.5-0.5-1.1-0.9-1.9-1
		v-1.3h-1.2v1.3c-1.1,0.2-1.9,1.2-1.9,2.3c0,2.3,3.3,2.2,3.3,3.5c0,0.6-0.3,0.9-1,0.9c-0.7,0-1.3-0.3-1.8-0.7l-0.8,1.2
		c0.6,0.5,1.4,0.8,2.2,0.9v1.3h1.2v-1.4C368.8,80.2,369.5,79.3,369.5,78.1z"/>
	<path class="st5" d="M403.6,192.8c-2.2,0-4.5-0.4-6.7,0c-2.2,0.4-4,1.6-6.2,1.2c-1.7-0.4-3.5-1.5-5.3-1c-0.6,0.2-1.2,0.6-1.6,1
		c-0.6,0.6-1.2,1.5-2,0.7c-0.2-0.2-0.5-0.2-0.8-0.1c-3.6,2-5.3,5.9-8.2,8.7c-2.7,2.6-9.3,5.9-12.1,1.8c-1-1.5-1-3.6-0.9-5.3
		c0.1-1.7,0.3-3.6,0.4-5.4c0-0.6,0.1-1.3,0.1-1.9c1.3-0.2,2.6-0.4,3.9-0.9c3.5-1.3,7.2-3.3,11-2.3c0.1,0.1,0.3,0.1,0.4,0.1
		c-0.9,1.4-1.9,2.8-2.8,4.1c-2.8,4-6.2,8.5-10.9,10.3c-0.8,0.3-0.4,1.5,0.3,1.2h0c4.5-1.7,7.7-5.5,10.4-9.3c1.5-2,2.9-4,4.2-6
		c0.5,0.1,1.1,0.1,1.6,0.1c1.4-0.3,2.6-1.1,3.5-2.2c0.6-0.6-0.3-1.5-0.9-0.9c-1,1.1-2,1.8-3.4,1.8c1.4-2.2,2.7-4.4,3.8-6.7
		c1.3-2.5,2.3-5,3.3-7.7c0.8-2.3,2-4.6,2.4-7.1c0.3-1.7,0.4-3.9-0.9-5.2c-1.1-1.1-2.9-1.2-4.4-1.2c-4.4-0.2-8.8,0.9-12.5,3.2
		c-3.6,2.5-6.3,6-7.8,10.1c-1.9,5.5-2.8,11.3-2.7,17.1c0,0,0,0.1,0,0.1c-1.2,0.1-2.5,0.1-3.7,0c-1.7,0-3.3,0.4-4.8,1
		c-0.7,0.4-1.6,0.6-2.4,0.4c-0.8-0.4-1.5-0.8-2.1-1.4c-0.4-0.4-0.9-0.6-1.5-0.6c-0.8,0.4-1.6,0.8-2.3,1.4c-0.5-0.4-0.7-1-0.9-1.7
		c0.6-1.1,1.1-2.2,1.5-3.4c1.3-3,2.6-6.3,2.4-9.6c0-0.4-0.3-0.6-0.7-0.6c-0.2,0-0.3,0.1-0.4,0.2c-2.1,2.1-2.7,5.3-5.1,6.9
		c-2.4,1.7-6.3,2.5-8.5,0.3c-0.3-0.2-0.7-0.2-0.9,0.1c-0.2,0.2-0.2,0.6,0,0.8l0.1,0c2.4,2.3,6.1,1.8,8.9,0.5
		c1.5-0.7,2.7-1.8,3.5-3.1c0.7-1.1,1.2-2.2,1.9-3.2c-0.2,2-1,3.9-1.7,5.7c-0.5,1.3-1,2.6-1.6,3.9c-0.2-0.4-0.6-0.7-1.1-0.9
		c-2-0.8-4.1,1.3-5.5,2.6c-4.2,4.1-8.3,8.4-11.2,13.5c-0.8,1.4-2.8,4.5-1.7,6.2c1.1,1.6,3.9,0.4,5.1-0.4c2.1-1.6,3.9-3.6,5.4-5.8
		c2-2.6,4.1-5.1,6.1-7.7c1-1.4,1.9-2.9,2.8-4.5c0.3,0.7,0.8,1.2,1.4,1.5c0.2,0.1,0.4,0.1,0.6,0c0.7-0.5,1.5-1,2.2-1.4
		c1.1,0.7,2,1.9,3.5,2c1.4,0.1,2.7-0.7,3.9-1.2c1.9-0.7,4-0.4,6-0.4c0.2,0,0.5,0,0.7,0c0,1.8-0.1,3.5-0.3,5.3
		c-0.3,2.1-0.2,4.1,0.2,6.2c0.6,2.1,2.3,3.6,4.4,4c2.5,0.4,5-0.2,7.1-1.5c2.3-1.3,4.2-3,5.8-5.1c1.5-2,3-4.2,5.2-5.5
		c1,0.6,1.9,0.4,2.8-0.5c0.8-0.7,1.3-1.3,2.5-1.3c1.2,0.2,2.3,0.5,3.4,1c2.1,0.6,4,0,5.9-0.7c2.6-0.8,5.1-0.4,7.7-0.4
		c0.4,0,0.6-0.4,0.6-0.7C404.1,193.1,403.9,192.8,403.6,192.8z M329.3,205.3c-1.4,1.7-3.1,4-5.4,4.5c-0.3,0.1-1.3,0.3-1.6,0
		c-0.3-0.3,0-0.8,0-1c0.3-1.2,0.9-2.4,1.5-3.5c2.7-4.6,6-8.7,9.9-12.3c0.7-0.7,1.5-1.4,2.2-2.1c0.8-0.7,2-1.9,3.1-1.6
		c0.6,0.2,0.8,0.6,1,1.1c-0.4,0.8-0.8,1.5-1.2,2.3C336.1,197.2,332.6,201.2,329.3,205.3z M361.4,179.3c1-4.4,2.6-8.7,5.8-11.9
		c2.9-2.9,6.7-4.7,10.7-5.1c1.9-0.3,3.9-0.3,5.8,0c2,0.3,2.4,1.8,2.3,3.7c-0.1,2.3-1.2,4.5-2.1,6.7c-0.9,2.4-1.7,4.8-2.8,7.1
		c-1.5,3-3.1,5.9-4.9,8.7c-1-0.3-2-0.5-3-0.6c-4-0.2-7.7,2.4-11.5,3.3c-0.5,0.1-1,0.1-1.6,0.2C360.4,187.2,360.5,183.2,361.4,179.3z
		"/>
	<g class="st6">
		<path class="st5" d="M130.9,81.7h-8.6l-6.6-10.2v10.2h-6.9V55.2h10.7c1.5,0,2.8,0.2,3.9,0.7c1.1,0.4,2,1,2.7,1.8
			c0.7,0.8,1.3,1.6,1.6,2.6c0.4,1,0.5,2,0.5,3.2c0,2-0.5,3.7-1.5,4.9c-1,1.3-2.4,2.1-4.3,2.5L130.9,81.7z M115.8,67h1.3
			c1.4,0,2.4-0.3,3.1-0.8c0.7-0.6,1.1-1.4,1.1-2.4c0-1.1-0.4-1.9-1.1-2.4c-0.7-0.6-1.8-0.8-3.1-0.8h-1.3V67z"/>
		<path class="st5" d="M150.3,61h-8.2v4.4h7.7v5.8h-7.7v4.6h8.2v5.8h-15.1V55.2h15.1V61z"/>
		<path class="st5" d="M166.7,61v20.7h-6.9V61h-5.7v-5.8h18.2V61H166.7z"/>
		<path class="st5" d="M183.7,55.2v26.5h-6.9V55.2H183.7z"/>
		<path class="st5" d="M212.7,81.7h-8.6l-6.6-10.2v10.2h-6.9V55.2h10.7c1.5,0,2.8,0.2,3.9,0.7c1.1,0.4,2,1,2.7,1.8
			c0.7,0.8,1.3,1.6,1.6,2.6c0.4,1,0.5,2,0.5,3.2c0,2-0.5,3.7-1.5,4.9c-1,1.3-2.4,2.1-4.3,2.5L212.7,81.7z M197.6,67h1.3
			c1.4,0,2.4-0.3,3.1-0.8c0.7-0.6,1.1-1.4,1.1-2.4c0-1.1-0.4-1.9-1.1-2.4c-0.7-0.6-1.8-0.8-3.1-0.8h-1.3V67z"/>
		<path class="st5" d="M232.1,61h-8.2v4.4h7.7v5.8h-7.7v4.6h8.2v5.8H217V55.2h15.1V61z"/>
		<path class="st5" d="M237.3,81.7l4.5-26.5h6.8l5.3,14.1l5.3-14.1h6.8l4.5,26.5h-6.9l-2.3-15.3l-6.3,15.3h-2.7l-5.9-15.3l-2.3,15.3
			H237.3z"/>
		<path class="st5" d="M291.3,61h-8.2v4.4h7.7v5.8h-7.7v4.6h8.2v5.8h-15.1V55.2h15.1V61z"/>
		<path class="st5" d="M297.7,81.7V55.2h6.9l12.7,16.2V55.2h6.9v26.5h-6.9l-12.7-16.2v16.2H297.7z"/>
		<path class="st5" d="M341.2,61v20.7h-6.9V61h-5.7v-5.8h18.2V61H341.2z"/>
	</g>
	<g class="st6">
		<path class="st5" d="M154,97.4v26.5h-6.9V97.4H154z"/>
	</g>
	<g class="st6">
		<path class="st5" d="M160.9,123.9V97.4h6.9l12.7,16.2V97.4h6.9v26.5h-6.9l-12.7-16.2v16.2H160.9z"/>
	</g>
	<g class="st6">
		<path class="st5" d="M213.8,106.2c-1.6-1.9-3.6-2.9-5.9-2.9c-1,0-2,0.2-2.9,0.6c-0.9,0.4-1.6,0.9-2.3,1.5
			c-0.6,0.6-1.1,1.4-1.5,2.3c-0.4,0.9-0.5,1.9-0.5,2.9c0,1.1,0.2,2,0.5,2.9c0.4,0.9,0.9,1.7,1.5,2.3c0.6,0.7,1.4,1.2,2.3,1.5
			c0.9,0.4,1.8,0.6,2.8,0.6c2.2,0,4.2-0.9,5.9-2.8v8.2l-0.7,0.2c-1.1,0.4-2,0.7-3,0.8c-0.9,0.2-1.8,0.3-2.7,0.3
			c-1.8,0-3.6-0.3-5.3-1c-1.7-0.7-3.2-1.7-4.4-2.9c-1.3-1.3-2.3-2.7-3.1-4.5c-0.8-1.7-1.2-3.6-1.2-5.6c0-2,0.4-3.9,1.1-5.6
			c0.8-1.7,1.8-3.2,3.1-4.4c1.3-1.2,2.8-2.2,4.4-2.9c1.7-0.7,3.5-1,5.3-1c1.1,0,2.1,0.1,3.1,0.3c1,0.2,2.1,0.6,3.2,1V106.2z"/>
	</g>
	<g class="st6">
		<path class="st5" d="M218.8,110.6c0-2,0.4-3.8,1.1-5.5c0.7-1.7,1.7-3.2,3-4.4c1.3-1.3,2.8-2.3,4.6-3c1.8-0.7,3.8-1.1,5.9-1.1
			c2.1,0,4.1,0.4,5.9,1.1c1.8,0.7,3.4,1.7,4.7,3c1.3,1.3,2.3,2.7,3,4.4c0.7,1.7,1.1,3.5,1.1,5.5c0,2-0.4,3.8-1.1,5.5
			c-0.7,1.7-1.7,3.2-3,4.4c-1.3,1.3-2.9,2.3-4.7,3c-1.8,0.7-3.8,1.1-5.9,1.1c-2.2,0-4.1-0.4-5.9-1.1c-1.8-0.7-3.3-1.7-4.6-3
			c-1.3-1.3-2.3-2.7-3-4.4C219.1,114.4,218.8,112.6,218.8,110.6z M226,110.6c0,1.1,0.2,2,0.6,2.9c0.4,0.9,0.9,1.7,1.6,2.3
			c0.7,0.7,1.5,1.2,2.4,1.5c0.9,0.4,1.9,0.5,2.9,0.5c1,0,2-0.2,2.9-0.5s1.7-0.9,2.4-1.5c0.7-0.7,1.2-1.4,1.6-2.3
			c0.4-0.9,0.6-1.9,0.6-2.9c0-1.1-0.2-2-0.6-2.9c-0.4-0.9-0.9-1.7-1.6-2.3c-0.7-0.7-1.5-1.2-2.4-1.5s-1.9-0.5-2.9-0.5
			c-1,0-2,0.2-2.9,0.5c-0.9,0.4-1.7,0.9-2.4,1.5c-0.7,0.7-1.2,1.4-1.6,2.3C226.2,108.6,226,109.6,226,110.6z"/>
		<path class="st5" d="M252.7,123.9l4.5-26.5h6.8l5.3,14.1l5.3-14.1h6.8l4.5,26.5H279l-2.3-15.3l-6.3,15.3h-2.7l-5.9-15.3l-2.3,15.3
			H252.7z"/>
		<path class="st5" d="M306.7,103.2h-8.2v4.4h7.7v5.8h-7.7v4.6h8.2v5.8h-15.1V97.4h15.1V103.2z"/>
	</g>
	<path class="st4" d="M435.2,213.6H15c-3.7,0-6.7-3-6.7-6.7V15.2c0-3.7,3-6.7,6.7-6.7h420.2c3.7,0,6.7,3,6.7,6.7V207
		C441.8,210.6,438.8,213.6,435.2,213.6z M15,10.6c-2.6,0-4.6,2.1-4.6,4.6V207c0,2.6,2.1,4.6,4.6,4.6h420.2c2.6,0,4.6-2.1,4.6-4.6
		V15.2c0-2.6-2.1-4.6-4.6-4.6H15z"/>
</g>
</svg>
