<?xml version="1.0" encoding="utf-8"?>
<!-- Generator: Adobe Illustrator 25.2.1, SVG Export Plug-In . SVG Version: 6.00 Build 0)  -->
<svg version="1.1" id="pieFifth" xmlns="http://www.w3.org/2000/svg" xmlns:xlink="http://www.w3.org/1999/xlink" x="0px" y="0px"
	 viewBox="0 0 863.8 262.6" style="enable-background:new 0 0 863.8 262.6;" xml:space="preserve">
<style type="text/css">
	.st0{fill:url(#SVGID_1_);}
	.st1{fill:#283E5E;}
	.st2{fill:#2F4972;}
	.st3{fill:#20344C;}
	.st4{fill:#212228;}
</style>
<linearGradient id="SVGID_1_" gradientUnits="userSpaceOnUse" x1="4162.1436" y1="-1707.25" x2="4304.8525" y2="-1707.25" gradientTransform="matrix(2.832769e-16 1 1 -2.832769e-16 2404.2097 -4041.0615)">
	<stop  offset="0.2746" style="stop-color:#2F4972"/>
	<stop  offset="0.5242" style="stop-color:#30A9DC;stop-opacity:0.7614"/>
	<stop  offset="0.6813" style="stop-color:#65A4AB;stop-opacity:0.9937"/>
	<stop  offset="0.7947" style="stop-color:#6BA6AD;stop-opacity:0.987"/>
	<stop  offset="0.8092" style="stop-color:#6CA6AE;stop-opacity:0.9862"/>
	<stop  offset="0.8801" style="stop-color:#8EB8C1;stop-opacity:0.9839"/>
	<stop  offset="0.9939" style="stop-color:#CCD9E5;stop-opacity:0.9803"/>
</linearGradient>
<path class="st0" d="M738.2,254.9v-42.1c0-4.3-2.6-7.8-5.7-7.8l-54.7-0.4c-0.1,0-0.2-0.1-0.2-0.3v-77.7c0-1-21.4-15.8-21.4,1.4
	c-0.2,43.7-0.4,92.4-0.4,92.4c0,7.3,4.2,13.3,9.4,13.3l45.7,0.1v21c0,4.3,2.6,7.8,5.7,7.8h15.9C735.6,262.8,738.2,259.3,738.2,254.9
	z"/>
<g id="XMLID_28_">
	<g>
		<polygon class="st1" points="849.5,103.8 848.6,129 824.4,129.2 613.3,134.7 608.9,135 608.9,102.8 		"/>
		<path class="st2" d="M602.8,83.3c-0.3-22.8,11.1-55.5,66.6-83.3l180.2,103.8l-239.9,7.8C609.6,111.6,603,100.1,602.8,83.3z"/>
		<path class="st3" d="M609.6,111.6l-0.7,23.4l-1.8,0.1c-1.2-5.2-6.3-28.5-4.3-51.8C603,100.1,609.6,111.6,609.6,111.6z"/>
	</g>
</g>
<g>
	<path class="st4" d="M634,43.3c-0.4-0.3-0.8-0.6-1.2-0.8s-0.8-0.2-1.2-0.2c-0.5,0-0.9,0.1-1.2,0.3s-0.5,0.5-0.5,0.9
		c0,0.3,0.1,0.5,0.2,0.6c0.2,0.2,0.4,0.3,0.6,0.4c0.3,0.1,0.5,0.2,0.9,0.3c0.3,0.1,0.6,0.2,0.9,0.3c1.2,0.4,2.2,1,2.7,1.7
		c0.6,0.7,0.9,1.6,0.9,2.7c0,0.8-0.1,1.4-0.4,2s-0.6,1.1-1.1,1.6c-0.5,0.4-1.1,0.8-1.8,1s-1.5,0.4-2.4,0.4c-1.9,0-3.6-0.6-5.2-1.7
		l1.6-3.1c0.6,0.5,1.1,0.9,1.7,1.1c0.6,0.2,1.1,0.4,1.7,0.4c0.6,0,1.1-0.1,1.4-0.4c0.3-0.3,0.5-0.6,0.5-1c0-0.2,0-0.4-0.1-0.6
		s-0.2-0.3-0.4-0.5c-0.2-0.1-0.4-0.3-0.7-0.4c-0.3-0.1-0.6-0.2-1.1-0.4s-1-0.3-1.5-0.5s-0.9-0.4-1.3-0.8c-0.4-0.3-0.7-0.7-0.9-1.2
		s-0.3-1.1-0.3-1.8s0.1-1.4,0.4-2c0.2-0.6,0.6-1.1,1-1.5s1-0.7,1.6-1c0.6-0.2,1.3-0.3,2.1-0.3c0.7,0,1.5,0.1,2.3,0.3
		s1.6,0.5,2.3,0.9L634,43.3z"/>
	<path class="st4" d="M642.3,45.3h5.5v-5.7h3.8l-0.1,14.7h-3.8v-6.1h-5.5v6.1h-3.8l0.1-14.7h3.8V45.3z"/>
	<path class="st4" d="M654.1,47c0-1.1,0.2-2.1,0.6-3.1c0.4-0.9,1-1.8,1.7-2.5s1.6-1.2,2.6-1.6c1-0.4,2.1-0.6,3.3-0.6
		s2.3,0.2,3.3,0.6c1,0.4,1.9,1,2.6,1.7c0.7,0.7,1.3,1.5,1.7,2.5c0.4,0.9,0.6,2,0.6,3.1s-0.2,2.1-0.6,3c-0.4,0.9-1,1.8-1.7,2.5
		s-1.6,1.2-2.6,1.6c-1,0.4-2.1,0.6-3.3,0.6s-2.3-0.2-3.3-0.6s-1.8-1-2.6-1.7c-0.7-0.7-1.3-1.5-1.7-2.5
		C654.3,49.1,654.1,48.1,654.1,47z M658.1,47c0,0.6,0.1,1.1,0.3,1.6s0.5,0.9,0.9,1.3c0.4,0.4,0.8,0.7,1.3,0.9s1,0.3,1.6,0.3
		s1.1-0.1,1.6-0.3s0.9-0.5,1.3-0.8c0.4-0.4,0.7-0.8,0.9-1.3s0.3-1,0.3-1.6s-0.1-1.1-0.3-1.6s-0.5-0.9-0.9-1.3
		c-0.4-0.4-0.8-0.6-1.3-0.9s-1-0.3-1.6-0.3s-1.1,0.1-1.6,0.3s-0.9,0.5-1.3,0.8c-0.4,0.4-0.7,0.8-0.9,1.3
		C658.2,45.9,658.1,46.4,658.1,47z"/>
	<path class="st4" d="M685,54.5h-4.8l-3.6-5.7v5.7h-3.8l0.1-14.7h5.9c0.8,0,1.5,0.1,2.1,0.4c0.6,0.2,1.1,0.6,1.5,1s0.7,0.9,0.9,1.4
		s0.3,1.1,0.3,1.8c0,1.1-0.3,2-0.8,2.7s-1.3,1.2-2.4,1.4L685,54.5z M676.6,46.3h0.7c0.8,0,1.3-0.2,1.7-0.5s0.6-0.8,0.6-1.3
		s-0.2-1-0.6-1.3s-1-0.5-1.7-0.5h-0.7V46.3z"/>
	<path class="st4" d="M692.2,43v11.5h-3.8V43h-3.1v-3.2h10.1V43H692.2z"/>
	<path class="st4" d="M625.8,63h5.7c1,0,1.9,0.2,2.8,0.6c0.9,0.4,1.6,0.9,2.3,1.6s1.2,1.5,1.5,2.3c0.4,0.9,0.6,1.8,0.6,2.8
		s-0.2,1.9-0.6,2.8c-0.4,0.9-0.9,1.7-1.5,2.3c-0.7,0.7-1.4,1.2-2.3,1.6c-0.9,0.4-1.8,0.6-2.8,0.6h-5.7V63z M629.6,74.4h0.9
		c0.7,0,1.3-0.1,1.8-0.3c0.5-0.2,1-0.5,1.3-0.9c0.4-0.4,0.6-0.8,0.8-1.3s0.3-1,0.3-1.6s-0.1-1.1-0.3-1.6s-0.5-0.9-0.8-1.3
		s-0.8-0.7-1.3-0.9c-0.5-0.2-1.1-0.3-1.8-0.3h-0.9C629.6,66.2,629.6,74.4,629.6,74.4z"/>
	<path class="st4" d="M645,63v8c0,0.4,0,0.9,0,1.3s0.1,0.9,0.3,1.2c0.2,0.4,0.4,0.7,0.8,0.9c0.3,0.2,0.8,0.3,1.5,0.3
		c0.6,0,1.1-0.1,1.5-0.3c0.4-0.2,0.6-0.5,0.8-0.9s0.3-0.8,0.3-1.2c0-0.4,0.1-0.9,0.1-1.3v-8h3.8v8.5c0,2.3-0.5,4-1.6,5
		c-1,1-2.7,1.6-4.8,1.6c-2.2,0-3.8-0.5-4.8-1.6s-1.6-2.7-1.6-5V63H645z"/>
	<path class="st4" d="M669.2,77.8h-4.8l-3.6-5.7v5.7H657l0.1-14.7h5.9c0.8,0,1.5,0.1,2.1,0.4c0.6,0.2,1.1,0.6,1.5,1
		c0.4,0.4,0.7,0.9,0.9,1.4s0.3,1.1,0.3,1.8c0,1.1-0.3,2-0.8,2.7s-1.3,1.2-2.4,1.4L669.2,77.8z M660.8,69.7h0.7
		c0.8,0,1.3-0.2,1.7-0.5s0.6-0.8,0.6-1.3s-0.2-1-0.6-1.3c-0.4-0.3-1-0.5-1.7-0.5h-0.7V69.7z"/>
	<path class="st4" d="M679.8,75.3h-5.5l-0.9,2.6h-4.1l5.6-14.7h4.2l5.5,14.7h-4.1L679.8,75.3z M678.8,72.4l-1.7-4.9l-1.7,4.9H678.8z
		"/>
	<path class="st4" d="M691.4,66.4v11.5h-3.8V66.4h-3.1v-3.2h10.1v3.2H691.4z"/>
	<path class="st4" d="M700.1,63.2L700,77.9h-3.8l0.1-14.7H700.1z"/>
	<path class="st4" d="M702.5,70.6c0-1.1,0.2-2.1,0.6-3.1c0.4-0.9,1-1.8,1.7-2.5s1.6-1.2,2.6-1.6s2.1-0.6,3.3-0.6s2.3,0.2,3.3,0.6
		s1.9,1,2.6,1.7c0.7,0.7,1.3,1.5,1.7,2.5c0.4,0.9,0.6,2,0.6,3.1s-0.2,2.1-0.6,3s-1,1.8-1.7,2.5s-1.6,1.2-2.6,1.6s-2.1,0.6-3.3,0.6
		s-2.3-0.2-3.3-0.6s-1.8-1-2.6-1.7c-0.7-0.7-1.3-1.5-1.7-2.5C702.7,72.7,702.5,71.7,702.5,70.6z M706.5,70.6c0,0.6,0.1,1.1,0.3,1.6
		s0.5,0.9,0.9,1.3s0.8,0.6,1.3,0.9c0.5,0.2,1,0.3,1.6,0.3s1.1-0.1,1.6-0.3s0.9-0.5,1.3-0.8c0.4-0.4,0.7-0.8,0.9-1.3s0.3-1,0.3-1.6
		s-0.1-1.1-0.3-1.6s-0.5-0.9-0.9-1.3s-0.8-0.6-1.3-0.9s-1-0.3-1.6-0.3s-1.1,0.1-1.6,0.3c-0.5,0.2-0.9,0.5-1.3,0.8
		c-0.4,0.4-0.7,0.8-0.9,1.3S706.5,70,706.5,70.6z"/>
	<path class="st4" d="M721.2,78l0.1-14.7h3.8l7,9v-9h3.8L735.8,78H732l-7-9v9H721.2z"/>
	<path class="st4" d="M625.7,86.4h5.7c1.4,0,2.4,0.3,3.1,1s1,1.6,1,2.8c0,0.7-0.1,1.4-0.4,1.8c-0.3,0.5-0.7,0.9-1.2,1.2
		c0.5,0.1,1,0.3,1.4,0.5s0.7,0.5,0.9,0.8s0.4,0.7,0.5,1.1s0.2,0.8,0.2,1.2c0,0.7-0.1,1.3-0.4,1.8c-0.2,0.5-0.6,1-1,1.3
		s-1,0.6-1.6,0.8c-0.6,0.2-1.3,0.3-2.1,0.3h-6.1L625.7,86.4L625.7,86.4z M629.5,98.1h0.8c1,0,1.7-0.1,2.1-0.4
		c0.4-0.2,0.6-0.6,0.6-1.2s-0.2-0.9-0.6-1.2c-0.4-0.2-1.1-0.4-2.1-0.4h-0.8V98.1z M629.5,92.2h0.7c1.2,0,1.8-0.5,1.8-1.4
		s-0.6-1.4-1.8-1.4h-0.7V92.2z"/>
	<path class="st4" d="M638.4,93.8c0-1.1,0.2-2.1,0.6-3.1c0.4-0.9,1-1.8,1.7-2.5s1.6-1.2,2.6-1.6s2.1-0.6,3.3-0.6s2.3,0.2,3.3,0.6
		s1.9,1,2.6,1.7s1.3,1.5,1.7,2.5c0.4,0.9,0.6,2,0.6,3.1s-0.2,2.1-0.6,3c-0.4,0.9-1,1.8-1.7,2.5s-1.6,1.2-2.6,1.6s-2.1,0.6-3.3,0.6
		s-2.3-0.2-3.3-0.6s-1.8-1-2.6-1.7c-0.7-0.7-1.3-1.5-1.7-2.5C638.6,95.9,638.4,94.9,638.4,93.8z M642.4,93.8c0,0.6,0.1,1.1,0.3,1.6
		s0.5,0.9,0.9,1.3s0.8,0.7,1.3,0.9s1,0.3,1.6,0.3s1.1-0.1,1.6-0.3c0.5-0.2,0.9-0.5,1.3-0.8c0.4-0.4,0.7-0.8,0.9-1.3s0.3-1,0.3-1.6
		s-0.1-1.1-0.3-1.6s-0.5-0.9-0.9-1.3s-0.8-0.6-1.3-0.9s-1-0.3-1.6-0.3s-1.1,0.1-1.6,0.3c-0.5,0.2-0.9,0.5-1.3,0.8
		c-0.4,0.3-0.7,0.8-0.9,1.3C642.5,92.7,642.4,93.2,642.4,93.8z"/>
	<path class="st4" d="M657.1,101.2l0.1-14.7h3.8l7,9v-9h3.8l-0.1,14.7h-3.8l-7-9v9H657.1z"/>
	<path class="st4" d="M674.9,86.5h5.7c1,0,1.9,0.2,2.8,0.6c0.9,0.4,1.6,0.9,2.3,1.6s1.2,1.5,1.5,2.3c0.4,0.9,0.6,1.8,0.6,2.8
		s-0.2,1.9-0.6,2.8c-0.4,0.9-0.9,1.7-1.6,2.3c-0.7,0.7-1.4,1.2-2.3,1.6c-0.9,0.4-1.8,0.6-2.8,0.6h-5.7L674.9,86.5z M678.7,98h0.9
		c0.7,0,1.3-0.1,1.8-0.3c0.5-0.2,1-0.5,1.3-0.9c0.4-0.4,0.6-0.8,0.8-1.3s0.3-1,0.3-1.6s-0.1-1.1-0.3-1.6s-0.5-0.9-0.8-1.3
		c-0.4-0.4-0.8-0.7-1.3-0.9c-0.5-0.2-1.1-0.3-1.8-0.3h-0.9V98z"/>
</g>
</svg>
