<?xml version="1.0" standalone="no"?><!DOCTYPE svg PUBLIC "-//W3C//DTD SVG 1.1//EN" "http://www.w3.org/Graphics/SVG/1.1/DTD/svg11.dtd"><svg version="1.1" id="pieFourth" xmlns:xlink="http://www.w3.org/1999/xlink" x="0px" y="0px" viewBox="0 0 863.8 180.9"  xml:space="preserve" xmlns="http://www.w3.org/2000/svg">

  <linearGradient id="SVGID_4_" gradientUnits="userSpaceOnUse" x1="322.9899" y1="137.4186" x2="681.8184" y2="137.4186" style="block-size:auto;height:auto;inline-size:auto;overflow-x:visible;overflow-y:visible;perspective-origin:0px 0px;transform-origin:0px 0px;vertical-align:baseline;width:auto;">
    <stop offset="0" style="block-size:auto;height:auto;inline-size:auto;overflow-x:visible;overflow-y:visible;perspective-origin:50% 50%;stop-color:rgb(47, 73, 114);transform-origin:0px 0px;vertical-align:baseline;width:auto;"/>
    <stop offset="0.2977" style="block-size:auto;height:auto;inline-size:auto;overflow-x:visible;overflow-y:visible;perspective-origin:50% 50%;stop-color:rgb(48, 169, 220);stop-opacity:0.7614;transform-origin:0px 0px;vertical-align:baseline;width:auto;"/>
    <stop offset="0.6547" style="block-size:auto;height:auto;inline-size:auto;overflow-x:visible;overflow-y:visible;perspective-origin:50% 50%;stop-color:rgb(101, 164, 171);stop-opacity:0.9937;transform-origin:0px 0px;vertical-align:baseline;width:auto;"/>
    <stop offset="0.702" style="block-size:auto;height:auto;inline-size:auto;overflow-x:visible;overflow-y:visible;perspective-origin:50% 50%;stop-color:rgb(112, 169, 177);stop-opacity:0.9914;transform-origin:0px 0px;vertical-align:baseline;width:auto;"/>
    <stop offset="0.7842" style="block-size:auto;height:auto;inline-size:auto;overflow-x:visible;overflow-y:visible;perspective-origin:50% 50%;stop-color:rgb(140, 184, 193);stop-opacity:0.9873;transform-origin:0px 0px;vertical-align:baseline;width:auto;"/>
    <stop offset="0.8905" style="block-size:auto;height:auto;inline-size:auto;overflow-x:visible;overflow-y:visible;perspective-origin:50% 50%;stop-color:rgb(185, 207, 218);stop-opacity:0.9822;transform-origin:0px 0px;vertical-align:baseline;width:auto;"/>
    <stop offset="0.9298" style="block-size:auto;height:auto;inline-size:auto;overflow-x:visible;overflow-y:visible;perspective-origin:50% 50%;stop-color:rgb(204, 217, 229);stop-opacity:0.9803;transform-origin:0px 0px;vertical-align:baseline;width:auto;"/>
  </linearGradient>
  <path class="c-445F78" d="M675.7,138.8c0,0-32.4-0.3-33.2-0.3h-295l-0.3-31.4c-6.1,0-23-16.3-23-9.9l-1.2,52.9c0,6.4,5,11.7,11.2,11.7&#10;                            h298.8c1.1,0.5,10.3,0,10.7-0.1c3.9,0.1,7.8,0.9,7.8,3.2c0.2,5.1-0.8,14.1,9.6,14.1h14.5c3.4,0,6.1-2.9,6.1-6.6v-27.1&#10;                            C681.8,141.7,679.1,138.8,675.7,138.8z" style="block-size:auto;d:path(&quot;M 675.7 138.8 C 675.7 138.8 643.3 138.5 642.5 138.5 H 347.5 L 347.2 107.1 C 341.1 107.1 324.2 90.8 324.2 97.2 L 323 150.1 C 323 156.5 328 161.8 334.2 161.8 H 633 C 634.1 162.3 643.3 161.8 643.7 161.7 C 647.6 161.8 651.5 162.6 651.5 164.9 C 651.7 170 650.7 179 661.1 179 H 675.6 C 679 179 681.7 176.1 681.7 172.4 V 145.3 C 681.8 141.7 679.1 138.8 675.7 138.8 Z&quot;);fill:url(&quot;#SVGID_4_&quot;);height:auto;inline-size:auto;overflow-x:visible;overflow-y:visible;perspective-origin:0px 0px;stroke:rgb(68, 95, 120);stroke-miterlimit:10;stroke-width:3px;transform-origin:0px 0px;vertical-align:baseline;width:auto;"/>
  <g id="XMLID_22_" style="block-size:auto;height:auto;inline-size:auto;overflow-x:visible;overflow-y:visible;perspective-origin:0px 0px;transform-origin:0px 0px;vertical-align:baseline;width:auto;">
    <g style="block-size:auto;height:auto;inline-size:auto;overflow-x:visible;overflow-y:visible;perspective-origin:0px 0px;transform-origin:0px 0px;vertical-align:baseline;width:auto;">
      <polygon class="c-4587B2" points="456.4,94.8 455.2,116 434.7,115.9 255.9,117 252.2,117.2 253.2,97.4 &#9;&#9;" style="block-size:auto;fill:rgb(69, 135, 178);height:auto;inline-size:auto;overflow-x:visible;overflow-y:visible;perspective-origin:0px 0px;transform-origin:0px 0px;vertical-align:baseline;width:auto;"/>
      <path class="c-4C96CC" d="M247.8,73.3c0.1-19.3,10.3-46.8,57.8-69.4l150.9,90.9l-203.3,2.6C253.2,97.4,247.7,87.6,247.8,73.3z" style="block-size:auto;d:path(&quot;M 247.8 73.3 C 247.9 54 258.1 26.5 305.6 3.9 L 456.5 94.8 L 253.2 97.4 C 253.2 97.4 247.7 87.6 247.8 73.3 Z&quot;);fill:rgb(76, 150, 204);height:auto;inline-size:auto;overflow-x:visible;overflow-y:visible;perspective-origin:0px 0px;transform-origin:0px 0px;vertical-align:baseline;width:auto;"/>
      <path class="c-377593" d="M252.2,117.2l-1.5,0c-0.9-4.4-4.8-24.3-2.8-44c-0.1,14.3,5.4,24.1,5.4,24.1L252.2,117.2z" style="block-size:auto;d:path(&quot;M 252.2 117.2 L 250.7 117.2 C 249.8 112.8 245.9 92.9 247.9 73.2 C 247.8 87.5 253.3 97.3 253.3 97.3 L 252.2 117.2 Z&quot;);fill:rgb(55, 117, 147);height:auto;inline-size:auto;overflow-x:visible;overflow-y:visible;perspective-origin:0px 0px;transform-origin:0px 0px;vertical-align:baseline;width:auto;"/>
    </g>
    <g style="block-size:auto;height:auto;inline-size:auto;overflow-x:visible;overflow-y:visible;perspective-origin:0px 0px;transform-origin:0px 0px;vertical-align:baseline;width:auto;">
    </g>
  </g>
  <g id="XMLID_21_" style="block-size:auto;height:auto;inline-size:auto;overflow-x:visible;overflow-y:visible;perspective-origin:0px 0px;transform-origin:0px 0px;vertical-align:baseline;width:auto;">
    <g style="block-size:auto;height:auto;inline-size:auto;overflow-x:visible;overflow-y:visible;perspective-origin:0px 0px;transform-origin:0px 0px;vertical-align:baseline;width:auto;">
    </g>
    <g style="block-size:auto;height:auto;inline-size:auto;overflow-x:visible;overflow-y:visible;perspective-origin:0px 0px;transform-origin:0px 0px;vertical-align:baseline;width:auto;">
    </g>
  </g>

  <g class="text" style="block-size:auto;height:auto;inline-size:auto;overflow-x:visible;overflow-y:visible;perspective-origin:0px 0px;transform-origin:0px 0px;vertical-align:baseline;width:auto;">
    <rect x="426" y="143" class="c-none" width="182.5" height="31.2" style="block-size:31.2px;fill:none;height:31.2px;inline-size:182.5px;overflow-x:visible;overflow-y:visible;perspective-origin:0px 0px;transform-origin:0px 0px;vertical-align:baseline;width:182.5px;x:426px;y:143px;"/>
    <path class="c-2B2B35" d="M430.2,144.2v11.6h-3v-11.6H430.2z" style="block-size:auto;d:path(&quot;M 430.2 144.2 V 155.8 H 427.2 V 144.2 H 430.2 Z&quot;);fill:rgb(43, 43, 53);height:auto;inline-size:auto;overflow-x:visible;overflow-y:visible;perspective-origin:0px 0px;transform-origin:0px 0px;vertical-align:baseline;width:auto;"/>
    <path class="c-2B2B35" d="M432.6,155.7v-11.6h3l5.6,7.1v-7.1h3v11.6h-3l-5.6-7.1v7.1H432.6z" style="block-size:auto;d:path(&quot;M 432.6 155.7 V 144.1 H 435.6 L 441.2 151.2 V 144.1 H 444.2 V 155.7 H 441.2 L 435.6 148.6 V 155.7 H 432.6 Z&quot;);fill:rgb(43, 43, 53);height:auto;inline-size:auto;overflow-x:visible;overflow-y:visible;perspective-origin:0px 0px;transform-origin:0px 0px;vertical-align:baseline;width:auto;"/>
    <path class="c-2B2B35" d="M455.1,148c-0.7-0.8-1.6-1.3-2.6-1.3c-0.5,0-0.9,0.1-1.3,0.2s-0.7,0.4-1,0.7s-0.5,0.6-0.7,1&#10;                              c-0.2,0.4-0.2,0.8-0.2,1.3c0,0.5,0.1,0.9,0.2,1.3c0.2,0.4,0.4,0.7,0.7,1c0.3,0.3,0.6,0.5,1,0.7s0.8,0.2,1.2,0.2&#10;                              c1,0,1.8-0.4,2.6-1.2v3.6l-0.3,0.1c-0.5,0.2-0.9,0.3-1.3,0.4c-0.4,0.1-0.8,0.1-1.2,0.1c-0.8,0-1.6-0.2-2.3-0.5&#10;                              c-0.7-0.3-1.4-0.7-1.9-1.3c-0.6-0.5-1-1.2-1.3-2c-0.3-0.8-0.5-1.6-0.5-2.5s0.2-1.7,0.5-2.4c0.3-0.7,0.8-1.4,1.3-1.9&#10;                              c0.6-0.5,1.2-1,1.9-1.3c0.7-0.3,1.5-0.5,2.3-0.5c0.5,0,0.9,0,1.4,0.1s0.9,0.2,1.4,0.5V148z" style="block-size:auto;d:path(&quot;M 455.1 148 C 454.4 147.2 453.5 146.7 452.5 146.7 C 452 146.7 451.6 146.8 451.2 146.9 S 450.5 147.3 450.2 147.6 S 449.7 148.2 449.5 148.6 C 449.3 149 449.3 149.4 449.3 149.9 C 449.3 150.4 449.4 150.8 449.5 151.2 C 449.7 151.6 449.9 151.9 450.2 152.2 C 450.5 152.5 450.8 152.7 451.2 152.9 S 452 153.1 452.4 153.1 C 453.4 153.1 454.2 152.7 455 151.9 V 155.5 L 454.7 155.6 C 454.2 155.8 453.8 155.9 453.4 156 C 453 156.1 452.6 156.1 452.2 156.1 C 451.4 156.1 450.6 155.9 449.9 155.6 C 449.2 155.3 448.5 154.9 448 154.3 C 447.4 153.8 447 153.1 446.7 152.3 C 446.4 151.5 446.2 150.7 446.2 149.8 S 446.4 148.1 446.7 147.4 C 447 146.7 447.5 146 448 145.5 C 448.6 145 449.2 144.5 449.9 144.2 C 450.6 143.9 451.4 143.7 452.2 143.7 C 452.7 143.7 453.1 143.7 453.6 143.8 S 454.5 144 455 144.3 V 148 Z&quot;);fill:rgb(43, 43, 53);height:auto;inline-size:auto;overflow-x:visible;overflow-y:visible;perspective-origin:0px 0px;transform-origin:0px 0px;vertical-align:baseline;width:auto;"/>
    <path class="c-2B2B35" d="M456.7,150c0-0.9,0.2-1.7,0.5-2.4s0.8-1.4,1.3-1.9c0.6-0.6,1.2-1,2-1.3c0.8-0.3,1.6-0.5,2.6-0.5&#10;                              c0.9,0,1.8,0.2,2.6,0.5c0.8,0.3,1.5,0.7,2,1.3s1,1.2,1.3,1.9s0.5,1.5,0.5,2.4c0,0.9-0.2,1.7-0.5,2.4s-0.8,1.4-1.3,1.9s-1.2,1-2,1.3&#10;                              c-0.8,0.3-1.6,0.5-2.6,0.5c-0.9,0-1.8-0.2-2.6-0.5c-0.8-0.3-1.5-0.7-2-1.3c-0.6-0.6-1-1.2-1.3-1.9S456.7,150.8,456.7,150z&#10;                              M459.8,150c0,0.5,0.1,0.9,0.3,1.3c0.2,0.4,0.4,0.7,0.7,1c0.3,0.3,0.6,0.5,1,0.7s0.8,0.2,1.3,0.2c0.4,0,0.9-0.1,1.3-0.2&#10;                              c0.4-0.2,0.7-0.4,1-0.7c0.3-0.3,0.5-0.6,0.7-1c0.2-0.4,0.3-0.8,0.3-1.3s-0.1-0.9-0.3-1.3c-0.2-0.4-0.4-0.7-0.7-1&#10;                              c-0.3-0.3-0.6-0.5-1-0.7c-0.4-0.2-0.8-0.2-1.3-0.2c-0.4,0-0.9,0.1-1.3,0.2c-0.4,0.2-0.7,0.4-1,0.7c-0.3,0.3-0.5,0.6-0.7,1&#10;                              C459.9,149.1,459.8,149.5,459.8,150z" style="block-size:auto;d:path(&quot;M 456.7 150 C 456.7 149.1 456.9 148.3 457.2 147.6 S 458 146.2 458.5 145.7 C 459.1 145.1 459.7 144.7 460.5 144.4 C 461.3 144.1 462.1 143.9 463.1 143.9 C 464 143.9 464.9 144.1 465.7 144.4 C 466.5 144.7 467.2 145.1 467.7 145.7 S 468.7 146.9 469 147.6 S 469.5 149.1 469.5 150 C 469.5 150.9 469.3 151.7 469 152.4 S 468.2 153.8 467.7 154.3 S 466.5 155.3 465.7 155.6 C 464.9 155.9 464.1 156.1 463.1 156.1 C 462.2 156.1 461.3 155.9 460.5 155.6 C 459.7 155.3 459 154.9 458.5 154.3 C 457.9 153.7 457.5 153.1 457.2 152.4 S 456.7 150.8 456.7 150 Z M 459.8 150 C 459.8 150.5 459.9 150.9 460.1 151.3 C 460.3 151.7 460.5 152 460.8 152.3 C 461.1 152.6 461.4 152.8 461.8 153 S 462.6 153.2 463.1 153.2 C 463.5 153.2 464 153.1 464.4 153 C 464.8 152.8 465.1 152.6 465.4 152.3 C 465.7 152 465.9 151.7 466.1 151.3 C 466.3 150.9 466.4 150.5 466.4 150 S 466.3 149.1 466.1 148.7 C 465.9 148.3 465.7 148 465.4 147.7 C 465.1 147.4 464.8 147.2 464.4 147 C 464 146.8 463.6 146.8 463.1 146.8 C 462.7 146.8 462.2 146.9 461.8 147 C 461.4 147.2 461.1 147.4 460.8 147.7 C 460.5 148 460.3 148.3 460.1 148.7 C 459.9 149.1 459.8 149.5 459.8 150 Z&quot;);fill:rgb(43, 43, 53);height:auto;inline-size:auto;overflow-x:visible;overflow-y:visible;perspective-origin:0px 0px;transform-origin:0px 0px;vertical-align:baseline;width:auto;"/>
    <path class="c-2B2B35" d="M470.9,155.7l2-11.6h3l2.3,6.2l2.3-6.2h3l2,11.6h-3l-1-6.7l-2.7,6.7h-1.2l-2.6-6.7l-1,6.7H470.9z" style="block-size:auto;d:path(&quot;M 470.9 155.7 L 472.9 144.1 H 475.9 L 478.2 150.3 L 480.5 144.1 H 483.5 L 485.5 155.7 H 482.5 L 481.5 149 L 478.8 155.7 H 477.6 L 475 149 L 474 155.7 H 470.9 Z&quot;);fill:rgb(43, 43, 53);height:auto;inline-size:auto;overflow-x:visible;overflow-y:visible;perspective-origin:0px 0px;transform-origin:0px 0px;vertical-align:baseline;width:auto;"/>
    <path class="c-2B2B35" d="M493.9,146.7h-3.6v1.9h3.4v2.5h-3.4v2h3.6v2.5h-6.6v-11.6h6.6V146.7z" style="block-size:auto;d:path(&quot;M 493.9 146.7 H 490.3 V 148.6 H 493.7 V 151.1 H 490.3 V 153.1 H 493.9 V 155.6 H 487.3 V 144 H 493.9 V 146.7 Z&quot;);fill:rgb(43, 43, 53);height:auto;inline-size:auto;overflow-x:visible;overflow-y:visible;perspective-origin:0px 0px;transform-origin:0px 0px;vertical-align:baseline;width:auto;"/>
    <path class="c-2B2B35" d="M500.7,150c0-0.9,0.2-1.7,0.5-2.4s0.8-1.4,1.3-1.9c0.6-0.6,1.2-1,2-1.3c0.8-0.3,1.6-0.5,2.6-0.5&#10;                              c0.9,0,1.8,0.2,2.6,0.5c0.8,0.3,1.5,0.7,2,1.3s1,1.2,1.3,1.9s0.5,1.5,0.5,2.4c0,0.9-0.2,1.7-0.5,2.4s-0.8,1.4-1.3,1.9s-1.2,1-2,1.3&#10;                              c-0.8,0.3-1.6,0.5-2.6,0.5c-0.9,0-1.8-0.2-2.6-0.5c-0.8-0.3-1.5-0.7-2-1.3c-0.6-0.6-1-1.2-1.3-1.9S500.7,150.8,500.7,150z&#10;                              M503.9,150c0,0.5,0.1,0.9,0.3,1.3c0.2,0.4,0.4,0.7,0.7,1c0.3,0.3,0.6,0.5,1,0.7s0.8,0.2,1.3,0.2c0.4,0,0.9-0.1,1.3-0.2&#10;                              c0.4-0.2,0.7-0.4,1-0.7c0.3-0.3,0.5-0.6,0.7-1c0.2-0.4,0.3-0.8,0.3-1.3s-0.1-0.9-0.3-1.3c-0.2-0.4-0.4-0.7-0.7-1&#10;                              c-0.3-0.3-0.6-0.5-1-0.7c-0.4-0.2-0.8-0.2-1.3-0.2c-0.4,0-0.9,0.1-1.3,0.2c-0.4,0.2-0.7,0.4-1,0.7c-0.3,0.3-0.5,0.6-0.7,1&#10;                              C504,149.1,503.9,149.5,503.9,150z" style="block-size:auto;d:path(&quot;M 500.7 150 C 500.7 149.1 500.9 148.3 501.2 147.6 S 502 146.2 502.5 145.7 C 503.1 145.1 503.7 144.7 504.5 144.4 C 505.3 144.1 506.1 143.9 507.1 143.9 C 508 143.9 508.9 144.1 509.7 144.4 C 510.5 144.7 511.2 145.1 511.7 145.7 S 512.7 146.9 513 147.6 S 513.5 149.1 513.5 150 C 513.5 150.9 513.3 151.7 513 152.4 S 512.2 153.8 511.7 154.3 S 510.5 155.3 509.7 155.6 C 508.9 155.9 508.1 156.1 507.1 156.1 C 506.2 156.1 505.3 155.9 504.5 155.6 C 503.7 155.3 503 154.9 502.5 154.3 C 501.9 153.7 501.5 153.1 501.2 152.4 S 500.7 150.8 500.7 150 Z M 503.9 150 C 503.9 150.5 504 150.9 504.2 151.3 C 504.4 151.7 504.6 152 504.9 152.3 C 505.2 152.6 505.5 152.8 505.9 153 S 506.7 153.2 507.2 153.2 C 507.6 153.2 508.1 153.1 508.5 153 C 508.9 152.8 509.2 152.6 509.5 152.3 C 509.8 152 510 151.7 510.2 151.3 C 510.4 150.9 510.5 150.5 510.5 150 S 510.4 149.1 510.2 148.7 C 510 148.3 509.8 148 509.5 147.7 C 509.2 147.4 508.9 147.2 508.5 147 C 508.1 146.8 507.7 146.8 507.2 146.8 C 506.8 146.8 506.3 146.9 505.9 147 C 505.5 147.2 505.2 147.4 504.9 147.7 C 504.6 148 504.4 148.3 504.2 148.7 C 504 149.1 503.9 149.5 503.9 150 Z&quot;);fill:rgb(43, 43, 53);height:auto;inline-size:auto;overflow-x:visible;overflow-y:visible;perspective-origin:0px 0px;transform-origin:0px 0px;vertical-align:baseline;width:auto;"/>
    <path class="c-2B2B35" d="M515.4,155.7v-11.6h3l5.6,7.1v-7.1h3v11.6h-3l-5.6-7.1v7.1H515.4z" style="block-size:auto;d:path(&quot;M 515.4 155.7 V 144.1 H 518.4 L 524 151.2 V 144.1 H 527 V 155.7 H 524 L 518.4 148.6 V 155.7 H 515.4 Z&quot;);fill:rgb(43, 43, 53);height:auto;inline-size:auto;overflow-x:visible;overflow-y:visible;perspective-origin:0px 0px;transform-origin:0px 0px;vertical-align:baseline;width:auto;"/>
    <path class="c-2B2B35" d="M532.4,144.2v9h3.6v2.5h-6.6v-11.6H532.4z" style="block-size:auto;d:path(&quot;M 532.4 144.2 V 153.2 H 536 V 155.7 H 529.4 V 144.1 H 532.4 Z&quot;);fill:rgb(43, 43, 53);height:auto;inline-size:auto;overflow-x:visible;overflow-y:visible;perspective-origin:0px 0px;transform-origin:0px 0px;vertical-align:baseline;width:auto;"/>
    <path class="c-2B2B35" d="M539.2,150.2l-4.2-6h3.6l2.2,3.2l2.1-3.2h3.6l-4.2,6v5.6h-3V150.2z" style="block-size:auto;d:path(&quot;M 539.2 150.2 L 535 144.2 H 538.6 L 540.8 147.4 L 542.9 144.2 H 546.5 L 542.3 150.2 V 155.8 H 539.3 V 150.2 Z&quot;);fill:rgb(43, 43, 53);height:auto;inline-size:auto;overflow-x:visible;overflow-y:visible;perspective-origin:0px 0px;transform-origin:0px 0px;vertical-align:baseline;width:auto;"/>
  </g>
  <g class="title" style="block-size:auto;height:auto;inline-size:auto;overflow-x:visible;overflow-y:visible;perspective-origin:0px 0px;transform-origin:0px 0px;vertical-align:baseline;width:auto;">

    <rect x="356.5" y="-20.7" transform="matrix(4.967353e-03 -1 1 4.967353e-03 279.2698 470.982)" class="c-none" width="39.6" height="231.8" style="block-size:231.8px;fill:none;height:231.8px;inline-size:39.6px;overflow-x:visible;overflow-y:visible;perspective-origin:0px 0px;transform:matrix(0.00496735, -1, 1, 0.00496735, 279.27, 470.982);transform-origin:0px 0px;vertical-align:baseline;width:39.6px;x:356.5px;y:-20.7px;"/>
    <path class="c-2B2B35" d="M272.5,81.2c-0.9-1.1-2-1.6-3.3-1.6c-0.6,0-1.1,0.1-1.6,0.3c-0.5,0.2-0.9,0.5-1.3,0.8&#10;                              c-0.4,0.4-0.6,0.8-0.8,1.3c-0.2,0.5-0.3,1-0.3,1.6c0,0.6,0.1,1.1,0.3,1.6c0.2,0.5,0.5,0.9,0.8,1.3c0.4,0.4,0.8,0.7,1.3,0.9&#10;                              c0.5,0.2,1,0.3,1.6,0.3c1.2,0,2.3-0.5,3.3-1.5l0,4.5l-0.4,0.1c-0.6,0.2-1.1,0.4-1.6,0.5s-1,0.1-1.5,0.1c-1,0-2-0.2-2.9-0.6&#10;                              s-1.7-0.9-2.5-1.6c-0.7-0.7-1.3-1.5-1.7-2.5c-0.4-1-0.6-2-0.6-3.1c0-1.1,0.2-2.2,0.6-3.1c0.4-0.9,1-1.8,1.7-2.4&#10;                              c0.7-0.7,1.5-1.2,2.5-1.6c0.9-0.4,1.9-0.6,2.9-0.6c0.6,0,1.2,0.1,1.7,0.2c0.6,0.1,1.2,0.3,1.8,0.6L272.5,81.2z" style="block-size:auto;d:path(&quot;M 272.5 81.2 C 271.6 80.1 270.5 79.6 269.2 79.6 C 268.6 79.6 268.1 79.7 267.6 79.9 C 267.1 80.1 266.7 80.4 266.3 80.7 C 265.9 81.1 265.7 81.5 265.5 82 C 265.3 82.5 265.2 83 265.2 83.6 C 265.2 84.2 265.3 84.7 265.5 85.2 C 265.7 85.7 266 86.1 266.3 86.5 C 266.7 86.9 267.1 87.2 267.6 87.4 C 268.1 87.6 268.6 87.7 269.2 87.7 C 270.4 87.7 271.5 87.2 272.5 86.2 L 272.5 90.7 L 272.1 90.8 C 271.5 91 271 91.2 270.5 91.3 S 269.5 91.4 269 91.4 C 268 91.4 267 91.2 266.1 90.8 S 264.4 89.9 263.6 89.2 C 262.9 88.5 262.3 87.7 261.9 86.7 C 261.5 85.7 261.3 84.7 261.3 83.6 C 261.3 82.5 261.5 81.4 261.9 80.5 C 262.3 79.6 262.9 78.7 263.6 78.1 C 264.3 77.4 265.1 76.9 266.1 76.5 C 267 76.1 268 75.9 269 75.9 C 269.6 75.9 270.2 76 270.7 76.1 C 271.3 76.2 271.9 76.4 272.5 76.7 L 272.5 81.2 Z&quot;);fill:rgb(43, 43, 53);height:auto;inline-size:auto;overflow-x:visible;overflow-y:visible;perspective-origin:0px 0px;transform-origin:0px 0px;vertical-align:baseline;width:auto;"/>
    <path class="c-2B2B35" d="M274.5,83.7c0-1.1,0.2-2.1,0.6-3.1c0.4-0.9,1-1.8,1.7-2.5c0.7-0.7,1.6-1.2,2.6-1.6c1-0.4,2.1-0.6,3.3-0.6&#10;                              c1.2,0,2.3,0.2,3.3,0.6c1,0.4,1.9,1,2.6,1.7c0.7,0.7,1.3,1.5,1.7,2.5c0.4,0.9,0.6,2,0.6,3.1c0,1.1-0.2,2.1-0.6,3.1&#10;                              c-0.4,0.9-1,1.8-1.7,2.5c-0.7,0.7-1.6,1.2-2.6,1.6c-1,0.4-2.1,0.6-3.3,0.6c-1.2,0-2.3-0.2-3.3-0.6s-1.8-1-2.6-1.7&#10;                              c-0.7-0.7-1.3-1.5-1.7-2.5C274.7,85.8,274.5,84.8,274.5,83.7z M278.5,83.7c0,0.6,0.1,1.1,0.3,1.6c0.2,0.5,0.5,0.9,0.9,1.3&#10;                              c0.4,0.4,0.8,0.6,1.3,0.9c0.5,0.2,1,0.3,1.6,0.3c0.6,0,1.1-0.1,1.6-0.3c0.5-0.2,0.9-0.5,1.3-0.8c0.4-0.4,0.7-0.8,0.9-1.3&#10;                              c0.2-0.5,0.3-1,0.3-1.6c0-0.6-0.1-1.1-0.3-1.6c-0.2-0.5-0.5-0.9-0.9-1.3c-0.4-0.4-0.8-0.6-1.3-0.9c-0.5-0.2-1-0.3-1.6-0.3&#10;                              c-0.6,0-1.1,0.1-1.6,0.3c-0.5,0.2-0.9,0.5-1.3,0.8c-0.4,0.4-0.7,0.8-0.9,1.3C278.6,82.6,278.5,83.1,278.5,83.7z" style="block-size:auto;d:path(&quot;M 274.5 83.7 C 274.5 82.6 274.7 81.6 275.1 80.6 C 275.5 79.7 276.1 78.8 276.8 78.1 C 277.5 77.4 278.4 76.9 279.4 76.5 C 280.4 76.1 281.5 75.9 282.7 75.9 C 283.9 75.9 285 76.1 286 76.5 C 287 76.9 287.9 77.5 288.6 78.2 C 289.3 78.9 289.9 79.7 290.3 80.7 C 290.7 81.6 290.9 82.7 290.9 83.8 C 290.9 84.9 290.7 85.9 290.3 86.9 C 289.9 87.8 289.3 88.7 288.6 89.4 C 287.9 90.1 287 90.6 286 91 C 285 91.4 283.9 91.6 282.7 91.6 C 281.5 91.6 280.4 91.4 279.4 91 S 277.6 90 276.8 89.3 C 276.1 88.6 275.5 87.8 275.1 86.8 C 274.7 85.8 274.5 84.8 274.5 83.7 Z M 278.5 83.7 C 278.5 84.3 278.6 84.8 278.8 85.3 C 279 85.8 279.3 86.2 279.7 86.6 C 280.1 87 280.5 87.2 281 87.5 C 281.5 87.7 282 87.8 282.6 87.8 C 283.2 87.8 283.7 87.7 284.2 87.5 C 284.7 87.3 285.1 87 285.5 86.7 C 285.9 86.3 286.2 85.9 286.4 85.4 C 286.6 84.9 286.7 84.4 286.7 83.8 C 286.7 83.2 286.6 82.7 286.4 82.2 C 286.2 81.7 285.9 81.3 285.5 80.9 C 285.1 80.5 284.7 80.3 284.2 80 C 283.7 79.8 283.2 79.7 282.6 79.7 C 282 79.7 281.5 79.8 281 80 C 280.5 80.2 280.1 80.5 279.7 80.8 C 279.3 81.2 279 81.6 278.8 82.1 C 278.6 82.6 278.5 83.1 278.5 83.7 Z&quot;);fill:rgb(43, 43, 53);height:auto;inline-size:auto;overflow-x:visible;overflow-y:visible;perspective-origin:0px 0px;transform-origin:0px 0px;vertical-align:baseline;width:auto;"/>
    <path class="c-2B2B35" d="M305.4,91.1l-4.8,0l-3.6-5.7l0,5.7l-3.8,0l0.1-14.7l5.9,0c0.8,0,1.5,0.1,2.1,0.4c0.6,0.2,1.1,0.6,1.5,1&#10;                              c0.4,0.4,0.7,0.9,0.9,1.4c0.2,0.5,0.3,1.1,0.3,1.8c0,1.1-0.3,2-0.8,2.7c-0.5,0.7-1.3,1.2-2.4,1.4L305.4,91.1z M297,83l0.7,0&#10;                              c0.8,0,1.3-0.2,1.7-0.5c0.4-0.3,0.6-0.8,0.6-1.3s-0.2-1-0.6-1.3c-0.4-0.3-1-0.5-1.7-0.5l-0.7,0L297,83z" style="block-size:auto;d:path(&quot;M 305.4 91.1 L 300.6 91.1 L 297 85.4 L 297 91.1 L 293.2 91.1 L 293.3 76.4 L 299.2 76.4 C 300 76.4 300.7 76.5 301.3 76.8 C 301.9 77 302.4 77.4 302.8 77.8 C 303.2 78.2 303.5 78.7 303.7 79.2 C 303.9 79.7 304 80.3 304 81 C 304 82.1 303.7 83 303.2 83.7 C 302.7 84.4 301.9 84.9 300.8 85.1 L 305.4 91.1 Z M 297 83 L 297.7 83 C 298.5 83 299 82.8 299.4 82.5 C 299.8 82.2 300 81.7 300 81.2 S 299.8 80.2 299.4 79.9 C 299 79.6 298.4 79.4 297.7 79.4 L 297 79.4 L 297 83 Z&quot;);fill:rgb(43, 43, 53);height:auto;inline-size:auto;overflow-x:visible;overflow-y:visible;perspective-origin:0px 0px;transform-origin:0px 0px;vertical-align:baseline;width:auto;"/>
    <path class="c-2B2B35" d="M315.4,79.7l-4.5,0l0,2.5l4.3,0l0,3.2l-4.3,0l0,2.5l4.5,0l0,3.2l-8.4,0l0.1-14.7l8.4,0L315.4,79.7z" style="block-size:auto;d:path(&quot;M 315.4 79.7 L 310.9 79.7 L 310.9 82.2 L 315.2 82.2 L 315.2 85.4 L 310.9 85.4 L 310.9 87.9 L 315.4 87.9 L 315.4 91.1 L 307 91.1 L 307.1 76.4 L 315.5 76.4 L 315.4 79.7 Z&quot;);fill:rgb(43, 43, 53);height:auto;inline-size:auto;overflow-x:visible;overflow-y:visible;perspective-origin:0px 0px;transform-origin:0px 0px;vertical-align:baseline;width:auto;"/>
    <path class="c-2B2B35" d="M324.8,76.5l5.7,0c1.4,0,2.4,0.3,3.1,1c0.7,0.7,1,1.6,1,2.8c0,0.7-0.1,1.4-0.4,1.8c-0.3,0.5-0.7,0.9-1.2,1.2&#10;                              c0.5,0.1,1,0.3,1.4,0.5c0.4,0.2,0.7,0.5,0.9,0.8c0.2,0.3,0.4,0.7,0.5,1.1c0.1,0.4,0.2,0.8,0.2,1.2c0,0.7-0.1,1.3-0.4,1.8&#10;                              c-0.2,0.5-0.6,1-1,1.3c-0.4,0.4-1,0.6-1.6,0.8c-0.6,0.2-1.3,0.3-2.1,0.3l-6.1,0L324.8,76.5z M328.6,88.3l0.8,0c1,0,1.7-0.1,2.1-0.4&#10;                              c0.4-0.2,0.6-0.6,0.6-1.2c0-0.5-0.2-0.9-0.6-1.2s-1.1-0.4-2.1-0.4l-0.8,0L328.6,88.3z M328.6,82.3l0.7,0c1.2,0,1.8-0.5,1.8-1.4&#10;                              c0-0.9-0.6-1.4-1.8-1.4l-0.7,0L328.6,82.3z" style="block-size:auto;d:path(&quot;M 324.8 76.5 L 330.5 76.5 C 331.9 76.5 332.9 76.8 333.6 77.5 C 334.3 78.2 334.6 79.1 334.6 80.3 C 334.6 81 334.5 81.7 334.2 82.1 C 333.9 82.6 333.5 83 333 83.3 C 333.5 83.4 334 83.6 334.4 83.8 C 334.8 84 335.1 84.3 335.3 84.6 C 335.5 84.9 335.7 85.3 335.8 85.7 C 335.9 86.1 336 86.5 336 86.9 C 336 87.6 335.9 88.2 335.6 88.7 C 335.4 89.2 335 89.7 334.6 90 C 334.2 90.4 333.6 90.6 333 90.8 C 332.4 91 331.7 91.1 330.9 91.1 L 324.8 91.1 L 324.8 76.5 Z M 328.6 88.3 L 329.4 88.3 C 330.4 88.3 331.1 88.2 331.5 87.9 C 331.9 87.7 332.1 87.3 332.1 86.7 C 332.1 86.2 331.9 85.8 331.5 85.5 S 330.4 85.1 329.4 85.1 L 328.6 85.1 L 328.6 88.3 Z M 328.6 82.3 L 329.3 82.3 C 330.5 82.3 331.1 81.8 331.1 80.9 C 331.1 80 330.5 79.5 329.3 79.5 L 328.6 79.5 L 328.6 82.3 Z&quot;);fill:rgb(43, 43, 53);height:auto;inline-size:auto;overflow-x:visible;overflow-y:visible;perspective-origin:0px 0px;transform-origin:0px 0px;vertical-align:baseline;width:auto;"/>
    <path class="c-2B2B35" d="M337.5,83.9c0-1.1,0.2-2.1,0.6-3.1c0.4-0.9,1-1.8,1.7-2.5c0.7-0.7,1.6-1.2,2.6-1.6c1-0.4,2.1-0.6,3.3-0.6&#10;                              c1.2,0,2.3,0.2,3.3,0.6c1,0.4,1.9,1,2.6,1.7c0.7,0.7,1.3,1.5,1.7,2.5c0.4,0.9,0.6,2,0.6,3.1c0,1.1-0.2,2.1-0.6,3.1&#10;                              c-0.4,0.9-1,1.8-1.7,2.5c-0.7,0.7-1.6,1.2-2.6,1.6c-1,0.4-2.1,0.6-3.3,0.6c-1.2,0-2.3-0.2-3.3-0.6s-1.8-1-2.6-1.7&#10;                              c-0.7-0.7-1.3-1.5-1.7-2.5C337.7,86,337.5,85,337.5,83.9z M341.5,83.9c0,0.6,0.1,1.1,0.3,1.6c0.2,0.5,0.5,0.9,0.9,1.3&#10;                              c0.4,0.4,0.8,0.6,1.3,0.9c0.5,0.2,1,0.3,1.6,0.3c0.6,0,1.1-0.1,1.6-0.3c0.5-0.2,0.9-0.5,1.3-0.8c0.4-0.4,0.7-0.8,0.9-1.3&#10;                              c0.2-0.5,0.3-1,0.3-1.6c0-0.6-0.1-1.1-0.3-1.6c-0.2-0.5-0.5-0.9-0.9-1.3c-0.4-0.4-0.8-0.6-1.3-0.9c-0.5-0.2-1-0.3-1.6-0.3&#10;                              c-0.6,0-1.1,0.1-1.6,0.3c-0.5,0.2-0.9,0.5-1.3,0.8c-0.4,0.4-0.7,0.8-0.9,1.3C341.6,82.8,341.5,83.3,341.5,83.9z" style="block-size:auto;d:path(&quot;M 337.5 83.9 C 337.5 82.8 337.7 81.8 338.1 80.8 C 338.5 79.9 339.1 79 339.8 78.3 C 340.5 77.6 341.4 77.1 342.4 76.7 C 343.4 76.3 344.5 76.1 345.7 76.1 C 346.9 76.1 348 76.3 349 76.7 C 350 77.1 350.9 77.7 351.6 78.4 C 352.3 79.1 352.9 79.9 353.3 80.9 C 353.7 81.8 353.9 82.9 353.9 84 C 353.9 85.1 353.7 86.1 353.3 87.1 C 352.9 88 352.3 88.9 351.6 89.6 C 350.9 90.3 350 90.8 349 91.2 C 348 91.6 346.9 91.8 345.7 91.8 C 344.5 91.8 343.4 91.6 342.4 91.2 S 340.6 90.2 339.8 89.5 C 339.1 88.8 338.5 88 338.1 87 C 337.7 86 337.5 85 337.5 83.9 Z M 341.5 83.9 C 341.5 84.5 341.6 85 341.8 85.5 C 342 86 342.3 86.4 342.7 86.8 C 343.1 87.2 343.5 87.4 344 87.7 C 344.5 87.9 345 88 345.6 88 C 346.2 88 346.7 87.9 347.2 87.7 C 347.7 87.5 348.1 87.2 348.5 86.9 C 348.9 86.5 349.2 86.1 349.4 85.6 C 349.6 85.1 349.7 84.6 349.7 84 C 349.7 83.4 349.6 82.9 349.4 82.4 C 349.2 81.9 348.9 81.5 348.5 81.1 C 348.1 80.7 347.7 80.5 347.2 80.2 C 346.7 80 346.2 79.9 345.6 79.9 C 345 79.9 344.5 80 344 80.2 C 343.5 80.4 343.1 80.7 342.7 81 C 342.3 81.4 342 81.8 341.8 82.3 C 341.6 82.8 341.5 83.3 341.5 83.9 Z&quot;);fill:rgb(43, 43, 53);height:auto;inline-size:auto;overflow-x:visible;overflow-y:visible;perspective-origin:0px 0px;transform-origin:0px 0px;vertical-align:baseline;width:auto;"/>
    <path class="c-2B2B35" d="M356.2,91.3l0.1-14.7l3.8,0l7,9l0-9l3.8,0l-0.1,14.7l-3.8,0l-7-9l0,9L356.2,91.3z" style="block-size:auto;d:path(&quot;M 356.2 91.3 L 356.3 76.6 L 360.1 76.6 L 367.1 85.6 L 367.1 76.6 L 370.9 76.6 L 370.8 91.3 L 367 91.3 L 360 82.3 L 360 91.3 L 356.2 91.3 Z&quot;);fill:rgb(43, 43, 53);height:auto;inline-size:auto;overflow-x:visible;overflow-y:visible;perspective-origin:0px 0px;transform-origin:0px 0px;vertical-align:baseline;width:auto;"/>
    <path class="c-2B2B35" d="M374,76.7l5.7,0c1,0,1.9,0.2,2.8,0.6c0.9,0.4,1.6,0.9,2.3,1.6c0.7,0.7,1.2,1.5,1.5,2.3&#10;                              c0.4,0.9,0.6,1.8,0.6,2.8c0,1-0.2,1.9-0.6,2.8c-0.4,0.9-0.9,1.7-1.5,2.3c-0.7,0.7-1.4,1.2-2.3,1.6s-1.8,0.6-2.8,0.6l-5.7,0&#10;                              L374,76.7z M377.8,88.2l0.9,0c0.7,0,1.3-0.1,1.8-0.3c0.5-0.2,1-0.5,1.3-0.9c0.4-0.4,0.6-0.8,0.8-1.3c0.2-0.5,0.3-1,0.3-1.6&#10;                              c0-0.6-0.1-1.1-0.3-1.6c-0.2-0.5-0.5-0.9-0.8-1.3s-0.8-0.7-1.3-0.9c-0.5-0.2-1.1-0.3-1.8-0.3l-0.9,0L377.8,88.2z" style="block-size:auto;d:path(&quot;M 374 76.7 L 379.7 76.7 C 380.7 76.7 381.6 76.9 382.5 77.3 C 383.4 77.7 384.1 78.2 384.8 78.9 C 385.5 79.6 386 80.4 386.3 81.2 C 386.7 82.1 386.9 83 386.9 84 C 386.9 85 386.7 85.9 386.3 86.8 C 385.9 87.7 385.4 88.5 384.8 89.1 C 384.1 89.8 383.4 90.3 382.5 90.7 S 380.7 91.3 379.7 91.3 L 374 91.3 L 374 76.7 Z M 377.8 88.2 L 378.7 88.2 C 379.4 88.2 380 88.1 380.5 87.9 C 381 87.7 381.5 87.4 381.8 87 C 382.2 86.6 382.4 86.2 382.6 85.7 C 382.8 85.2 382.9 84.7 382.9 84.1 C 382.9 83.5 382.8 83 382.6 82.5 C 382.4 82 382.1 81.6 381.8 81.2 S 381 80.5 380.5 80.3 C 380 80.1 379.4 80 378.7 80 L 377.8 80 L 377.8 88.2 Z&quot;);fill:rgb(43, 43, 53);height:auto;inline-size:auto;overflow-x:visible;overflow-y:visible;perspective-origin:0px 0px;transform-origin:0px 0px;vertical-align:baseline;width:auto;"/>
    <path class="c-2B2B35" d="M397.4,80.5c-0.4-0.3-0.8-0.6-1.2-0.8c-0.4-0.2-0.8-0.2-1.2-0.2c-0.5,0-0.9,0.1-1.2,0.3&#10;                              c-0.3,0.2-0.5,0.5-0.5,0.9c0,0.3,0.1,0.5,0.2,0.6c0.2,0.2,0.4,0.3,0.6,0.4c0.3,0.1,0.5,0.2,0.9,0.3c0.3,0.1,0.6,0.2,0.9,0.3&#10;                              c1.2,0.4,2.2,1,2.7,1.7c0.6,0.7,0.9,1.6,0.9,2.7c0,0.8-0.1,1.4-0.4,2c-0.3,0.6-0.6,1.1-1.1,1.6c-0.5,0.4-1.1,0.8-1.8,1&#10;                              c-0.7,0.2-1.5,0.4-2.4,0.4c-1.9,0-3.6-0.6-5.2-1.7l1.6-3.1c0.6,0.5,1.1,0.9,1.7,1.1c0.6,0.2,1.1,0.4,1.7,0.4c0.6,0,1.1-0.1,1.4-0.4&#10;                              c0.3-0.3,0.5-0.6,0.5-1c0-0.2,0-0.4-0.1-0.6c-0.1-0.2-0.2-0.3-0.4-0.5c-0.2-0.1-0.4-0.3-0.7-0.4c-0.3-0.1-0.6-0.2-1.1-0.4&#10;                              c-0.5-0.2-1-0.3-1.5-0.5c-0.5-0.2-0.9-0.4-1.3-0.8c-0.4-0.3-0.7-0.7-0.9-1.2c-0.2-0.5-0.3-1.1-0.3-1.8c0-0.7,0.1-1.4,0.4-2&#10;                              c0.2-0.6,0.6-1.1,1-1.5c0.4-0.4,1-0.7,1.6-1c0.6-0.2,1.3-0.3,2.1-0.3c0.7,0,1.5,0.1,2.3,0.3c0.8,0.2,1.6,0.5,2.3,0.9L397.4,80.5z" style="block-size:auto;d:path(&quot;M 397.4 80.5 C 397 80.2 396.6 79.9 396.2 79.7 C 395.8 79.5 395.4 79.5 395 79.5 C 394.5 79.5 394.1 79.6 393.8 79.8 C 393.5 80 393.3 80.3 393.3 80.7 C 393.3 81 393.4 81.2 393.5 81.3 C 393.7 81.5 393.9 81.6 394.1 81.7 C 394.4 81.8 394.6 81.9 395 82 C 395.3 82.1 395.6 82.2 395.9 82.3 C 397.1 82.7 398.1 83.3 398.6 84 C 399.2 84.7 399.5 85.6 399.5 86.7 C 399.5 87.5 399.4 88.1 399.1 88.7 C 398.8 89.3 398.5 89.8 398 90.3 C 397.5 90.7 396.9 91.1 396.2 91.3 C 395.5 91.5 394.7 91.7 393.8 91.7 C 391.9 91.7 390.2 91.1 388.6 90 L 390.2 86.9 C 390.8 87.4 391.3 87.8 391.9 88 C 392.5 88.2 393 88.4 393.6 88.4 C 394.2 88.4 394.7 88.3 395 88 C 395.3 87.7 395.5 87.4 395.5 87 C 395.5 86.8 395.5 86.6 395.4 86.4 C 395.3 86.2 395.2 86.1 395 85.9 C 394.8 85.8 394.6 85.6 394.3 85.5 C 394 85.4 393.7 85.3 393.2 85.1 C 392.7 84.9 392.2 84.8 391.7 84.6 C 391.2 84.4 390.8 84.2 390.4 83.8 C 390 83.5 389.7 83.1 389.5 82.6 C 389.3 82.1 389.2 81.5 389.2 80.8 C 389.2 80.1 389.3 79.4 389.6 78.8 C 389.8 78.2 390.2 77.7 390.6 77.3 C 391 76.9 391.6 76.6 392.2 76.3 C 392.8 76.1 393.5 76 394.3 76 C 395 76 395.8 76.1 396.6 76.3 C 397.4 76.5 398.2 76.8 398.9 77.2 L 397.4 80.5 Z&quot;);fill:rgb(43, 43, 53);height:auto;inline-size:auto;overflow-x:visible;overflow-y:visible;perspective-origin:0px 0px;transform-origin:0px 0px;vertical-align:baseline;width:auto;"/>
  </g>
</svg>
