<?xml version="1.0" standalone="no"?><!DOCTYPE svg PUBLIC "-//W3C//DTD SVG 1.1//EN" "http://www.w3.org/Graphics/SVG/1.1/DTD/svg11.dtd"><svg version="1.1" id="pieSecond" xmlns:xlink="http://www.w3.org/1999/xlink" x="0px" y="0px" viewBox="0 0 863.8 180.9" style="block-size:129px;height:129px;inline-size:615.984px;perspective-origin:307.984px 64.5px;transform-origin:307.992px 64.5px;width:615.984px;" xml:space="preserve" xmlns="http://www.w3.org/2000/svg">

  <linearGradient id="SVGID_2_" gradientUnits="userSpaceOnUse" x1="130.3081" y1="128.2971" x2="681.9795" y2="128.2971" style="block-size:auto;height:auto;inline-size:auto;overflow-x:visible;overflow-y:visible;perspective-origin:0px 0px;transform-origin:0px 0px;vertical-align:baseline;width:auto;">
    <stop offset="0" style="block-size:auto;height:auto;inline-size:auto;overflow-x:visible;overflow-y:visible;perspective-origin:50% 50%;stop-color:rgb(100, 142, 61);transform-origin:0px 0px;vertical-align:baseline;width:auto;"/>
    <stop offset="0.1245" style="block-size:auto;height:auto;inline-size:auto;overflow-x:visible;overflow-y:visible;perspective-origin:50% 50%;stop-color:rgb(146, 192, 76);transform-origin:0px 0px;vertical-align:baseline;width:auto;"/>
    <stop offset="0.5964" style="block-size:auto;height:auto;inline-size:auto;overflow-x:visible;overflow-y:visible;perspective-origin:50% 50%;stop-color:rgb(128, 157, 61);transform-origin:0px 0px;vertical-align:baseline;width:auto;"/>
    <stop offset="0.7131" style="block-size:auto;height:auto;inline-size:auto;overflow-x:visible;overflow-y:visible;perspective-origin:50% 50%;stop-color:rgb(129, 159, 62);transform-origin:0px 0px;vertical-align:baseline;width:auto;"/>
    <stop offset="0.7551" style="block-size:auto;height:auto;inline-size:auto;overflow-x:visible;overflow-y:visible;perspective-origin:50% 50%;stop-color:rgb(134, 166, 66);transform-origin:0px 0px;vertical-align:baseline;width:auto;"/>
    <stop offset="0.785" style="block-size:auto;height:auto;inline-size:auto;overflow-x:visible;overflow-y:visible;perspective-origin:50% 50%;stop-color:rgb(141, 177, 72);transform-origin:0px 0px;vertical-align:baseline;width:auto;"/>
    <stop offset="0.7944" style="block-size:auto;height:auto;inline-size:auto;overflow-x:visible;overflow-y:visible;perspective-origin:50% 50%;stop-color:rgb(145, 183, 75);transform-origin:0px 0px;vertical-align:baseline;width:auto;"/>
  </linearGradient>
  <path class="c-719D71" d="M655.6,162.9c0,4.8-1.5,16.1,6.6,16.1h15.2c2.5,0,4.6-1.6,4.6-5v-25.6c0-3.4-2.1-7.4-4.6-7.4h-22.3&#10;c-0.4-0.1-506-0.1-506-0.1l-0.2-39.1c-4.4,0-18.6-29.2-18.6-23.2v74.3c0,6,3.6,10.9,8.1,10.9L655.6,162.9z" style="block-size:auto;d:path(&quot;M 655.6 162.9 C 655.6 167.7 654.1 179 662.2 179 H 677.4 C 679.9 179 682 177.4 682 174 V 148.4 C 682 145 679.9 141 677.4 141 H 655.1 C 654.7 140.9 149.1 140.9 149.1 140.9 L 148.9 101.8 C 144.5 101.8 130.3 72.6 130.3 78.6 V 152.9 C 130.3 158.9 133.9 163.8 138.4 163.8 L 655.6 162.9 Z&quot;);fill:url(&quot;#SVGID_2_&quot;);height:auto;inline-size:auto;overflow-x:visible;overflow-y:visible;perspective-origin:0px 0px;stroke:rgb(113, 157, 113);stroke-miterlimit:10;stroke-width:3px;transform-origin:0px 0px;vertical-align:baseline;width:auto;"/>
  <g id="XMLID_24_" style="block-size:auto;height:auto;inline-size:auto;overflow-x:visible;overflow-y:visible;perspective-origin:0px 0px;transform-origin:0px 0px;vertical-align:baseline;width:auto;">
    <g class="" style="block-size:auto;height:auto;inline-size:auto;overflow-x:visible;overflow-y:visible;perspective-origin:0px 0px;transform-origin:0px 0px;vertical-align:baseline;width:auto;">
      <polygon class="c-809D3D" points="299,99.8 297.7,122.9 275.5,122.8 81.4,124.8 77.3,125 78.4,98.3 &#9;&#9;" style="block-size:auto;fill:rgb(128, 157, 61);height:auto;inline-size:auto;overflow-x:visible;overflow-y:visible;perspective-origin:0px 0px;transform-origin:0px 0px;vertical-align:baseline;width:auto;"/>
      <path class="c-95C64F" d="M72.5,73.3c0.3-19.5,11.7-47.2,62.4-71.6L299,99.8L78.4,98.3C78.4,98.3,72.2,88.2,72.5,73.3z" style="block-size:auto;d:path(&quot;M 72.5 73.3 C 72.8 53.8 84.2 26.1 134.9 1.7 L 299 99.8 L 78.4 98.3 C 78.4 98.3 72.2 88.2 72.5 73.3 Z&quot;);fill:rgb(149, 198, 79);height:auto;inline-size:auto;overflow-x:visible;overflow-y:visible;perspective-origin:0px 0px;transform-origin:0px 0px;vertical-align:baseline;width:auto;"/>
      <path class="c-708437" d="M78.4,98.3l-1,26.7c0,0-8.2-26.9-4.9-51.7C72.2,88.2,78.4,98.3,78.4,98.3z" style="block-size:auto;d:path(&quot;M 78.4 98.3 L 77.4 125 C 77.4 125 69.2 98.1 72.5 73.3 C 72.2 88.2 78.4 98.3 78.4 98.3 Z&quot;);fill:rgb(112, 132, 55);height:auto;inline-size:auto;overflow-x:visible;overflow-y:visible;perspective-origin:0px 0px;transform-origin:0px 0px;vertical-align:baseline;width:auto;"/>
    </g>

  </g>
  <g class="title" style="block-size:auto;height:auto;inline-size:auto;overflow-x:visible;overflow-y:visible;perspective-origin:0px 0px;transform-origin:0px 0px;vertical-align:baseline;width:auto;">

    <rect x="84.4" y="49.6" transform="matrix(1 -3.861184e-03 3.861184e-03 1 -0.2999 0.759)" class="c-none" width="224.1" height="56.9" style="block-size:56.9px;fill:none;height:56.9px;inline-size:224.1px;overflow-x:visible;overflow-y:visible;perspective-origin:0px 0px;transform:matrix(1, -0.00386118, 0.00386118, 1, -0.2999, 0.759);transform-origin:0px 0px;vertical-align:baseline;width:224.1px;x:84.4px;y:49.6px;"/>
    <path class="c-2B2B35" d="M93.6,58.7l8.2,0c0,0.8,0,1.6-0.1,2.3c-0.1,0.7-0.2,1.3-0.4,1.9c-0.3,0.8-0.7,1.6-1.2,2.2&#10;c-0.5,0.6-1.1,1.2-1.8,1.6s-1.4,0.8-2.3,1c-0.8,0.2-1.7,0.3-2.6,0.3c-1.2,0-2.4-0.2-3.4-0.6c-1-0.4-1.9-1-2.6-1.7&#10;c-0.7-0.7-1.3-1.6-1.7-2.7c-0.4-1-0.6-2.2-0.6-3.4c0-1.2,0.2-2.4,0.6-3.4c0.4-1,1-1.9,1.7-2.7c0.7-0.7,1.6-1.3,2.7-1.7&#10;c1-0.4,2.2-0.6,3.5-0.6c1.7,0,3.1,0.3,4.4,1.1c1.3,0.7,2.3,1.8,3,3.3l-3.9,1.6c-0.4-0.9-0.8-1.5-1.4-1.9c-0.6-0.4-1.3-0.6-2-0.6&#10;c-0.6,0-1.2,0.1-1.7,0.4s-0.9,0.6-1.3,1c-0.4,0.4-0.6,1-0.8,1.6c-0.2,0.6-0.3,1.3-0.3,2c0,0.7,0.1,1.3,0.3,1.9s0.4,1.1,0.8,1.5&#10;s0.8,0.7,1.3,1c0.5,0.2,1.1,0.3,1.8,0.3c0.4,0,0.8,0,1.2-0.1c0.4-0.1,0.7-0.2,1-0.4c0.3-0.2,0.6-0.5,0.7-0.8&#10;c0.2-0.3,0.3-0.7,0.4-1.2l-3.4,0L93.6,58.7z" style="block-size:auto;d:path(&quot;M 93.6 58.7 L 101.8 58.7 C 101.8 59.5 101.8 60.3 101.7 61 C 101.6 61.7 101.5 62.3 101.3 62.9 C 101 63.7 100.6 64.5 100.1 65.1 C 99.6 65.7 99 66.3 98.3 66.7 S 96.9 67.5 96 67.7 C 95.2 67.9 94.3 68 93.4 68 C 92.2 68 91 67.8 90 67.4 C 89 67 88.1 66.4 87.4 65.7 C 86.7 65 86.1 64.1 85.7 63 C 85.3 62 85.1 60.8 85.1 59.6 C 85.1 58.4 85.3 57.2 85.7 56.2 C 86.1 55.2 86.7 54.3 87.4 53.5 C 88.1 52.8 89 52.2 90.1 51.8 C 91.1 51.4 92.3 51.2 93.6 51.2 C 95.3 51.2 96.7 51.5 98 52.3 C 99.3 53 100.3 54.1 101 55.6 L 97.1 57.2 C 96.7 56.3 96.3 55.7 95.7 55.3 C 95.1 54.9 94.4 54.7 93.7 54.7 C 93.1 54.7 92.5 54.8 92 55.1 S 91.1 55.7 90.7 56.1 C 90.3 56.5 90.1 57.1 89.9 57.7 C 89.7 58.3 89.6 59 89.6 59.7 C 89.6 60.4 89.7 61 89.9 61.6 S 90.3 62.7 90.7 63.1 S 91.5 63.8 92 64.1 C 92.5 64.3 93.1 64.4 93.8 64.4 C 94.2 64.4 94.6 64.4 95 64.3 C 95.4 64.2 95.7 64.1 96 63.9 C 96.3 63.7 96.6 63.4 96.7 63.1 C 96.9 62.8 97 62.4 97.1 61.9 L 93.7 61.9 L 93.6 58.7 Z&quot;);fill:rgb(43, 43, 53);height:auto;inline-size:auto;overflow-x:visible;overflow-y:visible;perspective-origin:0px 0px;transform-origin:0px 0px;vertical-align:baseline;width:auto;"/>
    <path class="c-2B2B35" d="M117.8,67.5l-5.2,0l-4-6.1l0,6.1l-4.1,0l-0.1-16l6.5,0c0.9,0,1.7,0.1,2.3,0.4s1.2,0.6,1.6,1.1&#10;c0.4,0.5,0.8,1,1,1.6c0.2,0.6,0.3,1.2,0.3,1.9c0,1.2-0.3,2.2-0.9,3c-0.6,0.8-1.4,1.3-2.6,1.5L117.8,67.5z M108.7,58.7l0.8,0&#10;c0.8,0,1.4-0.2,1.9-0.5c0.4-0.3,0.7-0.8,0.7-1.5c0-0.6-0.2-1.1-0.7-1.5c-0.4-0.3-1.1-0.5-1.9-0.5l-0.8,0L108.7,58.7z" style="block-size:auto;d:path(&quot;M 117.8 67.5 L 112.6 67.5 L 108.6 61.4 L 108.6 67.5 L 104.5 67.5 L 104.4 51.5 L 110.9 51.5 C 111.8 51.5 112.6 51.6 113.2 51.9 S 114.4 52.5 114.8 53 C 115.2 53.5 115.6 54 115.8 54.6 C 116 55.2 116.1 55.8 116.1 56.5 C 116.1 57.7 115.8 58.7 115.2 59.5 C 114.6 60.3 113.8 60.8 112.6 61 L 117.8 67.5 Z M 108.7 58.7 L 109.5 58.7 C 110.3 58.7 110.9 58.5 111.4 58.2 C 111.8 57.9 112.1 57.4 112.1 56.7 C 112.1 56.1 111.9 55.6 111.4 55.2 C 111 54.9 110.3 54.7 109.5 54.7 L 108.7 54.7 L 108.7 58.7 Z&quot;);fill:rgb(43, 43, 53);height:auto;inline-size:auto;overflow-x:visible;overflow-y:visible;perspective-origin:0px 0px;transform-origin:0px 0px;vertical-align:baseline;width:auto;"/>
    <path class="c-2B2B35" d="M118.5,59.6c0-1.2,0.2-2.3,0.6-3.3c0.4-1,1-1.9,1.8-2.7c0.8-0.8,1.7-1.4,2.8-1.8s2.3-0.7,3.6-0.7&#10;c1.3,0,2.5,0.2,3.6,0.6c1.1,0.4,2,1,2.8,1.8c0.8,0.8,1.4,1.6,1.8,2.7s0.7,2.1,0.7,3.3s-0.2,2.3-0.6,3.3s-1,1.9-1.8,2.7&#10;c-0.8,0.8-1.7,1.4-2.8,1.8c-1.1,0.4-2.3,0.7-3.6,0.7c-1.3,0-2.5-0.2-3.6-0.6c-1.1-0.4-2-1-2.8-1.8c-0.8-0.8-1.4-1.6-1.8-2.7&#10;C118.7,61.8,118.5,60.7,118.5,59.6z M122.8,59.5c0,0.6,0.1,1.2,0.4,1.8c0.2,0.5,0.6,1,1,1.4c0.4,0.4,0.9,0.7,1.4,0.9&#10;c0.5,0.2,1.1,0.3,1.7,0.3c0.6,0,1.2-0.1,1.7-0.3c0.5-0.2,1-0.5,1.4-0.9c0.4-0.4,0.7-0.9,1-1.4c0.2-0.5,0.4-1.1,0.4-1.8&#10;c0-0.6-0.1-1.2-0.4-1.8c-0.2-0.5-0.6-1-1-1.4c-0.4-0.4-0.9-0.7-1.4-0.9s-1.1-0.3-1.7-0.3c-0.6,0-1.2,0.1-1.7,0.3&#10;c-0.5,0.2-1,0.5-1.4,0.9c-0.4,0.4-0.7,0.9-1,1.4C123,58.3,122.8,58.9,122.8,59.5z" style="block-size:auto;d:path(&quot;M 118.5 59.6 C 118.5 58.4 118.7 57.3 119.1 56.3 C 119.5 55.3 120.1 54.4 120.9 53.6 C 121.7 52.8 122.6 52.2 123.7 51.8 S 126 51.1 127.3 51.1 C 128.6 51.1 129.8 51.3 130.9 51.7 C 132 52.1 132.9 52.7 133.7 53.5 C 134.5 54.3 135.1 55.1 135.5 56.2 S 136.2 58.3 136.2 59.5 S 136 61.8 135.6 62.8 S 134.6 64.7 133.8 65.5 C 133 66.3 132.1 66.9 131 67.3 C 129.9 67.7 128.7 68 127.4 68 C 126.1 68 124.9 67.8 123.8 67.4 C 122.7 67 121.8 66.4 121 65.6 C 120.2 64.8 119.6 64 119.2 62.9 C 118.7 61.8 118.5 60.7 118.5 59.6 Z M 122.8 59.5 C 122.8 60.1 122.9 60.7 123.2 61.3 C 123.4 61.8 123.8 62.3 124.2 62.7 C 124.6 63.1 125.1 63.4 125.6 63.6 C 126.1 63.8 126.7 63.9 127.3 63.9 C 127.9 63.9 128.5 63.8 129 63.6 C 129.5 63.4 130 63.1 130.4 62.7 C 130.8 62.3 131.1 61.8 131.4 61.3 C 131.6 60.8 131.8 60.2 131.8 59.5 C 131.8 58.9 131.7 58.3 131.4 57.7 C 131.2 57.2 130.8 56.7 130.4 56.3 C 130 55.9 129.5 55.6 129 55.4 S 127.9 55.1 127.3 55.1 C 126.7 55.1 126.1 55.2 125.6 55.4 C 125.1 55.6 124.6 55.9 124.2 56.3 C 123.8 56.7 123.5 57.2 123.2 57.7 C 123 58.3 122.8 58.9 122.8 59.5 Z&quot;);fill:rgb(43, 43, 53);height:auto;inline-size:auto;overflow-x:visible;overflow-y:visible;perspective-origin:0px 0px;transform-origin:0px 0px;vertical-align:baseline;width:auto;"/>
    <path class="c-2B2B35" d="M141.2,51.5l2.8,10.3l3.3-10.3l3.3,0l3.4,10.3l2.7-10.3l4.3,0l-4.7,16l-4.2,0l-3.2-9.2l-3.1,9.3l-4.2,0&#10;l-4.8-15.9L141.2,51.5z" style="block-size:auto;d:path(&quot;M 141.2 51.5 L 144 61.8 L 147.3 51.5 L 150.6 51.5 L 154 61.8 L 156.7 51.5 L 161 51.5 L 156.3 67.5 L 152.1 67.5 L 148.9 58.3 L 145.8 67.6 L 141.6 67.6 L 136.8 51.7 L 141.2 51.5 Z&quot;);fill:rgb(43, 43, 53);height:auto;inline-size:auto;overflow-x:visible;overflow-y:visible;perspective-origin:0px 0px;transform-origin:0px 0px;vertical-align:baseline;width:auto;"/>
    <path class="c-2B2B35" d="M169.7,54.9l0,12.4l-4.1,0l0-12.4l-3.4,0l0-3.5l11,0l0,3.5L169.7,54.9z" style="block-size:auto;d:path(&quot;M 169.7 54.9 L 169.7 67.3 L 165.6 67.3 L 165.6 54.9 L 162.2 54.9 L 162.2 51.4 L 173.2 51.4 L 173.2 54.9 L 169.7 54.9 Z&quot;);fill:rgb(43, 43, 53);height:auto;inline-size:auto;overflow-x:visible;overflow-y:visible;perspective-origin:0px 0px;transform-origin:0px 0px;vertical-align:baseline;width:auto;"/>
    <path class="c-2B2B35" d="M179.1,57.5l6,0l0-6.2l4.1,0l0.1,16l-4.1,0l0-6.6l-6,0l0,6.6l-4.1,0l-0.1-16l4.1,0L179.1,57.5z" style="block-size:auto;d:path(&quot;M 179.1 57.5 L 185.1 57.5 L 185.1 51.3 L 189.2 51.3 L 189.3 67.3 L 185.2 67.3 L 185.2 60.7 L 179.2 60.7 L 179.2 67.3 L 175.1 67.3 L 175 51.3 L 179.1 51.3 L 179.1 57.5 Z&quot;);fill:rgb(43, 43, 53);height:auto;inline-size:auto;overflow-x:visible;overflow-y:visible;perspective-origin:0px 0px;transform-origin:0px 0px;vertical-align:baseline;width:auto;"/>
    <path class="c-2B2B35" d="M210.5,61.1c0.8-0.8,1.5-1.6,2.1-2.3l2.4,2.3c-0.2,0.3-0.5,0.7-0.8,1s-0.7,0.7-1,1.1l-0.3,0.3l3.6,3.8l-5.2,0&#10;l-1.4-1.5c-1.9,1.3-3.7,1.9-5.5,1.9c-0.7,0-1.4-0.1-2.1-0.3s-1.2-0.5-1.6-0.9c-0.5-0.4-0.8-0.9-1.1-1.4c-0.3-0.6-0.4-1.2-0.4-1.8&#10;c0-0.6,0.1-1.1,0.2-1.6c0.2-0.5,0.4-0.9,0.8-1.3c0.3-0.3,0.6-0.6,1-0.8c0.4-0.2,0.8-0.5,1.3-0.7l0.4-0.2l-0.3-0.3&#10;c-0.8-1-1.2-2-1.2-2.9c0-0.6,0.1-1.2,0.4-1.7c0.3-0.5,0.6-1,1-1.4c0.4-0.4,1-0.7,1.6-0.9c0.6-0.2,1.3-0.3,2-0.3&#10;c0.7,0,1.4,0.1,2,0.3s1.1,0.5,1.6,0.9c0.4,0.4,0.8,0.9,1,1.4s0.4,1.1,0.4,1.7c0,0.4,0,0.8-0.1,1.2c-0.1,0.3-0.3,0.7-0.5,1&#10;c-0.2,0.3-0.5,0.6-0.9,0.9c-0.4,0.3-0.8,0.6-1.4,0.8L210.5,61.1z M204.9,60.5c-1,0.6-1.5,1.2-1.5,1.9c0,0.2,0,0.4,0.1,0.6&#10;s0.2,0.4,0.4,0.5c0.2,0.1,0.4,0.2,0.6,0.3c0.2,0.1,0.5,0.1,0.7,0.1c0.7,0,1.4-0.2,2.2-0.7L204.9,60.5z M206.6,57.1&#10;c1-0.6,1.5-1.3,1.5-2c0-0.4-0.1-0.7-0.4-1c-0.3-0.3-0.6-0.4-1-0.4c-0.4,0-0.7,0.1-1,0.4s-0.4,0.6-0.4,1&#10;C205.4,55.5,205.8,56.2,206.6,57.1z" style="block-size:auto;d:path(&quot;M 210.5 61.1 C 211.3 60.3 212 59.5 212.6 58.8 L 215 61.1 C 214.8 61.4 214.5 61.8 214.2 62.1 S 213.5 62.8 213.2 63.2 L 212.9 63.5 L 216.5 67.3 L 211.3 67.3 L 209.9 65.8 C 208 67.1 206.2 67.7 204.4 67.7 C 203.7 67.7 203 67.6 202.3 67.4 S 201.1 66.9 200.7 66.5 C 200.2 66.1 199.9 65.6 199.6 65.1 C 199.3 64.5 199.2 63.9 199.2 63.3 C 199.2 62.7 199.3 62.2 199.4 61.7 C 199.6 61.2 199.8 60.8 200.2 60.4 C 200.5 60.1 200.8 59.8 201.2 59.6 C 201.6 59.4 202 59.1 202.5 58.9 L 202.9 58.7 L 202.6 58.4 C 201.8 57.4 201.4 56.4 201.4 55.5 C 201.4 54.9 201.5 54.3 201.8 53.8 C 202.1 53.3 202.4 52.8 202.8 52.4 C 203.2 52 203.8 51.7 204.4 51.5 C 205 51.3 205.7 51.2 206.4 51.2 C 207.1 51.2 207.8 51.3 208.4 51.5 S 209.5 52 210 52.4 C 210.4 52.8 210.8 53.3 211 53.8 S 211.4 54.9 211.4 55.5 C 211.4 55.9 211.4 56.3 211.3 56.7 C 211.2 57 211 57.4 210.8 57.7 C 210.6 58 210.3 58.3 209.9 58.6 C 209.5 58.9 209.1 59.2 208.5 59.4 L 210.5 61.1 Z M 204.9 60.5 C 203.9 61.1 203.4 61.7 203.4 62.4 C 203.4 62.6 203.4 62.8 203.5 63 S 203.7 63.4 203.9 63.5 C 204.1 63.6 204.3 63.7 204.5 63.8 C 204.7 63.9 205 63.9 205.2 63.9 C 205.9 63.9 206.6 63.7 207.4 63.2 L 204.9 60.5 Z M 206.6 57.1 C 207.6 56.5 208.1 55.8 208.1 55.1 C 208.1 54.7 208 54.4 207.7 54.1 C 207.4 53.8 207.1 53.7 206.7 53.7 C 206.3 53.7 206 53.8 205.7 54.1 S 205.3 54.7 205.3 55.1 C 205.4 55.5 205.8 56.2 206.6 57.1 Z&quot;);fill:rgb(43, 43, 53);height:auto;inline-size:auto;overflow-x:visible;overflow-y:visible;perspective-origin:0px 0px;transform-origin:0px 0px;vertical-align:baseline;width:auto;"/>
    <path class="c-2B2B35" d="M90.1,77.1l0.1,16l-4.1,0l-0.1-16L90.1,77.1z" style="block-size:auto;d:path(&quot;M 90.1 77.1 L 90.2 93.1 L 86.1 93.1 L 86 77.1 L 90.1 77.1 Z&quot;);fill:rgb(43, 43, 53);height:auto;inline-size:auto;overflow-x:visible;overflow-y:visible;perspective-origin:0px 0px;transform-origin:0px 0px;vertical-align:baseline;width:auto;"/>
    <path class="c-2B2B35" d="M93.5,93l-0.1-16l4.1,0l7.7,9.7l0-9.8l4.1,0l0.1,16l-4.1,0l-7.7-9.7l0,9.8L93.5,93z" style="block-size:auto;d:path(&quot;M 93.5 93 L 93.4 77 L 97.5 77 L 105.2 86.7 L 105.2 76.9 L 109.3 76.9 L 109.4 92.9 L 105.3 92.9 L 97.6 83.2 L 97.6 93 L 93.5 93 Z&quot;);fill:rgb(43, 43, 53);height:auto;inline-size:auto;overflow-x:visible;overflow-y:visible;perspective-origin:0px 0px;transform-origin:0px 0px;vertical-align:baseline;width:auto;"/>
    <path class="c-2B2B35" d="M124.5,82.3c-1-1.2-2.2-1.7-3.6-1.7c-0.6,0-1.2,0.1-1.7,0.3c-0.5,0.2-1,0.5-1.4,0.9c-0.4,0.4-0.7,0.9-0.9,1.4&#10;c-0.2,0.5-0.3,1.1-0.3,1.7c0,0.6,0.1,1.2,0.3,1.8c0.2,0.5,0.5,1,0.9,1.4c0.4,0.4,0.8,0.7,1.4,0.9s1.1,0.3,1.7,0.3&#10;c1.3,0,2.5-0.6,3.6-1.7l0,4.9l-0.4,0.1c-0.6,0.2-1.2,0.4-1.8,0.5c-0.5,0.1-1.1,0.2-1.6,0.2c-1.1,0-2.2-0.2-3.2-0.6&#10;c-1-0.4-1.9-1-2.7-1.7c-0.8-0.8-1.4-1.6-1.9-2.7c-0.5-1-0.7-2.2-0.7-3.4c0-1.2,0.2-2.4,0.7-3.4c0.5-1,1.1-1.9,1.8-2.7&#10;c0.8-0.7,1.7-1.3,2.7-1.7c1-0.4,2.1-0.6,3.2-0.6c0.6,0,1.3,0.1,1.9,0.2c0.6,0.1,1.3,0.3,1.9,0.6L124.5,82.3z" style="block-size:auto;d:path(&quot;M 124.5 82.3 C 123.5 81.1 122.3 80.6 120.9 80.6 C 120.3 80.6 119.7 80.7 119.2 80.9 C 118.7 81.1 118.2 81.4 117.8 81.8 C 117.4 82.2 117.1 82.7 116.9 83.2 C 116.7 83.7 116.6 84.3 116.6 84.9 C 116.6 85.5 116.7 86.1 116.9 86.7 C 117.1 87.2 117.4 87.7 117.8 88.1 C 118.2 88.5 118.6 88.8 119.2 89 S 120.3 89.3 120.9 89.3 C 122.2 89.3 123.4 88.7 124.5 87.6 L 124.5 92.5 L 124.1 92.6 C 123.5 92.8 122.9 93 122.3 93.1 C 121.8 93.2 121.2 93.3 120.7 93.3 C 119.6 93.3 118.5 93.1 117.5 92.7 C 116.5 92.3 115.6 91.7 114.8 91 C 114 90.2 113.4 89.4 112.9 88.3 C 112.4 87.3 112.2 86.1 112.2 84.9 C 112.2 83.7 112.4 82.5 112.9 81.5 C 113.4 80.5 114 79.6 114.7 78.8 C 115.5 78.1 116.4 77.5 117.4 77.1 C 118.4 76.7 119.5 76.5 120.6 76.5 C 121.2 76.5 121.9 76.6 122.5 76.7 C 123.1 76.8 123.8 77 124.4 77.3 L 124.5 82.3 Z&quot;);fill:rgb(43, 43, 53);height:auto;inline-size:auto;overflow-x:visible;overflow-y:visible;perspective-origin:0px 0px;transform-origin:0px 0px;vertical-align:baseline;width:auto;"/>
    <path class="c-2B2B35" d="M126.6,84.9c0-1.2,0.2-2.3,0.6-3.3c0.4-1,1-1.9,1.8-2.7c0.8-0.8,1.7-1.4,2.8-1.8c1.1-0.4,2.3-0.7,3.6-0.7&#10;c1.3,0,2.5,0.2,3.6,0.6c1.1,0.4,2,1,2.8,1.8c0.8,0.8,1.4,1.6,1.8,2.7c0.4,1,0.7,2.1,0.7,3.3c0,1.2-0.2,2.3-0.6,3.3s-1,1.9-1.8,2.7&#10;s-1.7,1.4-2.8,1.8c-1.1,0.4-2.3,0.7-3.6,0.7c-1.3,0-2.5-0.2-3.6-0.6s-2-1-2.8-1.8c-0.8-0.8-1.4-1.6-1.8-2.7S126.6,86.1,126.6,84.9z&#10;M130.9,84.9c0,0.6,0.1,1.2,0.4,1.8c0.2,0.5,0.6,1,1,1.4c0.4,0.4,0.9,0.7,1.4,0.9c0.5,0.2,1.1,0.3,1.7,0.3c0.6,0,1.2-0.1,1.7-0.3&#10;c0.5-0.2,1-0.5,1.4-0.9c0.4-0.4,0.7-0.9,1-1.4c0.2-0.5,0.4-1.1,0.4-1.8c0-0.6-0.1-1.2-0.4-1.8c-0.2-0.5-0.6-1-1-1.4&#10;c-0.4-0.4-0.9-0.7-1.4-0.9c-0.5-0.2-1.1-0.3-1.7-0.3c-0.6,0-1.2,0.1-1.7,0.3s-1,0.5-1.4,0.9s-0.7,0.9-1,1.4&#10;C131.1,83.7,130.9,84.3,130.9,84.9z" style="block-size:auto;d:path(&quot;M 126.6 84.9 C 126.6 83.7 126.8 82.6 127.2 81.6 C 127.6 80.6 128.2 79.7 129 78.9 C 129.8 78.1 130.7 77.5 131.8 77.1 C 132.9 76.7 134.1 76.4 135.4 76.4 C 136.7 76.4 137.9 76.6 139 77 C 140.1 77.4 141 78 141.8 78.8 C 142.6 79.6 143.2 80.4 143.6 81.5 C 144 82.5 144.3 83.6 144.3 84.8 C 144.3 86 144.1 87.1 143.7 88.1 S 142.7 90 141.9 90.8 S 140.2 92.2 139.1 92.6 C 138 93 136.8 93.3 135.5 93.3 C 134.2 93.3 133 93.1 131.9 92.7 S 129.9 91.7 129.1 90.9 C 128.3 90.1 127.7 89.3 127.3 88.2 S 126.6 86.1 126.6 84.9 Z M 130.9 84.9 C 130.9 85.5 131 86.1 131.3 86.7 C 131.5 87.2 131.9 87.7 132.3 88.1 C 132.7 88.5 133.2 88.8 133.7 89 C 134.2 89.2 134.8 89.3 135.4 89.3 C 136 89.3 136.6 89.2 137.1 89 C 137.6 88.8 138.1 88.5 138.5 88.1 C 138.9 87.7 139.2 87.2 139.5 86.7 C 139.7 86.2 139.9 85.6 139.9 84.9 C 139.9 84.3 139.8 83.7 139.5 83.1 C 139.3 82.6 138.9 82.1 138.5 81.7 C 138.1 81.3 137.6 81 137.1 80.8 C 136.6 80.6 136 80.5 135.4 80.5 C 134.8 80.5 134.2 80.6 133.7 80.8 S 132.7 81.3 132.3 81.7 S 131.6 82.6 131.3 83.1 C 131.1 83.7 130.9 84.3 130.9 84.9 Z&quot;);fill:rgb(43, 43, 53);height:auto;inline-size:auto;overflow-x:visible;overflow-y:visible;perspective-origin:0px 0px;transform-origin:0px 0px;vertical-align:baseline;width:auto;"/>
    <path class="c-2B2B35" d="M146.2,92.8l2.6-16l4.1,0l3.2,8.5l3.1-8.5l4.1,0l2.8,15.9l-4.1,0l-1.4-9.2l-3.7,9.2l-1.7,0l-3.6-9.2l-1.3,9.2&#10;L146.2,92.8z" style="block-size:auto;d:path(&quot;M 146.2 92.8 L 148.8 76.8 L 152.9 76.8 L 156.1 85.3 L 159.2 76.8 L 163.3 76.8 L 166.1 92.7 L 162 92.7 L 160.6 83.5 L 156.9 92.7 L 155.2 92.7 L 151.6 83.5 L 150.3 92.7 L 146.2 92.8 Z&quot;);fill:rgb(43, 43, 53);height:auto;inline-size:auto;overflow-x:visible;overflow-y:visible;perspective-origin:0px 0px;transform-origin:0px 0px;vertical-align:baseline;width:auto;"/>
    <path class="c-2B2B35" d="M177.9,80.3l-4.9,0l0,2.7l4.7,0l0,3.5l-4.7,0l0,2.8l4.9,0l0,3.5l-9.1,0l-0.1-16l9.1,0L177.9,80.3z" style="block-size:auto;d:path(&quot;M 177.9 80.3 L 173 80.3 L 173 83 L 177.7 83 L 177.7 86.5 L 173 86.5 L 173 89.3 L 177.9 89.3 L 177.9 92.8 L 168.8 92.8 L 168.7 76.8 L 177.8 76.8 L 177.9 80.3 Z&quot;);fill:rgb(43, 43, 53);height:auto;inline-size:auto;overflow-x:visible;overflow-y:visible;perspective-origin:0px 0px;transform-origin:0px 0px;vertical-align:baseline;width:auto;"/>
  </g>
  <g class="text" style="block-size:auto;height:auto;inline-size:auto;overflow-x:visible;overflow-y:visible;perspective-origin:0px 0px;transform-origin:0px 0px;vertical-align:baseline;width:auto;">
    <rect x="314.9" y="144.7" class="c-none" width="182.5" height="31.2" style="block-size:31.2px;fill:none;height:31.2px;inline-size:182.5px;overflow-x:visible;overflow-y:visible;perspective-origin:0px 0px;transform-origin:0px 0px;vertical-align:baseline;width:182.5px;x:314.9px;y:144.7px;"/>
    <path class="c-2B2B35" d="M335.7,145.9h4.5c0.8,0,1.5,0.2,2.2,0.5c0.7,0.3,1.3,0.7,1.8,1.3c0.5,0.5,0.9,1.1,1.2,1.8&#10;c0.3,0.7,0.4,1.4,0.4,2.2c0,0.8-0.1,1.5-0.4,2.2s-0.7,1.3-1.2,1.8c-0.5,0.5-1.1,1-1.8,1.3c-0.7,0.3-1.4,0.5-2.2,0.5h-4.5V145.9z&#10;M338.7,154.9h0.7c0.5,0,1-0.1,1.4-0.2c0.4-0.2,0.8-0.4,1-0.7c0.3-0.3,0.5-0.6,0.6-1c0.1-0.4,0.2-0.8,0.2-1.3&#10;c0-0.5-0.1-0.9-0.2-1.3c-0.2-0.4-0.4-0.7-0.7-1c-0.3-0.3-0.6-0.5-1-0.7c-0.4-0.2-0.9-0.2-1.4-0.2h-0.7V154.9z" style="block-size:auto;d:path(&quot;M 335.7 145.9 H 340.2 C 341 145.9 341.7 146.1 342.4 146.4 C 343.1 146.7 343.7 147.1 344.2 147.7 C 344.7 148.2 345.1 148.8 345.4 149.5 C 345.7 150.2 345.8 150.9 345.8 151.7 C 345.8 152.5 345.7 153.2 345.4 153.9 S 344.7 155.2 344.2 155.7 C 343.7 156.2 343.1 156.7 342.4 157 C 341.7 157.3 341 157.5 340.2 157.5 H 335.7 V 145.9 Z M 338.7 154.9 H 339.4 C 339.9 154.9 340.4 154.8 340.8 154.7 C 341.2 154.5 341.6 154.3 341.8 154 C 342.1 153.7 342.3 153.4 342.4 153 C 342.5 152.6 342.6 152.2 342.6 151.7 C 342.6 151.2 342.5 150.8 342.4 150.4 C 342.2 150 342 149.7 341.7 149.4 C 341.4 149.1 341.1 148.9 340.7 148.7 C 340.3 148.5 339.8 148.5 339.3 148.5 H 338.6 V 154.9 Z&quot;);fill:rgb(43, 43, 53);height:auto;inline-size:auto;overflow-x:visible;overflow-y:visible;perspective-origin:0px 0px;transform-origin:0px 0px;vertical-align:baseline;width:auto;"/>
    <path class="c-2B2B35" d="M350.7,145.9v11.6h-3v-11.6H350.7z" style="block-size:auto;d:path(&quot;M 350.7 145.9 V 157.5 H 347.7 V 145.9 H 350.7 Z&quot;);fill:rgb(43, 43, 53);height:auto;inline-size:auto;overflow-x:visible;overflow-y:visible;perspective-origin:0px 0px;transform-origin:0px 0px;vertical-align:baseline;width:auto;"/>
    <path class="c-2B2B35" d="M355.2,145.9l2.8,7l2.8-7h3.3l-4.9,11.6h-2.4l-4.9-11.6H355.2z" style="block-size:auto;d:path(&quot;M 355.2 145.9 L 358 152.9 L 360.8 145.9 H 364.1 L 359.2 157.5 H 356.8 L 351.9 145.9 H 355.2 Z&quot;);fill:rgb(43, 43, 53);height:auto;inline-size:auto;overflow-x:visible;overflow-y:visible;perspective-origin:0px 0px;transform-origin:0px 0px;vertical-align:baseline;width:auto;"/>
    <path class="c-2B2B35" d="M368.3,145.9v11.6h-3v-11.6H368.3z" style="block-size:auto;d:path(&quot;M 368.3 145.9 V 157.5 H 365.3 V 145.9 H 368.3 Z&quot;);fill:rgb(43, 43, 53);height:auto;inline-size:auto;overflow-x:visible;overflow-y:visible;perspective-origin:0px 0px;transform-origin:0px 0px;vertical-align:baseline;width:auto;"/>
    <path class="c-2B2B35" d="M370.7,145.9h4.5c0.8,0,1.5,0.2,2.2,0.5c0.7,0.3,1.3,0.7,1.8,1.3c0.5,0.5,0.9,1.1,1.2,1.8&#10;c0.3,0.7,0.4,1.4,0.4,2.2c0,0.8-0.1,1.5-0.4,2.2s-0.7,1.3-1.2,1.8c-0.5,0.5-1.1,1-1.8,1.3c-0.7,0.3-1.4,0.5-2.2,0.5h-4.5V145.9z&#10;M373.8,154.9h0.7c0.5,0,1-0.1,1.4-0.2c0.4-0.2,0.8-0.4,1-0.7c0.3-0.3,0.5-0.6,0.6-1c0.1-0.4,0.2-0.8,0.2-1.3&#10;c0-0.5-0.1-0.9-0.2-1.3c-0.2-0.4-0.4-0.7-0.7-1c-0.3-0.3-0.6-0.5-1-0.7c-0.4-0.2-0.9-0.2-1.4-0.2h-0.7V154.9z" style="block-size:auto;d:path(&quot;M 370.7 145.9 H 375.2 C 376 145.9 376.7 146.1 377.4 146.4 C 378.1 146.7 378.7 147.1 379.2 147.7 C 379.7 148.2 380.1 148.8 380.4 149.5 C 380.7 150.2 380.8 150.9 380.8 151.7 C 380.8 152.5 380.7 153.2 380.4 153.9 S 379.7 155.2 379.2 155.7 C 378.7 156.2 378.1 156.7 377.4 157 C 376.7 157.3 376 157.5 375.2 157.5 H 370.7 V 145.9 Z M 373.8 154.9 H 374.5 C 375 154.9 375.5 154.8 375.9 154.7 C 376.3 154.5 376.7 154.3 376.9 154 C 377.2 153.7 377.4 153.4 377.5 153 C 377.6 152.6 377.7 152.2 377.7 151.7 C 377.7 151.2 377.6 150.8 377.5 150.4 C 377.3 150 377.1 149.7 376.8 149.4 C 376.5 149.1 376.2 148.9 375.8 148.7 C 375.4 148.5 374.9 148.5 374.4 148.5 H 373.7 V 154.9 Z&quot;);fill:rgb(43, 43, 53);height:auto;inline-size:auto;overflow-x:visible;overflow-y:visible;perspective-origin:0px 0px;transform-origin:0px 0px;vertical-align:baseline;width:auto;"/>
    <path class="c-2B2B35" d="M389.4,148.5h-3.6v1.9h3.4v2.5h-3.4v2h3.6v2.5h-6.6v-11.6h6.6V148.5z" style="block-size:auto;d:path(&quot;M 389.4 148.5 H 385.8 V 150.4 H 389.2 V 152.9 H 385.8 V 154.9 H 389.4 V 157.4 H 382.8 V 145.8 H 389.4 V 148.5 Z&quot;);fill:rgb(43, 43, 53);height:auto;inline-size:auto;overflow-x:visible;overflow-y:visible;perspective-origin:0px 0px;transform-origin:0px 0px;vertical-align:baseline;width:auto;"/>
    <path class="c-2B2B35" d="M391.6,157.5v-11.6h3l5.6,7.1v-7.1h3v11.6h-3l-5.6-7.1v7.1H391.6z" style="block-size:auto;d:path(&quot;M 391.6 157.5 V 145.9 H 394.6 L 400.2 153 V 145.9 H 403.2 V 157.5 H 400.2 L 394.6 150.4 V 157.5 H 391.6 Z&quot;);fill:rgb(43, 43, 53);height:auto;inline-size:auto;overflow-x:visible;overflow-y:visible;perspective-origin:0px 0px;transform-origin:0px 0px;vertical-align:baseline;width:auto;"/>
    <path class="c-2B2B35" d="M405.6,145.9h4.5c0.8,0,1.5,0.2,2.2,0.5c0.7,0.3,1.3,0.7,1.8,1.3c0.5,0.5,0.9,1.1,1.2,1.8&#10;c0.3,0.7,0.4,1.4,0.4,2.2c0,0.8-0.1,1.5-0.4,2.2s-0.7,1.3-1.2,1.8c-0.5,0.5-1.1,1-1.8,1.3c-0.7,0.3-1.4,0.5-2.2,0.5h-4.5V145.9z&#10;M408.6,154.9h0.7c0.5,0,1-0.1,1.4-0.2c0.4-0.2,0.8-0.4,1-0.7c0.3-0.3,0.5-0.6,0.6-1c0.1-0.4,0.2-0.8,0.2-1.3&#10;c0-0.5-0.1-0.9-0.2-1.3c-0.2-0.4-0.4-0.7-0.7-1c-0.3-0.3-0.6-0.5-1-0.7c-0.4-0.2-0.9-0.2-1.4-0.2h-0.7V154.9z" style="block-size:auto;d:path(&quot;M 405.6 145.9 H 410.1 C 410.9 145.9 411.6 146.1 412.3 146.4 C 413 146.7 413.6 147.1 414.1 147.7 C 414.6 148.2 415 148.8 415.3 149.5 C 415.6 150.2 415.7 150.9 415.7 151.7 C 415.7 152.5 415.6 153.2 415.3 153.9 S 414.6 155.2 414.1 155.7 C 413.6 156.2 413 156.7 412.3 157 C 411.6 157.3 410.9 157.5 410.1 157.5 H 405.6 V 145.9 Z M 408.6 154.9 H 409.3 C 409.8 154.9 410.3 154.8 410.7 154.7 C 411.1 154.5 411.5 154.3 411.7 154 C 412 153.7 412.2 153.4 412.3 153 C 412.4 152.6 412.5 152.2 412.5 151.7 C 412.5 151.2 412.4 150.8 412.3 150.4 C 412.1 150 411.9 149.7 411.6 149.4 C 411.3 149.1 411 148.9 410.6 148.7 C 410.2 148.5 409.7 148.5 409.2 148.5 H 408.5 V 154.9 Z&quot;);fill:rgb(43, 43, 53);height:auto;inline-size:auto;overflow-x:visible;overflow-y:visible;perspective-origin:0px 0px;transform-origin:0px 0px;vertical-align:baseline;width:auto;"/>
    <path class="c-2B2B35" d="M424,148.9c-0.3-0.3-0.7-0.5-1-0.6c-0.3-0.1-0.6-0.2-1-0.2c-0.4,0-0.7,0.1-1,0.3c-0.2,0.2-0.4,0.4-0.4,0.7&#10;c0,0.2,0.1,0.4,0.2,0.5s0.3,0.2,0.5,0.3c0.2,0.1,0.4,0.2,0.7,0.3s0.5,0.1,0.7,0.2c1,0.3,1.7,0.8,2.2,1.3c0.5,0.5,0.7,1.3,0.7,2.1&#10;c0,0.6-0.1,1.1-0.3,1.6c-0.2,0.5-0.5,0.9-0.9,1.2s-0.9,0.6-1.4,0.8c-0.6,0.2-1.2,0.3-1.9,0.3c-1.5,0-2.8-0.4-4.1-1.3l1.3-2.4&#10;c0.5,0.4,0.9,0.7,1.3,0.9c0.4,0.2,0.9,0.3,1.3,0.3c0.5,0,0.9-0.1,1.1-0.3c0.2-0.2,0.4-0.5,0.4-0.8c0-0.2,0-0.3-0.1-0.5&#10;c-0.1-0.1-0.2-0.2-0.3-0.4s-0.3-0.2-0.6-0.3c-0.2-0.1-0.5-0.2-0.8-0.3c-0.4-0.1-0.8-0.3-1.1-0.4c-0.4-0.1-0.7-0.3-1-0.6&#10;c-0.3-0.2-0.5-0.6-0.7-0.9c-0.2-0.4-0.3-0.8-0.3-1.4s0.1-1.1,0.3-1.6s0.5-0.9,0.8-1.2c0.3-0.3,0.8-0.6,1.3-0.8&#10;c0.5-0.2,1.1-0.3,1.7-0.3c0.6,0,1.2,0.1,1.8,0.2c0.6,0.2,1.2,0.4,1.8,0.7L424,148.9z" style="block-size:auto;d:path(&quot;M 424 148.9 C 423.7 148.6 423.3 148.4 423 148.3 C 422.7 148.2 422.4 148.1 422 148.1 C 421.6 148.1 421.3 148.2 421 148.4 C 420.8 148.6 420.6 148.8 420.6 149.1 C 420.6 149.3 420.7 149.5 420.8 149.6 S 421.1 149.8 421.3 149.9 C 421.5 150 421.7 150.1 422 150.2 S 422.5 150.3 422.7 150.4 C 423.7 150.7 424.4 151.2 424.9 151.7 C 425.4 152.2 425.6 153 425.6 153.8 C 425.6 154.4 425.5 154.9 425.3 155.4 C 425.1 155.9 424.8 156.3 424.4 156.6 S 423.5 157.2 423 157.4 C 422.4 157.6 421.8 157.7 421.1 157.7 C 419.6 157.7 418.3 157.3 417 156.4 L 418.3 154 C 418.8 154.4 419.2 154.7 419.6 154.9 C 420 155.1 420.5 155.2 420.9 155.2 C 421.4 155.2 421.8 155.1 422 154.9 C 422.2 154.7 422.4 154.4 422.4 154.1 C 422.4 153.9 422.4 153.8 422.3 153.6 C 422.2 153.5 422.1 153.4 422 153.2 S 421.7 153 421.4 152.9 C 421.2 152.8 420.9 152.7 420.6 152.6 C 420.2 152.5 419.8 152.3 419.5 152.2 C 419.1 152.1 418.8 151.9 418.5 151.6 C 418.2 151.4 418 151 417.8 150.7 C 417.6 150.3 417.5 149.9 417.5 149.3 S 417.6 148.2 417.8 147.7 S 418.3 146.8 418.6 146.5 C 418.9 146.2 419.4 145.9 419.9 145.7 C 420.4 145.5 421 145.4 421.6 145.4 C 422.2 145.4 422.8 145.5 423.4 145.6 C 424 145.8 424.6 146 425.2 146.3 L 424 148.9 Z&quot;);fill:rgb(43, 43, 53);height:auto;inline-size:auto;overflow-x:visible;overflow-y:visible;perspective-origin:0px 0px;transform-origin:0px 0px;vertical-align:baseline;width:auto;"/>
    <path class="c-2B2B35" d="M432.2,151.7c0-0.9,0.2-1.7,0.5-2.4s0.8-1.4,1.3-1.9c0.6-0.6,1.2-1,2-1.3c0.8-0.3,1.6-0.5,2.6-0.5&#10;c0.9,0,1.8,0.2,2.6,0.5c0.8,0.3,1.5,0.7,2,1.3s1,1.2,1.3,1.9s0.5,1.5,0.5,2.4c0,0.9-0.2,1.7-0.5,2.4s-0.8,1.4-1.3,1.9s-1.2,1-2,1.3&#10;c-0.8,0.3-1.6,0.5-2.6,0.5c-0.9,0-1.8-0.2-2.6-0.5c-0.8-0.3-1.5-0.7-2-1.3c-0.6-0.6-1-1.2-1.3-1.9S432.2,152.6,432.2,151.7z&#10;M435.4,151.7c0,0.5,0.1,0.9,0.3,1.3c0.2,0.4,0.4,0.7,0.7,1c0.3,0.3,0.6,0.5,1,0.7s0.8,0.2,1.3,0.2c0.4,0,0.9-0.1,1.3-0.2&#10;c0.4-0.2,0.7-0.4,1-0.7c0.3-0.3,0.5-0.6,0.7-1c0.2-0.4,0.3-0.8,0.3-1.3s-0.1-0.9-0.3-1.3c-0.2-0.4-0.4-0.7-0.7-1&#10;c-0.3-0.3-0.6-0.5-1-0.7c-0.4-0.2-0.8-0.2-1.3-0.2c-0.4,0-0.9,0.1-1.3,0.2c-0.4,0.2-0.7,0.4-1,0.7c-0.3,0.3-0.5,0.6-0.7,1&#10;C435.5,150.8,435.4,151.2,435.4,151.7z" style="block-size:auto;d:path(&quot;M 432.2 151.7 C 432.2 150.8 432.4 150 432.7 149.3 S 433.5 147.9 434 147.4 C 434.6 146.8 435.2 146.4 436 146.1 C 436.8 145.8 437.6 145.6 438.6 145.6 C 439.5 145.6 440.4 145.8 441.2 146.1 C 442 146.4 442.7 146.8 443.2 147.4 S 444.2 148.6 444.5 149.3 S 445 150.8 445 151.7 C 445 152.6 444.8 153.4 444.5 154.1 S 443.7 155.5 443.2 156 S 442 157 441.2 157.3 C 440.4 157.6 439.6 157.8 438.6 157.8 C 437.7 157.8 436.8 157.6 436 157.3 C 435.2 157 434.5 156.6 434 156 C 433.4 155.4 433 154.8 432.7 154.1 S 432.2 152.6 432.2 151.7 Z M 435.4 151.7 C 435.4 152.2 435.5 152.6 435.7 153 C 435.9 153.4 436.1 153.7 436.4 154 C 436.7 154.3 437 154.5 437.4 154.7 S 438.2 154.9 438.7 154.9 C 439.1 154.9 439.6 154.8 440 154.7 C 440.4 154.5 440.7 154.3 441 154 C 441.3 153.7 441.5 153.4 441.7 153 C 441.9 152.6 442 152.2 442 151.7 S 441.9 150.8 441.7 150.4 C 441.5 150 441.3 149.7 441 149.4 C 440.7 149.1 440.4 148.9 440 148.7 C 439.6 148.5 439.2 148.5 438.7 148.5 C 438.3 148.5 437.8 148.6 437.4 148.7 C 437 148.9 436.7 149.1 436.4 149.4 C 436.1 149.7 435.9 150 435.7 150.4 C 435.5 150.8 435.4 151.2 435.4 151.7 Z&quot;);fill:rgb(43, 43, 53);height:auto;inline-size:auto;overflow-x:visible;overflow-y:visible;perspective-origin:0px 0px;transform-origin:0px 0px;vertical-align:baseline;width:auto;"/>
    <path class="c-2B2B35" d="M447,157.5v-11.6h3l5.6,7.1v-7.1h3v11.6h-3l-5.6-7.1v7.1H447z" style="block-size:auto;d:path(&quot;M 447 157.5 V 145.9 H 450 L 455.6 153 V 145.9 H 458.6 V 157.5 H 455.6 L 450 150.4 V 157.5 H 447 Z&quot;);fill:rgb(43, 43, 53);height:auto;inline-size:auto;overflow-x:visible;overflow-y:visible;perspective-origin:0px 0px;transform-origin:0px 0px;vertical-align:baseline;width:auto;"/>
    <path class="c-2B2B35" d="M464,145.9v9h3.6v2.5H461v-11.6H464z" style="block-size:auto;d:path(&quot;M 464 145.9 V 154.9 H 467.6 V 157.4 H 461 V 145.8 H 464 Z&quot;);fill:rgb(43, 43, 53);height:auto;inline-size:auto;overflow-x:visible;overflow-y:visible;perspective-origin:0px 0px;transform-origin:0px 0px;vertical-align:baseline;width:auto;"/>
    <path class="c-2B2B35" d="M470.8,151.9l-4.2-6h3.6l2.2,3.2l2.1-3.2h3.6l-4.2,6v5.6h-3V151.9z" style="block-size:auto;d:path(&quot;M 470.8 151.9 L 466.6 145.9 H 470.2 L 472.4 149.1 L 474.5 145.9 H 478.1 L 473.9 151.9 V 157.5 H 470.9 V 151.9 Z&quot;);fill:rgb(43, 43, 53);height:auto;inline-size:auto;overflow-x:visible;overflow-y:visible;perspective-origin:0px 0px;transform-origin:0px 0px;vertical-align:baseline;width:auto;"/>
  </g>
</svg>