<?xml version="1.0" standalone="no"?><!DOCTYPE svg PUBLIC "-//W3C//DTD SVG 1.1//EN" "http://www.w3.org/Graphics/SVG/1.1/DTD/svg11.dtd"><svg version="1.1" id="pieThird" xmlns:xlink="http://www.w3.org/1999/xlink" x="0px" y="0px" viewBox="0 0 863.8 180.9" style="block-size:129px;height:129px;inline-size:615.984px;perspective-origin:307.984px 64.5px;transform-origin:307.992px 64.5px;width:615.984px;" xml:space="preserve" xmlns="http://www.w3.org/2000/svg">

  <linearGradient id="SVGID_3_" gradientUnits="userSpaceOnUse" x1="225.3811" y1="140.5497" x2="681.6608" y2="140.5497" style="block-size:auto;height:auto;inline-size:auto;overflow-x:visible;overflow-y:visible;perspective-origin:0px 0px;transform-origin:0px 0px;vertical-align:baseline;width:auto;">
    <stop offset="0" style="block-size:auto;height:auto;inline-size:auto;overflow-x:visible;overflow-y:visible;perspective-origin:50% 50%;stop-color:rgb(78, 108, 51);transform-origin:0px 0px;vertical-align:baseline;width:auto;"/>
    <stop offset="0.3109" style="block-size:auto;height:auto;inline-size:auto;overflow-x:visible;overflow-y:visible;perspective-origin:50% 50%;stop-color:rgb(105, 158, 66);transform-origin:0px 0px;vertical-align:baseline;width:auto;"/>
    <stop offset="0.5935" style="block-size:auto;height:auto;inline-size:auto;overflow-x:visible;overflow-y:visible;perspective-origin:50% 50%;stop-color:rgb(100, 142, 61);transform-origin:0px 0px;vertical-align:baseline;width:auto;"/>
    <stop offset="0.6877" style="block-size:auto;height:auto;inline-size:auto;overflow-x:visible;overflow-y:visible;perspective-origin:50% 50%;stop-color:rgb(119, 159, 67);transform-origin:0px 0px;vertical-align:baseline;width:auto;"/>
    <stop offset="0.7944" style="block-size:auto;height:auto;inline-size:auto;overflow-x:visible;overflow-y:visible;perspective-origin:50% 50%;stop-color:rgb(145, 183, 75);transform-origin:0px 0px;vertical-align:baseline;width:auto;"/>
  </linearGradient>
  <path class="c-457645" d="M675.9,143.7h-37.8c-0.3,0-0.5,0-0.7,0.1H249.2l-0.3-27c-5.5,0-23-19.1-23-13.5l-0.6,50.6&#10;                            c0,5.5,4.5,10.1,10.1,10.1h400.5c1,0.4,11.8,0,11.8,0c3,0.3,5.5,1,5.6,2.7c0.2,4.4-0.7,12.4,9,12.4h13.6c3.2,0,5.7-2.6,5.7-5.7&#10;                            v-23.7C681.7,146.3,679.1,143.7,675.9,143.7z" style="block-size:auto;d:path(&quot;M 675.9 143.7 H 638.1 C 637.8 143.7 637.6 143.7 637.4 143.8 H 249.2 L 248.9 116.8 C 243.4 116.8 225.9 97.7 225.9 103.3 L 225.3 153.9 C 225.3 159.4 229.8 164 235.4 164 H 635.9 C 636.9 164.4 647.7 164 647.7 164 C 650.7 164.3 653.2 165 653.3 166.7 C 653.5 171.1 652.6 179.1 662.3 179.1 H 675.9 C 679.1 179.1 681.6 176.5 681.6 173.4 V 149.7 C 681.7 146.3 679.1 143.7 675.9 143.7 Z&quot;);fill:url(&quot;#SVGID_3_&quot;);height:auto;inline-size:auto;overflow-x:visible;overflow-y:visible;perspective-origin:0px 0px;stroke:rgb(69, 118, 69);stroke-miterlimit:10;stroke-width:3px;transform-origin:0px 0px;vertical-align:baseline;width:auto;"/>
  <g id="XMLID_20_" style="block-size:auto;height:auto;inline-size:auto;overflow-x:visible;overflow-y:visible;perspective-origin:0px 0px;transform-origin:0px 0px;vertical-align:baseline;width:auto;">
    <g style="block-size:auto;height:auto;inline-size:auto;overflow-x:visible;overflow-y:visible;perspective-origin:0px 0px;transform-origin:0px 0px;vertical-align:baseline;width:auto;">
      <path class="c-699E42" d="M150.3,76.5c-0.6-20.2,8.9-50.2,60.4-74.5l156.9,95.2l-211.8,2.1C155.8,99.3,150.8,90.1,150.3,76.5z" style="block-size:auto;d:path(&quot;M 150.3 76.5 C 149.7 56.3 159.2 26.3 210.7 2 L 367.6 97.2 L 155.8 99.3 C 155.8 99.3 150.8 90.1 150.3 76.5 Z&quot;);fill:rgb(105, 158, 66);height:auto;inline-size:auto;overflow-x:visible;overflow-y:visible;perspective-origin:0px 0px;transform-origin:0px 0px;vertical-align:baseline;width:auto;"/>
      <polygon class="c-648E3D" points="154.7,119.9 155.8,99.3 367.6,97.2 366.3,119.4 344.9,119.1 158.6,119.7 &#9;&#9;" style="block-size:auto;fill:rgb(100, 142, 61);height:auto;inline-size:auto;overflow-x:visible;overflow-y:visible;perspective-origin:0px 0px;transform-origin:0px 0px;vertical-align:baseline;width:auto;"/>
      <path class="c-5C8039" d="M154.7,119.9c0,0-5.8-21.3-4.4-43.4c0.5,13.6,5.5,22.8,5.5,22.8L154.7,119.9z" style="block-size:auto;d:path(&quot;M 154.7 119.9 C 154.7 119.9 148.9 98.6 150.3 76.5 C 150.8 90.1 155.8 99.3 155.8 99.3 L 154.7 119.9 Z&quot;);fill:rgb(92, 128, 57);height:auto;inline-size:auto;overflow-x:visible;overflow-y:visible;perspective-origin:0px 0px;transform-origin:0px 0px;vertical-align:baseline;width:auto;"/>
    </g>

  </g>
  <g class="title" style="block-size:auto;height:auto;inline-size:auto;overflow-x:visible;overflow-y:visible;perspective-origin:0px 0px;transform-origin:0px 0px;vertical-align:baseline;width:auto;">
    <rect x="160.4" y="73.8" class="c-none" width="241.5" height="41.3" style="block-size:41.3px;fill:none;height:41.3px;inline-size:241.5px;overflow-x:visible;overflow-y:visible;perspective-origin:0px 0px;transform-origin:0px 0px;vertical-align:baseline;width:241.5px;x:160.4px;y:73.8px;"/>
    <path class="c-2B2B35" d="M171.4,87.9l-5.7,0l-0.9,2.7l-4.2,0l5.8-15.3l4.3,0l5.8,15.3l-4.2,0L171.4,87.9z M170.3,84.9l-1.8-5.1&#10;                              l-1.8,5.1L170.3,84.9z" style="block-size:auto;d:path(&quot;M 171.4 87.9 L 165.7 87.9 L 164.8 90.6 L 160.6 90.6 L 166.4 75.3 L 170.7 75.3 L 176.5 90.6 L 172.3 90.6 L 171.4 87.9 Z M 170.3 84.9 L 168.5 79.8 L 166.7 84.9 L 170.3 84.9 Z&quot;);fill:rgb(43, 43, 53);height:auto;inline-size:auto;overflow-x:visible;overflow-y:visible;perspective-origin:0px 0px;transform-origin:0px 0px;vertical-align:baseline;width:auto;"/>
    <path class="c-2B2B35" d="M182.3,75.3l0,12l4.8,0l0,3.4l-8.8,0l0-15.3L182.3,75.3z" style="block-size:auto;d:path(&quot;M 182.3 75.3 L 182.3 87.3 L 187.1 87.3 L 187.1 90.7 L 178.3 90.7 L 178.3 75.4 L 182.3 75.3 Z&quot;);fill:rgb(43, 43, 53);height:auto;inline-size:auto;overflow-x:visible;overflow-y:visible;perspective-origin:0px 0px;transform-origin:0px 0px;vertical-align:baseline;width:auto;"/>
    <path class="c-2B2B35" d="M194.1,78.6l0,12l-4,0l0-12l-3.3,0l0-3.4l10.5,0l0,3.4L194.1,78.6z" style="block-size:auto;d:path(&quot;M 194.1 78.6 L 194.1 90.6 L 190.1 90.6 L 190.1 78.6 L 186.8 78.6 L 186.8 75.2 L 197.3 75.2 L 197.3 78.6 L 194.1 78.6 Z&quot;);fill:rgb(43, 43, 53);height:auto;inline-size:auto;overflow-x:visible;overflow-y:visible;perspective-origin:0px 0px;transform-origin:0px 0px;vertical-align:baseline;width:auto;"/>
    <path class="c-2B2B35" d="M207.9,78.7l-4.7,0v2.6l4.5,0l0,3.4l-4.5,0v2.6l4.7,0l0,3.4l-8.7,0l0-15.3l8.7,0L207.9,78.7z" style="block-size:auto;d:path(&quot;M 207.9 78.7 L 203.2 78.7 V 81.3 L 207.7 81.3 L 207.7 84.7 L 203.2 84.7 V 87.3 L 207.9 87.3 L 207.9 90.7 L 199.2 90.7 L 199.2 75.4 L 207.9 75.4 L 207.9 78.7 Z&quot;);fill:rgb(43, 43, 53);height:auto;inline-size:auto;overflow-x:visible;overflow-y:visible;perspective-origin:0px 0px;transform-origin:0px 0px;vertical-align:baseline;width:auto;"/>
    <path class="c-2B2B35" d="M223.5,90.6l-5,0l-3.8-5.9l0,5.9l-4,0l0-15.3l6.2,0c0.9,0,1.6,0.1,2.2,0.4s1.2,0.6,1.6,1&#10;                              c0.4,0.4,0.7,0.9,0.9,1.5c0.2,0.6,0.3,1.2,0.3,1.8c0,1.2-0.3,2.1-0.8,2.8c-0.6,0.7-1.4,1.2-2.5,1.5L223.5,90.6z M214.7,82.1h0.8&#10;                              c0.8,0,1.4-0.2,1.8-0.5c0.4-0.3,0.6-0.8,0.6-1.4c0-0.6-0.2-1.1-0.6-1.4s-1-0.5-1.8-0.5h-0.8L214.7,82.1z" style="block-size:auto;d:path(&quot;M 223.5 90.6 L 218.5 90.6 L 214.7 84.7 L 214.7 90.6 L 210.7 90.6 L 210.7 75.3 L 216.9 75.3 C 217.8 75.3 218.5 75.4 219.1 75.7 S 220.3 76.3 220.7 76.7 C 221.1 77.1 221.4 77.6 221.6 78.2 C 221.8 78.8 221.9 79.4 221.9 80 C 221.9 81.2 221.6 82.1 221.1 82.8 C 220.5 83.5 219.7 84 218.6 84.3 L 223.5 90.6 Z M 214.7 82.1 H 215.5 C 216.3 82.1 216.9 81.9 217.3 81.6 C 217.7 81.3 217.9 80.8 217.9 80.2 C 217.9 79.6 217.7 79.1 217.3 78.8 S 216.3 78.3 215.5 78.3 H 214.7 L 214.7 82.1 Z&quot;);fill:rgb(43, 43, 53);height:auto;inline-size:auto;overflow-x:visible;overflow-y:visible;perspective-origin:0px 0px;transform-origin:0px 0px;vertical-align:baseline;width:auto;"/>
    <path class="c-2B2B35" d="M225.2,90.6l0-15.3l4,0l7.4,9.4l0-9.4l4,0l0,15.3l-4,0l-7.4-9.4l0,9.4L225.2,90.6z" style="block-size:auto;d:path(&quot;M 225.2 90.6 L 225.2 75.3 L 229.2 75.3 L 236.6 84.7 L 236.6 75.3 L 240.6 75.3 L 240.6 90.6 L 236.6 90.6 L 229.2 81.2 L 229.2 90.6 L 225.2 90.6 Z&quot;);fill:rgb(43, 43, 53);height:auto;inline-size:auto;overflow-x:visible;overflow-y:visible;perspective-origin:0px 0px;transform-origin:0px 0px;vertical-align:baseline;width:auto;"/>
    <path class="c-2B2B35" d="M253.1,87.9l-5.7,0l-0.9,2.7l-4.2,0l5.8-15.3l4.3,0l5.8,15.3l-4.2,0L253.1,87.9z M252,84.9l-1.8-5.1l-1.8,5.1&#10;                              L252,84.9z" style="block-size:auto;d:path(&quot;M 253.1 87.9 L 247.4 87.9 L 246.5 90.6 L 242.3 90.6 L 248.1 75.3 L 252.4 75.3 L 258.2 90.6 L 254 90.6 L 253.1 87.9 Z M 252 84.9 L 250.2 79.8 L 248.4 84.9 L 252 84.9 Z&quot;);fill:rgb(43, 43, 53);height:auto;inline-size:auto;overflow-x:visible;overflow-y:visible;perspective-origin:0px 0px;transform-origin:0px 0px;vertical-align:baseline;width:auto;"/>
    <path class="c-2B2B35" d="M265.2,78.7l0,12l-4,0l0-12l-3.3,0l0-3.4l10.5,0l0,3.4L265.2,78.7z" style="block-size:auto;d:path(&quot;M 265.2 78.7 L 265.2 90.7 L 261.2 90.7 L 261.2 78.7 L 257.9 78.7 L 257.9 75.3 L 268.4 75.3 L 268.4 78.7 L 265.2 78.7 Z&quot;);fill:rgb(43, 43, 53);height:auto;inline-size:auto;overflow-x:visible;overflow-y:visible;perspective-origin:0px 0px;transform-origin:0px 0px;vertical-align:baseline;width:auto;"/>
    <path class="c-2B2B35" d="M274.2,75.3l0,15.3l-4,0l0-15.3L274.2,75.3z" style="block-size:auto;d:path(&quot;M 274.2 75.3 L 274.2 90.6 L 270.2 90.6 L 270.2 75.3 L 274.2 75.3 Z&quot;);fill:rgb(43, 43, 53);height:auto;inline-size:auto;overflow-x:visible;overflow-y:visible;perspective-origin:0px 0px;transform-origin:0px 0px;vertical-align:baseline;width:auto;"/>
    <path class="c-2B2B35" d="M280.1,75.3l3.7,9.3l3.7-9.3l4.3,0l-6.5,15.3l-3.2,0l-6.4-15.3L280.1,75.3z" style="block-size:auto;d:path(&quot;M 280.1 75.3 L 283.8 84.6 L 287.5 75.3 L 291.8 75.3 L 285.3 90.6 L 282.1 90.6 L 275.7 75.3 L 280.1 75.3 Z&quot;);fill:rgb(43, 43, 53);height:auto;inline-size:auto;overflow-x:visible;overflow-y:visible;perspective-origin:0px 0px;transform-origin:0px 0px;vertical-align:baseline;width:auto;"/>
    <path class="c-2B2B35" d="M302.2,78.7l-4.7,0v2.6l4.5,0l0,3.4l-4.5,0v2.6l4.7,0l0,3.4l-8.7,0l0-15.3l8.7,0L302.2,78.7z" style="block-size:auto;d:path(&quot;M 302.2 78.7 L 297.5 78.7 V 81.3 L 302 81.3 L 302 84.7 L 297.5 84.7 V 87.3 L 302.2 87.3 L 302.2 90.7 L 293.5 90.7 L 293.5 75.4 L 302.2 75.4 L 302.2 78.7 Z&quot;);fill:rgb(43, 43, 53);height:auto;inline-size:auto;overflow-x:visible;overflow-y:visible;perspective-origin:0px 0px;transform-origin:0px 0px;vertical-align:baseline;width:auto;"/>
    <path class="c-2B2B35" d="M313.5,79.2c-0.4-0.4-0.9-0.6-1.3-0.8s-0.9-0.3-1.3-0.3c-0.5,0-0.9,0.1-1.3,0.4c-0.3,0.2-0.5,0.6-0.5,1&#10;                              c0,0.3,0.1,0.5,0.2,0.7c0.2,0.2,0.4,0.3,0.6,0.5c0.3,0.1,0.6,0.2,0.9,0.3s0.7,0.2,1,0.3c1.3,0.4,2.3,1,2.9,1.7&#10;                              c0.6,0.7,0.9,1.7,0.9,2.8c0,0.8-0.1,1.5-0.4,2.1c-0.3,0.6-0.7,1.2-1.2,1.6c-0.5,0.5-1.1,0.8-1.9,1.1c-0.7,0.3-1.6,0.4-2.5,0.4&#10;                              c-1.9,0-3.7-0.6-5.4-1.7l1.7-3.2c0.6,0.5,1.2,0.9,1.8,1.2c0.6,0.3,1.2,0.4,1.7,0.4c0.7,0,1.1-0.1,1.5-0.4s0.5-0.6,0.5-1&#10;                              c0-0.2,0-0.4-0.1-0.6c-0.1-0.2-0.2-0.3-0.4-0.5c-0.2-0.1-0.4-0.3-0.7-0.4c-0.3-0.1-0.7-0.3-1.1-0.4c-0.5-0.2-1-0.3-1.5-0.5&#10;                              c-0.5-0.2-0.9-0.5-1.3-0.8c-0.4-0.3-0.7-0.7-0.9-1.2c-0.2-0.5-0.4-1.1-0.4-1.9s0.1-1.4,0.4-2.1c0.2-0.6,0.6-1.1,1.1-1.6&#10;                              c0.5-0.4,1-0.8,1.7-1c0.7-0.2,1.4-0.4,2.2-0.4c0.8,0,1.6,0.1,2.4,0.3c0.8,0.2,1.6,0.5,2.4,0.9L313.5,79.2z" style="block-size:auto;d:path(&quot;M 313.5 79.2 C 313.1 78.8 312.6 78.6 312.2 78.4 S 311.3 78.1 310.9 78.1 C 310.4 78.1 310 78.2 309.6 78.5 C 309.3 78.7 309.1 79.1 309.1 79.5 C 309.1 79.8 309.2 80 309.3 80.2 C 309.5 80.4 309.7 80.5 309.9 80.7 C 310.2 80.8 310.5 80.9 310.8 81 S 311.5 81.2 311.8 81.3 C 313.1 81.7 314.1 82.3 314.7 83 C 315.3 83.7 315.6 84.7 315.6 85.8 C 315.6 86.6 315.5 87.3 315.2 87.9 C 314.9 88.5 314.5 89.1 314 89.5 C 313.5 90 312.9 90.3 312.1 90.6 C 311.4 90.9 310.5 91 309.6 91 C 307.7 91 305.9 90.4 304.2 89.3 L 305.9 86.1 C 306.5 86.6 307.1 87 307.7 87.3 C 308.3 87.6 308.9 87.7 309.4 87.7 C 310.1 87.7 310.5 87.6 310.9 87.3 S 311.4 86.7 311.4 86.3 C 311.4 86.1 311.4 85.9 311.3 85.7 C 311.2 85.5 311.1 85.4 310.9 85.2 C 310.7 85.1 310.5 84.9 310.2 84.8 C 309.9 84.7 309.5 84.5 309.1 84.4 C 308.6 84.2 308.1 84.1 307.6 83.9 C 307.1 83.7 306.7 83.4 306.3 83.1 C 305.9 82.8 305.6 82.4 305.4 81.9 C 305.2 81.4 305 80.8 305 80 S 305.1 78.6 305.4 77.9 C 305.6 77.3 306 76.8 306.5 76.3 C 307 75.9 307.5 75.5 308.2 75.3 C 308.9 75.1 309.6 74.9 310.4 74.9 C 311.2 74.9 312 75 312.8 75.2 C 313.6 75.4 314.4 75.7 315.2 76.1 L 313.5 79.2 Z&quot;);fill:rgb(43, 43, 53);height:auto;inline-size:auto;overflow-x:visible;overflow-y:visible;perspective-origin:0px 0px;transform-origin:0px 0px;vertical-align:baseline;width:auto;"/>
  </g>
  <g class="text" style="block-size:auto;height:auto;inline-size:auto;overflow-x:visible;overflow-y:visible;perspective-origin:0px 0px;transform-origin:0px 0px;vertical-align:baseline;width:auto;">
    <rect x="368.2" y="146.3" class="c-none" width="182.5" height="31.2" style="block-size:31.2px;fill:none;height:31.2px;inline-size:182.5px;overflow-x:visible;overflow-y:visible;perspective-origin:0px 0px;transform-origin:0px 0px;vertical-align:baseline;width:182.5px;x:368.2px;y:146.3px;"/>
    <path class="c-2B2B35" d="M377.7,151.4c-0.7-0.8-1.6-1.3-2.6-1.3c-0.5,0-0.9,0.1-1.3,0.2s-0.7,0.4-1,0.7s-0.5,0.6-0.7,1&#10;                              c-0.2,0.4-0.2,0.8-0.2,1.3c0,0.5,0.1,0.9,0.2,1.3c0.2,0.4,0.4,0.7,0.7,1c0.3,0.3,0.6,0.5,1,0.7s0.8,0.2,1.2,0.2&#10;                              c1,0,1.8-0.4,2.6-1.2v3.6l-0.3,0.1c-0.5,0.2-0.9,0.3-1.3,0.4c-0.4,0.1-0.8,0.1-1.2,0.1c-0.8,0-1.6-0.2-2.3-0.5&#10;                              c-0.7-0.3-1.4-0.7-1.9-1.3c-0.6-0.5-1-1.2-1.3-2c-0.3-0.8-0.5-1.6-0.5-2.5s0.2-1.7,0.5-2.4c0.3-0.7,0.8-1.4,1.3-1.9&#10;                              c0.6-0.5,1.2-1,1.9-1.3c0.7-0.3,1.5-0.5,2.3-0.5c0.5,0,0.9,0,1.4,0.1s0.9,0.2,1.4,0.5V151.4z" style="block-size:auto;d:path(&quot;M 377.7 151.4 C 377 150.6 376.1 150.1 375.1 150.1 C 374.6 150.1 374.2 150.2 373.8 150.3 S 373.1 150.7 372.8 151 S 372.3 151.6 372.1 152 C 371.9 152.4 371.9 152.8 371.9 153.3 C 371.9 153.8 372 154.2 372.1 154.6 C 372.3 155 372.5 155.3 372.8 155.6 C 373.1 155.9 373.4 156.1 373.8 156.3 S 374.6 156.5 375 156.5 C 376 156.5 376.8 156.1 377.6 155.3 V 158.9 L 377.3 159 C 376.8 159.2 376.4 159.3 376 159.4 C 375.6 159.5 375.2 159.5 374.8 159.5 C 374 159.5 373.2 159.3 372.5 159 C 371.8 158.7 371.1 158.3 370.6 157.7 C 370 157.2 369.6 156.5 369.3 155.7 C 369 154.9 368.8 154.1 368.8 153.2 S 369 151.5 369.3 150.8 C 369.6 150.1 370.1 149.4 370.6 148.9 C 371.2 148.4 371.8 147.9 372.5 147.6 C 373.2 147.3 374 147.1 374.8 147.1 C 375.3 147.1 375.7 147.1 376.2 147.2 S 377.1 147.4 377.6 147.7 V 151.4 Z&quot;);fill:rgb(43, 43, 53);height:auto;inline-size:auto;overflow-x:visible;overflow-y:visible;perspective-origin:0px 0px;transform-origin:0px 0px;vertical-align:baseline;width:auto;"/>
    <path class="c-2B2B35" d="M387,157.1h-4.3l-0.7,2h-3.2l4.4-11.6h3.3l4.4,11.6h-3.2L387,157.1z M386.2,154.8l-1.4-3.9l-1.4,3.9H386.2z" style="block-size:auto;d:path(&quot;M 387 157.1 H 382.7 L 382 159.1 H 378.8 L 383.2 147.5 H 386.5 L 390.9 159.1 H 387.7 L 387 157.1 Z M 386.2 154.8 L 384.8 150.9 L 383.4 154.8 H 386.2 Z&quot;);fill:rgb(43, 43, 53);height:auto;inline-size:auto;overflow-x:visible;overflow-y:visible;perspective-origin:0px 0px;transform-origin:0px 0px;vertical-align:baseline;width:auto;"/>
    <path class="c-2B2B35" d="M395.2,159.1h-3v-11.6h4.8c1.3,0,2.3,0.3,3,1c0.7,0.7,1,1.6,1,2.9s-0.3,2.2-1,2.9c-0.7,0.7-1.7,1-3,1h-1.8&#10;                              V159.1z M395.2,152.8h1c1.1,0,1.7-0.5,1.7-1.4c0-1-0.6-1.4-1.7-1.4h-1V152.8z" style="block-size:auto;d:path(&quot;M 395.2 159.1 H 392.2 V 147.5 H 397 C 398.3 147.5 399.3 147.8 400 148.5 C 400.7 149.2 401 150.1 401 151.4 S 400.7 153.6 400 154.3 C 399.3 155 398.3 155.3 397 155.3 H 395.2 V 159.1 Z M 395.2 152.8 H 396.2 C 397.3 152.8 397.9 152.3 397.9 151.4 C 397.9 150.4 397.3 150 396.2 150 H 395.2 V 152.8 Z&quot;);fill:rgb(43, 43, 53);height:auto;inline-size:auto;overflow-x:visible;overflow-y:visible;perspective-origin:0px 0px;transform-origin:0px 0px;vertical-align:baseline;width:auto;"/>
    <path class="c-2B2B35" d="M405.6,147.5v11.6h-3v-11.6H405.6z" style="block-size:auto;d:path(&quot;M 405.6 147.5 V 159.1 H 402.6 V 147.5 H 405.6 Z&quot;);fill:rgb(43, 43, 53);height:auto;inline-size:auto;overflow-x:visible;overflow-y:visible;perspective-origin:0px 0px;transform-origin:0px 0px;vertical-align:baseline;width:auto;"/>
    <path class="c-2B2B35" d="M412.4,150v9h-3v-9H407v-2.5h8v2.5H412.4z" style="block-size:auto;d:path(&quot;M 412.4 150 V 159 H 409.4 V 150 H 407 V 147.5 H 415 V 150 H 412.4 Z&quot;);fill:rgb(43, 43, 53);height:auto;inline-size:auto;overflow-x:visible;overflow-y:visible;perspective-origin:0px 0px;transform-origin:0px 0px;vertical-align:baseline;width:auto;"/>
    <path class="c-2B2B35" d="M422.8,157.1h-4.3l-0.7,2h-3.2l4.4-11.6h3.3l4.4,11.6h-3.2L422.8,157.1z M422,154.8l-1.4-3.9l-1.4,3.9H422z" style="block-size:auto;d:path(&quot;M 422.8 157.1 H 418.5 L 417.8 159.1 H 414.6 L 419 147.5 H 422.3 L 426.7 159.1 H 423.5 L 422.8 157.1 Z M 422 154.8 L 420.6 150.9 L 419.2 154.8 H 422 Z&quot;);fill:rgb(43, 43, 53);height:auto;inline-size:auto;overflow-x:visible;overflow-y:visible;perspective-origin:0px 0px;transform-origin:0px 0px;vertical-align:baseline;width:auto;"/>
    <path class="c-2B2B35" d="M431,147.5v9h3.6v2.5H428v-11.6H431z" style="block-size:auto;d:path(&quot;M 431 147.5 V 156.5 H 434.6 V 159 H 428 V 147.4 H 431 Z&quot;);fill:rgb(43, 43, 53);height:auto;inline-size:auto;overflow-x:visible;overflow-y:visible;perspective-origin:0px 0px;transform-origin:0px 0px;vertical-align:baseline;width:auto;"/>
    <path class="c-2B2B35" d="M447.1,152.6h6c0,0.6,0,1.2-0.1,1.7c-0.1,0.5-0.2,1-0.3,1.4c-0.2,0.6-0.5,1.1-0.9,1.6&#10;                              c-0.4,0.5-0.8,0.9-1.3,1.2c-0.5,0.3-1,0.6-1.6,0.7c-0.6,0.2-1.2,0.2-1.9,0.2c-0.9,0-1.7-0.1-2.5-0.4s-1.4-0.7-1.9-1.3&#10;                              c-0.5-0.5-0.9-1.2-1.2-1.9c-0.3-0.8-0.4-1.6-0.4-2.5c0-0.9,0.1-1.7,0.4-2.5c0.3-0.8,0.7-1.4,1.2-1.9c0.5-0.5,1.2-0.9,1.9-1.2&#10;                              c0.8-0.3,1.6-0.4,2.5-0.4c1.2,0,2.3,0.3,3.2,0.8c0.9,0.5,1.6,1.3,2.2,2.4l-2.9,1.2c-0.3-0.6-0.6-1.1-1-1.4s-0.9-0.4-1.5-0.4&#10;                              c-0.5,0-0.9,0.1-1.2,0.3s-0.7,0.4-0.9,0.7c-0.3,0.3-0.5,0.7-0.6,1.1s-0.2,0.9-0.2,1.5c0,0.5,0.1,0.9,0.2,1.4&#10;                              c0.1,0.4,0.3,0.8,0.6,1.1c0.3,0.3,0.6,0.5,1,0.7s0.8,0.3,1.3,0.3c0.3,0,0.6,0,0.9-0.1s0.5-0.2,0.7-0.3c0.2-0.1,0.4-0.3,0.5-0.6&#10;                              s0.2-0.5,0.3-0.9h-2.5V152.6z" style="block-size:auto;d:path(&quot;M 447.1 152.6 H 453.1 C 453.1 153.2 453.1 153.8 453 154.3 C 452.9 154.8 452.8 155.3 452.7 155.7 C 452.5 156.3 452.2 156.8 451.8 157.3 C 451.4 157.8 451 158.2 450.5 158.5 C 450 158.8 449.5 159.1 448.9 159.2 C 448.3 159.4 447.7 159.4 447 159.4 C 446.1 159.4 445.3 159.3 444.5 159 S 443.1 158.3 442.6 157.7 C 442.1 157.2 441.7 156.5 441.4 155.8 C 441.1 155 441 154.2 441 153.3 C 441 152.4 441.1 151.6 441.4 150.8 C 441.7 150 442.1 149.4 442.6 148.9 C 443.1 148.4 443.8 148 444.5 147.7 C 445.3 147.4 446.1 147.3 447 147.3 C 448.2 147.3 449.3 147.6 450.2 148.1 C 451.1 148.6 451.8 149.4 452.4 150.5 L 449.5 151.7 C 449.2 151.1 448.9 150.6 448.5 150.3 S 447.6 149.9 447 149.9 C 446.5 149.9 446.1 150 445.8 150.2 S 445.1 150.6 444.9 150.9 C 444.6 151.2 444.4 151.6 444.3 152 S 444.1 152.9 444.1 153.5 C 444.1 154 444.2 154.4 444.3 154.9 C 444.4 155.3 444.6 155.7 444.9 156 C 445.2 156.3 445.5 156.5 445.9 156.7 S 446.7 157 447.2 157 C 447.5 157 447.8 157 448.1 156.9 S 448.6 156.7 448.8 156.6 C 449 156.5 449.2 156.3 449.3 156 S 449.5 155.5 449.6 155.1 H 447.1 V 152.6 Z&quot;);fill:rgb(43, 43, 53);height:auto;inline-size:auto;overflow-x:visible;overflow-y:visible;perspective-origin:0px 0px;transform-origin:0px 0px;vertical-align:baseline;width:auto;"/>
    <path class="c-2B2B35" d="M461.6,157.1h-4.3l-0.7,2h-3.2l4.4-11.6h3.3l4.4,11.6h-3.2L461.6,157.1z M460.8,154.8l-1.4-3.9l-1.4,3.9H460.8&#10;                              z" style="block-size:auto;d:path(&quot;M 461.6 157.1 H 457.3 L 456.6 159.1 H 453.4 L 457.8 147.5 H 461.1 L 465.5 159.1 H 462.3 L 461.6 157.1 Z M 460.8 154.8 L 459.4 150.9 L 458 154.8 H 460.8 Z&quot;);fill:rgb(43, 43, 53);height:auto;inline-size:auto;overflow-x:visible;overflow-y:visible;perspective-origin:0px 0px;transform-origin:0px 0px;vertical-align:baseline;width:auto;"/>
    <path class="c-2B2B35" d="M469.8,147.5v11.6h-3v-11.6H469.8z" style="block-size:auto;d:path(&quot;M 469.8 147.5 V 159.1 H 466.8 V 147.5 H 469.8 Z&quot;);fill:rgb(43, 43, 53);height:auto;inline-size:auto;overflow-x:visible;overflow-y:visible;perspective-origin:0px 0px;transform-origin:0px 0px;vertical-align:baseline;width:auto;"/>
    <path class="c-2B2B35" d="M472.3,159.1v-11.6h3l5.6,7.1v-7.1h3v11.6h-3l-5.6-7.1v7.1H472.3z" style="block-size:auto;d:path(&quot;M 472.3 159.1 V 147.5 H 475.3 L 480.9 154.6 V 147.5 H 483.9 V 159.1 H 480.9 L 475.3 152 V 159.1 H 472.3 Z&quot;);fill:rgb(43, 43, 53);height:auto;inline-size:auto;overflow-x:visible;overflow-y:visible;perspective-origin:0px 0px;transform-origin:0px 0px;vertical-align:baseline;width:auto;"/>
    <path class="c-2B2B35" d="M492.6,150.5c-0.3-0.3-0.7-0.5-1-0.6c-0.3-0.1-0.6-0.2-1-0.2c-0.4,0-0.7,0.1-1,0.3c-0.2,0.2-0.4,0.4-0.4,0.7&#10;                              c0,0.2,0.1,0.4,0.2,0.5s0.3,0.2,0.5,0.3c0.2,0.1,0.4,0.2,0.7,0.3s0.5,0.1,0.7,0.2c1,0.3,1.7,0.8,2.2,1.3c0.5,0.5,0.7,1.3,0.7,2.1&#10;                              c0,0.6-0.1,1.1-0.3,1.6c-0.2,0.5-0.5,0.9-0.9,1.2s-0.9,0.6-1.4,0.8c-0.6,0.2-1.2,0.3-1.9,0.3c-1.5,0-2.8-0.4-4.1-1.3l1.3-2.4&#10;                              c0.5,0.4,0.9,0.7,1.3,0.9c0.4,0.2,0.9,0.3,1.3,0.3c0.5,0,0.9-0.1,1.1-0.3c0.2-0.2,0.4-0.5,0.4-0.8c0-0.2,0-0.3-0.1-0.5&#10;                              c-0.1-0.1-0.2-0.2-0.3-0.4s-0.3-0.2-0.6-0.3c-0.2-0.1-0.5-0.2-0.8-0.3c-0.4-0.1-0.8-0.3-1.1-0.4c-0.4-0.1-0.7-0.3-1-0.6&#10;                              c-0.3-0.2-0.5-0.6-0.7-0.9c-0.2-0.4-0.3-0.8-0.3-1.4s0.1-1.1,0.3-1.6s0.5-0.9,0.8-1.2c0.3-0.3,0.8-0.6,1.3-0.8&#10;                              c0.5-0.2,1.1-0.3,1.7-0.3c0.6,0,1.2,0.1,1.8,0.2c0.6,0.2,1.2,0.4,1.8,0.7L492.6,150.5z" style="block-size:auto;d:path(&quot;M 492.6 150.5 C 492.3 150.2 491.9 150 491.6 149.9 C 491.3 149.8 491 149.7 490.6 149.7 C 490.2 149.7 489.9 149.8 489.6 150 C 489.4 150.2 489.2 150.4 489.2 150.7 C 489.2 150.9 489.3 151.1 489.4 151.2 S 489.7 151.4 489.9 151.5 C 490.1 151.6 490.3 151.7 490.6 151.8 S 491.1 151.9 491.3 152 C 492.3 152.3 493 152.8 493.5 153.3 C 494 153.8 494.2 154.6 494.2 155.4 C 494.2 156 494.1 156.5 493.9 157 C 493.7 157.5 493.4 157.9 493 158.2 S 492.1 158.8 491.6 159 C 491 159.2 490.4 159.3 489.7 159.3 C 488.2 159.3 486.9 158.9 485.6 158 L 486.9 155.6 C 487.4 156 487.8 156.3 488.2 156.5 C 488.6 156.7 489.1 156.8 489.5 156.8 C 490 156.8 490.4 156.7 490.6 156.5 C 490.8 156.3 491 156 491 155.7 C 491 155.5 491 155.4 490.9 155.2 C 490.8 155.1 490.7 155 490.6 154.8 S 490.3 154.6 490 154.5 C 489.8 154.4 489.5 154.3 489.2 154.2 C 488.8 154.1 488.4 153.9 488.1 153.8 C 487.7 153.7 487.4 153.5 487.1 153.2 C 486.8 153 486.6 152.6 486.4 152.3 C 486.2 151.9 486.1 151.5 486.1 150.9 S 486.2 149.8 486.4 149.3 S 486.9 148.4 487.2 148.1 C 487.5 147.8 488 147.5 488.5 147.3 C 489 147.1 489.6 147 490.2 147 C 490.8 147 491.4 147.1 492 147.2 C 492.6 147.4 493.2 147.6 493.8 147.9 L 492.6 150.5 Z&quot;);fill:rgb(43, 43, 53);height:auto;inline-size:auto;overflow-x:visible;overflow-y:visible;perspective-origin:0px 0px;transform-origin:0px 0px;vertical-align:baseline;width:auto;"/>
    <path class="c-2B2B35" d="M500.9,153.3c0-0.9,0.2-1.7,0.5-2.4s0.8-1.4,1.3-1.9c0.6-0.6,1.2-1,2-1.3c0.8-0.3,1.6-0.5,2.6-0.5&#10;                              c0.9,0,1.8,0.2,2.6,0.5c0.8,0.3,1.5,0.7,2,1.3s1,1.2,1.3,1.9s0.5,1.5,0.5,2.4c0,0.9-0.2,1.7-0.5,2.4s-0.8,1.4-1.3,1.9s-1.2,1-2,1.3&#10;                              c-0.8,0.3-1.6,0.5-2.6,0.5c-0.9,0-1.8-0.2-2.6-0.5c-0.8-0.3-1.5-0.7-2-1.3c-0.6-0.6-1-1.2-1.3-1.9S500.9,154.1,500.9,153.3z&#10;                              M504,153.3c0,0.5,0.1,0.9,0.3,1.3c0.2,0.4,0.4,0.7,0.7,1c0.3,0.3,0.6,0.5,1,0.7s0.8,0.2,1.3,0.2c0.4,0,0.9-0.1,1.3-0.2&#10;                              c0.4-0.2,0.7-0.4,1-0.7c0.3-0.3,0.5-0.6,0.7-1c0.2-0.4,0.3-0.8,0.3-1.3s-0.1-0.9-0.3-1.3c-0.2-0.4-0.4-0.7-0.7-1&#10;                              c-0.3-0.3-0.6-0.5-1-0.7c-0.4-0.2-0.8-0.2-1.3-0.2c-0.4,0-0.9,0.1-1.3,0.2c-0.4,0.2-0.7,0.4-1,0.7c-0.3,0.3-0.5,0.6-0.7,1&#10;                              C504.1,152.4,504,152.8,504,153.3z" style="block-size:auto;d:path(&quot;M 500.9 153.3 C 500.9 152.4 501.1 151.6 501.4 150.9 S 502.2 149.5 502.7 149 C 503.3 148.4 503.9 148 504.7 147.7 C 505.5 147.4 506.3 147.2 507.3 147.2 C 508.2 147.2 509.1 147.4 509.9 147.7 C 510.7 148 511.4 148.4 511.9 149 S 512.9 150.2 513.2 150.9 S 513.7 152.4 513.7 153.3 C 513.7 154.2 513.5 155 513.2 155.7 S 512.4 157.1 511.9 157.6 S 510.7 158.6 509.9 158.9 C 509.1 159.2 508.3 159.4 507.3 159.4 C 506.4 159.4 505.5 159.2 504.7 158.9 C 503.9 158.6 503.2 158.2 502.7 157.6 C 502.1 157 501.7 156.4 501.4 155.7 S 500.9 154.1 500.9 153.3 Z M 504 153.3 C 504 153.8 504.1 154.2 504.3 154.6 C 504.5 155 504.7 155.3 505 155.6 C 505.3 155.9 505.6 156.1 506 156.3 S 506.8 156.5 507.3 156.5 C 507.7 156.5 508.2 156.4 508.6 156.3 C 509 156.1 509.3 155.9 509.6 155.6 C 509.9 155.3 510.1 155 510.3 154.6 C 510.5 154.2 510.6 153.8 510.6 153.3 S 510.5 152.4 510.3 152 C 510.1 151.6 509.9 151.3 509.6 151 C 509.3 150.7 509 150.5 508.6 150.3 C 508.2 150.1 507.8 150.1 507.3 150.1 C 506.9 150.1 506.4 150.2 506 150.3 C 505.6 150.5 505.3 150.7 505 151 C 504.7 151.3 504.5 151.6 504.3 152 C 504.1 152.4 504 152.8 504 153.3 Z&quot;);fill:rgb(43, 43, 53);height:auto;inline-size:auto;overflow-x:visible;overflow-y:visible;perspective-origin:0px 0px;transform-origin:0px 0px;vertical-align:baseline;width:auto;"/>
    <path class="c-2B2B35" d="M515.6,159.1v-11.6h3l5.6,7.1v-7.1h3v11.6h-3l-5.6-7.1v7.1H515.6z" style="block-size:auto;d:path(&quot;M 515.6 159.1 V 147.5 H 518.6 L 524.2 154.6 V 147.5 H 527.2 V 159.1 H 524.2 L 518.6 152 V 159.1 H 515.6 Z&quot;);fill:rgb(43, 43, 53);height:auto;inline-size:auto;overflow-x:visible;overflow-y:visible;perspective-origin:0px 0px;transform-origin:0px 0px;vertical-align:baseline;width:auto;"/>
    <path class="c-2B2B35" d="M532.6,147.5v9h3.6v2.5h-6.6v-11.6H532.6z" style="block-size:auto;d:path(&quot;M 532.6 147.5 V 156.5 H 536.2 V 159 H 529.6 V 147.4 H 532.6 Z&quot;);fill:rgb(43, 43, 53);height:auto;inline-size:auto;overflow-x:visible;overflow-y:visible;perspective-origin:0px 0px;transform-origin:0px 0px;vertical-align:baseline;width:auto;"/>
    <path class="c-2B2B35" d="M539.4,153.5l-4.2-6h3.6l2.2,3.2l2.1-3.2h3.6l-4.2,6v5.6h-3V153.5z" style="block-size:auto;d:path(&quot;M 539.4 153.5 L 535.2 147.5 H 538.8 L 541 150.7 L 543.1 147.5 H 546.7 L 542.5 153.5 V 159.1 H 539.5 V 153.5 Z&quot;);fill:rgb(43, 43, 53);height:auto;inline-size:auto;overflow-x:visible;overflow-y:visible;perspective-origin:0px 0px;transform-origin:0px 0px;vertical-align:baseline;width:auto;"/>
  </g>

</svg>