<svg xmlns="http://www.w3.org/2000/svg" xmlns:xlink="http://www.w3.org/1999/xlink" width="921.98" height="195.86" viewBox="0 0 921.98 195.86">
  <defs>
    <style>
      .cls-1 {
        fill: url(#radial-gradient);
      }

      .cls-2 {
        fill: url(#linear-gradient);
      }

      .cls-3 {
        opacity: 0.1;
      }

      .cls-21, .cls-3 {
        isolation: isolate;
      }

      .cls-4 {
        fill: url(#radial-gradient-2);
      }

      .cls-5 {
        fill: url(#radial-gradient-3);
      }

      .cls-6 {
        fill: url(#linear-gradient-2);
      }

      .cls-7 {
        fill: url(#linear-gradient-3);
      }

      .cls-8 {
        fill: url(#radial-gradient-4);
      }

      .cls-9 {
        fill: url(#radial-gradient-5);
      }

      .cls-10 {
        fill: url(#radial-gradient-6);
      }

      .cls-11 {
        fill: url(#radial-gradient-7);
      }

      .cls-12 {
        fill: url(#radial-gradient-8);
      }

      .cls-13 {
        fill: url(#radial-gradient-9);
      }

      .cls-14 {
        fill: url(#radial-gradient-10);
      }

      .cls-15 {
        fill: url(#radial-gradient-11);
      }

      .cls-16 {
        fill: url(#linear-gradient-4);
      }

      .cls-17 {
        fill: url(#linear-gradient-5);
      }

      .cls-18 {
        fill: url(#radial-gradient-12);
      }

      .cls-19 {
        fill: url(#radial-gradient-13);
      }

      .cls-20 {
        fill: url(#radial-gradient-14);
      }

      .cls-21 {
        opacity: 0;
      }

      .cls-22, .cls-23, .cls-24, .cls-25, .cls-26, .cls-27, .cls-28, .cls-29, .cls-30, .cls-31, .cls-32, .cls-47, .cls-48, .cls-49, .cls-50, .cls-51, .cls-52, .cls-55 {
        fill-rule: evenodd;
      }

      .cls-22 {
        fill: url(#radial-gradient-15);
      }

      .cls-23 {
        fill: url(#linear-gradient-6);
      }

      .cls-24 {
        fill: url(#radial-gradient-16);
      }

      .cls-25 {
        fill: url(#linear-gradient-7);
      }

      .cls-26 {
        fill: url(#linear-gradient-8);
      }

      .cls-27 {
        fill: url(#radial-gradient-17);
      }

      .cls-28 {
        fill: url(#radial-gradient-18);
      }

      .cls-29 {
        fill: url(#linear-gradient-9);
      }

      .cls-30 {
        fill: url(#linear-gradient-10);
      }

      .cls-31 {
        fill: url(#linear-gradient-11);
      }

      .cls-32 {
        fill: url(#radial-gradient-19);
      }

      .cls-33 {
        fill: url(#linear-gradient-12);
      }

      .cls-34 {
        fill: url(#linear-gradient-13);
      }

      .cls-35 {
        fill: url(#linear-gradient-14);
      }

      .cls-36 {
        fill: url(#linear-gradient-15);
      }

      .cls-37 {
        fill: url(#linear-gradient-16);
      }

      .cls-38 {
        fill: url(#linear-gradient-17);
      }

      .cls-39 {
        fill: url(#linear-gradient-18);
      }

      .cls-40 {
        fill: #e0e895;
      }

      .cls-41 {
        fill: #2f4972;
      }

      .cls-42 {
        fill: #4c96cc;
      }

      .cls-43 {
        fill: #00b19d;
      }

      .cls-44 {
        fill: #699e42;
      }

      .cls-45 {
        fill: #95c64f;
      }

      .cls-46 {
        fill: #cfdf75;
      }

      .cls-47 {
        fill: url(#radial-gradient-20);
      }

      .cls-48 {
        fill: url(#radial-gradient-21);
      }

      .cls-49 {
        fill: url(#linear-gradient-19);
      }

      .cls-50 {
        fill: url(#radial-gradient-22);
      }

      .cls-51 {
        fill: url(#radial-gradient-23);
      }

      .cls-52 {
        fill: url(#linear-gradient-20);
      }

      .cls-53 {
        fill: #fff;
      }

      .cls-54 {
        fill: #6bbed7;
      }

      .cls-55 {
        fill: url(#radial-gradient-24);
      }
    </style>
    <radialGradient id="radial-gradient" cx="6665.43" cy="-23788.09" r="67.6" gradientTransform="translate(20240.14 6863.76) rotate(-90) scale(1 0.85)" gradientUnits="userSpaceOnUse">
      <stop offset="0" stop-color="#fff"/>
      <stop offset="0.5" stop-color="#28b1e6"/>
      <stop offset="1" stop-color="#3e4398"/>
    </radialGradient>
    <linearGradient id="linear-gradient" x1="5708.76" y1="-22369.55" x2="5709.02" y2="-22369.38" gradientTransform="matrix(0, 1, 1, 0, 22495.31, -5545.5)" gradientUnits="userSpaceOnUse">
      <stop offset="0.01" stop-color="#2e6791"/>
      <stop offset="0.39" stop-color="#5cbe87"/>
      <stop offset="1" stop-color="#47c2da"/>
    </linearGradient>
    <radialGradient id="radial-gradient-2" cx="9200.43" cy="-23316.57" r="69.1" gradientTransform="matrix(-0.3, 0.94, 0.79, 0.35, 21325.83, -283.15)" xlink:href="#radial-gradient"/>
    <radialGradient id="radial-gradient-3" cx="-1321.03" cy="-3332.36" r="29.38" gradientTransform="matrix(0.85, 0, 0, -1.45, 1217.35, -4664.33)" gradientUnits="userSpaceOnUse">
      <stop offset="0" stop-color="#fff"/>
      <stop offset="0.5" stop-color="#28b1e6"/>
    </radialGradient>
    <linearGradient id="linear-gradient-2" x1="8694.38" y1="-21969.63" x2="8694.36" y2="-21969.63" gradientTransform="matrix(-0.35, 0.94, 0.94, 0.35, 23767.21, -283.29)" gradientUnits="userSpaceOnUse">
      <stop offset="0.01" stop-color="#3a7093"/>
      <stop offset="0.39" stop-color="#5cbe87"/>
      <stop offset="1" stop-color="#47c2da"/>
    </linearGradient>
    <linearGradient id="linear-gradient-3" x1="8739.91" y1="-22034.83" x2="8739.91" y2="-22034.83" xlink:href="#linear-gradient-2"/>
    <radialGradient id="radial-gradient-4" cx="9200.53" cy="-23308.21" r="47.48" gradientTransform="matrix(-0.3, 0.94, 0.79, 0.35, 21325.5, -283.27)" xlink:href="#radial-gradient"/>
    <radialGradient id="radial-gradient-5" cx="9165.84" cy="-23329.26" r="25.91" gradientTransform="matrix(-0.3, 0.94, 0.79, 0.35, 21325.5, -283.27)" xlink:href="#radial-gradient"/>
    <radialGradient id="radial-gradient-6" cx="9178.63" cy="-22914.02" r="56.69" gradientTransform="matrix(-0.3, 0.94, 0.68, 0.3, 18519.74, -1528.42)" xlink:href="#radial-gradient"/>
    <radialGradient id="radial-gradient-7" cx="7862.24" cy="-29046.22" r="99.18" gradientTransform="matrix(0.85, 0.04, 0.03, -1.05, -5551.56, -30605.7)" gradientUnits="userSpaceOnUse">
      <stop offset="0" stop-color="#fff"/>
      <stop offset="0.37" stop-color="#72c2ec"/>
      <stop offset="0.5" stop-color="#28b1e6"/>
      <stop offset="1" stop-color="#3e4398"/>
    </radialGradient>
    <radialGradient id="radial-gradient-8" cx="8778.93" cy="-22103.56" r="23.82" gradientTransform="matrix(-0.35, 0.94, 0.92, 0.35, 23555.78, -283.27)" gradientUnits="userSpaceOnUse">
      <stop offset="0" stop-color="#fff"/>
      <stop offset="0.12" stop-color="#fff" stop-opacity="0.79"/>
      <stop offset="0.24" stop-color="#fff" stop-opacity="0.58"/>
      <stop offset="0.37" stop-color="#fff" stop-opacity="0.4"/>
      <stop offset="0.5" stop-color="#fff" stop-opacity="0.26"/>
      <stop offset="0.63" stop-color="#fff" stop-opacity="0.15"/>
      <stop offset="0.75" stop-color="#fff" stop-opacity="0.06"/>
      <stop offset="0.88" stop-color="#fff" stop-opacity="0.02"/>
      <stop offset="1" stop-color="#fff" stop-opacity="0"/>
    </radialGradient>
    <radialGradient id="radial-gradient-9" cx="155.07" cy="-4407.5" r="5.24" gradientTransform="matrix(1, 0, 0, -1, 0, -4259.09)" xlink:href="#radial-gradient-8"/>
    <radialGradient id="radial-gradient-10" cx="141.95" cy="-4398.4" r="7.34" gradientTransform="matrix(1, 0, 0, -1, 0, -4259.09)" xlink:href="#radial-gradient-8"/>
    <radialGradient id="radial-gradient-11" cx="-1290.83" cy="-4400.25" fx="-1322.5888126766151" fy="-4362.952991374148" r="54.05" gradientTransform="matrix(0.85, 0, 0, -1, 1217.35, -4259.09)" xlink:href="#radial-gradient"/>
    <linearGradient id="linear-gradient-4" x1="119.56" y1="-4396.44" x2="145.12" y2="-4396.44" gradientTransform="matrix(1, 0, 0, -1, 0, -4259.09)" gradientUnits="userSpaceOnUse">
      <stop offset="0" stop-color="#23b1e6"/>
      <stop offset="1" stop-color="#23b1e6" stop-opacity="0"/>
    </linearGradient>
    <linearGradient id="linear-gradient-5" x1="8720.1" y1="-21991.86" x2="8719.66" y2="-21991.86" xlink:href="#linear-gradient-2"/>
    <radialGradient id="radial-gradient-12" cx="78.79" cy="-4417.12" r="9.39" gradientTransform="matrix(1, 0, 0, -1, 0, -4259.09)" xlink:href="#radial-gradient-8"/>
    <radialGradient id="radial-gradient-13" cx="110.7" cy="-4404.23" r="26.13" gradientTransform="matrix(1, 0, 0, -1, 0, -4259.09)" xlink:href="#radial-gradient-8"/>
    <radialGradient id="radial-gradient-14" cx="-1304.95" cy="-4410.37" r="74.37" gradientTransform="matrix(0.85, 0, 0, -1, 1217.35, -4259.09)" gradientUnits="userSpaceOnUse">
      <stop offset="0" stop-color="#fff"/>
      <stop offset="0.38" stop-color="#28b1e6"/>
      <stop offset="1" stop-color="#3e4398"/>
    </radialGradient>
    <radialGradient id="radial-gradient-15" cx="15379.64" cy="-2070.78" r="376.82" gradientTransform="translate(8272.71 -1450.33) rotate(180) scale(0.53 0.7)" xlink:href="#radial-gradient"/>
    <linearGradient id="linear-gradient-6" x1="10718.55" y1="-4415.83" x2="10775.09" y2="-4415.83" gradientTransform="translate(10795.08 -4259.09) rotate(180)" gradientUnits="userSpaceOnUse">
      <stop offset="0" stop-color="#3e4398"/>
      <stop offset="1" stop-color="#3e4398" stop-opacity="0"/>
    </linearGradient>
    <radialGradient id="radial-gradient-16" cx="15535.67" cy="-1947.17" r="347.15" gradientTransform="translate(8272.71 -1450.33) rotate(180) scale(0.53 0.7)" gradientUnits="userSpaceOnUse">
      <stop offset="0.47" stop-color="#fff"/>
      <stop offset="0.7" stop-color="#28b1e6"/>
      <stop offset="1" stop-color="#216fb6"/>
    </radialGradient>
    <linearGradient id="linear-gradient-7" x1="10777.31" y1="-4287.94" x2="10777.31" y2="-4360.81" xlink:href="#linear-gradient-6"/>
    <linearGradient id="linear-gradient-8" x1="10773.9" y1="-4306.58" x2="10758.22" y2="-4306.58" xlink:href="#linear-gradient-6"/>
    <radialGradient id="radial-gradient-17" cx="15473.48" cy="-2304.82" r="331.24" gradientTransform="translate(8272.71 -1450.33) rotate(180) scale(0.53 0.7)" xlink:href="#radial-gradient"/>
    <radialGradient id="radial-gradient-18" cx="15608.02" cy="-2199.67" r="95.02" gradientTransform="translate(8272.71 -1450.33) rotate(180) scale(0.53 0.7)" xlink:href="#radial-gradient"/>
    <linearGradient id="linear-gradient-9" x1="10768.44" y1="-4392.43" x2="10757.42" y2="-4410.57" xlink:href="#linear-gradient-6"/>
    <linearGradient id="linear-gradient-10" x1="10731.69" y1="-4396.02" x2="10763.81" y2="-4396.02" xlink:href="#linear-gradient-6"/>
    <linearGradient id="linear-gradient-11" x1="10824.06" y1="-4360.3" x2="10783.65" y2="-4360.3" gradientTransform="translate(10795.08 -4259.09) rotate(180)" gradientUnits="userSpaceOnUse">
      <stop offset="0" stop-color="#fff"/>
      <stop offset="1" stop-color="#fff" stop-opacity="0"/>
    </linearGradient>
    <radialGradient id="radial-gradient-19" cx="-279.17" cy="-4240.4" r="113.12" gradientTransform="matrix(0.95, 0, 0, -0.95, 267.28, -3821.15)" xlink:href="#radial-gradient"/>
    <linearGradient id="linear-gradient-12" x1="29.4" y1="-4400.97" x2="29.4" y2="-4329.32" gradientTransform="matrix(1, 0, 0, -1, 0, -4259.09)" gradientUnits="userSpaceOnUse">
      <stop offset="0" stop-color="#00b19d"/>
      <stop offset="0.51" stop-color="#00807f"/>
      <stop offset="1" stop-color="#00b19d"/>
    </linearGradient>
    <linearGradient id="linear-gradient-13" x1="23.79" y1="-4409.26" x2="53.07" y2="-4409.26" gradientTransform="matrix(1, 0, 0, -1, 0, -4259.09)" gradientUnits="userSpaceOnUse">
      <stop offset="0" stop-color="#4c96cc"/>
      <stop offset="0.5" stop-color="#046689"/>
      <stop offset="1" stop-color="#4c96cc"/>
    </linearGradient>
    <linearGradient id="linear-gradient-14" x1="56.34" y1="-4438.41" x2="56.34" y2="-4379.66" gradientTransform="matrix(1, 0, 0, -1, 0, -4259.09)" gradientUnits="userSpaceOnUse">
      <stop offset="0.5" stop-color="#3b454e"/>
      <stop offset="1" stop-color="#2f4972"/>
    </linearGradient>
    <linearGradient id="linear-gradient-15" x1="31.61" y1="-4339.91" x2="51.61" y2="-4339.91" gradientTransform="matrix(1, 0, 0, -1, 0, -4259.09)" gradientUnits="userSpaceOnUse">
      <stop offset="0" stop-color="#699e42"/>
      <stop offset="0.5" stop-color="#518944"/>
      <stop offset="1" stop-color="#699e42"/>
    </linearGradient>
    <linearGradient id="linear-gradient-16" x1="27.01" y1="-4349.92" x2="74.07" y2="-4326.61" gradientTransform="matrix(1, 0, 0, -1, 0, -4259.09)" gradientUnits="userSpaceOnUse">
      <stop offset="0.51" stop-color="#76a247"/>
      <stop offset="1" stop-color="#95c64f"/>
    </linearGradient>
    <linearGradient id="linear-gradient-17" x1="60.23" y1="-4380.62" x2="66.37" y2="-4334" gradientTransform="matrix(1, 0, 0, -1, 0, -4259.09)" gradientUnits="userSpaceOnUse">
      <stop offset="0.3" stop-color="#b7c54c"/>
      <stop offset="1" stop-color="#cfdf75"/>
    </linearGradient>
    <linearGradient id="linear-gradient-18" x1="51.83" y1="-4393.81" x2="78.48" y2="-4390.57" gradientTransform="matrix(1, 0, 0, -1, 0, -4259.09)" gradientUnits="userSpaceOnUse">
      <stop offset="0" stop-color="#e0e895"/>
      <stop offset="0.04" stop-color="#dfe58f"/>
      <stop offset="0.26" stop-color="#d5d575"/>
      <stop offset="0.45" stop-color="#cdcb62"/>
      <stop offset="0.6" stop-color="#cbc65e"/>
      <stop offset="0.7" stop-color="#cecc65"/>
      <stop offset="0.86" stop-color="#d7d97d"/>
      <stop offset="1" stop-color="#e0e895"/>
    </linearGradient>
    <radialGradient id="radial-gradient-20" cx="-3463.11" cy="-6095.76" r="274.09" gradientTransform="matrix(0.74, 0.22, 0.18, -0.93, 3609.37, -4648.71)" xlink:href="#radial-gradient"/>
    <radialGradient id="radial-gradient-21" cx="-3288.68" cy="-5905.37" r="113.52" gradientTransform="matrix(0.74, 0.22, 0.18, -0.93, 3609.37, -4648.71)" xlink:href="#radial-gradient"/>
    <linearGradient id="linear-gradient-19" x1="-970.28" y1="-5687.97" x2="-995.34" y2="-5674.39" gradientTransform="matrix(0.97, 0.23, 0.23, -0.97, 2352.94, -5127.22)" xlink:href="#linear-gradient-6"/>
    <radialGradient id="radial-gradient-22" cx="-3246.47" cy="-5945.13" r="219.62" gradientTransform="matrix(0.74, 0.22, 0.18, -0.93, 3609.37, -4648.71)" xlink:href="#radial-gradient"/>
    <radialGradient id="radial-gradient-23" cx="-3357.67" cy="-6016.4" r="76.33" gradientTransform="matrix(0.74, 0.22, 0.18, -0.93, 3609.37, -4648.71)" xlink:href="#radial-gradient"/>
    <linearGradient id="linear-gradient-20" x1="-974.18" y1="-5670.84" x2="-960.39" y2="-5692.02" gradientTransform="matrix(0.97, 0.23, 0.23, -0.97, 2352.94, -5127.22)" xlink:href="#linear-gradient-6"/>
    <radialGradient id="radial-gradient-24" cx="10927.06" cy="-4376.17" r="169.67" gradientTransform="translate(9442.41 -4625.54) rotate(180) scale(0.86 1.04)" gradientUnits="userSpaceOnUse">
      <stop offset="0.2" stop-color="#ddedf9"/>
      <stop offset="0.25" stop-color="#fff"/>
      <stop offset="0.69" stop-color="#28b1e6"/>
      <stop offset="1" stop-color="#3e4398"/>
    </radialGradient>
  </defs>
  <g id="Layer_2" data-name="Layer 2">
    <g id="Graphics">
      <g>
        <path id="fullLogo" class="cls-1" d="M113.13,194.84a3.83,3.83,0,0,1-2.92-.75,2.87,2.87,0,0,1-.87-.93h0l-.13-.23a12.79,12.79,0,0,0-2.69-3.13,10.78,10.78,0,0,0-1.12-.79,7.3,7.3,0,0,0-2.46-.9,2.79,2.79,0,0,1-.57-.14c-1.91-.69-3.81-1.43-5.66-2.26l-.57.17c-1.13-.11-2.26-.24-3.38-.41a76.91,76.91,0,0,1-46.66-26.12c-15.82-19.29-16-41.45-14.27-55.37A26.4,26.4,0,0,1,38.3,89.17a1.07,1.07,0,0,1,.16-.14,6.31,6.31,0,0,1,1.15,0,5.91,5.91,0,0,1,5.61,6.19,5.67,5.67,0,0,1-.29,1.54c-7.15,21.25,3.87,46,23.18,55.12l.12,0a84.59,84.59,0,0,0,25.44,12.94,98.92,98.92,0,0,0,32.62,4.19c.77-.43,1.52-.86,2.27-1.33l-.15.21-1.69,2.31-2.29,3.13a3.5,3.5,0,0,0-.71,1.81c-.21,1.84,1.59,3.11,3.72,3.64a6.84,6.84,0,0,0,2.21.27l.43,0a3.25,3.25,0,0,1,.59,6.43h0l-.54.06H130a14.43,14.43,0,0,1-1.74,0,4.7,4.7,0,0,1-2.85-.89,14.1,14.1,0,0,1-1.68-2.44c-1.67-2.05-4.24-.65-6.37.2a20.29,20.29,0,0,0-3.62,2A1.67,1.67,0,0,0,113,186a1.23,1.23,0,0,0,0,.19c.21,1,1.06,1,1.69,1.44a2.05,2.05,0,0,1,.38.34,3.94,3.94,0,0,1,.38,5.56,3.88,3.88,0,0,1-2.31,1.3Z"/>
        <path id="fullLogo-2" class="cls-2" d="M130.08,179.07l-.44,0,.38,0Z"/>
        <polygon id="fullLogo-3" class="cls-3" points="68.07 151.06 68.06 151.06 68.07 151.06 68.07 151.06"/>
        <path id="fullLogo-4" class="cls-3" d="M98.45,166.05c-.74-.21-1.48-.43-2.21-.66C97,165.62,97.71,165.84,98.45,166.05Z"/>
        <path id="fullLogo-5" class="cls-4" d="M144.54,130.32a13.17,13.17,0,0,0,.44-5.82,7.84,7.84,0,0,0-1.91-3.77,5.76,5.76,0,0,0-3.89-2,13.53,13.53,0,0,1-3.05-.1,5,5,0,0,1-2.4-1.94c-3.1-4.18-4-9.8-7.67-13.4-.89-.81-2.16-2-3.39-1.19a1.91,1.91,0,0,0-.34,2.56,75.61,75.61,0,0,1,4.74,8.65c7,14.76,4.4,25.6-3.88,36.39-.34.45-.7.9-1.07,1.35h0s-1,1.35-2.57,3.08A65,65,0,0,0,144.54,130.32Z"/>
        <path id="fullLogo-6" class="cls-5" d="M95.22,156.69a36.54,36.54,0,0,1-9.91,1.55A50.13,50.13,0,0,0,114,156.59a3.11,3.11,0,0,1-1.33-3.66l0-.08a2.52,2.52,0,0,1,.12-.29v0a5.87,5.87,0,0,0,.79-3.61h0"/>
        <polygon id="fullLogo-7" class="cls-6" points="143.39 134.19 143.39 134.19 143.4 134.17 143.39 134.19"/>
        <polygon id="fullLogo-8" class="cls-7" points="66.35 153.9 66.35 153.9 66.35 153.9 66.35 153.9"/>
        <path id="fullLogo-9" class="cls-8" d="M127.34,133.81a10.45,10.45,0,0,0-1.51-4.22c-1-1.62-2.53-2.88-3.63-4.45a1.56,1.56,0,0,1-.33-.7c-.09-.77.73-1.63,1.56-2a2.87,2.87,0,0,1,2.92.47,4.93,4.93,0,0,1,1.36,2.5,15.55,15.55,0,0,1-.26,8.42"/>
        <path id="fullLogo-10" class="cls-9" d="M122.34,95.65a1.83,1.83,0,0,0-.35-2h0a5.18,5.18,0,0,1-1.16-3.1,5.67,5.67,0,0,0-.18-2.17,2.2,2.2,0,0,0-2.61-1.1,2.69,2.69,0,0,0-1.66,2.25,5.75,5.75,0,0,0,.58,3,10.9,10.9,0,0,0,1.88,2.86,3.45,3.45,0,0,0,1.31,1A1.78,1.78,0,0,0,122.34,95.65Z"/>
        <path id="fullLogo-11" class="cls-10" d="M138.19,108.48a2.1,2.1,0,0,0,2.71-.83,7.74,7.74,0,0,0,1.53-4.59,4.84,4.84,0,0,0-.42-1.83A3,3,0,0,0,137.9,100a2.94,2.94,0,0,0-.47.31,5.3,5.3,0,0,0-1.31,5.21A4.31,4.31,0,0,0,138.19,108.48Z"/>
        <path id="fullLogo-12" class="cls-3" d="M131.52,164.07a83.73,83.73,0,0,1-36.85-1.88c-7.63-2.09-16.7-4.92-23.21-9.5a36.54,36.54,0,0,1-5.39-2.21,84.69,84.69,0,0,0,25.05,13.69,101.29,101.29,0,0,0,33.43,5.28C124.85,169.23,128.88,164.89,131.52,164.07Z"/>
        <path id="fullLogo-13" class="cls-3" d="M130.64,148.71c2.79-1.23,5.53-2.59,8.22-4.05l.33-.32C136.39,145.91,133.54,147.38,130.64,148.71Z"/>
        <path id="fullLogo-14" class="cls-11" d="M67.25,151.45h0a84.57,84.57,0,0,0,30.43,15.48,91.33,91.33,0,0,0,21.86,2.39h0a9.94,9.94,0,0,1,4.1,0,13,13,0,0,1,1.85.52,17.47,17.47,0,0,1,5,2.92l.28.23h0a4,4,0,0,0,1.59.84,5.72,5.72,0,0,0,7-3.34,1.52,1.52,0,0,0,.15-.5,5.89,5.89,0,0,0-3.44-6.61,2.61,2.61,0,0,0-.67-.27c-1-.24-2.19.08-2.91-1.13a2.56,2.56,0,0,1-.11-.24,2.39,2.39,0,0,1,.34-2.5,29.64,29.64,0,0,1,3.92-4.38,8.4,8.4,0,0,1,8.9-2.17,20.24,20.24,0,0,0,3.74,1.83,6.57,6.57,0,0,0,4.11-.92c2.91-1.44,5.86-3.49,5.93-6.92a4.32,4.32,0,0,0-3.23-4.24,5,5,0,0,0-4.33,1.53,10.91,10.91,0,0,1-4,1.94,4.74,4.74,0,0,1-5.87-3.24c0-.15-.07-.3-.1-.45a5.18,5.18,0,0,1,.13-2.76l1.63-5.26c.63-2,1-3.85,1-3.85S118.3,178.2,67.25,151.45Z"/>
        <path id="fullLogo-15" class="cls-12" d="M131.78,157.07a29.09,29.09,0,0,0-3.92,4.38,2.37,2.37,0,0,0-.35,2.5l.12.24c.72,1.21,1.89.88,2.91,1.13a2.77,2.77,0,0,1,.67.27,5.88,5.88,0,0,1,3.44,6.6,1.52,1.52,0,0,1-.16.51,7.51,7.51,0,0,1-.84,1.34,5.84,5.84,0,0,0,5.72-3.59,1.52,1.52,0,0,0,.15-.5,5.88,5.88,0,0,0-3.44-6.61,2.61,2.61,0,0,0-.67-.27c-1-.24-2.19.08-2.91-1.13a2.56,2.56,0,0,1-.11-.24,2.39,2.39,0,0,1,.34-2.5,29.64,29.64,0,0,1,3.92-4.38l.49-.4A10,10,0,0,0,131.78,157.07Z"/>
        <path id="fullLogo-16" class="cls-13" d="M151.77,143.93a9.64,9.64,0,0,1-1,.65l.42.07a4.31,4.31,0,0,1,3.23,4.24,6.94,6.94,0,0,1-3.6,5.59,9.27,9.27,0,0,0,2.55-.92c2.9-1.44,5.86-3.49,5.93-6.92a4.32,4.32,0,0,0-3.23-4.24A5,5,0,0,0,151.77,143.93Z"/>
        <path id="fullLogo-17" class="cls-14" d="M137.05,141.67a5.18,5.18,0,0,0-.14,2.76,4.74,4.74,0,0,0,5.53,3.8,3.69,3.69,0,0,0,.45-.11,10.87,10.87,0,0,0,4-1.94l.23-.17a4.75,4.75,0,0,1-5.33-3.83,5.08,5.08,0,0,1,.13-2.76l1.63-5.26c.63-2,1-3.85,1-3.85a59.54,59.54,0,0,1-6.92,9.47Z"/>
        <path id="fullLogo-18" class="cls-15" d="M144.54,130.32a13.17,13.17,0,0,0,.44-5.82,7.84,7.84,0,0,0-1.91-3.77,5.76,5.76,0,0,0-3.89-2,13.53,13.53,0,0,1-3.05-.1,3.56,3.56,0,0,1-.88-.42,50.13,50.13,0,0,1-7.92,25.18,47,47,0,0,1-4.14,6.31c-.34.45-.7.9-1.07,1.35h0s-1,1.35-2.57,3.08A65,65,0,0,0,144.54,130.32Z"/>
        <path id="fullLogo-19" class="cls-16" d="M119.56,154.13a65,65,0,0,0,25-23.81,13.17,13.17,0,0,0,.44-5.82,7.84,7.84,0,0,0-1.91-3.77s-.1-.1-.15-.15A95.44,95.44,0,0,1,119.56,154.13Z"/>
        <path id="fullLogo-20" class="cls-17" d="M113.67,150.11c0,.12-.09.25-.14.37a.24.24,0,0,1,0-.08Z"/>
        <path id="fullLogo-21" class="cls-18" d="M68.89,152.28c-.54-.27-1.09-.54-1.64-.83a90.55,90.55,0,0,0,23.07,13.16A91.38,91.38,0,0,1,68.89,152.28Z"/>
        <path id="fullLogo-22" class="cls-19" d="M143.62,133.91c.59-1.93.93-3.6.93-3.6s-23,41.89-67.7,25.42C114.58,170.31,137.07,143.46,143.62,133.91Z"/>
        <path id="fullLogo-23" class="cls-3" d="M92.74,185.46a76,76,0,0,1-50.14-30.7c-9.75-14.25-13-32.15-11-49.2h0a31.36,31.36,0,0,1,2.77-10.63h0A21.52,21.52,0,0,1,38.46,89c-8.56,1.69-11.52,14.29-13.09,21.66A64.25,64.25,0,0,0,30.42,153c11.31,23.37,39.94,40.75,65.71,32.91C95,185.77,93.87,185.64,92.74,185.46Z"/>
        <path id="fullLogo-24" class="cls-20" d="M122.57,169.91l.68-.48h1.06a11.51,11.51,0,0,1,1.18.36,10.32,10.32,0,0,1,1.19.5l-2.25,3.07a3.5,3.5,0,0,0-.71,1.81c-.21,1.84,1.59,3.11,3.72,3.64a6.82,6.82,0,0,0,2.2.27l.44,0a3.25,3.25,0,0,1,.59,6.43h0l-.54.06H130a14.43,14.43,0,0,1-1.74,0,4.7,4.7,0,0,1-2.85-.89,14.1,14.1,0,0,1-1.68-2.44c-1.68-2.05-4.24-.65-6.37.2a20.29,20.29,0,0,0-3.62,2A1.67,1.67,0,0,0,113,186a1.23,1.23,0,0,0,0,.19c.21,1,1.06,1,1.69,1.44a2.05,2.05,0,0,1,.38.34,3.95,3.95,0,0,1-1.93,6.86,3.83,3.83,0,0,1-2.92-.75,2.87,2.87,0,0,1-.87-.93h0c0-.08-.1-.15-.14-.23a12.79,12.79,0,0,0-2.69-3.13,10.78,10.78,0,0,0-1.12-.79,7.51,7.51,0,0,0-2.46-.9,2.7,2.7,0,0,1-.56-.14c-1.92-.69-3.81-1.43-5.67-2.26l-.57.17c-1.13-.11-2.26-.24-3.38-.41A76.86,76.86,0,0,1,46.1,159.35a66.21,66.21,0,0,1-14.74-37.24h0C32.31,122.83,49.11,190,122.57,169.91Z"/>
        <path id="fullLogo-25" class="cls-21" d="M37.26,89.36C30,91.8,27.17,102.46,25.62,109.54A56,56,0,0,1,37.26,89.36Z"/>
        <path id="fullLogo-26" class="cls-22" d="M43.81,154.91c2.92-2.23,1.81-4-.17-4.73-2.14-.76-3.78-2.24-3-4.21a12.92,12.92,0,0,0,2.09,2.34c2.23,2,3.87,2.65,5.14,5.88a42.19,42.19,0,0,0,4.11,8.3l-1,.5a33.23,33.23,0,0,1-7.37.82,36.47,36.47,0,0,1-24.93-10.37C26,159.42,37.61,159.66,43.81,154.91Z"/>
        <path id="fullLogo-27" class="cls-23" d="M43.81,154.91a9.39,9.39,0,0,0,.94-.84c1.16,1,1.31,2.55-1.17,4-6.44,3.91-18,1.64-24.7-4.47l-.23-.2C26,159.42,37.61,159.66,43.81,154.91Z"/>
        <path id="fullLogo-28" class="cls-24" d="M18.36,49c2.46-14,3.63-19.54-2-35.83-5.74-16.76,12.15-18.55,17,.76,1.61,6.49,0,14.72-.9,21.33-1.35,9.53,4.28,10.43,7.9,5.16,1.93-2.8,4-3.53,5.25-1.25C50.4,48,30.17,71,25.91,79.49c-7.93,15.63-10.53,34.3-.64,43.14a4.72,4.72,0,0,1-5.07.22c-5.74-2.88-10.48-13.49-9.87-28C10.89,81.18,18.63,61,18.36,49Z"/>
        <path id="fullLogo-29" class="cls-25" d="M18.36,49c1,12-5.39,32.92-5.09,46.62.37,15.75,3,22.46,12,27a4.72,4.72,0,0,1-5.07.22c-5.74-2.88-10.48-13.49-9.87-28C10.89,81.18,18.63,61,18.36,49Z"/>
        <path id="fullLogo-30" class="cls-26" d="M40.38,40.4c1.93-2.8,4-3.53,5.25-1.25,1.89,3.5-.15,9.22-3.55,15.38-9.08,10.78-14,5.06-9.6-19.29C31.13,44.77,36.76,45.67,40.38,40.4Z"/>
        <path id="fullLogo-31" class="cls-27" d="M18.36,49c.27,12.06-7.47,32.2-8,45.89-.61,14.49,4.13,25.1,9.87,28a4.72,4.72,0,0,0,5.07-.22,8.25,8.25,0,0,0,1.42-1.22,50.49,50.49,0,0,0,1.66,6.84l0,.06a3.92,3.92,0,0,0,1.81,5.24l.51.21c.38.7.77,1.39,1.19,2.05a16.64,16.64,0,0,0,6.88,5.86,13.06,13.06,0,0,0,1.94,4.3c-.79,2,.85,3.45,3,4.21,2,.72,3.09,2.5.17,4.73-6.2,4.76-17.77,4.51-25.16-1.47C7.38,143,0,125.65,0,106,0,76.43,15,68.17,18.36,49Z"/>
        <path id="fullLogo-32" class="cls-28" d="M18.36,49c.27,12.06-7.47,32.2-8,45.89-.61,14.49,4.13,25.1,9.87,28-6.08-1.73-11.56-13.8-11-28.28C9.79,80.9,18.09,60.45,18.36,49Z"/>
        <path id="fullLogo-33" class="cls-29" d="M40.08,145.07q.27.47.57.9c-.79,2,.85,3.45,3,4.21,2,.72,3.09,2.5.17,4.73C31,159.92,26.74,153.67,40.08,145.07Z"/>
        <path id="fullLogo-34" class="cls-30" d="M30.64,133.76c.38.7.77,1.39,1.19,2.05a16.57,16.57,0,0,0,4.9,4.79c-5.57,11.94-14,.08-8.41-12.29a3.92,3.92,0,0,0,1.81,5.24Z"/>
        <path id="fullLogo-35" class="cls-31" d="M9.64,75.7a90.11,90.11,0,0,0,9,77.74C7.38,143,0,125.65,0,106c0-29.6,15-37.86,18.36-57C17.39,57.62,13.09,66,9.64,75.7Z"/>
        <path id="fullLogo-36" class="cls-32" d="M9.32,106.17s-4.85,41.91,9.11,57.24c11,12.06,18.4,2.29,8-9.56S9.32,106.17,9.32,106.17Z"/>
        <path id="fullLogo-37" class="cls-33" d="M30,70.29l17.9,44a2.48,2.48,0,0,1-.21,2.26L23.31,140.73c-.33.33-10.47.83-10.6.07-4.27-24.16-1.68-52.73,6.63-71C19.6,69.25,29.79,69.68,30,70.29Z"/>
        <path id="fullLogo-38" class="cls-34" d="M29.71,176.38c-5.23-6.37-3.17-19.4-5.84-31.17a2.41,2.41,0,0,1,.32-1.94l14.28-24.21c.4-.39,11,.17,11.08,1.12l3.51,58.89c0,.8-.22,1.55-.58,1.61C46.78,181.74,34.75,182.52,29.71,176.38Z"/>
        <path id="fullLogo-39" class="cls-35" d="M65.57,146.72l5.68,10.81a2.82,2.82,0,0,1,.06,2.06,45.64,45.64,0,0,1-9.38,14.75,20.43,20.43,0,0,1-6.72,4.6c-.36.14-10.36.79-10.41,0l-3.6-57.52c-.08-1.3,10.59-.9,11,0Z"/>
        <path id="fullLogo-40" class="cls-36" d="M31.78,68A2.77,2.77,0,0,1,31.84,66c2-3.67-.86-9.73,1.52-12.09C37.3,50,46.7,51.09,51,51.28c.37,0,.65.72.63,1.53L49.9,109c0,1.25-10.62,2.21-11,1.27Z"/>
        <path id="fullLogo-41" class="cls-37" d="M71.77,71.82,53,109.33c-.43.86-10.9,1.5-10.86.22l2-58.58c0-.81,9.81-.09,10.18,0C61,52.67,67.11,59.26,71.8,69.76A2.82,2.82,0,0,1,71.77,71.82Z"/>
        <path id="fullLogo-42" class="cls-38" d="M79.22,103.7c.08.79-.16,1.57-.52,1.7L75,106.79,55.1,114.26c-.64.24-11.07.69-10.6-.27l18.17-38.1c.27-.55,10.36-.13,10.59.5a98.24,98.24,0,0,1,4.09,14.7C78.17,95.15,78.79,99.38,79.22,103.7Z"/>
        <path id="fullLogo-43" class="cls-39" d="M62.4,157.33l-9.77-37.45c-.41-.79-.22-2.29.32-2.49l15.27-9.53c.36-.14,10.77.44,10.82,1.24a127.47,127.47,0,0,1-6,47.7C72.85,157.44,62.67,157.86,62.4,157.33Z"/>
        <path id="fullLogo-44" class="cls-40" d="M62,157,42.46,119.88c-.42-.79-.23-2.29.31-2.49l25.34-9.51h0c.36-.14.71.42.75,1.22a127.47,127.47,0,0,1-6,47.7C62.67,157.44,62.25,157.52,62,157Z"/>
        <path id="fullLogo-45" class="cls-41" d="M55.39,146.72l5.69,10.81a2.77,2.77,0,0,1,.05,2.06,45.61,45.61,0,0,1-9.37,14.75,20.54,20.54,0,0,1-6.72,4.6c-.36.14-.7-.42-.75-1.23L41,122.64c-.07-1.3.61-2.13,1.06-1.28Z"/>
        <path id="fullLogo-46" class="cls-42" d="M25.73,172.86c-5.23-6.36-9.36-15.88-12-27.65a2.37,2.37,0,0,1,.32-1.94l24.45-24.21c.4-.39.85.17.9,1.12l3.52,58.89c0,.8-.22,1.55-.59,1.61C36.61,181.74,30.77,179,25.73,172.86Z"/>
        <path id="fullLogo-47" class="cls-43" d="M19.86,70.29l17.9,44a2.51,2.51,0,0,1-.22,2.26l-24.4,24.15c-.34.33-.73,0-.87-.77C8,115.79,10.62,88.47,18.93,70.22,19.19,69.65,19.61,69.68,19.86,70.29Z"/>
        <path id="fullLogo-48" class="cls-44" d="M21.6,68A2.77,2.77,0,0,1,21.67,66,39.43,39.43,0,0,1,28.3,56.9a16.87,16.87,0,0,1,12.51-5.62c.36,0,.65.72.62,1.53L39.73,109c0,1.26-.74,1.8-1.12.87Z"/>
        <path id="fullLogo-49" class="cls-45" d="M61.59,71.82,42.85,109.33c-.43.86-1.12.12-1.08-1.16l1.7-55.87c0-.81.35-1.42.71-1.33,6.64,1.7,12.76,8.29,17.45,18.79A2.77,2.77,0,0,1,61.59,71.82Z"/>
        <path id="fullLogo-50" class="cls-46" d="M69.05,103.7c.07.79-.17,1.57-.53,1.7l-3.7,1.39-19.89,7.47c-.64.24-1-1.51-.54-2.47L62.16,76.24c.27-.54.69-.48.92.15a98.27,98.27,0,0,1,4.1,14.7C68,95.15,68.62,99.38,69.05,103.7Z"/>
        <path id="fullLogo-51" class="cls-47" d="M91.33,139.85c-2.13-.23-5,1.49-7.51,6.42a99.92,99.92,0,0,1-6.56,12.51c-3.3,4.72-7.75,5.73-8.49-2.66-.36-4-3.92-7.76-9.22.75a35.15,35.15,0,0,1-9,9.9c-16.87,12.32-37.55-.08-38.89-26.3-2.29,21.7,5.18,45,18.9,51.61C53,199.3,72.83,178.19,90.65,162.17c-9.72,4.06-1.36-9.2,1-11.78C96.27,145.49,94.72,140.2,91.33,139.85Z"/>
        <path id="fullLogo-52" class="cls-48" d="M101.05,132c-1.19-1.37-3.44-.73-5,1.42s-1.88,5-.69,6.37,3.42.72,5-1.42S102.24,133.32,101.05,132Z"/>
        <path id="fullLogo-53" class="cls-49" d="M68.77,156.12c-.36-4-3.92-7.76-9.22.75-8.31,14.85,4.83,22.24,17.71,1.91C74,163.5,69.51,164.51,68.77,156.12Z"/>
        <path id="fullLogo-54" class="cls-50" d="M104.62,151a119.21,119.21,0,0,0-14,11.18c-17.82,16-37.67,37.13-60.13,29.91,20.67,9.94,39.92-3.15,57.73-.82,10,1.3,15.16-5.53,8.31-8.29-3.94-1.59-6-5.26-3-9.18,4.37-5.66,13.15-6,19.21-8C130.28,160,119.55,141.33,104.62,151Z"/>
        <path id="fullLogo-55" class="cls-51" d="M30.52,192.08c22.45,8.55,43.13-12.6,60.13-29.91C72.83,178.19,53,199.3,30.52,192.08Z"/>
        <path id="fullLogo-56" class="cls-52" d="M96.56,183c-3.94-1.59-6-5.26-3-9.18a12.74,12.74,0,0,1,3.27-2.94c-16.23,7.74-19.55,18-8.6,20.41C98.23,192.56,103.4,185.73,96.56,183Z"/>
        <path id="fullLogo-57" class="cls-53" d="M181.86,69.32V95.17q0,8.83,2.48,11.06a9.93,9.93,0,0,0,6.9,2.23h3.42v2.43h-38v-2.43h3.32q5.56,0,7.47-2.77t1.91-10.52V37.81q0-8.88-2.45-11.09a10,10,0,0,0-6.92-2.2h-3.33V22.08h32.55q18.45,0,26.76,7.17a22.15,22.15,0,0,1,8.31,17.39,22.74,22.74,0,0,1-7.39,18q-7.4,6.56-20,6.55A72.25,72.25,0,0,1,181.86,69.32Zm0-40.69v37a64,64,0,0,0,10.77,1.29A14.51,14.51,0,0,0,205,61a21.37,21.37,0,0,0,4.39-13.08q0-10-5.33-15.25a18.47,18.47,0,0,0-13.57-5.29A39.57,39.57,0,0,0,181.86,28.63Z"/>
        <path id="fullLogo-58" class="cls-53" d="M320.68,65.94a47.7,47.7,0,0,1-12.4,33.39A40.48,40.48,0,0,1,277,112.93a41.54,41.54,0,0,1-22.42-6,43.09,43.09,0,0,1-15.26-16.45,50.56,50.56,0,0,1-5.63-24.34q0-20,12.92-33.07a42.67,42.67,0,0,1,31.44-13A39.22,39.22,0,0,1,299.7,26.1a45.48,45.48,0,0,1,15.2,16.4A47.14,47.14,0,0,1,320.68,65.94Zm-15,1.79q0-42.92-28.87-42.92A24.81,24.81,0,0,0,262.66,29a29.13,29.13,0,0,0-10.1,13.47,61.32,61.32,0,0,0-3.87,23.42q0,19.35,7.42,30.86a23.42,23.42,0,0,0,20.77,11.51,24.32,24.32,0,0,0,21.45-10.84q7.38-10.84,7.37-29.7Z"/>
        <path id="fullLogo-59" class="cls-53" d="M416.49,110.89H392.77L362.71,69.37c-2.22.1-4,.15-5.41.15q-1.1,0-3.87-.15v25.8q0,8.83,2.46,11.06a9.75,9.75,0,0,0,6.82,2.23h3.47v2.43H328.13v-2.43h3.37q5.5,0,7.47-2.85t2-10.44V37.81q0-8.82-2.48-11.06a10,10,0,0,0-6.95-2.23h-3.37V22.08h32.35a95.77,95.77,0,0,1,19.12,1.54,23,23,0,0,1,12.53,7.44A20.14,20.14,0,0,1,397.44,45q0,17.85-21.88,22.72l18.36,25.45q6.84,9.48,11.63,12.11a28,28,0,0,0,10.94,3.22Zm-63.06-82.6v37h3.67q11.76,0,18.68-5.09A16.76,16.76,0,0,0,382.7,45.8q0-9.57-5.78-14.16a20.63,20.63,0,0,0-13.22-4.59A34.88,34.88,0,0,0,353.43,28.29Z"/>
        <path id="fullLogo-60" class="cls-53" d="M493.89,42.92h-2.48Q490,27.65,475.18,27.64H462.63V95.51q0,8.74,2.41,10.85a10.35,10.35,0,0,0,7,2.1h3.12v2.43h-37.7v-2.43h3.17a10.63,10.63,0,0,0,6.75-2.08q2.69-2.09,2.68-10.87V27.64H439.41q-8.39,0-12.63,3.1t-4.93,12.18h-2.48l1-20.84H492.9Z"/>
        <path id="fullLogo-61" class="cls-53" d="M566.33,41.58H564A28.33,28.33,0,0,0,558.88,31q-3.32-4.08-14.63-4.07h-19.6V61.83h16.17q6.25,0,8.54-2.88a18.87,18.87,0,0,0,3.07-9.28h2.43V79.74h-2.43q-.09-6.85-2.85-9.65a11.84,11.84,0,0,0-8.76-2.81H524.65V95.17a25.63,25.63,0,0,0,.94,9.13,7.16,7.16,0,0,0,3.5,3,12.09,12.09,0,0,0,5.18,1.19h3.23v2.44H499.4v-2.44h3.12c4,0,6.64-1,7.82-2.9s1.76-5.4,1.76-10.39V37.81q0-8.43-2.26-10.86a9.59,9.59,0,0,0-7.32-2.43H499.4V22.08h66Z"/>
        <path id="fullLogo-62" class="cls-53" d="M663.52,65.94a47.7,47.7,0,0,1-12.4,33.39,40.51,40.51,0,0,1-31.26,13.6,41.58,41.58,0,0,1-22.43-6,43.07,43.07,0,0,1-15.25-16.45,50.45,50.45,0,0,1-5.63-24.34q0-20,12.92-33.07a42.63,42.63,0,0,1,31.43-13,39.17,39.17,0,0,1,21.63,6.05,45.42,45.42,0,0,1,15.21,16.4A47.25,47.25,0,0,1,663.52,65.94Zm-15,1.79q0-42.92-28.88-42.92A24.76,24.76,0,0,0,605.5,29a29.13,29.13,0,0,0-10.1,13.47,61.13,61.13,0,0,0-3.87,23.42q0,19.35,7.42,30.86a23.39,23.39,0,0,0,20.76,11.51,24.34,24.34,0,0,0,21.46-10.84q7.37-10.84,7.37-29.7Z"/>
        <path id="fullLogo-63" class="cls-53" d="M747.72,86.78l-7.6,24.11H671.36v-2.43h3.32q5.61,0,7.54-2.85t1.94-10.49V37.81q0-8.88-2.51-11.09a10.15,10.15,0,0,0-7-2.2h-3.32V22.08H711.6v2.44a30.46,30.46,0,0,0-8.86,1,8.17,8.17,0,0,0-4.66,3.15q-1.37,2.12-1.37,10.59V95.12c0,4.46.65,7.27,1.94,8.41s5.21,1.71,11.76,1.71h6.5a64.4,64.4,0,0,0,12.4-.94,17.17,17.17,0,0,0,8.48-4.84,40.34,40.34,0,0,0,7.79-13.12Z"/>
        <path id="fullLogo-64" class="cls-53" d="M792,110.89H753.92v-2.43h3.17q6.1,0,7.82-2.87t1.71-10.42V37.81q0-8.39-2.19-10.84a9.38,9.38,0,0,0-7.34-2.45h-3.17V22.08H792v2.44H788.8a11,11,0,0,0-6.75,2.08q-2.84,2.08-2.83,11.21V95.17c0,5.22.38,8.41,1.14,9.55a7.73,7.73,0,0,0,3.55,2.73,12.44,12.44,0,0,0,4.89,1H792Z"/>
        <path id="fullLogo-65" class="cls-53" d="M886.93,65.94a47.7,47.7,0,0,1-12.4,33.39,40.5,40.5,0,0,1-31.26,13.6,41.54,41.54,0,0,1-22.42-6,43.09,43.09,0,0,1-15.26-16.45A50.56,50.56,0,0,1,800,66.14q0-20,12.92-33.07a42.65,42.65,0,0,1,31.43-13A39.23,39.23,0,0,1,866,26.1a45.48,45.48,0,0,1,15.2,16.4A47.14,47.14,0,0,1,886.93,65.94Zm-15,1.79q0-42.92-28.88-42.92A24.8,24.8,0,0,0,828.91,29a29.13,29.13,0,0,0-10.1,13.47,61.32,61.32,0,0,0-3.87,23.42q0,19.35,7.42,30.86a23.41,23.41,0,0,0,20.76,11.51,24.32,24.32,0,0,0,21.46-10.84q7.36-10.84,7.37-29.7Z"/>
        <path id="fullLogo-66" class="cls-53" d="M886,130.27H152.44a2.18,2.18,0,0,1,0-4.36H886a2.18,2.18,0,0,1,0,4.36Z"/>
        <path id="fullLogo-67" class="cls-53" d="M161.42,150.43H165l13.45,38.06,12.52-38.18h2.44l12.53,38.18,13.44-38.06h3.3L207.12,193.5h-2.57L192,156.35,179.5,193.5h-2.56Z"/>
        <path id="fullLogo-68" class="cls-53" d="M366.61,153.36H351.7v-2.93h33v2.93H369.78V193.2H366.6Z"/>
        <path id="fullLogo-69" class="cls-53" d="M437.08,150.43H467.5v2.93H440.25v16.8h24.5v2.94h-24.5v17.16h27.56v2.94H437.08Z"/>
        <path id="fullLogo-70" class="cls-53" d="M520.74,150.43h18a16.88,16.88,0,0,1,12,4.21,11.3,11.3,0,0,1,3.23,8v.12c0,7.15-5.31,11.24-12.52,12.22l14.11,18.27h-4L537.9,175.48h-14V193.2h-3.17Zm17.59,22.18c7.15,0,12.47-3.61,12.47-9.78v-.12c0-5.75-4.53-9.35-12.28-9.35H523.91v19.25Z"/>
        <path id="fullLogo-71" class="cls-53" d="M607.63,150.43h30.12v2.93H610.81V170.9H635v2.93h-24.2V193.2h-3.18Z"/>
        <path id="fullLogo-72" class="cls-53" d="M701.8,150.12h3.06l19.91,43.08h-3.48l-5.44-12H690.62l-5.43,12h-3.31Zm12.71,28.23L703.27,153.6,692,178.35Z"/>
        <path id="fullLogo-73" class="cls-53" d="M776.54,150.43h3.18v39.83h25.11v2.94H776.54Z"/>
        <path id="fullLogo-74" class="cls-53" d="M857.09,150.43h3.18v39.83h25.11v2.94H857.09Z"/>
        <polygon id="fullLogo-75" class="cls-53" points="288.57 150.12 285.51 150.12 265.6 193.2 268.9 193.2 286.98 153.6 305.01 193.2 308.49 193.2 288.57 150.12"/>
        <path id="fullLogo-76" class="cls-54" d="M306.14,173.47c3.84-.34,9.27-.52,10.22-4.28s-4.21-4.92-9.61-4.75c-31.68,1-54.51,19.19-61,27.89-.09.12.13.17.26.09C274.59,174.22,289,175,306.14,173.47Z"/>
        <path id="fullLogo-77" class="cls-53" d="M898.17,38.57h-1.79V24.4h-5.31V22.75h12.41V24.4h-5.31Z"/>
        <path id="fullLogo-78" class="cls-53" d="M914.44,34.23h-.09l-5.77-8.45V38.57h-1.74V22.75h1.81l5.76,8.63,5.76-8.63H922V38.57H920.2V25.75Z"/>
        <path id="fullLogo-79" class="cls-55" d="M43.41,4.48s4.12,17,3.27,20.81-3.31,6.34-5.51,5.64-3.07-4.86-1-8.2A29.37,29.37,0,0,0,43.41,4.48Z"/>
      </g>
    </g>
  </g>
</svg>
