<svg xmlns="http://www.w3.org/2000/svg" viewBox="0 0 161.91 150"><defs><style>.a{fill:#fff;}.b{font-size:36.05px;fill:#e8e8e9;font-family:Futura-Bold, Futura;font-weight:700;}</style></defs><path class="a" d="M79.84,2s-.5-1.86,0-2C80.29.14,79.89,1.61,79.84,2Z"/><path class="a" d="M79.86,2l0,0s-.06.07,0,0Z"/><path class="a" d="M99.88,79.63A23.1,23.1,0,0,0,81.4,68.14c-1-.06-2.25-.29-2.38-1.27s1.41-1.57,2.54-1.51a25.51,25.51,0,0,1-.24,51c-.74,0-1.62-.07-1.95-.71a1.41,1.41,0,0,1,.68-1.75,4.58,4.58,0,0,1,2-.44,22.71,22.71,0,0,0,17.82-33.8Z"/><path class="a" d="M43.81,34.15l33-15A8,8,0,0,1,80,18.26a7.9,7.9,0,0,1,3.09.86l33.36,14.41c.65.27,1.39.66,1.5,1.36a1.47,1.47,0,0,1-1.36,1.5,4.15,4.15,0,0,1-2.16-.51L83.32,22.36c-1.54-.68-3.31-1.35-4.84-.65Q62.27,29,46,36.27a4.24,4.24,0,0,1-2.22.51c-.75-.12-1.46-.89-1.21-1.61A2,2,0,0,1,43.81,34.15Z"/><path class="a" d="M14.64,42.66q66.39-.4,132.76-.81c1.24-.28,1.6-2,.94-3.12a6,6,0,0,0-3-2.17Q114.45,23.18,83.59,9.78a8.49,8.49,0,0,0-3.84-1,8.11,8.11,0,0,0-3,.93Q46.11,23.49,15.49,37.26a6.38,6.38,0,0,0-2.89,2A2.22,2.22,0,0,0,13,42.39,3.14,3.14,0,0,0,14.64,42.66Zm-5.29.53C9,40.5,9,37,11.44,35.91L77.12,6.39a7.55,7.55,0,0,1,2.72-.84,7.57,7.57,0,0,1,3.27.88L149.21,35c2.59,1.12,2.6,4.74,2.18,7.53a3,3,0,0,1-.64,1.69,2.92,2.92,0,0,1-2.09.55l-136.24.8A3.13,3.13,0,0,1,10,45,3.14,3.14,0,0,1,9.35,43.19Z"/><path class="a" d="M133.37,131.41l15.57,0a1.54,1.54,0,0,0,1.39-.9,1.46,1.46,0,0,0-.33-1.62,2.81,2.81,0,0,0-1.92-.48l-15-.06A2.55,2.55,0,0,0,131,129c-.65.83,0,2.06.75,2.75A2.54,2.54,0,0,1,133.37,131.41Zm-.17-73.26q.17,33.66.77,67.31c4,0,8,0,12.06,0a1.06,1.06,0,0,0,1.28-1.32q0-13.44-.4-26.89-.06-19.92-.14-39.8a1.24,1.24,0,0,0-.22-.88,1.26,1.26,0,0,0-.92-.26L135,56.25a1.52,1.52,0,0,0-1.81,1.9Zm-1.78-7.7a1.45,1.45,0,0,0-.65,2.76,3.2,3.2,0,0,0,1.19.19q4.71.06,9.4,0c1.7,0,3.39,0,5.09-.06a5.6,5.6,0,0,0,2-.26,1.94,1.94,0,0,0,1.28-1.39,1.19,1.19,0,0,0-1.07-1.38C142.89,50.45,137.16,50.6,131.42,50.45Zm-26.34,6h-8.9a4.25,4.25,0,0,0-1.12.1,2.45,2.45,0,0,0-1.83,2A2.49,2.49,0,0,0,94.43,61c4.19,2.36,8.41,5,11.12,9a2.14,2.14,0,0,0,.76.79.69.69,0,0,0,1-.28.94.94,0,0,0,0-.41,92.12,92.12,0,0,1-.22-12.43C107.11,56.75,105.94,56.46,105.08,56.46Zm-9.93,68.93,10.94.07a1.5,1.5,0,0,0,1.1-.29,1.44,1.44,0,0,0,.25-1.06l-.17-11.23a9.28,9.28,0,0,0-.33-2.88A26.6,26.6,0,0,1,96,119.7a4.73,4.73,0,0,0-1.82,1.21,4.38,4.38,0,0,0-.4,3.18,1.13,1.13,0,0,0,1.33,1.3Zm3.73-74.73-5.8.07a3.62,3.62,0,0,0-2.32.57c-.63.51-.73,1.71,0,2a2.12,2.12,0,0,0,.71.12q8.76.27,17.55.14c.83,0,1-1.17,1-2s-1.18-1.06-2-1l-7.57.09Zm10.4,77.87-16.87-.14c-.47,0-1,0-1.28.43a1.61,1.61,0,0,0-.17.65c0,.84.16,2,1,2l17.32-.07a1.43,1.43,0,0,0,0-2.85ZM110,69.79a35.67,35.67,0,0,0,.46,7.16c.39,2,1.11,3.85,1.64,5.79a31.58,31.58,0,0,1-.68,18.73c-1.14,3.24-1.11,6.76-1.07,10.2l.15,11.75a2.91,2.91,0,0,0,.64,2.2,8.1,8.1,0,0,1,2.6,5.87l14.1-.36a4.57,4.57,0,0,1,2-5.17c.86-.5,1-1.68.94-2.67q-.31-31.77-.61-63.54a6.44,6.44,0,0,0-.46-2.83,18.85,18.85,0,0,0-2-2.55c-.64-.89-.91-2.28-.06-3-.92-1-2.42-1-3.76-1l-8.39.2c-1,0-2.18.14-2.7,1-.77,1.24.13,3.51-1.27,3.91-1.25.37-1.49,2-1.49,3.32C110,62.5,110,66.15,110,69.79ZM70.71,56.94a1.67,1.67,0,0,0-.12,2.21.45.45,0,0,0,.36.12,38.21,38.21,0,0,1,15-1,9.73,9.73,0,0,1,3.17.88c.69.39,1.63-.32,1.66-1.13a2.11,2.11,0,0,0-1.33-1.83,3.57,3.57,0,0,1-1.88-4A1.14,1.14,0,0,0,86.89,51a3.58,3.58,0,0,0-1.45-.25q-3.87-.06-7.74,0l-3.69,0c-.41,0-1,.15-.94.57a6,6,0,0,1-.64,3.82C72,55.86,71.22,56.29,70.71,56.94ZM70.52,124a2.46,2.46,0,0,0,.78,1.72c.63.59,1.52,1,1.88,1.79a5.84,5.84,0,0,1,.11,2.21c0,.76.44,1.65,1.18,1.65l10.86.11c1.08,0,2.43-.17,2.78-1.2.21-.65-.11-1.36,0-2a3.66,3.66,0,0,1,1.39-2.18A4,4,0,0,0,90.91,124c.14-.86-.66-1.89-1.49-1.6a29.09,29.09,0,0,1-16.59.33,2.6,2.6,0,0,0-1.24-.09A1.5,1.5,0,0,0,70.52,124ZM66.08,56.63l-10.79.15a1.43,1.43,0,0,0-1.26.45,1.4,1.4,0,0,0-.17.79c0,4.2,0,8.41-.07,12.6,0,.36.18.87.53.76a.57.57,0,0,0,.26-.25,31.38,31.38,0,0,1,10.78-9.27,4.23,4.23,0,0,0,1.46-1,4.22,4.22,0,0,0,.57-2.92,1.45,1.45,0,0,0-.39-1.1A1.39,1.39,0,0,0,66.08,56.63Zm-11.91,68.3c.3.66,1.17.76,1.89.74l10.26-.12c.41,0,.9,0,1.12-.39a1.2,1.2,0,0,0,.14-.7c0-.89,0-1.79,0-2.68,0-.39,0-.87-.38-1a28.08,28.08,0,0,1-10.87-8.07A4.39,4.39,0,0,0,54,110.84c0,.83,0,1.68,0,2.53l.13,10.81A1.87,1.87,0,0,0,54.17,124.93ZM50.59,52.82c.24.83,1.32,1,2.2,1l10.84,0h3.76c1.08,0,2.38-.11,2.92-1a1.18,1.18,0,0,0-.22-1.49,1.3,1.3,0,0,0-.64-.27,12.26,12.26,0,0,0-2.56-.18L55,50.9a22.48,22.48,0,0,0-2.32.08,3.11,3.11,0,0,0-1.52.46A1.34,1.34,0,0,0,50.59,52.82ZM51,130.13A1.21,1.21,0,0,0,52,131.56q8.48,0,16.95-.06a1.41,1.41,0,0,0,1.21-.4c.42-.58-.18-1.61.41-2-.76-.65-1.87-.52-2.86-.46a28.59,28.59,0,0,1-2.93.06l-10.47-.14a6.21,6.21,0,0,0-2,.21A2,2,0,0,0,51,130.13ZM87.57,61.88A30,30,0,0,0,55.73,74.12a30.8,30.8,0,0,0,1.43,35.64,30.78,30.78,0,0,0,34.51,9,30.72,30.72,0,0,0,18.75-28.7,30,30,0,0,0-4.24-14.47A30.34,30.34,0,0,0,87.57,61.88ZM34.28,51.33c-1.25.86-.39,3-1.32,4.23-.52.68-1.52.9-2,1.63a2.9,2.9,0,0,0-.31,1.65l0,63.84c0,1.25.08,2.67,1.05,3.45a5.84,5.84,0,0,1,2.11,5.3,101.06,101.06,0,0,0,12.06.14,2.64,2.64,0,0,0,1.66-.46c1.21-1.05.12-3.73,1.63-4.28S51,124.29,51,122.69q0-6.57,0-13.16a19.7,19.7,0,0,0-.88-7.14,32.77,32.77,0,0,1-.19-22.6c1-2.8,1-5.83,1-8.81,0-3.54-.06-7.09-.09-10.62,0-1.49-.08-3.13-1.12-4.19-.62-.61-1.55-1-1.77-1.85-.28-1,.54-2.21-.14-3a2,2,0,0,0-1.53-.43L35.82,51A2.8,2.8,0,0,0,34.28,51.33Zm-4.93,77.45-15.86.08a3,3,0,0,0-2,.47,1.53,1.53,0,0,0-.42,1.62,1.52,1.52,0,0,0,1.38.94l11-.08c2.13,0,4.27,0,6.39.08.74,0,.94-1,.89-1.74a1.61,1.61,0,0,0-.45-1.17A1.65,1.65,0,0,0,29.35,128.78ZM11.68,53.6l17.49-.06a2.4,2.4,0,0,0,.75-.08,1.22,1.22,0,0,0,.49-1.88,2.38,2.38,0,0,0-1.84-.52c-2.95,0-5.9,0-8.85,0-2,0-3.92,0-5.9.06a3.83,3.83,0,0,0-2.09.43,1.31,1.31,0,0,0-.36,1.87A.45.45,0,0,0,11.68,53.6Zm5,3.27a2.49,2.49,0,0,0-2.1.64A2.51,2.51,0,0,0,14.27,59q0,32.88,0,65.76c0,.55.76.72,1.31.72,3.5,0,7,0,10.48-.06a1.75,1.75,0,0,0,1.37-.39,1.82,1.82,0,0,0,.32-1.25q0-33.36-.14-66.72C24,57,20.35,56.89,16.7,56.87Zm139.19,77.61Q81.67,134.2,7.45,135a7,7,0,0,0-2.38.29,3.74,3.74,0,0,0-2.35,4.06,3.7,3.7,0,0,0,3.61,3q75.65-.87,151.3-.47c.94,0,1.22-1.29,1.17-2.25s-.07-1.77-.12-2.66a2.88,2.88,0,0,0-.47-1.77A3,3,0,0,0,155.89,134.48ZM7.57,130.92c3.45-3,3.72-8.25,3.72-12.85q0-26.88.05-53.76a25.56,25.56,0,0,0-.66-7.1,9.7,9.7,0,0,0-5.43-6.4,2.84,2.84,0,0,1-1.66-2.52l.28-11.9a5.22,5.22,0,0,1,.57-2.77A5.29,5.29,0,0,1,6.9,31.88L62.53,6.81C66,5.23,75.1.21,79.82,0h.07c-.55.12,0,2,0,2-21.21,9.53-47.22,21.45-68.5,31a10,10,0,0,0-5.19,6.8,23.9,23.9,0,0,0,.74,8.27q73.36-.09,146.72-.81c.66-2.7,1.35-5.47,1-8.24a9.61,9.61,0,0,0-5.19-6.83c-21.64-9.32-48-20.9-69.54-30.17,0,0,0-.06,0,0h0c0-.38.45-1.85,0-2H80c5.19.81,15.37,5.51,19.45,7.29q27.38,11.93,54.79,23.86a5.25,5.25,0,0,1,2.27,1.51,5.3,5.3,0,0,1,.66,3.16V46.94a3.75,3.75,0,0,1-3.22,3.55c-1.4.22-2.34,2.09-2.69,3.63-1.75,7.7-1.66,15.67-1.53,23.58q.28,20.4.6,40.79a23.65,23.65,0,0,0,4.12,13c2.43-1.14,5.44.64,6.58,3.09s1,5.26.72,7.95a2.59,2.59,0,0,1-.5,1.58,2.53,2.53,0,0,1-1.95.55Q81,144.81,2.74,145a2.58,2.58,0,0,1-1.69-.39,2.57,2.57,0,0,1-.71-1.77c-.44-3.21-.84-6.59,1.43-9.43a4.69,4.69,0,0,1,3.85-1.59A3.09,3.09,0,0,0,7.57,130.92Z"/><path class="a" d="M1.46,149c.41,0,.39.63.24,1-.4,0-.4-.6-.25-1Z"/><text class="b" transform="translate(67.74 104.09)">$</text></svg>