<svg xmlns="http://www.w3.org/2000/svg" viewBox="0 0 103.1 150"><defs><style>.a{fill:#fff;}</style></defs><path class="a" d="M34.55,45c-.1,11.16-.16,22.17-.33,33.18-.07,4.4,1.38,13.74-3.27,15.91-2.72,1.27-8.33.26-11.34.3q-6.07.08-12.15.1,19.37,23.34,39.92,45.65c.8.86,1.79,1.8,3,1.65a3.76,3.76,0,0,0,2-1.3Q74,118.54,94.56,95.61l-22-.75c-1.3,0-2.82-.21-3.51-1.31a4,4,0,0,1-.41-2.18q0-14.52.51-29.05c.22-6.53,5.65-5.44,5.83.56q.27,8.74-.22,17.48c-.22,3.87-1.87,7,2.12,8.59,4.9,1.9,13.82.87,19.14,1.67,7.28,1.1,7.4,5.17,3,9.8-14.42,15.34-28.8,30.7-43.32,45.94-1.83,1.92-4.13,4-6.75,3.58-1.84-.3-3.23-1.79-4.47-3.19Q23.07,122.42,2,97.72C-.79,94.48-1,90.38,3.5,88.47c2.24-1,4.77-.85,7.2-.74l11.63.56a6,6,0,0,0,3.25-.45c1.81-1,2.05-3.48,2.07-5.56l.72-68.22C28.41,10.89,28,3.25,30.8,1,35.92-3.13,35,6.89,35,9.46c0,.44-.15.89-.15,1.33,0,3.24,0,6.47,0,9.71v3.95c0,5.1,0,10.2,0,15.31,0,1.68-.19,3.37-.3,5.21"/><path class="a" d="M73.66,25.74a14.67,14.67,0,0,0,1.26-1c4.37-4.34,8.69-8.74,13.09-13,2.22-2.17,4.59-4.18,6.87-6.29a20.4,20.4,0,0,0,1.36-1.57c1.1-1.25,2.58-1,4-.9a1.41,1.41,0,0,1,1.45,1.51,5.59,5.59,0,0,1-2,5c-2.43,2.17-4.61,4.61-7,6.86-2,1.89-4.07,3.65-6.08,5.51-.51.47-.84,1.13-1.34,1.61-3.06,3-6.14,5.95-9.21,8.92-.78.75-1.53,1.53-2.3,2.29Q66.1,42.19,58.39,49.7c-.93.9-2,1.61-3,2.44a2.34,2.34,0,0,1-3.49-.1c-1.32-1.29-1.76-2.9-.66-4.13,1.41-1.57,3-3,4.45-4.5.22-.22.44-.44.67-.65Z"/><path class="a" d="M72.57,16.86c-1.22,1.45-1.71,3.23-3.33,4.35a13.85,13.85,0,0,1-7.39,2.7,11.76,11.76,0,0,1-7.51-2,10.54,10.54,0,0,1-4.76-8.47A11.73,11.73,0,0,1,54.33,2.79C57.25.5,60.78-.76,64.4.55c3.94,1.43,7.17,4,8.38,8.29a13.33,13.33,0,0,1-.21,8m-7.09-1c1.36-1,1.26-2.52,1.25-4a5.56,5.56,0,0,0-6.4-5.19c-2.93.65-4.56,3.16-4.18,6.58a4.87,4.87,0,0,0,5.16,4.39A7.9,7.9,0,0,0,65.48,15.85Z"/><path class="a" d="M79.81,41.23a15.71,15.71,0,0,1,.45-2.46,10.6,10.6,0,0,1,8.1-7.35c3.38-.71,6.93-.46,10,2a11.18,11.18,0,0,1,3.82,4.94,17.82,17.82,0,0,1,.92,6.28c-.11,3.63-2.26,6.25-5.16,8.21-4.12,2.8-8.17,3-12.71.37S79.57,46.68,79.51,42c0-.21.19-.43.3-.8m7.31,5.6c1.15.63,2.23,1.59,3.44,1.8,2.47.42,4.89-1,6.06-3.83.71-1.74.38-3.91-1.69-6-1-1-4-1.42-5.42-1C85.49,39,85.13,43.54,87.12,46.83Z"/></svg>