<svg xmlns="http://www.w3.org/2000/svg" xmlns:xlink="http://www.w3.org/1999/xlink" viewBox="0 0 409 409"><defs><style>.cls-1{fill:url(#linear-gradient);}.cls-2{fill:#fff;}</style><linearGradient id="linear-gradient" x1="22.32" y1="354.11" x2="298.44" y2="127.35" gradientUnits="userSpaceOnUse"><stop offset="0" stop-color="#648e3d"/><stop offset="0.47" stop-color="#779f43"/><stop offset="1" stop-color="#91b74b"/></linearGradient></defs><g id="Layer_2" data-name="Layer 2"><g id="Graphics"><rect class="cls-1" width="409" height="409" rx="40.37"/><path class="cls-2" d="M164.58,283.58,148,269,305.26,112.26a5.59,5.59,0,0,0-.85-8.76,8.35,8.35,0,0,0-10.45.72l-156,156.1L118.77,246.5c-3.24-2.34-8.26-.71-8.8,2.87L102,301.9c-.52,3.47,3.63,6.11,7.44,4.73l53.73-15.45C166.86,289.86,167.6,285.76,164.58,283.58Z"/><path class="cls-2" d="M114.62,175.48q12.52,10.89,28.28,10.9a41.94,41.94,0,0,0,30.38-12.27,40,40,0,0,0,12.53-29.75,42.51,42.51,0,0,0-42.28-42.28,41.38,41.38,0,0,0-30.12,12.32q-12.59,12.31-12.58,29.48Q100.83,163.43,114.62,175.48Zm7.32-53a30.33,30.33,0,0,1,42.81,0,31.54,31.54,0,0,1-.11,43.6,30,30,0,0,1-42.38.16q-9.06-8.69-9.06-22.17A29.33,29.33,0,0,1,121.94,122.45Z"/><path class="cls-2" d="M295.52,235.54a40.62,40.62,0,0,0-29.8-12.43,41.42,41.42,0,0,0-30.12,12.32Q223,247.74,223,264.92q0,19.53,13.79,31.59,12.54,10.9,28.28,10.9a41.94,41.94,0,0,0,30.38-12.27A40,40,0,0,0,308,265.39,40.6,40.6,0,0,0,295.52,235.54Zm-8.69,51.54a30,30,0,0,1-42.38.16q-9.06-8.69-9.06-22.17a29.29,29.29,0,0,1,8.74-21.58,30.31,30.31,0,0,1,42.81,0,31.53,31.53,0,0,1-.11,43.59Z"/><path class="cls-2" d="M346.16,37A25.87,25.87,0,0,1,372,62.84V346.16A25.87,25.87,0,0,1,346.16,372H62.84A25.87,25.87,0,0,1,37,346.16V62.84A25.87,25.87,0,0,1,62.84,37H346.16m0-9H62.84A35,35,0,0,0,28,62.84V346.16A35,35,0,0,0,62.84,381H346.16A35,35,0,0,0,381,346.16V62.84A35,35,0,0,0,346.16,28Z"/></g></g></svg>