<svg xmlns="http://www.w3.org/2000/svg" xmlns:xlink="http://www.w3.org/1999/xlink" viewBox="0 0 409 409"><defs><style>.cls-1{fill:url(#linear-gradient);}.cls-2{fill:#fff;}.cls-3{fill:none;stroke:#fff;stroke-linecap:round;stroke-linejoin:round;stroke-width:9px;}</style><linearGradient id="linear-gradient" x1="23.69" y1="385.31" x2="383.13" y2="25.87" gradientUnits="userSpaceOnUse"><stop offset="0.03" stop-color="#b1b979"/><stop offset="0.72" stop-color="#e0e895"/></linearGradient></defs><g id="Layer_2" data-name="Layer 2"><g id="Graphics"><rect class="cls-1" width="409" height="409" rx="40.37"/><path class="cls-2" d="M204.5,86.85A111.36,111.36,0,0,1,250.85,97,124.83,124.83,0,0,1,289,124.1c22.34,23.07,35.15,53.11,35.15,82.4A119.64,119.64,0,1,1,204.5,86.85m0-9A128.65,128.65,0,1,0,333.15,206.5c0-64.89-57.6-128.65-128.65-128.65Z"/><line class="cls-3" x1="204.71" y1="299.03" x2="204.29" y2="204.58"/><circle class="cls-2" cx="204.5" cy="206.5" r="12.5"/><path class="cls-2" d="M346.16,39A25.87,25.87,0,0,1,372,64.84V348.16A25.87,25.87,0,0,1,346.16,374H62.84A25.87,25.87,0,0,1,37,348.16V64.84A25.87,25.87,0,0,1,62.84,39H346.16m0-9H62.84A35,35,0,0,0,28,64.84V348.16A35,35,0,0,0,62.84,383H346.16A35,35,0,0,0,381,348.16V64.84A35,35,0,0,0,346.16,30Z"/><line class="cls-3" x1="204.62" y1="204.58" x2="146.28" y2="189.41"/></g></g></svg>