<svg xmlns="http://www.w3.org/2000/svg" xmlns:xlink="http://www.w3.org/1999/xlink" viewBox="0 0 409 409"><defs><style>.cls-1{fill:url(#linear-gradient);}.cls-2{fill:none;stroke:#fff;stroke-miterlimit:10;stroke-width:9px;}.cls-3{fill:#fff;}</style><linearGradient id="linear-gradient" x1="25.19" y1="383.81" x2="391.26" y2="17.74" gradientUnits="userSpaceOnUse"><stop offset="0" stop-color="#2f4972"/><stop offset="0.36" stop-color="#30a9dc"/><stop offset="0.72" stop-color="#65a4ab" stop-opacity="0.99"/><stop offset="0.97" stop-color="#6ca6ae" stop-opacity="0.99"/><stop offset="0.98" stop-color="#6ca6ae" stop-opacity="0.99"/></linearGradient></defs><g id="Layer_2" data-name="Layer 2"><g id="Graphics"><rect class="cls-1" width="409" height="409" rx="40.37"/><line class="cls-2" x1="102.06" y1="253.65" x2="147.81" y2="186.24"/><line class="cls-2" x1="258.44" y1="216.46" x2="176.38" y2="176.56"/><line class="cls-2" x1="287.73" y1="206.05" x2="317.53" y2="143.31"/><path class="cls-3" d="M88.86,256.23a13.17,13.17,0,1,1-12,14.52,13.34,13.34,0,0,1,12-14.52m-1.08-10.09a23.31,23.31,0,1,0,26,20.68,23.48,23.48,0,0,0-26-20.68Z"/><path class="cls-3" d="M157.34,158.4a13.33,13.33,0,0,1,14.8,11.66,12.83,12.83,0,0,1-.49,5.16,13.48,13.48,0,0,1-11.53,9.36,13.17,13.17,0,1,1-2.78-26.18m-1.07-10.09a23.31,23.31,0,1,0,25.07,29.9,22.88,22.88,0,0,0,.89-9.22,23.47,23.47,0,0,0-26-20.68Z"/><path class="cls-3" d="M275.67,208.65a13.17,13.17,0,1,1-12,14.52,13.35,13.35,0,0,1,12-14.52m-1.08-10.08a23.31,23.31,0,1,0,26,20.67,23.47,23.47,0,0,0-26-20.67Z"/><path class="cls-2" d="M309.2,120.23a17.49,17.49,0,1,1,31.28,15.65,17.8,17.8,0,0,1-10.19,8.92,17.31,17.31,0,0,1-13.39-.89,17.61,17.61,0,0,1-7.7-23.68"/><path class="cls-3" d="M346.16,34A25.87,25.87,0,0,1,372,59.84V343.16A25.87,25.87,0,0,1,346.16,369H62.84A25.87,25.87,0,0,1,37,343.16V59.84A25.87,25.87,0,0,1,62.84,34H346.16m0-9H62.84A35,35,0,0,0,28,59.84V343.16A35,35,0,0,0,62.84,378H346.16A35,35,0,0,0,381,343.16V59.84A35,35,0,0,0,346.16,25Z"/></g></g></svg>