<svg xmlns="http://www.w3.org/2000/svg" xmlns:xlink="http://www.w3.org/1999/xlink" viewBox="0 0 644.42 136.89"><defs><style>.a{fill:url(#a);}.b{fill:url(#b);}.c{opacity:0.1;}.c,.u{isolation:isolate;}.d{fill:url(#c);}.e{fill:url(#d);}.f{fill:url(#e);}.g{fill:url(#f);}.h{fill:url(#g);}.i{fill:url(#h);}.j{fill:url(#i);}.k{fill:url(#j);}.l{fill:url(#k);}.m{fill:url(#l);}.n{fill:url(#m);}.o{fill:url(#n);}.p{fill:url(#o);}.q{fill:url(#p);}.r{fill:url(#q);}.s{fill:url(#r);}.t{fill:url(#s);}.u{opacity:0;}.aa,.ab,.ac,.ad,.ae,.af,.au,.av,.aw,.ax,.ay,.az,.bb,.v,.w,.x,.y,.z{fill-rule:evenodd;}.v{fill:url(#t);}.w{fill:url(#u);}.x{fill:url(#v);}.y{fill:url(#w);}.z{fill:url(#x);}.aa{fill:url(#y);}.ab{fill:url(#z);}.ac{fill:url(#aa);}.ad{fill:url(#ab);}.ae{fill:url(#ac);}.af{fill:url(#ad);}.ag{fill:url(#ae);}.ah{fill:url(#af);}.ai{fill:url(#ag);}.aj{fill:url(#ah);}.ak{fill:url(#ai);}.al{fill:url(#aj);}.am{fill:url(#ak);}.an{fill:#e0e895;}.ao{fill:#2f4972;}.ap{fill:#4c96cc;}.aq{fill:#00b19d;}.ar{fill:#699e42;}.as{fill:#95c64f;}.at{fill:#cfdf75;}.au{fill:url(#al);}.av{fill:url(#am);}.aw{fill:url(#an);}.ax{fill:url(#ao);}.ay{fill:url(#ap);}.az{fill:url(#aq);}.ba{fill:#6bbed7;}.bb{fill:url(#ar);}</style><radialGradient id="a" cx="5609.33" cy="-16589.44" r="47.25" gradientTransform="translate(14115.33 5747.95) rotate(-90) scale(1 0.85)" gradientUnits="userSpaceOnUse"><stop offset="0" stop-color="#fff"/><stop offset="0.5" stop-color="#28b1e6"/><stop offset="1" stop-color="#3e4398"/></radialGradient><linearGradient id="b" x1="-885.13" y1="-15863.99" x2="-884.95" y2="-15863.88" gradientTransform="matrix(0, 1, 1, 0, 15955.31, 999.08)" gradientUnits="userSpaceOnUse"><stop offset="0.01" stop-color="#2e6791"/><stop offset="0.39" stop-color="#5cbe87"/><stop offset="1" stop-color="#47c2da"/></linearGradient><radialGradient id="c" cx="1217.21" cy="-17371.91" r="48.3" gradientTransform="matrix(-0.3, 0.94, 0.79, 0.35, 14207.1, 5060.91)" xlink:href="#a"/><radialGradient id="d" cx="-659.48" cy="1289.71" r="20.54" gradientTransform="matrix(0.85, 0, 0, -1.45, 627.65, 1972.73)" gradientUnits="userSpaceOnUse"><stop offset="0" stop-color="#fff"/><stop offset="0.5" stop-color="#28b1e6"/></radialGradient><linearGradient id="e" x1="956.27" y1="-16679.67" x2="956.26" y2="-16679.67" gradientTransform="matrix(-0.35, 0.94, 0.94, 0.35, 16051.71, 5061.28)" gradientUnits="userSpaceOnUse"><stop offset="0.01" stop-color="#3a7093"/><stop offset="0.39" stop-color="#5cbe87"/><stop offset="1" stop-color="#47c2da"/></linearGradient><linearGradient id="f" x1="988.1" y1="-16725.24" x2="988.1" y2="-16725.24" xlink:href="#e"/><radialGradient id="g" cx="1217.36" cy="-17368.31" r="33.18" gradientTransform="matrix(-0.3, 0.94, 0.79, 0.35, 14208.13, 5061.33)" xlink:href="#a"/><radialGradient id="h" cx="1193.11" cy="-17383.02" r="18.11" gradientTransform="matrix(-0.3, 0.94, 0.79, 0.35, 14208.13, 5061.33)" xlink:href="#a"/><radialGradient id="i" cx="1202.02" cy="-16460.18" r="39.62" gradientTransform="matrix(-0.3, 0.94, 0.68, 0.3, 11697.59, 3947.24)" xlink:href="#a"/><radialGradient id="j" cx="8398.41" cy="-23559.12" r="69.32" gradientTransform="matrix(0.85, 0.04, 0.03, -1.05, -6230.28, -24910.23)" gradientUnits="userSpaceOnUse"><stop offset="0" stop-color="#fff"/><stop offset="0.37" stop-color="#72c2ec"/><stop offset="0.5" stop-color="#28b1e6"/><stop offset="1" stop-color="#3e4398"/></radialGradient><radialGradient id="k" cx="1011.31" cy="-16762.39" r="16.65" gradientTransform="matrix(-0.35, 0.94, 0.92, 0.35, 15901.19, 5061.33)" gradientUnits="userSpaceOnUse"><stop offset="0" stop-color="#fff"/><stop offset="0.12" stop-color="#fff" stop-opacity="0.79"/><stop offset="0.24" stop-color="#fff" stop-opacity="0.58"/><stop offset="0.37" stop-color="#fff" stop-opacity="0.4"/><stop offset="0.5" stop-color="#fff" stop-opacity="0.26"/><stop offset="0.63" stop-color="#fff" stop-opacity="0.15"/><stop offset="0.75" stop-color="#fff" stop-opacity="0.06"/><stop offset="0.88" stop-color="#fff" stop-opacity="0.02"/><stop offset="1" stop-color="#fff" stop-opacity="0"/></radialGradient><radialGradient id="l" cx="108.38" cy="1064.05" r="3.66" gradientTransform="matrix(1, 0, 0, -1, 0, 1167.79)" xlink:href="#k"/><radialGradient id="m" cx="99.22" cy="1070.42" r="5.13" gradientTransform="matrix(1, 0, 0, -1, 0, 1167.79)" xlink:href="#k"/><radialGradient id="n" cx="-638.37" cy="1069.12" fx="-660.5712655787102" fy="1095.1903977213158" r="37.78" gradientTransform="matrix(0.85, 0, 0, -1, 627.65, 1167.79)" xlink:href="#a"/><linearGradient id="o" x1="83.57" y1="1071.79" x2="101.43" y2="1071.79" gradientTransform="matrix(1, 0, 0, -1, 0, 1167.79)" gradientUnits="userSpaceOnUse"><stop offset="0" stop-color="#23b1e6"/><stop offset="1" stop-color="#23b1e6" stop-opacity="0"/></linearGradient><linearGradient id="p" x1="974.26" y1="-16695.21" x2="973.95" y2="-16695.21" xlink:href="#e"/><radialGradient id="q" cx="55.07" cy="1057.33" r="6.56" gradientTransform="matrix(1, 0, 0, -1, 0, 1167.79)" xlink:href="#k"/><radialGradient id="r" cx="77.37" cy="1066.34" r="18.27" gradientTransform="matrix(1, 0, 0, -1, 0, 1167.79)" xlink:href="#k"/><radialGradient id="s" cx="-648.24" cy="1062.05" r="51.98" gradientTransform="matrix(0.85, 0, 0, -1, 627.65, 1167.79)" gradientUnits="userSpaceOnUse"><stop offset="0" stop-color="#fff"/><stop offset="0.38" stop-color="#28b1e6"/><stop offset="1" stop-color="#3e4398"/></radialGradient><radialGradient id="t" cx="4385.82" cy="4515.87" r="263.38" gradientTransform="translate(2420.86 3164.14) rotate(180) scale(0.53 0.7)" xlink:href="#a"/><linearGradient id="u" x1="3083.11" y1="1058.23" x2="3122.63" y2="1058.23" gradientTransform="translate(3136.6 1167.79) rotate(180)" gradientUnits="userSpaceOnUse"><stop offset="0" stop-color="#3e4398"/><stop offset="1" stop-color="#3e4398" stop-opacity="0"/></linearGradient><radialGradient id="v" cx="4494.88" cy="4602.27" r="242.64" gradientTransform="translate(2420.86 3164.14) rotate(180) scale(0.53 0.7)" gradientUnits="userSpaceOnUse"><stop offset="0.47" stop-color="#fff"/><stop offset="0.7" stop-color="#28b1e6"/><stop offset="1" stop-color="#216fb6"/></radialGradient><linearGradient id="w" x1="3124.17" y1="1147.62" x2="3124.17" y2="1096.69" xlink:href="#u"/><linearGradient id="x" x1="3121.79" y1="1134.59" x2="3110.83" y2="1134.59" xlink:href="#u"/><radialGradient id="y" cx="4451.41" cy="4352.29" r="231.52" gradientTransform="translate(2420.86 3164.14) rotate(180) scale(0.53 0.7)" xlink:href="#a"/><radialGradient id="z" cx="4545.45" cy="4425.78" r="66.41" gradientTransform="translate(2420.86 3164.14) rotate(180) scale(0.53 0.7)" xlink:href="#a"/><linearGradient id="aa" x1="3117.98" y1="1074.59" x2="3110.27" y2="1061.91" xlink:href="#u"/><linearGradient id="ab" x1="3092.29" y1="1072.08" x2="3114.74" y2="1072.08" xlink:href="#u"/><linearGradient id="ac" x1="3156.86" y1="1097.05" x2="3128.61" y2="1097.05" gradientTransform="translate(3136.6 1167.79) rotate(180)" gradientUnits="userSpaceOnUse"><stop offset="0" stop-color="#fff"/><stop offset="1" stop-color="#fff" stop-opacity="0"/></linearGradient><radialGradient id="ad" cx="-91.95" cy="1389.26" r="79.06" gradientTransform="matrix(0.95, 0, 0, -0.95, 88.46, 1479.01)" xlink:href="#a"/><linearGradient id="ae" x1="20.55" y1="1068.62" x2="20.55" y2="1118.7" gradientTransform="matrix(1, 0, 0, -1, 0, 1167.79)" gradientUnits="userSpaceOnUse"><stop offset="0" stop-color="#00b19d"/><stop offset="0.51" stop-color="#00807f"/><stop offset="1" stop-color="#00b19d"/></linearGradient><linearGradient id="af" x1="16.63" y1="1062.82" x2="37.09" y2="1062.82" gradientTransform="matrix(1, 0, 0, -1, 0, 1167.79)" gradientUnits="userSpaceOnUse"><stop offset="0" stop-color="#4c96cc"/><stop offset="0.5" stop-color="#046689"/><stop offset="1" stop-color="#4c96cc"/></linearGradient><linearGradient id="ag" x1="39.38" y1="1042.45" x2="39.38" y2="1083.51" gradientTransform="matrix(1, 0, 0, -1, 0, 1167.79)" gradientUnits="userSpaceOnUse"><stop offset="0.5" stop-color="#3b454e"/><stop offset="1" stop-color="#2f4972"/></linearGradient><linearGradient id="ah" x1="22.09" y1="1111.29" x2="36.07" y2="1111.29" gradientTransform="matrix(1, 0, 0, -1, 0, 1167.79)" gradientUnits="userSpaceOnUse"><stop offset="0" stop-color="#699e42"/><stop offset="0.5" stop-color="#518944"/><stop offset="1" stop-color="#699e42"/></linearGradient><linearGradient id="ai" x1="18.88" y1="1104.3" x2="51.77" y2="1120.59" gradientTransform="matrix(1, 0, 0, -1, 0, 1167.79)" gradientUnits="userSpaceOnUse"><stop offset="0.51" stop-color="#76a247"/><stop offset="1" stop-color="#95c64f"/></linearGradient><linearGradient id="aj" x1="42.1" y1="1082.84" x2="46.39" y2="1115.43" gradientTransform="matrix(1, 0, 0, -1, 0, 1167.79)" gradientUnits="userSpaceOnUse"><stop offset="0.3" stop-color="#b7c54c"/><stop offset="1" stop-color="#cfdf75"/></linearGradient><linearGradient id="ak" x1="36.22" y1="1073.62" x2="54.85" y2="1075.89" gradientTransform="matrix(1, 0, 0, -1, 0, 1167.79)" gradientUnits="userSpaceOnUse"><stop offset="0" stop-color="#e0e895"/><stop offset="0.04" stop-color="#dfe58f"/><stop offset="0.26" stop-color="#d5d575"/><stop offset="0.45" stop-color="#cdcb62"/><stop offset="0.6" stop-color="#cbc65e"/><stop offset="0.7" stop-color="#cecc65"/><stop offset="0.86" stop-color="#d7d97d"/><stop offset="1" stop-color="#e0e895"/></linearGradient><radialGradient id="al" cx="-3063.95" cy="634.55" r="191.58" gradientTransform="matrix(0.74, 0.22, 0.18, -0.93, 2130.1, 1431.71)" xlink:href="#a"/><radialGradient id="am" cx="-2942.03" cy="767.62" r="79.34" gradientTransform="matrix(0.74, 0.22, 0.18, -0.93, 2130.1, 1431.71)" xlink:href="#a"/><linearGradient id="an" x1="-1745.56" y1="603.5" x2="-1763.08" y2="612.99" gradientTransform="matrix(0.97, 0.23, 0.23, -0.97, 1614.28, 1118.09)" xlink:href="#u"/><radialGradient id="ao" cx="-2912.53" cy="739.83" r="153.5" gradientTransform="matrix(0.74, 0.22, 0.18, -0.93, 2130.1, 1431.71)" xlink:href="#a"/><radialGradient id="ap" cx="-2990.26" cy="690.01" r="53.35" gradientTransform="matrix(0.74, 0.22, 0.18, -0.93, 2130.1, 1431.71)" xlink:href="#a"/><linearGradient id="aq" x1="-1748.29" y1="615.47" x2="-1738.65" y2="600.67" gradientTransform="matrix(0.97, 0.23, 0.23, -0.97, 1614.28, 1118.09)" xlink:href="#u"/><radialGradient id="ar" cx="2659.81" cy="927.89" r="118.59" gradientTransform="translate(2323.46 903.09) rotate(180) scale(0.86 1.04)" gradientUnits="userSpaceOnUse"><stop offset="0.2" stop-color="#ddedf9"/><stop offset="0.25" stop-color="#fff"/><stop offset="0.69" stop-color="#28b1e6"/><stop offset="1" stop-color="#3e4398"/></radialGradient></defs><path class="a" d="M79.07,136.18a2.63,2.63,0,0,1-2-.52,2,2,0,0,1-.61-.65h0c0-.06-.07-.1-.1-.16a8.57,8.57,0,0,0-1.88-2.19,7.27,7.27,0,0,0-.78-.55,5,5,0,0,0-1.72-.63,1.72,1.72,0,0,1-.39-.1c-1.34-.48-2.66-1-4-1.58l-.4.12c-.79-.08-1.58-.16-2.36-.29a53.71,53.71,0,0,1-32.61-18.25c-11.06-13.48-11.21-29-10-38.71a18.47,18.47,0,0,1,4.53-10.34.52.52,0,0,1,.11-.1,4.38,4.38,0,0,1,.81,0,4.14,4.14,0,0,1,3.92,4.33,4.38,4.38,0,0,1-.2,1.08c-5,14.85,2.7,32.17,16.19,38.52l.09,0a59.37,59.37,0,0,0,17.78,9,69.25,69.25,0,0,0,22.8,2.93c.54-.3,1.07-.6,1.59-.93l-.11.15L88.57,119,87,121.18a2.49,2.49,0,0,0-.5,1.27c-.14,1.28,1.12,2.16,2.6,2.54a5.36,5.36,0,0,0,1.55.19l.3,0a2.27,2.27,0,0,1,.41,4.49h0l-.37,0h-.05a9.77,9.77,0,0,1-1.21,0,3.24,3.24,0,0,1-2-.62,10,10,0,0,1-1.18-1.71c-1.17-1.43-3-.45-4.45.14a14.17,14.17,0,0,0-2.53,1.4A1.17,1.17,0,0,0,79,130c0,.05,0,.09,0,.13.15.69.75.73,1.19,1a2,2,0,0,1,.26.24,2.76,2.76,0,0,1,.27,3.89,2.72,2.72,0,0,1-1.61.9Z"/><path class="b" d="M90.92,125.16l-.3,0,.26,0Z"/><polygon class="c" points="47.58 105.58 47.57 105.58 47.58 105.59 47.58 105.58"/><path class="c" d="M68.81,116.06l-1.55-.46Z"/><path class="d" d="M101,91.09a9.35,9.35,0,0,0,.3-4.07A5.4,5.4,0,0,0,100,84.38,4,4,0,0,0,97.28,83a10.1,10.1,0,0,1-2.13-.07,3.51,3.51,0,0,1-1.68-1.36c-2.17-2.92-2.78-6.85-5.36-9.36-.62-.57-1.51-1.43-2.37-.84a1.34,1.34,0,0,0-.24,1.79,53,53,0,0,1,3.31,6c4.89,10.32,3.08,17.89-2.7,25.43-.24.32-.5.63-.75,1h0s-.69.94-1.79,2.15A45.46,45.46,0,0,0,101,91.09Z"/><path class="e" d="M66.56,109.52a25.51,25.51,0,0,1-6.94,1.08,35,35,0,0,0,20-1.15,2.17,2.17,0,0,1-.92-2.56.14.14,0,0,1,0-.06l.08-.2h0a4.14,4.14,0,0,0,.55-2.53h0"/><polygon class="f" points="100.22 93.79 100.22 93.79 100.23 93.78 100.22 93.79"/><polygon class="g" points="46.38 107.57 46.37 107.57 46.38 107.57 46.38 107.57"/><path class="h" d="M89,93.52A7.38,7.38,0,0,0,88,90.58c-.73-1.14-1.77-2-2.54-3.11a1.1,1.1,0,0,1-.23-.5c-.06-.53.51-1.13,1.09-1.35a2,2,0,0,1,2,.32,3.32,3.32,0,0,1,1,1.75,10.78,10.78,0,0,1-.18,5.88"/><path class="i" d="M85.51,66.85a1.26,1.26,0,0,0-.25-1.39h0a3.63,3.63,0,0,1-.82-2.16,3.89,3.89,0,0,0-.12-1.52A1.53,1.53,0,0,0,82.51,61a1.86,1.86,0,0,0-1.17,1.58,4.09,4.09,0,0,0,.41,2.09,7.6,7.6,0,0,0,1.31,2,2.4,2.4,0,0,0,.92.69A1.23,1.23,0,0,0,85.51,66.85Z"/><path class="j" d="M96.59,75.82a1.45,1.45,0,0,0,1.89-.58A5.35,5.35,0,0,0,99.55,72a3.37,3.37,0,0,0-.29-1.29,2.12,2.12,0,0,0-2.88-.85,2.2,2.2,0,0,0-.32.21,3.7,3.7,0,0,0-.92,3.65A3,3,0,0,0,96.59,75.82Z"/><path class="c" d="M91.93,114.68a58.54,58.54,0,0,1-25.76-1.32c-5.33-1.45-11.67-3.44-16.22-6.63a27.41,27.41,0,0,1-3.77-1.55,59.27,59.27,0,0,0,17.51,9.57,70.53,70.53,0,0,0,23.36,3.68C87.26,118.28,90.08,115.25,91.93,114.68Z"/><path class="c" d="M91.31,103.94c2-.85,3.87-1.81,5.75-2.83l.23-.22C95.33,102,93.34,103,91.31,103.94Z"/><path class="k" d="M47,105.86h0a59.09,59.09,0,0,0,21.26,10.81,62.9,62.9,0,0,0,15.28,1.67h0a7.11,7.11,0,0,1,2.87,0,10,10,0,0,1,1.3.36,12.35,12.35,0,0,1,3.51,2l.19.16h0a2.88,2.88,0,0,0,1.11.58,4,4,0,0,0,4.87-2.33,1.08,1.08,0,0,0,.11-.36,4.1,4.1,0,0,0-2.41-4.61,1.54,1.54,0,0,0-.46-.19c-.72-.17-1.53.06-2-.79l-.08-.17a1.69,1.69,0,0,1,.24-1.75,21.48,21.48,0,0,1,2.74-3.06,5.86,5.86,0,0,1,6.23-1.51,14,14,0,0,0,2.61,1.27,4.52,4.52,0,0,0,2.87-.64c2-1,4.1-2.44,4.14-4.83a3,3,0,0,0-2.26-3,3.46,3.46,0,0,0-3,1.07,7.68,7.68,0,0,1-2.8,1.36,3.31,3.31,0,0,1-4.1-2.27,2.81,2.81,0,0,1-.08-.31,3.62,3.62,0,0,1,.1-1.93s.6-1.94,1.13-3.68c.44-1.42.7-2.69.7-2.69S82.69,124.55,47,105.86Z"/><path class="l" d="M92.11,109.79a19.4,19.4,0,0,0-2.74,3.06,1.67,1.67,0,0,0-.25,1.74l.09.17c.5.85,1.32.62,2,.79a2.11,2.11,0,0,1,.47.19,4.1,4.1,0,0,1,2.4,4.62,1.08,1.08,0,0,1-.1.35,6.36,6.36,0,0,1-.59.93,4.06,4.06,0,0,0,4-2.5,1.08,1.08,0,0,0,.11-.36,4.1,4.1,0,0,0-2.41-4.61,1.54,1.54,0,0,0-.46-.19c-.72-.17-1.53.06-2-.79l-.08-.17a1.69,1.69,0,0,1,.24-1.75,21.48,21.48,0,0,1,2.74-3.06l.34-.28A7,7,0,0,0,92.11,109.79Z"/><path class="m" d="M106.08,100.6c-.21.16-.44.31-.68.46l.3,0a3,3,0,0,1,2.26,3,4.9,4.9,0,0,1-2.53,3.91,6.62,6.62,0,0,0,1.79-.65c2-1,4.1-2.44,4.14-4.83a3,3,0,0,0-2.26-3A3.46,3.46,0,0,0,106.08,100.6Z"/><path class="n" d="M95.79,99A3.52,3.52,0,0,0,95.7,101a3.32,3.32,0,0,0,3.86,2.66l.31-.08a7.68,7.68,0,0,0,2.8-1.36l.16-.12a3.32,3.32,0,0,1-3.73-2.67,3.72,3.72,0,0,1,.09-1.93l1.14-3.68c.44-1.42.7-2.69.7-2.69A41.86,41.86,0,0,1,96.2,97.7Z"/><path class="o" d="M101,91.09a9.35,9.35,0,0,0,.3-4.07A5.4,5.4,0,0,0,100,84.38,4,4,0,0,0,97.28,83a10.1,10.1,0,0,1-2.13-.07,2.17,2.17,0,0,1-.61-.3A35.06,35.06,0,0,1,89,100.22a34.16,34.16,0,0,1-2.89,4.41c-.24.32-.5.63-.75,1h0s-.69.94-1.79,2.15A45.46,45.46,0,0,0,101,91.09Z"/><path class="p" d="M83.57,107.73A45.46,45.46,0,0,0,101,91.09a9.35,9.35,0,0,0,.3-4.07A5.4,5.4,0,0,0,100,84.38l-.1-.1A66.89,66.89,0,0,1,83.57,107.73Z"/><path class="q" d="M79.45,104.92c0,.09-.07.17-.1.26s0,0,0-.06S79.43,105,79.45,104.92Z"/><path class="r" d="M48.15,106.44,47,105.86a63.32,63.32,0,0,0,16.12,9.2A63.8,63.8,0,0,1,48.15,106.44Z"/><path class="s" d="M100.39,93.6c.4-1.35.64-2.52.64-2.52s-16,29.28-47.32,17.77C80.09,119,95.81,100.27,100.39,93.6Z"/><path class="c" d="M64.82,129.63a53.08,53.08,0,0,1-35-21.46c-6.82-10-9.07-22.47-7.67-34.39h0a22.07,22.07,0,0,1,1.94-7.43h0a15.12,15.12,0,0,1,2.83-4.12c-6,1.18-8,10-9.15,15.14a44.89,44.89,0,0,0,3.53,29.55c7.91,16.33,27.92,28.48,45.93,23C66.4,129.85,65.61,129.75,64.82,129.63Z"/><path class="t" d="M85.67,118.76l.48-.34h.74a7.76,7.76,0,0,1,.82.25,8.58,8.58,0,0,1,.83.35L87,121.18a2.49,2.49,0,0,0-.5,1.27c-.14,1.28,1.11,2.16,2.6,2.54a5.36,5.36,0,0,0,1.55.19l.3,0a2.27,2.27,0,0,1,.41,4.49h0l-.37,0h-.05a9.77,9.77,0,0,1-1.21,0,3.24,3.24,0,0,1-2-.62,10,10,0,0,1-1.18-1.71c-1.17-1.43-3-.45-4.45.14a14.17,14.17,0,0,0-2.53,1.4A1.17,1.17,0,0,0,79,130c0,.05,0,.09,0,.13.15.69.75.73,1.19,1a2,2,0,0,1,.26.24,2.76,2.76,0,0,1,.27,3.89,2.72,2.72,0,0,1-1.62.9,2.63,2.63,0,0,1-2-.52,2,2,0,0,1-.61-.65h0c0-.06-.07-.1-.1-.16a8.73,8.73,0,0,0-1.87-2.19,8.57,8.57,0,0,0-.79-.55,5,5,0,0,0-1.72-.63,1.86,1.86,0,0,1-.39-.1c-1.34-.48-2.66-1-4-1.58l-.4.12c-.79-.07-1.58-.16-2.36-.29a53.66,53.66,0,0,1-32.61-18.25,46.26,46.26,0,0,1-10.3-26h0C22.58,85.85,34.32,132.79,85.67,118.76Z"/><path class="u" d="M26,62.46c-5.05,1.7-7,9.15-8.13,14.11A39.12,39.12,0,0,1,26,62.46Z"/><path class="v" d="M30.62,108.28c2-1.57,1.26-2.81-.12-3.31s-2.64-1.56-2.09-2.94a9.06,9.06,0,0,0,1.46,1.63c1.56,1.38,2.71,1.85,3.6,4.11a29.26,29.26,0,0,0,2.87,5.8l-.73.35a23.5,23.5,0,0,1-5.15.58A25.55,25.55,0,0,1,13,107.25C18.2,111.43,26.29,111.6,30.62,108.28Z"/><path class="w" d="M30.62,108.28q.35-.28.66-.6c.81.74.91,1.79-.82,2.83-4.5,2.73-12.56,1.14-17.27-3.12a1.07,1.07,0,0,0-.16-.14C18.2,111.43,26.29,111.6,30.62,108.28Z"/><path class="x" d="M12.83,34.23c1.72-9.77,2.54-13.65-1.37-25-4-11.71,8.49-13,11.87.53,1.12,4.54,0,10.29-.63,14.91-.94,6.66,3,7.29,5.52,3.61,1.35-2,2.8-2.47,3.68-.88,3.33,6.18-10.81,22.29-13.79,28.2-5.54,10.92-7.36,24-.45,30.15a3.29,3.29,0,0,1-3.54.16c-4-2-7.33-9.44-6.9-19.56C7.61,56.74,13,42.66,12.83,34.23Z"/><path class="y" d="M12.83,34.23c.72,8.39-3.77,23-3.55,32.59.25,11,2.07,15.7,8.38,18.89a3.29,3.29,0,0,1-3.54.16c-4-2-7.33-9.44-6.9-19.56C7.61,56.74,13,42.66,12.83,34.23Z"/><path class="z" d="M28.22,28.23c1.35-1.95,2.8-2.46,3.68-.87,1.31,2.45-.11,6.45-2.49,10.76-6.35,7.53-9.81,3.53-6.71-13.49C21.76,31.29,25.7,31.92,28.22,28.23Z"/><path class="aa" d="M12.83,34.23C13,42.66,7.61,56.74,7.22,66.31c-.43,10.12,2.88,17.54,6.9,19.56a3.29,3.29,0,0,0,3.54-.16,5.77,5.77,0,0,0,1-.85,34.32,34.32,0,0,0,1.16,4.78l0,0a2.77,2.77,0,0,0,1.62,3.81c.26.49.53,1,.83,1.43a11.5,11.5,0,0,0,4.8,4.1,9.42,9.42,0,0,0,1.36,3c-.55,1.38.6,2.41,2.09,2.94s2.16,1.74.12,3.31c-4.33,3.32-12.42,3.15-17.59-1C5.16,99.94,0,87.82,0,74.11,0,53.42,10.47,47.65,12.83,34.23Z"/><path class="ab" d="M12.83,34.23C13,42.66,7.61,56.74,7.22,66.31c-.43,10.12,2.88,17.54,6.9,19.56C9.87,84.66,6,76.22,6.45,66.1,6.85,56.54,12.64,42.26,12.83,34.23Z"/><path class="ac" d="M28,101.4q.18.31.39.63c-.55,1.38.6,2.41,2.09,2.94s2.16,1.74.12,3.31C21.66,111.78,18.69,107.41,28,101.4Z"/><path class="ad" d="M21.42,93.49c.26.49.53,1,.83,1.43a11.5,11.5,0,0,0,3.42,3.35c-3.89,8.35-9.82.06-5.87-8.59a2.77,2.77,0,0,0,1.62,3.81Z"/><path class="ae" d="M6.74,52.91A63,63,0,0,0,13,107.25C5.16,99.94,0,87.82,0,74.11,0,53.42,10.47,47.65,12.83,34.23,12.15,40.27,9.15,46.15,6.74,52.91Z"/><path class="af" d="M6.52,74.2s-3.4,29.3,6.36,40c7.68,8.43,12.86,1.59,5.62-6.68S6.52,74.2,6.52,74.2Z"/><path class="ag" d="M21,49.13,33.5,79.9a1.73,1.73,0,0,1-.15,1.58L16.29,98.36c-.23.24-7.31.58-7.41,0-3-16.89-1.17-36.85,4.64-49.61C13.7,48.4,20.82,48.71,21,49.13Z"/><path class="ah" d="M20.76,123.28c-3.65-4.45-2.21-13.56-4.07-21.79a1.62,1.62,0,0,1,.22-1.35l10-16.92c.27-.27,7.7.12,7.74.78l2.46,41.16c0,.56-.15,1.08-.41,1.13C32.7,127,24.29,127.57,20.76,123.28Z"/><path class="ai" d="M45.83,102.55l4,7.56a1.94,1.94,0,0,1,0,1.44,32,32,0,0,1-6.55,10.3,14.33,14.33,0,0,1-4.7,3.22c-.25.1-7.24.56-7.28,0L28.8,84.86c-.06-.91,7.4-.63,7.71,0Z"/><path class="aj" d="M22.21,47.56a1.94,1.94,0,0,1,.05-1.44c1.41-2.57-.61-6.8,1.06-8.46,2.75-2.72,9.32-1.95,12.32-1.82.25,0,.45.51.43,1.07L34.88,76.19c0,.88-7.42,1.55-7.69.89Z"/><path class="ak" d="M50.16,50.2,37.06,76.42c-.3.6-7.62,1-7.59.15l1.41-40.94c0-.57,6.86-.07,7.11,0,4.64,1.18,8.92,5.79,12.19,13.13A1.94,1.94,0,0,1,50.16,50.2Z"/><path class="al" d="M55.37,72.48c.06.55-.11,1.1-.37,1.19l-2.58,1L38.51,79.86c-.44.17-7.74.49-7.4-.18L43.8,53c.19-.38,7.24-.09,7.4.35a67.82,67.82,0,0,1,2.86,10.28A87.2,87.2,0,0,1,55.37,72.48Z"/><path class="am" d="M43.61,110,36.79,83.79c-.29-.55-.16-1.6.22-1.74l10.67-6.66c.26-.1,7.53.31,7.56.87a89,89,0,0,1-4.17,33.33C50.92,110,43.81,110.34,43.61,110Z"/><path class="an" d="M43.31,109.73,29.68,83.79c-.29-.55-.16-1.6.21-1.74L47.61,75.4h0c.25-.09.49.3.52.86A89,89,0,0,1,44,109.59C43.8,110,43.51,110.1,43.31,109.73Z"/><path class="ao" d="M38.72,102.55l4,7.56a1.94,1.94,0,0,1,0,1.44,32,32,0,0,1-6.55,10.3,14.43,14.43,0,0,1-4.7,3.22c-.25.1-.49-.3-.52-.86l-2.3-38.49c-.06-.91.42-1.49.74-.89Z"/><path class="ap" d="M18,120.82c-3.65-4.45-6.54-11.1-8.4-19.33a1.62,1.62,0,0,1,.22-1.35L26.89,83.22c.27-.27.59.12.63.78L30,125.16c0,.56-.15,1.08-.4,1.13C25.59,127,21.51,125.12,18,120.82Z"/><path class="aq" d="M13.88,49.13,26.39,79.9a1.73,1.73,0,0,1-.15,1.58L9.18,98.36c-.23.24-.51,0-.6-.54-3-16.89-1.16-36,4.65-48.74C13.41,48.68,13.71,48.71,13.88,49.13Z"/><path class="ar" d="M15.1,47.56a1.94,1.94,0,0,1,0-1.44,27.85,27.85,0,0,1,4.64-6.35,11.76,11.76,0,0,1,8.74-3.93c.26,0,.46.51.44,1.07L27.77,76.19c0,.88-.52,1.26-.79.6Z"/><path class="as" d="M43.05,50.2,30,76.42c-.3.6-.78.08-.75-.81l1.18-39c0-.57.25-1,.5-.93,4.64,1.18,8.92,5.79,12.19,13.13A1.94,1.94,0,0,1,43.05,50.2Z"/><path class="at" d="M48.26,72.48c.05.55-.11,1.1-.37,1.19l-2.58,1L31.4,79.86c-.44.17-.71-1-.38-1.72L43.44,53.29c.19-.38.49-.34.65.1A67.82,67.82,0,0,1,47,63.67C47.52,66.51,48,69.46,48.26,72.48Z"/><path class="au" d="M63.83,97.75c-1.48-.16-3.48,1-5.24,4.49A72,72,0,0,1,54,111c-2.3,3.3-5.42,4-5.94-1.86-.25-2.8-2.73-5.42-6.44.52a24.73,24.73,0,0,1-6.32,6.93c-11.78,8.6-26.24-.06-27.18-18.39-1.6,15.17,3.62,31.48,13.21,36.07,15.7,5.05,29.58-9.7,42-20.9-6.79,2.83-1-6.43.72-8.23C67.29,101.69,66.21,98,63.83,97.75Z"/><path class="av" d="M70.63,92.23c-.83-1-2.4-.51-3.5,1s-1.32,3.5-.49,4.46,2.39.51,3.5-1S71.46,93.18,70.63,92.23Z"/><path class="aw" d="M48.06,109.12c-.25-2.8-2.73-5.42-6.44.52C35.82,120,45,125.19,54,111,51.7,114.28,48.58,115,48.06,109.12Z"/><path class="ax" d="M73.12,105.54a82.26,82.26,0,0,0-9.76,7.81c-12.45,11.2-26.33,26-42,20.9,14.45,6.95,27.9-2.2,40.35-.57,7,.91,10.6-3.86,5.81-5.79-2.75-1.11-4.19-3.68-2.08-6.42,3-4,9.19-4.21,13.43-5.61C91.06,111.83,83.56,98.78,73.12,105.54Z"/><path class="ay" d="M21.33,134.25c15.69,6,30.14-8.8,42-20.9C50.91,124.55,37,139.3,21.33,134.25Z"/><path class="az" d="M67.49,127.89c-2.75-1.11-4.19-3.68-2.08-6.42a8.78,8.78,0,0,1,2.29-2c-11.35,5.41-13.67,12.57-6,14.26C68.66,134.59,72.27,129.82,67.49,127.89Z"/><path class="ao" d="M127.11,48.45V66.52q0,6.17,1.74,7.73a6.9,6.9,0,0,0,4.82,1.56h2.39v1.7h-26.6v-1.7h2.33q3.88,0,5.22-1.94c.89-1.29,1.33-3.75,1.33-7.35V26.43q0-6.21-1.72-7.75a7,7,0,0,0-4.83-1.54h-2.33v-1.7h22.75q12.9,0,18.71,5a15.48,15.48,0,0,1,5.81,12.15,15.9,15.9,0,0,1-5.17,12.55q-5.16,4.59-14,4.58A50.36,50.36,0,0,1,127.11,48.45Zm0-28.44V45.85a44.37,44.37,0,0,0,7.53.9,10.16,10.16,0,0,0,8.62-4.11,15,15,0,0,0,3.07-9.14q0-7-3.73-10.66a12.9,12.9,0,0,0-9.49-3.69A27.15,27.15,0,0,0,127.11,20Z"/><path class="ao" d="M224.14,46.09a33.33,33.33,0,0,1-8.67,23.34,28.29,28.29,0,0,1-21.84,9.5A29,29,0,0,1,178,74.74a30.06,30.06,0,0,1-10.66-11.5,35.29,35.29,0,0,1-3.94-17q0-14,9-23.11a29.79,29.79,0,0,1,22-9.11,27.49,27.49,0,0,1,15.12,4.23A31.77,31.77,0,0,1,220.1,29.71,32.88,32.88,0,0,1,224.14,46.09Zm-10.47,1.25q0-30-20.18-30a17.33,17.33,0,0,0-9.9,2.93,20.45,20.45,0,0,0-7.06,9.42,42.72,42.72,0,0,0-2.7,16.37q0,13.52,5.18,21.57a16.33,16.33,0,0,0,14.51,8,17,17,0,0,0,15-7.57q5.16-7.59,5.15-20.76Z"/><path class="ao" d="M291.11,77.51H274.53l-21-29c-1.55.07-2.81.11-3.78.11-.51,0-1.41,0-2.71-.11v18q0,6.17,1.72,7.73a6.83,6.83,0,0,0,4.77,1.56h2.42v1.7H229.35v-1.7h2.35q3.86,0,5.22-2c.92-1.33,1.37-3.77,1.37-7.3V26.43c0-4.12-.58-6.69-1.73-7.73a7,7,0,0,0-4.86-1.56h-2.35v-1.7H252a65.72,65.72,0,0,1,13.36,1.07,16.12,16.12,0,0,1,8.76,5.2,14.08,14.08,0,0,1,3.71,9.71q0,12.49-15.29,15.89l12.83,17.78q4.79,6.63,8.13,8.47a19.73,19.73,0,0,0,7.65,2.25ZM247,19.77V45.61h2.57q8.22,0,13-3.56a11.71,11.71,0,0,0,4.84-10q0-6.69-4-9.9a14.49,14.49,0,0,0-9.24-3.21A24.88,24.88,0,0,0,247,19.77Z"/><path class="ao" d="M345.21,30h-1.74q-1-10.68-11.34-10.68h-8.77V66.76q0,6.1,1.68,7.58A7.22,7.22,0,0,0,330,75.81h2.18v1.7H305.78v-1.7H308a7.39,7.39,0,0,0,4.71-1.46q1.88-1.45,1.87-7.59V19.32h-7.45q-5.86,0-8.83,2.17T294.85,30h-1.73l.73-14.56h50.66Z"/><path class="ao" d="M395.84,29.06h-1.63a19.88,19.88,0,0,0-3.58-7.38q-2.33-2.85-10.23-2.84H366.71V43.21H378q4.37,0,6-2a13.26,13.26,0,0,0,2.15-6.48h1.69v21h-1.69q-.08-4.78-2-6.74A8.27,8.27,0,0,0,378,47h-11.3V66.52a17.85,17.85,0,0,0,.65,6.38A5.08,5.08,0,0,0,369.81,75a8.56,8.56,0,0,0,3.62.83h2.26v1.7H349.05v-1.7h2.19q4.23,0,5.46-2t1.23-7.26V26.43c0-3.93-.52-6.46-1.58-7.6a6.68,6.68,0,0,0-5.11-1.69h-2.19v-1.7h46.16Z"/><path class="ao" d="M463.77,46.09a33.38,33.38,0,0,1-8.67,23.34,28.3,28.3,0,0,1-21.85,9.5,29,29,0,0,1-15.67-4.19,30.06,30.06,0,0,1-10.66-11.5,35.29,35.29,0,0,1-3.94-17q0-14,9-23.11A29.79,29.79,0,0,1,434,14a27.47,27.47,0,0,1,15.12,4.23,31.79,31.79,0,0,1,10.63,11.47A33.09,33.09,0,0,1,463.77,46.09ZM453.3,47.34q0-30-20.19-30a17.35,17.35,0,0,0-9.9,2.93,20.43,20.43,0,0,0-7,9.42,42.92,42.92,0,0,0-2.71,16.37q0,13.52,5.19,21.57a16.32,16.32,0,0,0,14.51,8,17,17,0,0,0,15-7.57q5.14-7.59,5.15-20.76Z"/><path class="ao" d="M522.62,60.66l-5.31,16.85H469.25v-1.7h2.32q3.92,0,5.27-2t1.36-7.34V26.43q0-6.21-1.76-7.75a7.08,7.08,0,0,0-4.87-1.54h-2.32v-1.7h28.12v1.7a21.24,21.24,0,0,0-6.19.72,5.77,5.77,0,0,0-3.26,2.21q-.94,1.47-.95,7.4v39q0,4.68,1.35,5.88t8.22,1.2h4.54a44.93,44.93,0,0,0,8.67-.66,11.92,11.92,0,0,0,5.93-3.38,28.22,28.22,0,0,0,5.45-9.18Z"/><path class="ao" d="M553.55,77.51H527v-1.7h2.22q4.27,0,5.46-2t1.2-7.28V26.43c0-3.91-.51-6.43-1.53-7.58a6.57,6.57,0,0,0-5.13-1.71H527v-1.7h26.6v1.7h-2.22a7.64,7.64,0,0,0-4.71,1.45c-1.32,1-2,3.59-2,7.84V66.52c0,3.65.27,5.88.8,6.67a5.38,5.38,0,0,0,2.48,1.91,8.54,8.54,0,0,0,3.41.71h2.22Z"/><path class="ao" d="M619.93,46.09a33.38,33.38,0,0,1-8.67,23.34,28.31,28.31,0,0,1-21.85,9.5,29,29,0,0,1-15.68-4.19,30.22,30.22,0,0,1-10.66-11.5,35.4,35.4,0,0,1-3.94-17q0-14,9-23.11a29.79,29.79,0,0,1,22-9.11,27.49,27.49,0,0,1,15.12,4.23,31.88,31.88,0,0,1,10.63,11.47A33.09,33.09,0,0,1,619.93,46.09Zm-10.48,1.25q0-30-20.18-30a17.35,17.35,0,0,0-9.9,2.93,20.45,20.45,0,0,0-7.06,9.42,42.72,42.72,0,0,0-2.7,16.37q0,13.52,5.18,21.57a16.33,16.33,0,0,0,14.51,8,17,17,0,0,0,15-7.57q5.16-7.59,5.15-20.76Z"/><path class="ao" d="M619.25,91.05H106.55a1.52,1.52,0,1,1,0-3h512.7a1.52,1.52,0,1,1,0,3Z"/><path class="ao" d="M112.82,105.14h2.48l9.4,26.61,8.75-26.69h1.71l8.75,26.69,9.4-26.61h2.31l-10.85,30.11H143l-8.75-26-8.76,26h-1.79Z"/><path class="ao" d="M256.24,107.19H245.82v-2h23.06v2H258.46V135h-2.22Z"/><path class="ao" d="M305.5,105.14h21.26v2h-19v11.74h17.12V121H307.72v12H327V135H305.5Z"/><path class="ao" d="M364,105.14h12.56a11.75,11.75,0,0,1,8.41,3,7.84,7.84,0,0,1,2.26,5.55v.08c0,5-3.71,7.86-8.75,8.55L388.31,135h-2.82L376,122.65h-9.78V135H364Zm12.3,15.5c5,0,8.71-2.52,8.71-6.83v-.09c0-4-3.16-6.53-8.58-6.53H366.19v13.45Z"/><path class="ao" d="M424.71,105.14h21.05v2H426.93v12.26h16.91v2H426.93V135h-2.22Z"/><path class="ao" d="M490.53,104.93h2.13L506.58,135h-2.43l-3.8-8.37H482.71l-3.8,8.37h-2.3Zm8.88,19.73-7.86-17.3-7.9,17.3Z"/><path class="ao" d="M542.76,105.14H545V133h17.55V135H542.76Z"/><path class="ao" d="M599.07,105.14h2.22V133h17.55V135H599.07Z"/><polygon class="ao" points="201.7 104.93 199.56 104.93 185.64 135.03 187.95 135.03 200.59 107.36 213.19 135.03 215.62 135.03 201.7 104.93"/><path class="ba" d="M214,121.25c2.68-.24,6.48-.37,7.14-3s-2.94-3.44-6.72-3.32c-22.14.7-38.09,13.41-42.62,19.49-.06.08.09.12.19.06C191.93,121.77,202,122.31,214,121.25Z"/><path class="ao" d="M627.78,27h-1.25V17.05h-3.71V15.9h8.67v1.15h-3.71Z"/><path class="ao" d="M639.15,23.92h-.06l-4-5.9V27h-1.22V15.9h1.26l4,6,4-6h1.26V27h-1.24V18Z"/><path class="bb" d="M30.34,3.13S33.22,15,32.63,17.68s-2.32,4.43-3.86,3.94-2.14-3.4-.72-5.73A20.44,20.44,0,0,0,30.34,3.13Z"/></svg>