<svg id="pieFirst" xmlns="http://www.w3.org/2000/svg" xmlns:xlink="http://www.w3.org/1999/xlink" viewBox="0 0 692.82 69.21"><defs><style>.cls-1{fill:url(#linear-gradient);}.cls-2{fill:#2b2b35;}.cls-3{fill:#e8e8e9;}</style><linearGradient id="linear-gradient" x1="648.15" y1="34.61" x2="692.82" y2="34.61" gradientUnits="userSpaceOnUse"><stop offset="0" stop-color="#1b75bb"/><stop offset="0.21" stop-color="#26a9e0" stop-opacity="0.9"/><stop offset="0.7" stop-color="#26a9e0" stop-opacity="0.65"/><stop offset="0.87" stop-color="#1f87c8" stop-opacity="0.88"/><stop offset="1" stop-color="#1b75bb"/></linearGradient></defs><path class="cls-1" d="M692.35,53.48c-10,25.32-34.33,16-42.7.55S670.42,0,670.42,0,696.61,42.66,692.35,53.48Z"/><circle class="cls-2" cx="671.33" cy="44.28" r="13.35"/><path class="cls-3" d="M672.11,36v1.88a6.48,6.48,0,0,1,2.83.9L673.79,41a3.3,3.3,0,0,0-2-.76,1.61,1.61,0,0,0-1,.27.78.78,0,0,0-.37.62.83.83,0,0,0,.29.59,2.11,2.11,0,0,0,.78.45l.92.31a5.22,5.22,0,0,1,2.22,1.3,2.89,2.89,0,0,1,.69,2,4.88,4.88,0,0,1-.17,1.33,2.83,2.83,0,0,1-.56,1,3.66,3.66,0,0,1-1,.8,8.66,8.66,0,0,1-1.53.62v1.93h-1.44V49.64a4.71,4.71,0,0,1-1-.12,8.29,8.29,0,0,1-1.08-.31,7.45,7.45,0,0,1-1-.45,3.82,3.82,0,0,1-.75-.54l1.26-2.35a4.36,4.36,0,0,0,2.85,1.29,1.63,1.63,0,0,0,1-.31,1,1,0,0,0,.43-.81c0-.45-.34-.79-1-1l-.89-.28a9,9,0,0,1-1.35-.54,3.36,3.36,0,0,1-.92-.69,2.41,2.41,0,0,1-.53-.88,3.28,3.28,0,0,1-.17-1.13,4.33,4.33,0,0,1,.19-1.29,3.49,3.49,0,0,1,.59-1.11,3.65,3.65,0,0,1,1-.83,3.53,3.53,0,0,1,1.4-.41V36Z"/></svg>