<svg xmlns="http://www.w3.org/2000/svg" viewBox="0 0 211.29 153"><defs><style>.a{fill:#fff;}</style></defs><path class="a" d="M52.05,30.53l1.37-2.13a5.05,5.05,0,0,0,3.06,1.26c1.21,0,1.75-.51,1.75-1.48,0-2.21-5.66-2.17-5.66-6,0-2.49,1.72-4.07,4.44-4.07a5.29,5.29,0,0,1,4.08,1.82l-1.58,1.8a3.3,3.3,0,0,0-2.33-1.08c-1,0-1.59.42-1.59,1.38,0,2,5.65,1.86,5.65,6,0,2.46-1.63,4.24-4.76,4.24A7.16,7.16,0,0,1,52.05,30.53ZM55.82,16h2.09v3.08H55.82Zm0,14.93h2.09V34.3H55.82Z"/><path class="a" d="M142.07,125.91c-14.57,13.39,0,25.59,0,25.59H76.85c10.36-14.1-1.64-25.71-1.64-25.71Z"/><polyline class="a" points="40.93 151.5 76.85 151.5 174.64 151.5"/><path class="a" d="M174.64,153H40.93a1.5,1.5,0,0,1,0-3H174.64a1.5,1.5,0,0,1,0,3Z"/><path class="a" d="M201.38,127.29H9.91A9.92,9.92,0,0,1,0,117.38V9.91A9.91,9.91,0,0,1,9.91,0H201.38a9.92,9.92,0,0,1,9.91,9.91V117.38A9.93,9.93,0,0,1,201.38,127.29ZM9.91,3A6.92,6.92,0,0,0,3,9.91V117.38a6.92,6.92,0,0,0,6.91,6.91H201.38a6.92,6.92,0,0,0,6.91-6.91V9.91A6.92,6.92,0,0,0,201.38,3Z"/><path class="a" d="M192.81,109.23H19.34a9.91,9.91,0,0,1-9.91-9.91v-81a9.92,9.92,0,0,1,9.91-9.91H192.81a9.92,9.92,0,0,1,9.9,9.91v81A9.91,9.91,0,0,1,192.81,109.23ZM19.34,11.38a6.92,6.92,0,0,0-6.91,6.91v81a6.92,6.92,0,0,0,6.91,6.91H192.81a6.91,6.91,0,0,0,6.9-6.91v-81a6.91,6.91,0,0,0-6.9-6.91Z"/><path class="a" d="M140.36,117.86H77.79a1.5,1.5,0,0,1,0-3h62.57a1.5,1.5,0,0,1,0,3Z"/><rect class="a" x="18.86" y="62.56" width="3" height="40.69"/><rect class="a" x="32.11" y="50.36" width="3" height="52.99"/><rect class="a" x="46.09" y="59.79" width="3" height="43.56"/><rect class="a" x="61.47" y="62.26" width="3" height="41.09"/><rect class="a" x="90.83" y="40.37" width="3" height="62.43"/><rect class="a" x="133.16" y="22.07" width="3" height="81.63"/><rect class="a" x="147.8" y="13.5" width="3" height="90.09"/><rect class="a" x="163.18" y="33.26" width="3" height="70.33"/><rect class="a" x="177.16" y="62.5" width="3" height="41.09"/><rect class="a" x="190.29" y="46.07" width="3" height="57.83"/><rect class="a" x="104.3" y="34.93" width="3" height="68.1"/><rect class="a" x="117.94" y="29.15" width="3" height="74.66"/><rect class="a" x="76.01" y="54.64" width="3" height="48.41"/><path class="a" d="M49.5,20.14h-30a1.5,1.5,0,0,1,0-3h30a1.5,1.5,0,0,1,0,3Z"/><path class="a" d="M42.64,27H19.5a1.5,1.5,0,0,1,0-3H42.64a1.5,1.5,0,0,1,0,3Z"/></svg>