<svg xmlns="http://www.w3.org/2000/svg" viewBox="0 0 110.67 160.73"><defs><style>.cls-1{fill:#212228;}.cls-2{fill:#fff;}</style></defs><g id="Layer_2" data-name="Layer 2"><g id="Graphics"><g id="Shape_205" data-name="Shape 205"><path class="cls-1" d="M110.63,6.16q0,16.71,0,33.43c0,2.57-.06,5.35-1.62,7.4-2.09,2.74-6,3.13-9.44,3.21a17.51,17.51,0,0,1-7.39-1c-2.3-1-4.24-3.24-4.09-5.74a10.06,10.06,0,0,0,.19-2.88c-.23-.94-1.48-1.69-2.15-1Q60.27,66,34.1,92.19c-1.7,1.7-3.56,3.49-5.92,3.94-3.33.64-6.5-1.53-9-3.78s-5.23-5.3-4.91-8.77c.26-2.76,2.32-5,4.27-7Q44.61,50.16,70.72,23.69c-.77-1.17-2.53-.75-3.94-.69-3,.12-5.67-2.17-6.83-4.91s-1.11-5.86-.79-8.82,1-5.91,3.37-7.49c1.7-1.16,3.89-1.23,6-1.26l31-.52c3.68-.06,8.3.49,9.48,4C109.23,5,109.62,6.33,110.63,6.16Zm-5.26,38.39c1-1,1-2.5,1-3.87q-.21-15.3-.44-30.61c0-1.75-.19-3.78-1.63-4.79A5.66,5.66,0,0,0,101,4.62l-34.32.43a2.88,2.88,0,0,0-2.48,2.42,12.91,12.91,0,0,0,.08,3.72c0,.58-.44,1.43-.87,1,1.35.81.37,3,1,4.43s2.54,1.62,4.09,1.6l6.75-.07c1.53,0,3.5.27,3.87,1.77.29,1.14-.62,2.21-1.45,3.05L21.74,79.3c-1.18,1.19-2.43,2.5-2.67,4.16-.4,2.74,2,5,4.21,6.71a6.25,6.25,0,0,0,3.36,1.65c1.7.07,3.12-1.22,4.33-2.43q28.38-28.5,56.78-57c.91-.91,2.17-1.91,3.36-1.39s1.31,2,1.35,3.18q.12,4.48.26,9c0,1.69,2.13,2.47,3.82,2.63a24.91,24.91,0,0,0,6.16-.17A4.7,4.7,0,0,0,105.37,44.55Z"/><path class="cls-2" d="M106.36,40.68c0,1.37,0,2.9-1,3.87a4.7,4.7,0,0,1-2.67,1.07,24.91,24.91,0,0,1-6.16.17c-1.69-.16-3.77-.94-3.82-2.63q-.14-4.48-.26-9c0-1.22-.24-2.69-1.35-3.18s-2.45.48-3.36,1.39Q59.35,60.9,31,89.39c-1.21,1.21-2.63,2.5-4.33,2.43a6.25,6.25,0,0,1-3.36-1.65c-2.19-1.71-4.61-4-4.21-6.71.24-1.66,1.49-3,2.67-4.16L77.63,23c.83-.84,1.74-1.91,1.45-3.05-.37-1.5-2.34-1.79-3.87-1.77l-6.75.07c-1.55,0-3.46-.18-4.09-1.6s.34-3.62-1-4.43c.43.4.91-.45.87-1a12.91,12.91,0,0,1-.08-3.72,2.88,2.88,0,0,1,2.48-2.42L101,4.62a5.66,5.66,0,0,1,3.34.66c1.44,1,1.6,3,1.63,4.79Q106.14,25.39,106.36,40.68ZM89,23.7c.14-.26,0-.74-.24-.64-.15.26,0,.73.23.63Z"/><path class="cls-1" d="M95.58,77.85c.33,3.66-2.47,6.77-5.07,9.37l-49,48.86c-.92.92-1.82,2.56-.76,3.32,2.78-1.29,6.26.16,8.05,2.64s2.2,5.72,2.08,8.78-1,6.67-3.72,8.3c-1.71,1-3.8,1.09-5.8,1.12l-30.07.48c-2.44,0-5.06,0-7.07-1.36-3-2.1-3.44-6.39-3.54-10.1Q.36,135.88,0,122.49c-.08-2.77,0-5.88,1.93-7.85,1.67-1.69,4.24-2,6.61-2.25,3.14-.31,6.45-.6,9.34.68s5.09,4.71,3.88,7.63c-.33.8.64,1.66,1.51,1.57a3.88,3.88,0,0,0,2.17-1.37L74,71.82c3-3.08,6.9-6.43,11.14-5.51,2.6.56,4.56,2.61,6.36,4.57S95.34,75.12,95.58,77.85Zm-4.78.86c.19-1.87-1.18-3.51-2.45-4.89s-2.81-2.94-4.73-3.09c-2.22-.16-4.08,1.54-5.64,3.11l-54.52,55.1a6.16,6.16,0,0,1-2.88,1.95c-1.15.24-2.58-.49-2.6-1.67q-.09-4.47-.17-8.94a4.4,4.4,0,0,0-.87-3.09,4.35,4.35,0,0,0-3.29-.8l-5.23.16a5,5,0,0,0-2.74.62c-1.35.93-1.45,2.85-1.41,4.5q.35,14.45.7,28.88c0,1.51.13,3.17,1.17,4.26s3.08,1.29,4.78,1.25l30.55-.57c1.85,0,4.19-.45,4.58-2.26.47-2.21.94-4.53.34-6.72s-2.63-4.16-4.88-3.88a61.73,61.73,0,0,1-7.06.5,3.24,3.24,0,0,1-2.5-.68c-1.16-1.24.07-3.18,1.26-4.38L88.43,82.54C89.51,81.45,90.65,80.24,90.8,78.71Z"/><path class="cls-2" d="M88.35,73.82c1.27,1.38,2.64,3,2.45,4.89-.15,1.53-1.29,2.74-2.37,3.83L33.21,138.07c-1.19,1.2-2.42,3.14-1.26,4.38a3.24,3.24,0,0,0,2.5.68,61.73,61.73,0,0,0,7.06-.5c2.25-.28,4.28,1.69,4.88,3.88s.13,4.51-.34,6.72c-.39,1.81-2.73,2.23-4.58,2.26l-30.55.57c-1.7,0-3.61,0-4.78-1.25S5,152.06,5,150.55q-.34-14.45-.7-28.88c0-1.65.06-3.57,1.41-4.5a5,5,0,0,1,2.74-.62l5.23-.16a4.35,4.35,0,0,1,3.29.8,4.4,4.4,0,0,1,.87,3.09q.07,4.47.17,8.94c0,1.18,1.45,1.91,2.6,1.67a6.16,6.16,0,0,0,2.88-1.95L78,73.84c1.56-1.57,3.42-3.27,5.64-3.11C85.54,70.88,87,72.4,88.35,73.82Z"/><path class="cls-1" d="M88.74,23.06c.28-.1.38.38.24.64h0C88.69,23.79,88.59,23.32,88.74,23.06Z"/></g></g></g></svg>