<svg xmlns="http://www.w3.org/2000/svg" viewBox="0 0 137.93 150"><path class="a" d="M70,16.05a2,2,0,0,1-2-1.28,6.07,6.07,0,0,1-.34-2.51l.09-8.13A5.7,5.7,0,0,1,68.34,1,2,2,0,0,1,71.11.34c1.07,2.29,1,4.93.89,7.45l-.16,4.07a17.55,17.55,0,0,1-.14,1.78C71.55,14.69,71,15.89,70,16.05Z"/><path class="a" d="M35,8.34c.75.76,2.46-.28,3,.65l3.16,5.66a29,29,0,0,1,2.41,5.06,2.56,2.56,0,0,1-.1,2.4,1.9,1.9,0,0,1-2.45.17,5.69,5.69,0,0,1-1.63-2.11l-3.58-6.63C35,11.92,34.08,9.91,35,8.34Z"/><path class="a" d="M1.06,65.84a5.78,5.78,0,0,1,3.3-.54l8.18.3c1,0,2.26.19,2.71,1.12a2,2,0,0,1-1,2.43,5.69,5.69,0,0,1-2.84.47l-9.06,0A3.14,3.14,0,0,1,.76,69.3C-.45,68.61-.12,66.58,1.06,65.84Z"/><path class="a" d="M129.31,34.81c.5.9-.25,2-1,2.65a26.26,26.26,0,0,1-5.09,3.13L118.45,43c-.89.46-2,.9-2.82.29a1.82,1.82,0,0,1-.25-2.32,5.26,5.26,0,0,1,1.9-1.66l3.21-2a24.63,24.63,0,0,1,6.11-3.06C127.56,34,128.82,33.94,129.31,34.81Z"/><path class="a" d="M99.5,21.33a5.79,5.79,0,0,1-1.42,1.72,2.18,2.18,0,0,1-2.12.33A1.69,1.69,0,0,1,95,22.12a3.21,3.21,0,0,1,.45-1.74A77,77,0,0,1,100.15,12a5.37,5.37,0,0,1,2.11-2.19,2,2,0,0,1,2.63.8,2.89,2.89,0,0,1-.51,2.34l-2.8,5.12c-.3,0-.48.32-.61.59C100.52,19.58,100,20.46,99.5,21.33Z"/><path class="a" d="M21.92,42.09a3,3,0,0,1-1.9-.58l-3.17-1.83c-1.76-1-3.52-2-5.19-3.17a5,5,0,0,1-1.74-1.73,1.88,1.88,0,0,1,.32-2.26c.86-.67,2.11-.14,3,.41l6,3.45A11.2,11.2,0,0,1,23.63,40C23.34,40.23,22.59,42,21.92,42.09Z"/><path class="a" d="M137.53,68.18a1.68,1.68,0,0,1,.09,2.08,2.8,2.8,0,0,1-1.9,1.08,10.19,10.19,0,0,1-1.35.08l-8,0a5.69,5.69,0,0,1-2.75-.44,2,2,0,0,1-1-2.34c.42-.94,1.66-1.12,2.7-1.15,3.47-.11,6.95-.07,10.42.11A2.74,2.74,0,0,1,137.53,68.18Z"/><path class="a" d="M21.91,95.52a4.31,4.31,0,0,1-2.08,2.3c-.77.48-1.59.91-2.41,1.33L14,100.92c-1,.5-1.76,1.36-2.74,1.87s-2.4.54-3-.38a2.17,2.17,0,0,1,.43-2.57A8.08,8.08,0,0,1,11,98.36c3.1-1.56,5.83-4,9.21-4.73A1.52,1.52,0,0,1,21.91,95.52Z"/><path class="a" d="M115.88,95.38a1.74,1.74,0,0,1,1.31-.11,14.16,14.16,0,0,1,4.5,2.2l5.56,3.58a4.17,4.17,0,0,1,1.08.88,1.91,1.91,0,0,1-.06,2.4,1.57,1.57,0,0,1-2.3-.09c-.29-.41-4.18-2.2-5.6-3.07-1.15-.7-2.5-1-3.6-1.83s-1.91-2.27-1.3-3.47A1.3,1.3,0,0,1,115.88,95.38Z"/><path class="a" d="M100.78,116.28c.14-1.41.79-2.73,1.07-4.13a8.26,8.26,0,0,0-4.9-9,16.08,16.08,0,0,0-5.71-.78l-44.13-.67c-3,0-6.28,0-8.89,1.54a8.38,8.38,0,0,0-3.36,9.79c.58,1.53,1.61,3.3.68,4.65a9,9,0,0,0-.56,9,9.68,9.68,0,0,0,9.63,4.15c1.69,2.63,2.44,5.74,3.87,8.51a19.36,19.36,0,0,0,11.38,9.5,27.13,27.13,0,0,0,6.08,1,26.49,26.49,0,0,0,12.63-1.87,18.94,18.94,0,0,0,10-11.16A15.54,15.54,0,0,1,90,133.36a3.4,3.4,0,0,1,3.14-1.76,8.11,8.11,0,0,0,8.8-8C101.8,121.13,100.52,118.75,100.78,116.28ZM84.64,136.41c-2.3,4.35-6.21,8.1-11,9.05a24.55,24.55,0,0,1-3.54.36,32.76,32.76,0,0,1-5.69,0,16.68,16.68,0,0,1-13.26-10.3,4.91,4.91,0,0,1-.41-2.74,2.1,2.1,0,0,1,1.9-1.76l28.53.37c1.52,0,3.35.22,4,1.58C85.69,134,85.21,135.33,84.64,136.41ZM95,127a12.55,12.55,0,0,1-5.25.69l-43.9-.57a12.64,12.64,0,0,1-5-.73A3.85,3.85,0,0,1,41,119a12.65,12.65,0,0,1,4.83-.54l44.8.75a12.61,12.61,0,0,1,4.29.58,4.22,4.22,0,0,1,2.78,3.09C97.93,124.62,96.58,126.3,95,127Zm.3-12.7A12.55,12.55,0,0,1,90,115l-43.9-.56a12.91,12.91,0,0,1-5-.74,3.85,3.85,0,0,1,.15-7.44,12.65,12.65,0,0,1,4.83-.54l44.8.76a12.14,12.14,0,0,1,4.29.58A4.19,4.19,0,0,1,98,110.16C98.23,111.93,96.88,113.6,95.26,114.33Z"/><path class="a" d="M42.08,35.42a3.86,3.86,0,0,1,.48-4.19,11.31,11.31,0,0,1,3.51-2.73c2.5-1.47,5.84-2.88,8.06-1,.7.59,1.16,1.44,1.85,2a3.9,3.9,0,0,0,5.89-1.39c.49-1.21.35-2.65,1.1-3.72.94-1.35,2.84-1.5,4.49-1.53l4-.08a7.64,7.64,0,0,1,3.23.41,2.6,2.6,0,0,1,1.68,2.56,4.27,4.27,0,0,0,7,3.88c1.09-.93,1.79-2.45,3.18-2.79a4.49,4.49,0,0,1,3.17.86l3.65,2.06a9.55,9.55,0,0,1,3.15,2.43,3.24,3.24,0,0,1,.26,3.73,3.88,3.88,0,0,0,3.37,6.19c1.55-.11,3-1.14,4.55-.84s2.37,1.66,3.13,2.91l2.1,3.42a6.41,6.41,0,0,1,1.11,2.64c.18,1.93-1.34,3.53-2.47,5.1s-1.86,4-.39,5.26c1,.86,2.54.67,3.78,1.17,2.45,1,3,4.14,3.12,6.78a12.2,12.2,0,0,1-.49,4.93,4.37,4.37,0,0,1-3.66,3,3.94,3.94,0,0,0-1.75,7.41,3.4,3.4,0,0,1,1.55,3.27,10,10,0,0,1-1.22,3.6c-1.42,2.91-3.57,6.26-6.79,6.07-1.53-.09-3-1-4.49-.69a6.33,6.33,0,0,0-2.61,1.66,4.18,4.18,0,0,1-2.76,1.29c-1-.06-2-1.23-1.51-2.14a17.33,17.33,0,0,1,3.94-4.41,6,6,0,0,1,5.61-1,3.63,3.63,0,0,0,4.71-3.67c-.22-1.51-1.38-2.67-2.12-4-2.41-4.27.45-10.51,5.26-11.46a3.44,3.44,0,0,0,2.57-3.57,4,4,0,0,0-3-3.4,7.77,7.77,0,0,1-4.08-12.33,12.54,12.54,0,0,0,1.39-1.8c1.23-2.33-1.28-5.57-3.84-5A8.35,8.35,0,0,1,92,35.54c.62-1.83-1.76-3.41-3.67-3.11S84.83,34.06,83,34.71a8.1,8.1,0,0,1-10.16-5.36,3.68,3.68,0,0,0-7.24.87c0,2.47-3,3.63-5.4,4.15s-5.69.84-7.09-1.32a3.47,3.47,0,0,0-6.36,1.47,11.62,11.62,0,0,0,.15,2.42,8.14,8.14,0,0,1-10.31,8.47,3.43,3.43,0,0,0-3,6,5.73,5.73,0,0,1,1.79,5.19,16.91,16.91,0,0,1-2,5.36c-.39.78-1,1.68-1.85,1.64a5,5,0,0,0-4.84,2.83,3.63,3.63,0,0,0,2.22,4.78,7.78,7.78,0,0,1,3.55,13.22,3.61,3.61,0,0,0,3.24,6.16,8.56,8.56,0,0,1,9.92,7.35c-1.24.91-3,.13-4.21-.84s-2.44-2.19-4-2.15a17.57,17.57,0,0,0-2.64.66,5.34,5.34,0,0,1-4.74-1.88,15.71,15.71,0,0,1-2.63-4.59c-.73-1.68-1.44-3.74-.4-5.25a15.29,15.29,0,0,1,1.91-1.77,4.33,4.33,0,0,0-3.12-7.39c-2.11,0-2.92-2.69-3.1-4.79A14.64,14.64,0,0,1,23,64.1a5,5,0,0,1,4.16-3.65c2.86-.13,4.61-4.14,2.78-6.33-.74-.88-1.86-1.43-2.39-2.45-.72-1.38-.1-3.05.53-4.47a15.29,15.29,0,0,1,3.25-5.27c1.53-1.41,3.89-2.13,5.73-1.16a3.81,3.81,0,0,0,5-5.35"/><path class="a" d="M106.87,57.48a.39.39,0,0,0,.2.69.42.42,0,0,0-.22-.72Z"/><path class="a" d="M85.66,52.39a23.85,23.85,0,0,0-25.4-5.55A23.84,23.84,0,0,0,45.58,68.3,23.86,23.86,0,0,0,60,90,23.25,23.25,0,0,0,90,78,23.86,23.86,0,0,0,85.66,52.39ZM69.48,87.65A19.2,19.2,0,0,1,50,65c1.72-9.46,11.46-16.7,21-15.65S88.48,59.61,88.09,69.21,79.09,87.36,69.48,87.65Z"/></svg>
