<?xml version="1.0" encoding="utf-8"?>
<!-- Generator: Adobe Illustrator 25.2.1, SVG Export Plug-In . SVG Version: 6.00 Build 0)  -->
<svg version="1.1" id="Layer_1" xmlns="http://www.w3.org/2000/svg" xmlns:xlink="http://www.w3.org/1999/xlink" x="0px" y="0px"
	 viewBox="0 0 863.8 69.2" style="enable-background:new 0 0 863.8 69.2;" xml:space="preserve">
<style type="text/css">
	.st0{fill:url(#SVGID_1_);}
	.st1{fill:#2B2B35;}
	.st2{fill:#E8E8E9;}
</style>
<linearGradient id="SVGID_1_" gradientUnits="userSpaceOnUse" x1="658.1458" y1="34.6064" x2="702.8203" y2="34.6064">
	<stop  offset="0" style="stop-color:#1B75BB"/>
	<stop  offset="0.209" style="stop-color:#26A9E0;stop-opacity:0.9"/>
	<stop  offset="0.6981" style="stop-color:#26A9E0;stop-opacity:0.6504"/>
	<stop  offset="0.8946" style="stop-color:#1E84C5;stop-opacity:0.8779"/>
	<stop  offset="1" style="stop-color:#1B75BB"/>
</linearGradient>
<path class="st0" d="M702.4,53.5c-10,25.3-34.3,16-42.7,0.6s20.8-54,20.8-54S706.6,42.7,702.4,53.5z"/>
<circle class="st1" cx="681.3" cy="44.3" r="13.4"/>
<g>
	<path class="st2" d="M682.1,36v1.9c1.1,0.1,2.1,0.4,2.8,0.9l-1.2,2.2c-0.7-0.5-1.3-0.8-2-0.8c-0.4,0-0.7,0.1-1,0.3
		c-0.2,0.2-0.4,0.4-0.4,0.6c0,0.2,0.1,0.4,0.3,0.6c0.2,0.2,0.5,0.3,0.8,0.5l0.9,0.3c1,0.4,1.8,0.8,2.2,1.3c0.5,0.5,0.7,1.2,0.7,2
		c0,0.5-0.1,0.9-0.2,1.3c-0.1,0.4-0.3,0.7-0.6,1c-0.3,0.3-0.6,0.6-1,0.8c-0.4,0.2-0.9,0.4-1.5,0.6v1.9h-1.4v-1.9c-0.3,0-0.7,0-1-0.1
		c-0.4-0.1-0.7-0.2-1.1-0.3c-0.4-0.1-0.7-0.3-1-0.5c-0.3-0.2-0.6-0.4-0.8-0.5l1.3-2.3c1,0.9,1.9,1.3,2.8,1.3c0.4,0,0.7-0.1,1-0.3
		c0.3-0.2,0.4-0.5,0.4-0.8c0-0.5-0.3-0.8-1-1l-0.9-0.3c-0.5-0.2-1-0.3-1.4-0.5c-0.4-0.2-0.7-0.4-0.9-0.7c-0.2-0.3-0.4-0.6-0.5-0.9
		c-0.1-0.3-0.2-0.7-0.2-1.1c0-0.4,0.1-0.9,0.2-1.3c0.1-0.4,0.3-0.8,0.6-1.1c0.3-0.3,0.6-0.6,1-0.8c0.4-0.2,0.9-0.4,1.4-0.4V36H682.1
		z"/>
</g>
</svg>
