<svg id="Layer_1" data-name="Layer 1" xmlns="http://www.w3.org/2000/svg" xmlns:xlink="http://www.w3.org/1999/xlink" viewBox="0 0 863.8 370"><defs><style>.cls-1{fill:url(#linear-gradient);}.cls-2{fill:#283e5e;}.cls-3{fill:#2f4972;}.cls-4{fill:#20344c;}.cls-5{fill:#212228;}.cls-6{fill:url(#linear-gradient-2);}.cls-7{fill:url(#linear-gradient-3);}</style><linearGradient id="linear-gradient" x1="1631.04" y1="930.85" x2="1773.75" y2="930.85" gradientTransform="matrix(0, 1, 1, 0, -233.89, -1402.96)" gradientUnits="userSpaceOnUse"><stop offset="0.27" stop-color="#2f4972"/><stop offset="0.52" stop-color="#30a9dc" stop-opacity="0.76"/><stop offset="0.68" stop-color="#65a4ab" stop-opacity="0.99"/><stop offset="0.79" stop-color="#6ba6ad" stop-opacity="0.99"/><stop offset="0.81" stop-color="#6ca6ae" stop-opacity="0.99"/><stop offset="0.88" stop-color="#8eb8c1" stop-opacity="0.98"/><stop offset="0.99" stop-color="#ccd9e5" stop-opacity="0.98"/></linearGradient><linearGradient id="linear-gradient-2" x1="597.01" y1="108.37" x2="732.55" y2="108.37" gradientUnits="userSpaceOnUse"><stop offset="0" stop-color="#1b75bb"/><stop offset="0.21" stop-color="#26a9e0"/><stop offset="0.7" stop-color="#26a9e0" stop-opacity="0.65"/><stop offset="0.87" stop-color="#1f87c8" stop-opacity="0.88"/><stop offset="1" stop-color="#1b75bb"/></linearGradient><linearGradient id="linear-gradient-3" x1="615.81" y1="109.23" x2="710.57" y2="109.23" gradientUnits="userSpaceOnUse"><stop offset="0" stop-color="#1b75bb" stop-opacity="0.8"/><stop offset="0.21" stop-color="#26a9e0"/><stop offset="0.67" stop-color="#26a9e0" stop-opacity="0.87"/><stop offset="0.7" stop-color="#26a9e0" stop-opacity="0.8"/><stop offset="0.75" stop-color="#249fd9" stop-opacity="0.84"/><stop offset="1" stop-color="#1b75bb"/></linearGradient></defs><path class="cls-1" d="M738.16,361.9V319.8c0-4.3-2.6-7.8-5.7-7.8l-54.7-.4c-.1,0-.2-.1-.2-.3V233.6c0-1-21.4-15.8-21.4,1.4-.2,43.7-.4,92.4-.4,92.4,0,7.3,4.2,13.3,9.4,13.3l45.7.1v21c0,4.3,2.6,7.8,5.7,7.8h15.9C735.56,369.8,738.16,366.3,738.16,361.9Z"/><polygon class="cls-2" points="849.46 210.8 848.56 236 824.36 236.2 613.26 241.7 608.86 242 608.86 209.8 849.46 210.8"/><path class="cls-3" d="M602.76,190.3c-.3-22.8,11.1-55.5,66.6-83.3l180.2,103.8-239.9,7.8C609.56,218.6,603,207.1,602.76,190.3Z"/><path class="cls-4" d="M609.56,218.6l-.7,23.4-1.8.1c-1.2-5.2-6.3-28.5-4.3-51.8A63.2,63.2,0,0,0,609.56,218.6Z"/><path class="cls-5" d="M634,150.3a8.34,8.34,0,0,0-1.2-.8,2.54,2.54,0,0,0-1.2-.2,2.13,2.13,0,0,0-1.2.3,1.05,1.05,0,0,0-.5.9.85.85,0,0,0,.2.6,2.09,2.09,0,0,0,.6.4,9.44,9.44,0,0,0,.9.3l.9.3a5.48,5.48,0,0,1,2.7,1.7,4,4,0,0,1,.9,2.7,4.21,4.21,0,0,1-.4,2,5.72,5.72,0,0,1-1.1,1.6,5.24,5.24,0,0,1-1.8,1,8.6,8.6,0,0,1-2.4.4,9,9,0,0,1-5.2-1.7l1.6-3.1a5.45,5.45,0,0,0,1.7,1.1,5.26,5.26,0,0,0,1.7.4,2,2,0,0,0,1.4-.4,1.39,1.39,0,0,0,.5-1,1.27,1.27,0,0,0-.1-.6,1.76,1.76,0,0,0-.4-.5,4.35,4.35,0,0,0-.7-.4c-.3-.1-.6-.2-1.1-.4s-1-.3-1.5-.5a3.53,3.53,0,0,1-1.3-.8,2.73,2.73,0,0,1-.9-1.2,4.84,4.84,0,0,1-.3-1.8,4.48,4.48,0,0,1,.4-2,4,4,0,0,1,1-1.5,6.24,6.24,0,0,1,1.6-1,6.65,6.65,0,0,1,2.1-.3,9.69,9.69,0,0,1,2.3.3,9.17,9.17,0,0,1,2.3.9Z"/><path class="cls-5" d="M642.26,152.3h5.5v-5.7h3.8l-.1,14.7h-3.8v-6.1h-5.5v6.1h-3.8l.1-14.7h3.8Z"/><path class="cls-5" d="M654.06,154a8.15,8.15,0,0,1,.6-3.1,8.52,8.52,0,0,1,1.7-2.5,7.6,7.6,0,0,1,2.6-1.6,9.38,9.38,0,0,1,6.6,0,7.82,7.82,0,0,1,2.6,1.7,7.39,7.39,0,0,1,1.7,2.5,7.79,7.79,0,0,1,.6,3.1,7.31,7.31,0,0,1-.6,3,8.52,8.52,0,0,1-1.7,2.5,7.6,7.6,0,0,1-2.6,1.6,9.37,9.37,0,0,1-6.6,0,9,9,0,0,1-2.6-1.7,7.39,7.39,0,0,1-1.7-2.5A7.31,7.31,0,0,1,654.06,154Zm4,0a4.15,4.15,0,0,0,.3,1.6,4.42,4.42,0,0,0,2.2,2.2,4.42,4.42,0,0,0,3.2,0,5.67,5.67,0,0,0,1.3-.8,3.81,3.81,0,0,0,.9-1.3,4.42,4.42,0,0,0,0-3.2,3.81,3.81,0,0,0-.9-1.3,6,6,0,0,0-1.3-.9,2.88,2.88,0,0,0-1.6-.3,4.15,4.15,0,0,0-1.6.3,5.67,5.67,0,0,0-1.3.8,3.81,3.81,0,0,0-.9,1.3A4.15,4.15,0,0,0,658.06,154Z"/><path class="cls-5" d="M685,161.5h-4.8l-3.6-5.7v5.7h-3.8l.1-14.7h5.9a4.64,4.64,0,0,1,2.1.4,4,4,0,0,1,1.5,1,4.19,4.19,0,0,1,.9,1.4,4.84,4.84,0,0,1,.3,1.8,4.55,4.55,0,0,1-.8,2.7,3.63,3.63,0,0,1-2.4,1.4Zm-8.4-8.2h.7a2.65,2.65,0,0,0,1.7-.5,1.71,1.71,0,0,0,0-2.6,2.86,2.86,0,0,0-1.7-.5h-.7Z"/><path class="cls-5" d="M692.16,150v11.5h-3.8V150h-3.1v-3.2h10.1V150Z"/><path class="cls-5" d="M625.76,170h5.7a6.71,6.71,0,0,1,2.8.6,7.33,7.33,0,0,1,2.3,1.6,6.51,6.51,0,0,1,1.5,2.3,6.83,6.83,0,0,1,0,5.6,7.63,7.63,0,0,1-1.5,2.3,7.33,7.33,0,0,1-2.3,1.6,6.71,6.71,0,0,1-2.8.6h-5.7Zm3.8,11.4h.9a4.84,4.84,0,0,0,1.8-.3,3,3,0,0,0,1.3-.9,3.53,3.53,0,0,0,.8-1.3,4.42,4.42,0,0,0,0-3.2,5.67,5.67,0,0,0-.8-1.3,3,3,0,0,0-1.3-.9,4.84,4.84,0,0,0-1.8-.3h-.9Z"/><path class="cls-5" d="M645,170v9.3a2.38,2.38,0,0,0,.3,1.2,1.76,1.76,0,0,0,.8.9,2.81,2.81,0,0,0,1.5.3,3.34,3.34,0,0,0,1.5-.3,1.76,1.76,0,0,0,.8-.9,2.66,2.66,0,0,0,.3-1.2c0-.4.1-.9.1-1.3v-8h3.8v8.5c0,2.3-.5,4-1.6,5a6.75,6.75,0,0,1-4.8,1.6c-2.2,0-3.8-.5-4.8-1.6a7.12,7.12,0,0,1-1.6-5V170Z"/><path class="cls-5" d="M669.16,184.8h-4.8l-3.6-5.7v5.7H657l.1-14.7H663a4.64,4.64,0,0,1,2.1.4,4,4,0,0,1,1.5,1,4.19,4.19,0,0,1,.9,1.4,4.84,4.84,0,0,1,.3,1.8,4.55,4.55,0,0,1-.8,2.7,3.63,3.63,0,0,1-2.4,1.4Zm-8.4-8.1h.7a2.65,2.65,0,0,0,1.7-.5,1.71,1.71,0,0,0,0-2.6,2.86,2.86,0,0,0-1.7-.5h-.7Z"/><path class="cls-5" d="M679.76,182.3h-5.5l-.9,2.6h-4.1l5.6-14.7h4.2l5.5,14.7h-4.1Zm-1-2.9-1.7-4.9-1.7,4.9Z"/><path class="cls-5" d="M691.36,173.4v11.5h-3.8V173.4h-3.1v-3.2h10.1v3.2Z"/><path class="cls-5" d="M700.06,170.2l-.1,14.7h-3.8l.1-14.7Z"/><path class="cls-5" d="M702.46,177.6a8.15,8.15,0,0,1,.6-3.1,8.52,8.52,0,0,1,1.7-2.5,7.6,7.6,0,0,1,2.6-1.6,9.38,9.38,0,0,1,6.6,0,7.82,7.82,0,0,1,2.6,1.7,7.39,7.39,0,0,1,1.7,2.5,7.79,7.79,0,0,1,.6,3.1,7.31,7.31,0,0,1-.6,3,8.52,8.52,0,0,1-1.7,2.5,7.6,7.6,0,0,1-2.6,1.6,9.38,9.38,0,0,1-6.6,0,9,9,0,0,1-2.6-1.7,7.39,7.39,0,0,1-1.7-2.5A7.31,7.31,0,0,1,702.46,177.6Zm4,0a4.15,4.15,0,0,0,.3,1.6,3.81,3.81,0,0,0,.9,1.3,6,6,0,0,0,1.3.9,4.42,4.42,0,0,0,3.2,0,5.67,5.67,0,0,0,1.3-.8,3.81,3.81,0,0,0,.9-1.3,4.42,4.42,0,0,0,0-3.2,3.81,3.81,0,0,0-.9-1.3,6,6,0,0,0-1.3-.9,2.88,2.88,0,0,0-1.6-.3,4.15,4.15,0,0,0-1.6.3,5.67,5.67,0,0,0-1.3.8,3.81,3.81,0,0,0-.9,1.3A4.15,4.15,0,0,0,706.46,177.6Z"/><path class="cls-5" d="M721.16,185l.1-14.7h3.8l7,9v-9h3.8l-.1,14.7H732l-7-9v9Z"/><path class="cls-5" d="M625.66,193.4h5.7a4.14,4.14,0,0,1,3.1,1,3.71,3.71,0,0,1,1,2.8,3.21,3.21,0,0,1-.4,1.8,3.45,3.45,0,0,1-1.2,1.2,5.78,5.78,0,0,1,1.4.5,2.36,2.36,0,0,1,.9.8,3.7,3.7,0,0,1,.5,1.1,5,5,0,0,1,.2,1.2,3.42,3.42,0,0,1-.4,1.8,3.25,3.25,0,0,1-1,1.3,6,6,0,0,1-1.6.8,6.65,6.65,0,0,1-2.1.3h-6.1V193.4Zm3.8,11.7h.8a3.69,3.69,0,0,0,2.1-.4,1.21,1.21,0,0,0,.6-1.2,1.31,1.31,0,0,0-.6-1.2,4.81,4.81,0,0,0-2.1-.4h-.8Zm0-5.9h.7c1.2,0,1.8-.5,1.8-1.4s-.6-1.4-1.8-1.4h-.7Z"/><path class="cls-5" d="M638.36,200.8a8.15,8.15,0,0,1,.6-3.1,8.52,8.52,0,0,1,1.7-2.5,7.6,7.6,0,0,1,2.6-1.6,9.38,9.38,0,0,1,6.6,0,7.82,7.82,0,0,1,2.6,1.7,7.39,7.39,0,0,1,1.7,2.5,7.79,7.79,0,0,1,.6,3.1,7.31,7.31,0,0,1-.6,3,8.52,8.52,0,0,1-1.7,2.5,7.6,7.6,0,0,1-2.6,1.6,9.38,9.38,0,0,1-6.6,0,9,9,0,0,1-2.6-1.7,7.39,7.39,0,0,1-1.7-2.5A7.31,7.31,0,0,1,638.36,200.8Zm4,0a4.15,4.15,0,0,0,.3,1.6,4.42,4.42,0,0,0,2.2,2.2,4.42,4.42,0,0,0,3.2,0,5.67,5.67,0,0,0,1.3-.8,3.81,3.81,0,0,0,.9-1.3,4.42,4.42,0,0,0,0-3.2,3.81,3.81,0,0,0-.9-1.3,6,6,0,0,0-1.3-.9,2.88,2.88,0,0,0-1.6-.3,4.15,4.15,0,0,0-1.6.3,5.67,5.67,0,0,0-1.3.8,3,3,0,0,0-.9,1.3A4.15,4.15,0,0,0,642.36,200.8Z"/><path class="cls-5" d="M657.06,208.2l.1-14.7H661l7,9v-9h3.8l-.1,14.7h-3.8l-7-9v9Z"/><path class="cls-5" d="M674.86,193.5h5.7a6.71,6.71,0,0,1,2.8.6,7.33,7.33,0,0,1,2.3,1.6,6.51,6.51,0,0,1,1.5,2.3,6.83,6.83,0,0,1,0,5.6,6.34,6.34,0,0,1-1.6,2.3,7.33,7.33,0,0,1-2.3,1.6,6.71,6.71,0,0,1-2.8.6h-5.7Zm3.8,11.5h.9a4.84,4.84,0,0,0,1.8-.3,3,3,0,0,0,1.3-.9,3.53,3.53,0,0,0,.8-1.3,4.42,4.42,0,0,0,0-3.2,5.67,5.67,0,0,0-.8-1.3,3.81,3.81,0,0,0-1.3-.9,4.84,4.84,0,0,0-1.8-.3h-.9Z"/><path class="cls-6" d="M597,105.58s21.38,7.08,35.71,1.31,15.84-10.49,24.89-5.77,10.31,5.77,23.14,3.41,14.33-5.77,19.86-1.57,31.94,2.62,31.94,2.62-38.47,14.68-71.67,11.53-53.31-7.34-53.31-7.34Z"/><path class="cls-7" d="M615.81,111.41s23.71-9.85,29.89-7.4,8.57,4.92,16.43,0,15.87-2.32,20.65,1.23,9.2,3.62,12,1.43,18.42,3.94,15.4,5.33c-1.78.82-22.4,5.45-42.93,5.13C644.43,116.79,621.58,113.34,615.81,111.41Z"/><path class="cls-2" d="M732.45,105.39a.44.44,0,0,1,.26.39.42.42,0,0,1-.27.39l-.25.12L681.07,129a14,14,0,0,1-3,1.09,55.53,55.53,0,0,1-11.37.88c-4.13,0-10.67.1-13.27-.3a22.94,22.94,0,0,1-6-1.68l0,0L598,106.79l-1.49-.67a.41.41,0,0,1-.25-.41C597.09,106,661.47,131.36,732.45,105.39Z"/></svg>