<svg id="Layer_1" data-name="Layer 1" xmlns="http://www.w3.org/2000/svg" xmlns:xlink="http://www.w3.org/1999/xlink" viewBox="0 0 855.9 250"><defs><style>.cls-1{fill:url(#linear-gradient);}.cls-2{fill:url(#linear-gradient-2);}.cls-3{fill:url(#linear-gradient-3);}.cls-4{fill:#283e5e;}.cls-5{fill:url(#linear-gradient-4);}.cls-6{fill:url(#linear-gradient-5);}.cls-7{fill:url(#linear-gradient-6);}.cls-8{fill:url(#linear-gradient-7);}.cls-9{fill:url(#linear-gradient-8);}</style><linearGradient id="linear-gradient" x1="609.72" y1="227.32" x2="731.94" y2="227.32" gradientUnits="userSpaceOnUse"><stop offset="0.13" stop-color="#26a9e0"/><stop offset="0.52" stop-color="#1b75bb"/><stop offset="0.62" stop-color="#208bcb"/><stop offset="0.73" stop-color="#239cd7"/><stop offset="0.85" stop-color="#25a6de"/><stop offset="1" stop-color="#26a9e0"/></linearGradient><linearGradient id="linear-gradient-2" x1="603.09" y1="227.37" x2="738.63" y2="227.37" gradientUnits="userSpaceOnUse"><stop offset="0" stop-color="#1b75bb"/><stop offset="0.21" stop-color="#26a9e0"/><stop offset="0.7" stop-color="#26a9e0" stop-opacity="0.65"/><stop offset="0.87" stop-color="#1f87c8" stop-opacity="0.88"/><stop offset="1" stop-color="#1b75bb"/></linearGradient><linearGradient id="linear-gradient-3" x1="621.89" y1="228.23" x2="716.65" y2="228.23" gradientUnits="userSpaceOnUse"><stop offset="0" stop-color="#1b75bb" stop-opacity="0.8"/><stop offset="0.21" stop-color="#26a9e0"/><stop offset="0.67" stop-color="#26a9e0" stop-opacity="0.87"/><stop offset="0.7" stop-color="#26a9e0" stop-opacity="0.8"/><stop offset="0.75" stop-color="#249fd9" stop-opacity="0.84"/><stop offset="1" stop-color="#1b75bb"/></linearGradient><linearGradient id="linear-gradient-4" x1="8320.04" y1="-6324.34" x2="8336.98" y2="-6352.46" gradientTransform="matrix(0.02, 0.45, 0.46, 0.11, 3339.35, -2855.4)" xlink:href="#linear-gradient"/><linearGradient id="linear-gradient-5" x1="6447.07" y1="-6472.72" x2="6454.54" y2="-6485.13" gradientTransform="matrix(0.25, 0.39, 0.53, 0.08, 2417.13, -1877.37)" xlink:href="#linear-gradient"/><linearGradient id="linear-gradient-6" x1="7401.44" y1="3623.95" x2="7417.05" y2="3598.02" gradientTransform="matrix(-0.12, 0.45, -0.51, 0.08, 3477.42, -3474.26)" xlink:href="#linear-gradient"/><linearGradient id="linear-gradient-7" x1="6881.58" y1="2198.58" x2="6891.21" y2="2182.6" gradientTransform="matrix(-0.24, 0.42, -0.54, 0.18, 3577.25, -3179.74)" xlink:href="#linear-gradient"/><linearGradient id="linear-gradient-8" x1="8237.4" y1="3122.93" x2="8246.72" y2="3107.45" gradientTransform="matrix(-0.24, 0.5, -0.61, 0, 4582.23, -3948.42)" xlink:href="#linear-gradient"/></defs><path class="cls-1" d="M648,243.75c1.2-.17,5.79-1.2,16.3-7.72,8.66-5.37,20.27-1.57,25.45.62a1.36,1.36,0,0,1,.75,1.64c-1.1,3.88,2.94,5.31,20.62-3.87,4.6-2.4,8.36-6.17,13.88-5.57,1.77.19,2.73-.89,4-1.92,1.62-1.31,3.38-3.26,2.76-5.52a4.75,4.75,0,0,0-1.84-.06,2,2,0,0,1-2.4-1.37c-.28-.74-.41-2.29-1.49-2.27-1.42,0-2.58,2.31-4,1.78a1.29,1.29,0,0,1-.82-1.08,1,1,0,0,1,0-.24c.07-.63.59-1.1,1-1.63a3.66,3.66,0,0,0,.62-2.36c0-.21-.1-.46-.3-.51a.53.53,0,0,0-.39.13c-1.11.7-4.2,3.17-4.2.3,0-3.93-5.93.19-9.47,3-1.08.86-1.65-.34-2.44-.88a10.13,10.13,0,0,0-3.52-1.29,87.41,87.41,0,0,0-12.73-2.23c-19.4-2.17-39-.72-58.39,1.26l-.39,0c-.4,0-.93.25-.85.64-.48-2.37-6.6-3.68-8.44-3.77a3.47,3.47,0,0,0-3.3,1.37c-1.31,1.3-2.53,2-4.47,1.15-3.33-1.52-5.67.69-3.17,2.28,4.74,3-5.23,3.51,2.53,7.39a28.39,28.39,0,0,0,7,2.09c-1.1-.15-4.56-1.81-5.76-1.83h-.11c-.75,0-6.68,2.47.1,3.71,5.48,1,6.15,1.1,8.27,1.59a1.43,1.43,0,0,1,.44.19q.79.51,1.59,1.05c-1.09,1.32-8.45,3.42-3.24,3.42a80.27,80.27,0,0,1,8.78.28c.77.09,3.24,1.79,3.43,2.58.14.63,0,1.29.17,1.91s.76,1.23,1.37,1a1.05,1.05,0,0,0,.6-1,3,3,0,0,0-.34-1.19c.77,1.16,4.29,2.29,5.5,2.95,1.84,1,3.7,2,5.46,3.09.38.29.72.59,1.11.87h.14"/><path class="cls-2" d="M603.09,224.58s21.38,7.08,35.71,1.31,15.84-10.49,24.89-5.77,10.31,5.77,23.14,3.41,14.33-5.77,19.86-1.57,31.94,2.62,31.94,2.62S700.16,239.26,667,236.11s-53.31-7.34-53.31-7.34Z"/><path class="cls-3" d="M621.89,230.41s23.72-9.85,29.89-7.4,8.57,4.92,16.43,0,15.87-2.32,20.65,1.23,9.2,3.62,12,1.43,18.41,3.94,15.39,5.33c-1.77.82-22.4,5.45-42.93,5.13C650.51,235.79,627.66,232.34,621.89,230.41Z"/><path class="cls-4" d="M738.53,224.39a.44.44,0,0,1,.26.39.43.43,0,0,1-.26.39l-.26.12L687.15,248a13.84,13.84,0,0,1-2.95,1.09,55.48,55.48,0,0,1-11.37.88c-4.13,0-10.67.1-13.26-.3a22.94,22.94,0,0,1-6-1.68l0,0-49.4-22.2-1.49-.67a.43.43,0,0,1-.25-.41C603.17,225,667.55,250.36,738.53,224.39Z"/><path class="cls-5" d="M600.5,130.68c5.74,1.58,14.09,10.69,13.79,16.29-.24,4.51-4.65-4.95-8.17-6.39-5.37-2.22-9.83-6.57-8.94-8.93C597.52,130.75,599.57,130.42,600.5,130.68Z"/><path class="cls-6" d="M594.81,148.68c-1.6-1.86-4.7-4.22-.75-3.64,2.28.33,3,1.94,5.26,3.5,1.75,1.22,4.65,3.67,4.82,4.9-1.16,1.21-1.5-.69-4.44-2.21C597.26,150,596,150.06,594.81,148.68Z"/><path class="cls-7" d="M743.3,145c-5,.64-9.66,4.11-13.21,8.1-3.72,4.18-2.56,5.73-5.36,10.06,3.87-1.76,6.18-5.25,9.57-7.87,3.76-2.91,5.67-2.23,9.23-5.34,1.37-1.18,2.87-2.74,2.64-4-.16-.81-1.09-1.15-2.1-1.07C743.81,144.89,743.55,144.91,743.3,145Z"/><path class="cls-8" d="M720.73,128.86c2.53-1.64,4.49-2.43,6.53-4.24a5.69,5.69,0,0,0,1.32-1.46c.32-.71-.55-.75-1.46-.51a23.71,23.71,0,0,0-8.12,4.71,27.82,27.82,0,0,0-5.69,6.84C715.47,133.51,717.24,131.13,720.73,128.86Z"/><path class="cls-9" d="M731.79,186.26c-.9,1.16.16,2.11,1.71,1.53,2.76-1,4.33-2.76,6.85-4.49,1.52-1,4.13-1.91,5.47-3.09.74-.66,1.48-1.43,1-2.14a1.57,1.57,0,0,0-1-.53,11.66,11.66,0,0,0-8.21,2,8.87,8.87,0,0,0-2.48,2.49Z"/></svg>