<svg id="Layer_1" data-name="Layer 1" xmlns="http://www.w3.org/2000/svg" xmlns:xlink="http://www.w3.org/1999/xlink" viewBox="0 0 855.9 250"><defs><style>.cls-1{fill:url(#linear-gradient);}.cls-2{fill:url(#linear-gradient-2);}.cls-3{fill:url(#linear-gradient-3);}.cls-4{fill:url(#linear-gradient-4);}.cls-5{fill:url(#linear-gradient-5);}.cls-6{fill:url(#linear-gradient-6);}.cls-7{fill:url(#linear-gradient-7);}.cls-8{fill:url(#linear-gradient-8);}.cls-9{fill:#283e5e;}</style><linearGradient id="linear-gradient" x1="4937.14" y1="5910.94" x2="4946.79" y2="5894.92" gradientTransform="matrix(0.42, 0.77, -0.76, 0.43, 3154.36, -6145.17)" gradientUnits="userSpaceOnUse"><stop offset="0.13" stop-color="#26a9e0"/><stop offset="0.52" stop-color="#1b75bb"/><stop offset="0.62" stop-color="#208bcb"/><stop offset="0.73" stop-color="#239cd7"/><stop offset="0.85" stop-color="#25a6de"/><stop offset="1" stop-color="#26a9e0"/></linearGradient><linearGradient id="linear-gradient-2" x1="2470.96" y1="5194.01" x2="2480.65" y2="5177.92" gradientTransform="matrix(0.52, 0.63, -0.5, 0.7, 1987.18, -5014.34)" xlink:href="#linear-gradient"/><linearGradient id="linear-gradient-3" x1="3574.86" y1="5550.85" x2="3590.47" y2="5524.92" gradientTransform="matrix(0.41, 0.62, -0.64, 0.35, 2767.5, -3911.63)" xlink:href="#linear-gradient"/><linearGradient id="linear-gradient-4" x1="3763.13" y1="-3413.68" x2="3777.97" y2="-3438.3" gradientTransform="matrix(-0.3, 0.59, 0.45, 0.57, 3289.17, -71.66)" xlink:href="#linear-gradient"/><linearGradient id="linear-gradient-5" x1="933.1" y1="-1441.04" x2="941.95" y2="-1455.74" gradientTransform="matrix(0, 1.04, 0.99, 0.61, 2053.49, 117.66)" xlink:href="#linear-gradient"/><linearGradient id="linear-gradient-6" x1="606.98" y1="215.4" x2="730.91" y2="215.4" gradientTransform="matrix(1, 0, 0, 1, 0, 0)" xlink:href="#linear-gradient"/><linearGradient id="linear-gradient-7" x1="602.06" y1="227.37" x2="737.6" y2="227.37" gradientUnits="userSpaceOnUse"><stop offset="0" stop-color="#1b75bb"/><stop offset="0.21" stop-color="#26a9e0"/><stop offset="0.7" stop-color="#26a9e0" stop-opacity="0.65"/><stop offset="0.87" stop-color="#1f87c8" stop-opacity="0.88"/><stop offset="1" stop-color="#1b75bb"/></linearGradient><linearGradient id="linear-gradient-8" x1="620.86" y1="228.23" x2="715.62" y2="228.23" gradientUnits="userSpaceOnUse"><stop offset="0" stop-color="#1b75bb" stop-opacity="0.8"/><stop offset="0.21" stop-color="#26a9e0"/><stop offset="0.67" stop-color="#26a9e0" stop-opacity="0.87"/><stop offset="0.7" stop-color="#26a9e0" stop-opacity="0.8"/><stop offset="0.75" stop-color="#249fd9" stop-opacity="0.84"/><stop offset="1" stop-color="#1b75bb"/></linearGradient></defs><path class="cls-1" d="M713.92,223.89c5.38-5.53,9.65-11.41,9.62-19.48a3.88,3.88,0,0,0-.66-2.51c-1-1.12-2.75-.89-4.09-.26-3.76,1.76-6.19,5.79-6.85,9.93-.56,3.54-.36,9.54,2,12.35"/><path class="cls-2" d="M693.15,196a44.5,44.5,0,0,0-.29-12,4.74,4.74,0,0,0-1-2.65c-1-1-2.5-.15-3.48,1-2.6,3-3.57,8-3.09,12.37.41,3.75,1.92,9.14,4.23,11.43A21.59,21.59,0,0,0,693.15,196Z"/><path class="cls-3" d="M696.63,190.92c-6.39,3.27-8.71,9.86-8.69,16.52,0,7,2.88,13,4.42,19.68,3.33-4.08,4.86-9,6.39-13.88,1.69-5.42,3.46-10.8,4.62-16.38.45-2.13.62-4.79-1.3-6.16a4.62,4.62,0,0,0-4.43-.26C697.29,190.59,697,190.75,696.63,190.92Z"/><path class="cls-4" d="M641.46,192.6c5.45,7.28,6.63,18.62,5.7,27.72-.18,1.75-1.54,12.67-3,12.13s-4.33-19.15-4.8-21.67c-.7-3.88-4-18.15-1.26-20.36C639.12,189.58,640.58,191.42,641.46,192.6Z"/><path class="cls-5" d="M626.35,206.44a65.7,65.7,0,0,1-5.26-7.9c-3.24-5.76-6.5-13.93.82-9.41,4.24,2.62,7.9,7.49,10.42,12.63,2,4,5.19,12.27,3.93,15a73.07,73.07,0,0,1-7.87-7.79Q627.36,207.73,626.35,206.44Z"/><path class="cls-6" d="M647,243.75c1.2-.17,5.79-1.2,16.3-7.72,8.66-5.37,20.27-1.57,25.45.62a1.35,1.35,0,0,1,.74,1.64c-1.1,3.88,3,5.31,20.62-3.87,4.61-2.4,8.37-6.17,13.89-5.57,1.77.19,2.73-.89,4-1.92,1.61-1.31,3.38-3.26,2.76-5.52a4.75,4.75,0,0,0-1.84-.06c-1.22.15.53-9.08.12-10.19-.28-.74-.41-2.29-1.49-2.27-1.42,0-5.1,11.13-6.53,10.6a1.3,1.3,0,0,1-.81-1.08,1,1,0,0,1,0-.24c.07-.63,1.53-1.65,1.86-2.19,1.89-3.15,1.67-11.69,1.6-12.51,0-.21-.1-.46-.3-.51a.53.53,0,0,0-.39.13c-1.12.7-7.84,19.19-7.84.92,0-3.93-2.16,7.29-6.46,8.68-2.36.77-.94-11.29-1.73-11.83-1.12-.77-2.9,10-4.23,9.66-4.17-1.11-9-2.1-7.11-5.88,3.83-7.66-24.54-24.58-26.46-14.49-2.52,13.23-25.2,9.45-39.06,22-3.83,3.48-9.48-10.69-11.32-10.78s-2.67,0-3.3,1.37c-1.76,3.74-1.9,9-3.84,8.08-3.33-1.52-4.37-5.41-4.22-2.45.21,4.09-2.92,10.76,4.84,14.64a28.39,28.39,0,0,0,7,2.09c-1.1-.15-4.56-1.81-5.76-1.83h-.11c-.75,0-6.69,2.47.1,3.71,5.48,1,6.15,1.1,8.27,1.59a1.43,1.43,0,0,1,.44.19l1.59,1.05c-1.09,1.32-8.45,3.42-3.24,3.42a80.27,80.27,0,0,1,8.78.28c.77.09,3.24,1.79,3.42,2.58.15.63,0,1.29.18,1.91s.76,1.23,1.37,1a1.05,1.05,0,0,0,.6-1,3,3,0,0,0-.34-1.19c.77,1.16,4.29,2.29,5.5,2.95,1.84,1,3.69,2,5.46,3.09.38.29.71.59,1.11.87h.14"/><path class="cls-7" d="M602.06,224.58s21.38,7.08,35.71,1.31,15.84-10.49,24.89-5.77,10.31,5.77,23.14,3.41,14.33-5.77,19.86-1.57,31.94,2.62,31.94,2.62-38.47,14.68-71.67,11.53-53.31-7.34-53.31-7.34Z"/><path class="cls-8" d="M620.86,230.41s23.71-9.85,29.89-7.4,8.57,4.92,16.43,0,15.87-2.32,20.65,1.23,9.2,3.62,12,1.43,18.42,3.94,15.4,5.33c-1.78.82-22.4,5.45-42.93,5.13C649.48,235.79,626.63,232.34,620.86,230.41Z"/><path class="cls-9" d="M737.5,224.39a.44.44,0,0,1,.26.39.42.42,0,0,1-.27.39l-.25.12L686.12,248a14,14,0,0,1-3,1.09,55.53,55.53,0,0,1-11.37.88c-4.13,0-10.67.1-13.27-.3a22.94,22.94,0,0,1-6-1.68l0,0-49.4-22.2-1.49-.67a.41.41,0,0,1-.25-.41C602.14,225,666.52,250.36,737.5,224.39Z"/></svg>