<svg id="Layer_1" data-name="Layer 1" xmlns="http://www.w3.org/2000/svg" xmlns:xlink="http://www.w3.org/1999/xlink" viewBox="0 0 855.9 250"><defs><style>.cls-1{fill:url(#linear-gradient);}.cls-2{fill:url(#linear-gradient-2);}.cls-3{fill:url(#linear-gradient-3);}.cls-4{fill:url(#linear-gradient-4);}.cls-5{fill:url(#linear-gradient-5);}.cls-6{fill:url(#linear-gradient-6);}.cls-7{fill:url(#linear-gradient-7);}.cls-8{fill:url(#linear-gradient-8);}.cls-9{fill:#283e5e;}</style><linearGradient id="linear-gradient" x1="3920.08" y1="5549.17" x2="3935.7" y2="5523.24" gradientTransform="matrix(0.41, 0.84, -0.86, 0.32, 3854.43, -4857.42)" gradientUnits="userSpaceOnUse"><stop offset="0.13" stop-color="#26a9e0"/><stop offset="0.52" stop-color="#1b75bb"/><stop offset="0.62" stop-color="#208bcb"/><stop offset="0.73" stop-color="#239cd7"/><stop offset="0.85" stop-color="#25a6de"/><stop offset="1" stop-color="#26a9e0"/></linearGradient><linearGradient id="linear-gradient-2" x1="2728.01" y1="5025.44" x2="2737.7" y2="5009.36" gradientTransform="matrix(0.44, 0.72, -0.59, 0.68, 2456.17, -5210.75)" xlink:href="#linear-gradient"/><linearGradient id="linear-gradient-3" x1="4358.83" y1="-3590.96" x2="4373.66" y2="-3615.58" gradientTransform="matrix(-0.27, 0.62, 0.52, 0.52, 3687.94, -653.05)" xlink:href="#linear-gradient"/><linearGradient id="linear-gradient-4" x1="1336.19" y1="-1923.33" x2="1345.05" y2="-1938.03" gradientTransform="matrix(-0.25, 0.96, 0.87, 0.63, 2628.78, 111.16)" xlink:href="#linear-gradient"/><linearGradient id="linear-gradient-5" x1="5247.76" y1="5724.8" x2="5257.41" y2="5708.78" gradientTransform="matrix(0.33, 0.92, -0.92, 0.36, 4268.5, -6702.65)" xlink:href="#linear-gradient"/><linearGradient id="linear-gradient-6" x1="606.98" y1="216.35" x2="730.91" y2="216.35" gradientTransform="matrix(1, 0, 0, 1, 0, 0)" xlink:href="#linear-gradient"/><linearGradient id="linear-gradient-7" x1="602.06" y1="227.37" x2="737.6" y2="227.37" gradientUnits="userSpaceOnUse"><stop offset="0" stop-color="#1b75bb"/><stop offset="0.21" stop-color="#26a9e0"/><stop offset="0.7" stop-color="#26a9e0" stop-opacity="0.65"/><stop offset="0.87" stop-color="#1f87c8" stop-opacity="0.88"/><stop offset="1" stop-color="#1b75bb"/></linearGradient><linearGradient id="linear-gradient-8" x1="620.86" y1="228.23" x2="715.62" y2="228.23" gradientUnits="userSpaceOnUse"><stop offset="0" stop-color="#1b75bb" stop-opacity="0.8"/><stop offset="0.21" stop-color="#26a9e0"/><stop offset="0.67" stop-color="#26a9e0" stop-opacity="0.87"/><stop offset="0.7" stop-color="#26a9e0" stop-opacity="0.8"/><stop offset="0.75" stop-color="#249fd9" stop-opacity="0.84"/><stop offset="1" stop-color="#1b75bb"/></linearGradient></defs><path class="cls-1" d="M704.07,177.35c-8.6,2.94-12.61,10.74-13.71,19.05-1.14,8.69,1.46,16.73,2.28,25.35,4.88-4.49,7.62-10.31,10.37-16.16,3-6.47,6.16-12.85,8.56-19.61.92-2.58,1.57-5.86-.61-7.92a6,6,0,0,0-5.54-1.12C705,177.07,704.51,177.2,704.07,177.35Z"/><path class="cls-2" d="M694.84,181.9a48.34,48.34,0,0,0,1.25-12.6,5.11,5.11,0,0,0-.66-2.91c-.89-1.13-2.49-.45-3.61.62-3,2.86-4.62,8-4.71,12.64-.08,4,.74,9.83,2.77,12.5A23.58,23.58,0,0,0,694.84,181.9Z"/><path class="cls-3" d="M636.48,178.89c6.35,6.68,8.45,17.89,8.14,27.1-.06,1.78-.69,12.84-2.3,12.47s-6.05-18.69-6.73-21.16c-1-3.8-5.61-17.72-2.86-20.22C633.77,176.13,635.46,177.81,636.48,178.89Z"/><path class="cls-4" d="M615.92,190.64a45.65,45.65,0,0,1-3.49-7.62c-1.93-5.51-3.28-13.25,3.15-8.63,3.72,2.68,6.3,7.4,7.65,12.29,1,3.84,2.33,11.64.37,14.08a53.08,53.08,0,0,1-6.2-7.68C616.89,192.29,616.39,191.47,615.92,190.64Z"/><path class="cls-5" d="M716.31,216c6.93-5.28,12.69-11.13,14.08-20.13a4.36,4.36,0,0,0-.29-2.91c-.85-1.41-2.88-1.45-4.48-1-4.47,1.34-7.87,5.44-9.33,9.94-1.24,3.85-2.08,10.57,0,14.1"/><path class="cls-6" d="M647,243.75c1.2-.17,5.79-1.2,16.3-7.72,8.66-5.37,20.27-1.57,25.45.62a1.35,1.35,0,0,1,.74,1.64c-1.1,3.88,3,5.31,20.62-3.87,4.61-2.4,8.37-6.17,13.89-5.57,1.77.19,2.73-.89,4-1.92,1.61-1.31,3.38-3.26,2.76-5.52a4.75,4.75,0,0,0-1.84-.06c-1.22.15-.1-5.93-.51-7-.28-.74-.41-2.29-1.49-2.27-1.42,0-4.47,8-5.9,7.45a1.3,1.3,0,0,1-.81-1.08,1,1,0,0,1,0-.24c.07-.63,1.53-1.65,1.86-2.19,1.89-3.15,1-6.65,1-7.47,0-.21-.1-.46-.3-.51a.53.53,0,0,0-.39.13c-1.12.7-7.21,10.37-7.21-1,0-3.93-2.16,4.14-6.46,5.53-2.36.77-.94-16.33-1.73-16.87-1.12-.77-3.08,14.84-4.41,14.49-4.17-1.1-22,0-20.16-3.78,3.83-7.66-6.9-24.58-8.82-14.49-.94,5-6.68,12-13.86,13.23-12,2-27.64-2.91-29.61,6.93-1,5.08-8.22-6.91-10.06-7s-2.54,0-3.17,1.33c-1.76,3.74-.57,7.19-2.52,6.3-3.33-1.52-7.08-7.37-6.93-4.41.21,4.09-2.92,10.76,4.84,14.64a28.39,28.39,0,0,0,7,2.09c-1.1-.15-4.56-1.81-5.76-1.83h-.11c-.75,0-6.69,2.47.1,3.71,5.48,1,6.15,1.1,8.27,1.59a1.43,1.43,0,0,1,.44.19l1.59,1.05c-1.09,1.32-8.45,3.42-3.24,3.42a80.27,80.27,0,0,1,8.78.28c.77.09,3.24,1.79,3.42,2.58.15.63,0,1.29.18,1.91s.76,1.23,1.37,1a1.05,1.05,0,0,0,.6-1,3,3,0,0,0-.34-1.19c.77,1.16,4.29,2.29,5.5,2.95,1.84,1,3.69,2,5.46,3.09.38.29.71.59,1.11.87h.14"/><path class="cls-7" d="M602.06,224.58s21.38,7.08,35.71,1.31,15.84-10.49,24.89-5.77,10.31,5.77,23.14,3.41,14.33-5.77,19.86-1.57,31.94,2.62,31.94,2.62-38.47,14.68-71.67,11.53-53.31-7.34-53.31-7.34Z"/><path class="cls-8" d="M620.86,230.41s23.71-9.85,29.89-7.4,8.57,4.92,16.43,0,15.87-2.32,20.65,1.23,9.2,3.62,12,1.43,18.42,3.94,15.4,5.33c-1.78.82-22.4,5.45-42.93,5.13C649.48,235.79,626.63,232.34,620.86,230.41Z"/><path class="cls-9" d="M737.5,224.39a.44.44,0,0,1,.26.39.42.42,0,0,1-.27.39l-.25.12L686.12,248a14,14,0,0,1-3,1.09,55.53,55.53,0,0,1-11.37.88c-4.13,0-10.67.1-13.27-.3a22.94,22.94,0,0,1-6-1.68l0,0-49.4-22.2-1.49-.67a.41.41,0,0,1-.25-.41C602.14,225,666.52,250.36,737.5,224.39Z"/></svg>