<svg id="Layer_1" data-name="Layer 1" xmlns="http://www.w3.org/2000/svg" xmlns:xlink="http://www.w3.org/1999/xlink" viewBox="0 0 855.9 250"><defs><style>.cls-1{fill:url(#linear-gradient);}.cls-2{fill:url(#linear-gradient-2);}.cls-3{fill:url(#linear-gradient-3);}.cls-4{fill:#283e5e;}.cls-5{fill:url(#linear-gradient-4);}.cls-6{fill:url(#linear-gradient-5);}.cls-7{fill:url(#linear-gradient-6);}.cls-8{fill:url(#linear-gradient-7);}.cls-9{fill:url(#linear-gradient-8);}</style><linearGradient id="linear-gradient" x1="609.38" y1="228.33" x2="730.47" y2="228.33" gradientUnits="userSpaceOnUse"><stop offset="0.13" stop-color="#26a9e0"/><stop offset="0.52" stop-color="#1b75bb"/><stop offset="0.62" stop-color="#208bcb"/><stop offset="0.73" stop-color="#239cd7"/><stop offset="0.85" stop-color="#25a6de"/><stop offset="1" stop-color="#26a9e0"/></linearGradient><linearGradient id="linear-gradient-2" x1="602.75" y1="227.37" x2="738.29" y2="227.37" gradientUnits="userSpaceOnUse"><stop offset="0" stop-color="#1b75bb"/><stop offset="0.21" stop-color="#26a9e0"/><stop offset="0.7" stop-color="#26a9e0" stop-opacity="0.65"/><stop offset="0.87" stop-color="#1f87c8" stop-opacity="0.88"/><stop offset="1" stop-color="#1b75bb"/></linearGradient><linearGradient id="linear-gradient-3" x1="621.55" y1="228.23" x2="716.31" y2="228.23" gradientUnits="userSpaceOnUse"><stop offset="0" stop-color="#1b75bb" stop-opacity="0.8"/><stop offset="0.21" stop-color="#26a9e0"/><stop offset="0.67" stop-color="#26a9e0" stop-opacity="0.87"/><stop offset="0.7" stop-color="#26a9e0" stop-opacity="0.8"/><stop offset="0.75" stop-color="#249fd9" stop-opacity="0.84"/><stop offset="1" stop-color="#1b75bb"/></linearGradient><linearGradient id="linear-gradient-4" x1="12500.84" y1="-8364.31" x2="12517.78" y2="-8392.43" gradientTransform="matrix(0.02, 0.28, 0.29, 0.08, 2744.1, -2684.63)" xlink:href="#linear-gradient"/><linearGradient id="linear-gradient-5" x1="7821.87" y1="-7388.1" x2="7829.34" y2="-7400.51" gradientTransform="matrix(0.1, 0.31, 0.34, -0.02, 2347.47, -2458.2)" xlink:href="#linear-gradient"/><linearGradient id="linear-gradient-6" x1="12240.29" y1="2942.05" x2="12255.91" y2="2916.13" gradientTransform="matrix(-0.09, 0.24, -0.28, 0.06, 2653.75, -2958.27)" xlink:href="#linear-gradient"/><linearGradient id="linear-gradient-7" x1="9786.19" y1="2270.25" x2="9795.81" y2="2254.27" gradientTransform="matrix(-0.11, 0.3, -0.35, 0.07, 2596.18, -2963.45)" xlink:href="#linear-gradient"/><linearGradient id="linear-gradient-8" x1="12690.24" y1="2000.56" x2="12699.56" y2="1985.08" gradientTransform="matrix(-0.14, 0.26, -0.33, 0.01, 3194.18, -3175.07)" xlink:href="#linear-gradient"/></defs><path class="cls-1" d="M647.7,243.75c1.19-.17,5.79-1.2,16.3-7.72,8.65-5.37,20.26-1.57,25.45.62a1.35,1.35,0,0,1,.74,1.63c-1.1,3.89,2.93,5.33,20.62-3.86,4.61-2.4,8.37-6.17,13.89-5.57,1.77.19,2.73-.89,4-1.92,1.62-1.31,2.13-.74,1.51-3a4.75,4.75,0,0,0-1.84-.06A2,2,0,0,1,726,222.5c-.27-.74-2.3-1-3.37-1-1.42,0,.57-1.47-.86-2-.44-.16-3.92,3.17-4,2.7a1,1,0,0,1,0-.24,4,4,0,0,1,.94-1.63,3.6,3.6,0,0,0,.62-2.36c0-.21-.09-.46-.29-.51a.55.55,0,0,0-.4.13c-1.11.7-4.19,3.17-4.19.3,0-3.93-2.78-3.59-6.32-.78-1.09.86-1.65-.34-2.44-.88-1.12-.77-3,2-4.33,1.65-4.17-1.1-5.8,1.11-10.08.63-19.39-2.17-37.12,1-56.45,3l-.25,0a5.36,5.36,0,0,1-4.93-2.93c-1.06-2.1-6.55-3.26-8.29-3.34a3.47,3.47,0,0,0-3.3,1.37c-1.31,1.3-2.52-2.37-4.47-3.26-3.33-1.52-5.66.69-3.16,2.28,4.74,3-5.23,3.51,2.53,7.39,1.76.88-4.69,4.29,2.09,5.52,5.48,1,6.08-.49,8.19,0,.15,0-.45.14-.32.22l1.6,1.06c-1.1,1.32-8.45,3.42-3.24,3.42a80.37,80.37,0,0,1,8.78.28c.77.09,3.24,1.79,3.42,2.58.15.63,0,1.29.18,1.91s.76,1.23,1.36,1a1,1,0,0,0,.61-1,3,3,0,0,0-.34-1.19c.77,1.16,4.28,2.29,5.5,2.95,1.84,1,3.69,2,5.46,3.09.37.29.71.59,1.1.87h.15"/><path class="cls-2" d="M602.75,224.58s21.37,7.08,35.71,1.31,15.84-10.49,24.89-5.77,10.31,5.77,23.14,3.41,14.33-5.77,19.86-1.57,31.94,2.62,31.94,2.62-38.48,14.68-71.67,11.53-53.31-7.34-53.31-7.34Z"/><path class="cls-3" d="M621.55,230.41s23.71-9.85,29.89-7.4,8.57,4.92,16.43,0,15.87-2.32,20.65,1.23,9.19,3.62,12,1.43,18.42,3.94,15.4,5.33c-1.78.82-22.4,5.45-42.94,5.13C650.17,235.79,627.32,232.34,621.55,230.41Z"/><path class="cls-4" d="M738.19,224.39a.43.43,0,0,1,.25.39.41.41,0,0,1-.26.39l-.25.12L686.81,248a13.92,13.92,0,0,1-3,1.09,55.44,55.44,0,0,1-11.36.88c-4.13,0-10.68.1-13.27-.3a22.94,22.94,0,0,1-6-1.68l0,0-49.4-22.2-1.49-.67a.41.41,0,0,1-.25-.41C602.83,225,667.21,250.36,738.19,224.39Z"/><path class="cls-5" d="M595.17,126c3.6,1.09,9,6.92,8.89,10.39-.07,2.81-3-3.16-5.21-4.12-3.39-1.48-6.25-4.27-5.73-5.73C593.31,125.94,594.59,125.77,595.17,126Z"/><path class="cls-6" d="M593,147.88c-.73-1.4-2.38-3,.15-3.16,1.47-.11,1.67,1.22,2.89,2.23,1,.79,2.44,2.48,2.34,3.56-1,1.31-.88-.35-2.57-1.2C594.38,148.59,593.52,148.92,593,147.88Z"/><path class="cls-7" d="M745.81,143.07c-2.74.57-5.46,2.58-7.59,4.81s-1.68,3.06-3.41,5.42c2.19-1.09,3.62-3,5.6-4.51,2.18-1.67,3.19-1.42,5.29-3.19.8-.67,1.69-1.55,1.63-2.16-.05-.41-.54-.54-1.1-.45Z"/><path class="cls-8" d="M727.49,122.79c1.53-1,2.78-1.3,3.94-2.45a2.5,2.5,0,0,0,.71-1c.12-.52-.47-.66-1.07-.6a9.79,9.79,0,0,0-5,2.61,12.55,12.55,0,0,0-3,4.59C724.5,125.72,725.39,124.1,727.49,122.79Z"/><path class="cls-9" d="M737.41,181.3c-.52.62,0,1.07.89.74a19.36,19.36,0,0,0,3.85-2.45c.86-.57,2.3-1.08,3.06-1.71.42-.36.84-.77.58-1.12a.73.73,0,0,0-.52-.24,7,7,0,0,0-4.53,1.22,5.25,5.25,0,0,0-1.41,1.33Z"/></svg>