<svg id="Layer_1" data-name="Layer 1" xmlns="http://www.w3.org/2000/svg" xmlns:xlink="http://www.w3.org/1999/xlink" viewBox="0 0 855.9 250"><defs><style>.cls-1{fill:url(#linear-gradient);}.cls-2{fill:url(#linear-gradient-2);}.cls-3{fill:url(#linear-gradient-3);}.cls-4{fill:url(#linear-gradient-4);}.cls-5{fill:url(#linear-gradient-5);}.cls-6{fill:url(#linear-gradient-6);}.cls-7{fill:url(#linear-gradient-7);}.cls-8{fill:url(#linear-gradient-8);}.cls-9{fill:#283e5e;}</style><linearGradient id="linear-gradient" x1="5445.36" y1="-4430.08" x2="5460.19" y2="-4454.7" gradientTransform="matrix(-0.15, 0.89, 0.88, 0.32, 5333.05, -3247.25)" gradientUnits="userSpaceOnUse"><stop offset="0.13" stop-color="#26a9e0"/><stop offset="0.52" stop-color="#1b75bb"/><stop offset="0.62" stop-color="#208bcb"/><stop offset="0.73" stop-color="#239cd7"/><stop offset="0.85" stop-color="#25a6de"/><stop offset="1" stop-color="#26a9e0"/></linearGradient><linearGradient id="linear-gradient-2" x1="2461.42" y1="-3007.83" x2="2470.28" y2="-3022.53" gradientTransform="matrix(0.2, 0.96, 0.97, -0.17, 3046.86, -2705.54)" xlink:href="#linear-gradient"/><linearGradient id="linear-gradient-3" x1="607.8" y1="224.99" x2="730.02" y2="224.99" gradientTransform="matrix(1, 0, 0, 1, 0, 0)" xlink:href="#linear-gradient"/><linearGradient id="linear-gradient-4" x1="4751.73" y1="4682.87" x2="4767.34" y2="4656.94" gradientTransform="translate(5051.14 -4881.27) rotate(86.11)" xlink:href="#linear-gradient"/><linearGradient id="linear-gradient-5" x1="6000.11" y1="4581.64" x2="6009.76" y2="4565.62" gradientTransform="translate(6472.13 -4712.83) rotate(102.15)" xlink:href="#linear-gradient"/><linearGradient id="linear-gradient-6" x1="3461.32" y1="4393.36" x2="3471.01" y2="4377.27" gradientTransform="translate(3592.22 -4635.01) rotate(69.46)" xlink:href="#linear-gradient"/><linearGradient id="linear-gradient-7" x1="601.18" y1="227.37" x2="736.71" y2="227.37" gradientUnits="userSpaceOnUse"><stop offset="0" stop-color="#1b75bb"/><stop offset="0.21" stop-color="#26a9e0"/><stop offset="0.7" stop-color="#26a9e0" stop-opacity="0.65"/><stop offset="0.87" stop-color="#1f87c8" stop-opacity="0.88"/><stop offset="1" stop-color="#1b75bb"/></linearGradient><linearGradient id="linear-gradient-8" x1="619.98" y1="228.23" x2="714.73" y2="228.23" gradientUnits="userSpaceOnUse"><stop offset="0" stop-color="#1b75bb" stop-opacity="0.8"/><stop offset="0.21" stop-color="#26a9e0"/><stop offset="0.67" stop-color="#26a9e0" stop-opacity="0.87"/><stop offset="0.7" stop-color="#26a9e0" stop-opacity="0.8"/><stop offset="0.75" stop-color="#249fd9" stop-opacity="0.84"/><stop offset="1" stop-color="#1b75bb"/></linearGradient></defs><path class="cls-1" d="M616.92,148.66C627.78,153,634.47,165,637.23,176c.54,2.13,3.51,15.53,1.21,16s-14.59-18.63-16.35-21.15c-2.72-3.89-13.67-17.74-10.84-22.23C612.32,146.94,615.17,148,616.92,148.66Z"/><path class="cls-2" d="M604.05,168.13a27.56,27.56,0,0,1-6-3.41c-3.89-2.92-8.25-8.07-1.06-9.33,4.17-.72,8.26,1.07,11.41,4,2.48,2.26,6.8,7.51,6.23,11a34.11,34.11,0,0,1-8.29-1.36C605.53,168.7,604.78,168.43,604.05,168.13Z"/><path class="cls-3" d="M646.12,243.75c1.2-.17,5.79-1.2,16.3-7.72,8.66-5.37,20.27-1.57,25.46.62a1.36,1.36,0,0,1,.74,1.64c-1.1,3.88,2.94,5.31,20.62-3.87,4.61-2.4,8.36-6.17,13.88-5.57,1.78.19,2.73-.89,4-1.92,1.62-1.31,3.39-3.26,2.77-5.52a4.81,4.81,0,0,0-1.85-.06,2,2,0,0,1-2.4-1.37c-.27-.74-.41-2.29-1.49-2.27-1.41,0-2.57,2.31-4,1.78a1.31,1.31,0,0,1-.82-1.08,1,1,0,0,1,0-.24c.07-.63.59-1.1.95-1.63a3.66,3.66,0,0,0,.62-2.36c0-.21-.09-.46-.3-.51a.54.54,0,0,0-.39.13c-1.11.7-4.2,3.17-4.2.3,0-3.93-5.92.19-9.47,3-1.08.86-1.65-.34-2.44-.88a10.13,10.13,0,0,0-3.52-1.29c-4.16-1.11-9.67.79-12.73-2.23-14.54-14.36-39.05-.72-58.39,1.26l-.38,0c-.41,0-.94.25-.86.64-.48-2.37-6.59-3.68-8.44-3.77a3.47,3.47,0,0,0-3.3,1.37c-1.31,1.3-2.52,2-4.47,1.15-3.33-1.52-5.67.69-3.17,2.28,4.74,3-5.23,3.51,2.53,7.39a28.39,28.39,0,0,0,7,2.09c-1.1-.15-4.55-1.81-5.75-1.83h-.12c-.75,0-6.68,2.47.1,3.71,5.48,1,6.15,1.1,8.27,1.59a1.34,1.34,0,0,1,.44.19l1.59,1.05c-1.09,1.32-8.45,3.42-3.23,3.42a80.17,80.17,0,0,1,8.77.28c.78.09,3.24,1.79,3.43,2.58.14.63,0,1.29.18,1.91s.76,1.23,1.36,1a1.05,1.05,0,0,0,.6-1,3,3,0,0,0-.34-1.19c.78,1.16,4.29,2.29,5.51,2.95,1.83,1,3.69,2,5.45,3.09.38.29.72.59,1.11.87h.15"/><path class="cls-4" d="M721.21,159.3c-9.89.43-17.15,7.31-21.67,15.61-4.73,8.68-5.4,17.81-8.12,27,6.77-3.17,11.94-8.39,17.11-13.62,5.73-5.79,11.51-11.48,16.71-17.76,2-2.4,4-5.61,2.63-8.42a5.74,5.74,0,0,0-5.13-2.84C722.22,159.27,721.71,159.28,721.21,159.3Z"/><path class="cls-5" d="M722,198.6c8.74-.62,16.77-2.4,22.73-9.34a4.34,4.34,0,0,0,1.3-2.66c0-1.69-1.7-2.86-3.32-3.35-4.54-1.37-9.62.23-13.26,3.27-3.11,2.6-7.39,7.9-7.44,12.12"/><path class="cls-6" d="M700.39,153.15a35.52,35.52,0,0,0,5.12-11.63,4.55,4.55,0,0,0,0-3.19c-.81-1.58-3-1.77-4.75-1.32-4.61,1.19-8.07,5.29-9.5,9.82-1.21,3.86-1.81,10,0,13.68A18.94,18.94,0,0,0,700.39,153.15Z"/><path class="cls-7" d="M601.18,224.58s21.37,7.08,35.7,1.31,15.84-10.49,24.9-5.77,10.31,5.77,23.13,3.41,14.33-5.77,19.87-1.57,31.93,2.62,31.93,2.62-38.47,14.68-71.66,11.53-53.31-7.34-53.31-7.34Z"/><path class="cls-8" d="M620,230.41s23.71-9.85,29.89-7.4,8.56,4.92,16.43,0,15.87-2.32,20.64,1.23,9.2,3.62,12,1.43,18.41,3.94,15.4,5.33c-1.78.82-22.41,5.45-42.94,5.13C648.59,235.79,625.74,232.34,620,230.41Z"/><path class="cls-9" d="M736.61,224.39a.44.44,0,0,1,.26.39.43.43,0,0,1-.26.39l-.25.12L685.23,248a13.84,13.84,0,0,1-3,1.09,55.44,55.44,0,0,1-11.36.88c-4.13,0-10.68.1-13.27-.3a23.1,23.1,0,0,1-6-1.68l0,0-49.39-22.2-1.49-.67a.42.42,0,0,1-.26-.41C601.25,225,665.63,250.36,736.61,224.39Z"/></svg>