<svg id="Layer_1" data-name="Layer 1" xmlns="http://www.w3.org/2000/svg" xmlns:xlink="http://www.w3.org/1999/xlink" viewBox="0 0 855.9 250"><defs><style>.cls-1{fill:url(#linear-gradient);}.cls-2{fill:url(#linear-gradient-2);}.cls-3{fill:url(#linear-gradient-3);}.cls-4{fill:url(#linear-gradient-5);}.cls-5{fill:url(#linear-gradient-6);}.cls-6{fill:url(#linear-gradient-7);}.cls-7{fill:url(#linear-gradient-8);}.cls-8{fill:#283e5e;}.cls-9{fill:url(#linear-gradient-9);}</style><linearGradient id="linear-gradient" x1="609.08" y1="227.19" x2="731.3" y2="227.19" gradientUnits="userSpaceOnUse"><stop offset="0.13" stop-color="#26a9e0"/><stop offset="0.52" stop-color="#1b75bb"/><stop offset="0.62" stop-color="#208bcb"/><stop offset="0.73" stop-color="#239cd7"/><stop offset="0.85" stop-color="#25a6de"/><stop offset="1" stop-color="#26a9e0"/></linearGradient><linearGradient id="linear-gradient-2" x1="5849.22" y1="-5002.27" x2="5866.16" y2="-5030.39" gradientTransform="matrix(-0.01, 0.9, 0.92, 0.18, 5253.12, -4226.96)" xlink:href="#linear-gradient"/><linearGradient id="linear-gradient-3" x1="2906" y1="-3551.9" x2="2913.48" y2="-3564.31" gradientTransform="matrix(0.2, 0.96, 0.97, -0.17, 3484.63, -3230.83)" xlink:href="#linear-gradient"/><linearGradient id="linear-gradient-5" x1="5268.24" y1="4124.4" x2="5283.86" y2="4098.48" gradientTransform="translate(5096.63 -4897.71) rotate(92.83)" xlink:href="#linear-gradient"/><linearGradient id="linear-gradient-6" x1="4227.14" y1="3684.53" x2="4236.77" y2="3668.55" gradientTransform="translate(4652.2 -3850.83) rotate(93.64)" xlink:href="#linear-gradient"/><linearGradient id="linear-gradient-7" x1="602.46" y1="227.24" x2="737.99" y2="227.24" gradientUnits="userSpaceOnUse"><stop offset="0" stop-color="#1b75bb"/><stop offset="0.21" stop-color="#26a9e0"/><stop offset="0.7" stop-color="#26a9e0" stop-opacity="0.65"/><stop offset="0.87" stop-color="#1f87c8" stop-opacity="0.88"/><stop offset="1" stop-color="#1b75bb"/></linearGradient><linearGradient id="linear-gradient-8" x1="621.26" y1="228.09" x2="716.01" y2="228.09" gradientUnits="userSpaceOnUse"><stop offset="0" stop-color="#1b75bb" stop-opacity="0.8"/><stop offset="0.21" stop-color="#26a9e0"/><stop offset="0.67" stop-color="#26a9e0" stop-opacity="0.87"/><stop offset="0.7" stop-color="#26a9e0" stop-opacity="0.8"/><stop offset="0.75" stop-color="#249fd9" stop-opacity="0.84"/><stop offset="1" stop-color="#1b75bb"/></linearGradient><linearGradient id="linear-gradient-9" x1="6435.98" y1="4036.63" x2="6445.3" y2="4021.15" gradientTransform="translate(6032.21 -5257.56) rotate(102.15)" xlink:href="#linear-gradient"/></defs><path class="cls-1" d="M647.4,243.62c1.2-.17,5.79-1.2,16.3-7.72,8.66-5.37,20.27-1.57,25.46.62a1.35,1.35,0,0,1,.74,1.64c-1.1,3.88,2.94,5.31,20.62-3.87,4.61-2.4,8.36-6.17,13.88-5.57,1.78.19,2.73-.89,4-1.92,1.62-1.31,3.39-3.26,2.77-5.52a4.81,4.81,0,0,0-1.85-.06,2,2,0,0,1-2.4-1.37c-.27-.74-.41-2.29-1.49-2.27-1.41,0-2.57,2.31-4,1.78a1.31,1.31,0,0,1-.82-1.08,1,1,0,0,1,0-.24,3.87,3.87,0,0,1,1-1.63,3.67,3.67,0,0,0,.62-2.37c0-.2-.09-.45-.3-.5a.54.54,0,0,0-.39.13c-1.11.7-4.2,3.17-4.2.3,0-3.93-5.92.19-9.47,3-1.08.86-1.65-.34-2.44-.88a10.13,10.13,0,0,0-3.52-1.29,86.94,86.94,0,0,0-12.73-2.23c-19.39-2.17-39-.72-58.39,1.26l-.38,0c-.41,0-.94.25-.86.64-.48-2.37-6.59-3.68-8.44-3.77a3.45,3.45,0,0,0-3.3,1.37c-1.31,1.3-2.52,2-4.47,1.15-3.33-1.52-5.67.69-3.17,2.28,4.74,3-5.22,3.51,2.53,7.39a28.39,28.39,0,0,0,7,2.09c-1.1-.15-4.55-1.81-5.75-1.83h-.12c-.75,0-6.68,2.47.1,3.71,5.48,1,6.15,1.1,8.27,1.59a1.34,1.34,0,0,1,.44.19q.79.51,1.59,1c-1.09,1.32-8.45,3.42-3.23,3.42a80.17,80.17,0,0,1,8.77.28c.78.09,3.24,1.79,3.43,2.58.14.63,0,1.29.18,1.91s.76,1.23,1.36,1a1.06,1.06,0,0,0,.6-1,3,3,0,0,0-.34-1.19c.78,1.16,4.29,2.29,5.51,2.95,1.83,1,3.69,2,5.45,3.09.38.29.72.59,1.11.87h.15"/><path class="cls-2" d="M607.07,137.27c11.4,2.54,27.21,20,25.95,31.33-1,9.16-8.82-9.45-15.75-12-10.59-3.85-19.08-12.13-17-17C601.05,137.76,605.24,136.86,607.07,137.27Z"/><path class="cls-3" d="M595.22,156c-1.7-4.26-5.93-8.83,1.26-10.08,4.17-.73,4.41,3.42,7.56,6.3,2.48,2.26,6.25,7.25,5.67,10.71-3.15,4.41-2.38-.88-6.93-3.15C599,157.89,596.48,159.15,595.22,156Z"/><path class="cls-1" d="M647.4,243.62c1.2-.17,5.79-1.2,16.3-7.72,8.66-5.37,20.27-1.57,25.46.62a1.35,1.35,0,0,1,.74,1.64c-1.1,3.88,2.94,5.31,20.62-3.87,4.61-2.4,8.36-6.17,13.88-5.57,1.78.19,2.73-.89,4-1.92,1.62-1.31,3.39-3.26,2.77-5.52a4.81,4.81,0,0,0-1.85-.06,2,2,0,0,1-2.4-1.37c-.27-.74-.41-2.29-1.49-2.27-1.41,0-2.57,2.31-4,1.78a1.31,1.31,0,0,1-.82-1.08,1,1,0,0,1,0-.24,3.87,3.87,0,0,1,1-1.63,3.67,3.67,0,0,0,.62-2.37c0-.2-.09-.45-.3-.5a.54.54,0,0,0-.39.13c-1.11.7-4.2,3.17-4.2.3,0-3.93-5.92.19-9.47,3-1.08.86-1.65-.34-2.44-.88a10.13,10.13,0,0,0-3.52-1.29,86.94,86.94,0,0,0-12.73-2.23c-19.39-2.17-39-.72-58.39,1.26l-.38,0c-.41,0-.94.25-.86.64-.48-2.37-6.59-3.68-8.44-3.77a3.45,3.45,0,0,0-3.3,1.37c-1.31,1.3-2.52,2-4.47,1.15-3.33-1.52-5.67.69-3.17,2.28,4.74,3-5.22,3.51,2.53,7.39a28.39,28.39,0,0,0,7,2.09c-1.1-.15-4.55-1.81-5.75-1.83h-.12c-.75,0-6.68,2.47.1,3.71,5.48,1,6.15,1.1,8.27,1.59a1.34,1.34,0,0,1,.44.19q.79.51,1.59,1c-1.09,1.32-8.45,3.42-3.23,3.42a80.17,80.17,0,0,1,8.77.28c.78.09,3.24,1.79,3.43,2.58.14.63,0,1.29.18,1.91s.76,1.23,1.36,1a1.06,1.06,0,0,0,.6-1,3,3,0,0,0-.34-1.19c.78,1.16,4.29,2.29,5.51,2.95,1.83,1,3.69,2,5.45,3.09.38.29.72.59,1.11.87h.15"/><path class="cls-4" d="M737.15,147.86c-9.87-.73-17.88,5.26-23.34,13-5.72,8.06-2.67,12.18-6.45,21,7.1-2.36,10.26-9.45,16-14,6.36-5.08,10.56-2.66,16.46-8.29,2.25-2.16,4.62-5.11,3.6-8.06a5.75,5.75,0,0,0-4.76-3.42C738.16,148,737.65,147.9,737.15,147.86Z"/><path class="cls-5" d="M711.62,138.44c3.76-2.12,7.24-2.27,9.72-5.42a4.59,4.59,0,0,0,1.28-2.92c-.09-1.78-2-2.85-3.79-3.15-4.69-.8-9.53,1.52-12.69,5.07-2.68,3-5.11,10-5,14.13C705.19,146.51,706.44,141.35,711.62,138.44Z"/><path class="cls-6" d="M602.46,224.45s21.37,7.07,35.7,1.31S654,215.27,663.06,220s10.31,5.77,23.13,3.41,14.33-5.77,19.87-1.57S738,224.45,738,224.45,699.52,239.13,666.33,236,613,228.64,613,228.64Z"/><path class="cls-7" d="M621.26,230.27s23.71-9.84,29.89-7.39,8.56,4.92,16.43,0,15.87-2.32,20.64,1.23,9.2,3.62,12,1.43,18.41,3.94,15.4,5.33c-1.78.82-22.41,5.45-42.94,5.13C649.87,235.66,627,232.21,621.26,230.27Z"/><path class="cls-8" d="M737.89,224.26a.44.44,0,0,1,.26.39.43.43,0,0,1-.26.39l-.25.11-51.13,22.74a13.84,13.84,0,0,1-3,1.09,55.44,55.44,0,0,1-11.36.88c-4.13,0-10.68.1-13.27-.31a22.2,22.2,0,0,1-6-1.68h0l-49.39-22.2L602,225a.42.42,0,0,1-.26-.41C602.53,224.9,666.91,250.23,737.89,224.26Z"/><path class="cls-9" d="M724.85,193.35a2.74,2.74,0,0,0,3.27,3.81c4.09-1.23,6-4.36,9.48-7.14,2.1-1.68,6-2.63,7.76-4.67,1-1.13,1.89-2.52.83-4.17a3.92,3.92,0,0,0-1.75-1.44,12.19,12.19,0,0,0-12.51,1.46c-1.55,1.24-1.89,1.89-3.15,4.41Z"/></svg>