<svg id="Layer_1" data-name="Layer 1" xmlns="http://www.w3.org/2000/svg" xmlns:xlink="http://www.w3.org/1999/xlink" viewBox="0 0 855.9 250"><defs><style>.cls-1{fill:url(#linear-gradient);}.cls-2{fill:url(#linear-gradient-2);}.cls-3{fill:url(#linear-gradient-3);}.cls-4{fill:url(#linear-gradient-4);}.cls-5{fill:url(#linear-gradient-5);}.cls-6{fill:url(#linear-gradient-6);}.cls-7{fill:#283e5e;}</style><linearGradient id="linear-gradient" x1="2002.08" y1="5440.14" x2="2011.77" y2="5424.05" gradientTransform="matrix(0.58, 0.58, -0.43, 0.75, 1879.46, -5001.61)" gradientUnits="userSpaceOnUse"><stop offset="0.13" stop-color="#26a9e0"/><stop offset="0.52" stop-color="#1b75bb"/><stop offset="0.62" stop-color="#208bcb"/><stop offset="0.73" stop-color="#239cd7"/><stop offset="0.85" stop-color="#25a6de"/><stop offset="1" stop-color="#26a9e0"/></linearGradient><linearGradient id="linear-gradient-2" x1="3109.65" y1="3942.36" x2="3133.73" y2="3902.39" gradientTransform="matrix(0.29, 0.3, -0.29, 0.3, 928.3, -1909.82)" xlink:href="#linear-gradient"/><linearGradient id="linear-gradient-3" x1="-1226.68" y1="275.89" x2="-1214.61" y2="255.84" gradientTransform="matrix(0.07, 0.92, 0.7, 0.84, 531.31, 1120.36)" xlink:href="#linear-gradient"/><linearGradient id="linear-gradient-4" x1="608.69" y1="224.99" x2="730.91" y2="224.99" gradientTransform="matrix(1, 0, 0, 1, 0, 0)" xlink:href="#linear-gradient"/><linearGradient id="linear-gradient-5" x1="602.06" y1="227.37" x2="737.6" y2="227.37" gradientUnits="userSpaceOnUse"><stop offset="0" stop-color="#1b75bb"/><stop offset="0.21" stop-color="#26a9e0"/><stop offset="0.7" stop-color="#26a9e0" stop-opacity="0.65"/><stop offset="0.87" stop-color="#1f87c8" stop-opacity="0.88"/><stop offset="1" stop-color="#1b75bb"/></linearGradient><linearGradient id="linear-gradient-6" x1="620.86" y1="228.23" x2="715.62" y2="228.23" gradientUnits="userSpaceOnUse"><stop offset="0" stop-color="#1b75bb" stop-opacity="0.8"/><stop offset="0.21" stop-color="#26a9e0"/><stop offset="0.67" stop-color="#26a9e0" stop-opacity="0.87"/><stop offset="0.7" stop-color="#26a9e0" stop-opacity="0.8"/><stop offset="0.75" stop-color="#249fd9" stop-opacity="0.84"/><stop offset="1" stop-color="#1b75bb"/></linearGradient></defs><path class="cls-1" d="M691.31,221.11a43.36,43.36,0,0,0-1.43-11.89,4.7,4.7,0,0,0-1.25-2.55c-1.11-.86-2.54.09-3.41,1.31-2.34,3.24-2.85,8.26-1.94,12.61.76,3.7,2.79,8.92,5.34,11A21.37,21.37,0,0,0,691.31,221.11Z"/><path class="cls-2" d="M689.38,209.86C686.47,212.8,681,216,681.8,220c.87,4.11,3.09,7.22,4.71,10.93,1.23-2.94,1.42-6.07,1.62-9.21.21-3.47,5.56-5.9,5.48-9.38,0-1.33-.27-2.93-1.43-3.44a2.28,2.28,0,0,0-2.33.55Z"/><path class="cls-3" d="M641.39,224c-1.45-2.79-2.16-6-4.24-7.86-5.14-4.53-3.91-10.72,2.12-5,3.23,3.06,3.46,5.91,5.47,11.22,1.59,4.18,6,12.16,5.33,14.19-1.85-2.68-5.8-5.87-7.54-9C642,226.61,641.89,225,641.39,224Z"/><path class="cls-4" d="M647,243.75c1.2-.17,5.79-1.2,16.3-7.72,8.66-5.37,20.27-1.57,25.45.62a1.35,1.35,0,0,1,.74,1.64c-1.1,3.88,3,5.31,20.62-3.87,4.61-2.4,8.37-6.17,13.89-5.57,1.77.19,2.73-.89,4-1.92,1.61-1.31,3.38-3.26,2.76-5.52a4.75,4.75,0,0,0-1.84-.06,2,2,0,0,1-2.4-1.37c-.28-.74-.41-2.29-1.49-2.27-1.42,0-2.58,2.31-4,1.78a1.3,1.3,0,0,1-.81-1.08,1,1,0,0,1,0-.24c.07-.63.59-1.1.94-1.63a3.61,3.61,0,0,0,.63-2.36c0-.21-.1-.46-.3-.51a.53.53,0,0,0-.39.13c-1.12.7-4.2,3.17-4.2.3,0-3.93-5.93.19-9.47,3-1.09.86-1.65-.34-2.44-.88a10.13,10.13,0,0,0-3.52-1.29c-4.17-1.11-9.67.79-12.74-2.23-14.53-14.36-39-.72-58.38,1.26l-.39,0c-.4,0-.93.25-.85.64-.48-2.37-6.6-3.68-8.44-3.77a3.47,3.47,0,0,0-3.3,1.37c-1.32,1.3-2.53,2-4.47,1.15-3.33-1.52-5.67.69-3.17,2.28,4.74,3-5.23,3.51,2.53,7.39a28.39,28.39,0,0,0,7,2.09c-1.1-.15-4.56-1.81-5.76-1.83h-.11c-.75,0-6.69,2.47.1,3.71,5.48,1,6.15,1.1,8.27,1.59a1.43,1.43,0,0,1,.44.19l1.59,1.05c-1.09,1.32-8.45,3.42-3.24,3.42a80.27,80.27,0,0,1,8.78.28c.77.09,3.24,1.79,3.42,2.58.15.63,0,1.29.18,1.91s.76,1.23,1.37,1a1.05,1.05,0,0,0,.6-1,3,3,0,0,0-.34-1.19c.77,1.16,4.29,2.29,5.5,2.95,1.84,1,3.69,2,5.46,3.09.38.29.71.59,1.11.87h.14"/><path class="cls-5" d="M602.06,224.58s21.38,7.08,35.71,1.31,15.84-10.49,24.89-5.77,10.31,5.77,23.14,3.41,14.33-5.77,19.86-1.57,31.94,2.62,31.94,2.62-38.47,14.68-71.67,11.53-53.31-7.34-53.31-7.34Z"/><path class="cls-6" d="M620.86,230.41s23.71-9.85,29.89-7.4,8.57,4.92,16.43,0,15.87-2.32,20.65,1.23,9.2,3.62,12,1.43,18.42,3.94,15.4,5.33c-1.78.82-22.4,5.45-42.93,5.13C649.48,235.79,626.63,232.34,620.86,230.41Z"/><path class="cls-7" d="M737.5,224.39a.44.44,0,0,1,.26.39.42.42,0,0,1-.27.39l-.25.12L686.12,248a14,14,0,0,1-3,1.09,55.53,55.53,0,0,1-11.37.88c-4.13,0-10.67.1-13.27-.3a22.94,22.94,0,0,1-6-1.68l0,0-49.4-22.2-1.49-.67a.41.41,0,0,1-.25-.41C602.14,225,666.52,250.36,737.5,224.39Z"/></svg>