<svg id="Layer_1" data-name="Layer 1" xmlns="http://www.w3.org/2000/svg" xmlns:xlink="http://www.w3.org/1999/xlink" viewBox="0 0 855.9 250"><defs><style>.cls-1{fill:url(#linear-gradient);}.cls-2{fill:url(#linear-gradient-2);}.cls-3{fill:url(#linear-gradient-3);}.cls-4{fill:#283e5e;}</style><linearGradient id="linear-gradient" x1="610.22" y1="229.84" x2="729.54" y2="229.84" gradientUnits="userSpaceOnUse"><stop offset="0.13" stop-color="#26a9e0"/><stop offset="0.52" stop-color="#1b75bb"/><stop offset="0.62" stop-color="#208bcb"/><stop offset="0.73" stop-color="#239cd7"/><stop offset="0.85" stop-color="#25a6de"/><stop offset="1" stop-color="#26a9e0"/></linearGradient><linearGradient id="linear-gradient-2" x1="602.06" y1="227.37" x2="737.6" y2="227.37" gradientUnits="userSpaceOnUse"><stop offset="0" stop-color="#1b75bb"/><stop offset="0.21" stop-color="#26a9e0"/><stop offset="0.7" stop-color="#26a9e0" stop-opacity="0.65"/><stop offset="0.87" stop-color="#1f87c8" stop-opacity="0.88"/><stop offset="1" stop-color="#1b75bb"/></linearGradient><linearGradient id="linear-gradient-3" x1="620.86" y1="228.23" x2="715.62" y2="228.23" gradientUnits="userSpaceOnUse"><stop offset="0" stop-color="#1b75bb" stop-opacity="0.8"/><stop offset="0.21" stop-color="#26a9e0"/><stop offset="0.67" stop-color="#26a9e0" stop-opacity="0.87"/><stop offset="0.7" stop-color="#26a9e0" stop-opacity="0.8"/><stop offset="0.75" stop-color="#249fd9" stop-opacity="0.84"/><stop offset="1" stop-color="#1b75bb"/></linearGradient></defs><path class="cls-1" d="M647,243.75c1.2-.17,5.79-1.2,16.3-7.72,8.66-5.37,20.27-1.57,25.45.62a1.35,1.35,0,0,1,.74,1.64c-1.1,3.88,3,5.31,20.62-3.87,4.61-2.4,8.37-6.17,13.89-5.57,1.77.19,2.73-.89,4-1.92,1.61-1.31,1.81,1,1.2-1.29a5,5,0,0,0-1.85,0,2,2,0,0,1-2.4-1.38c-.28-.74-.41-2.28-1.49-2.26-1.42,0-2.58,2.31-4,1.78a1.32,1.32,0,0,1-.82-1.08,1,1,0,0,1,0-.25,3.9,3.9,0,0,1,1-1.62,3.69,3.69,0,0,0,.62-2.37c0-.21-.1-.45-.3-.5a.57.57,0,0,0-.39.12c-1.11.71-4.2,3.18-4.2.3,0-3.92-5-.26-8.53,2.55-1.09.86-1.65-.34-2.44-.88-1.12-.77-2.82.32-4.15,0a87.31,87.31,0,0,0-12.74-2.23c-19.39-2.17-39.73,10.21-55.23,1.89-.11-.06-.26,0-.39,0-.4,0-.93.25-.85.64-.48-2.37-4.08-4.31-5.92-4.4a3.47,3.47,0,0,0-3.3,1.37c-1.32,1.3.19,4-1.76,3.11-3.33-1.52-5.65.3-3.15,1.89,4.74,3-12.37-3.1-4.61.78,1.76.88-5.53,2.73,1.26,4,5.48,1,6.15,1.1,8.27,1.59a1.43,1.43,0,0,1,.44.19l1.59,1.05c-1.09,1.32-8.45,3.42-3.24,3.42a80.27,80.27,0,0,1,8.78.28c.77.09,3.24,1.79,3.42,2.58.15.63,0,1.29.18,1.91s.76,1.23,1.37,1a1.05,1.05,0,0,0,.6-1,3,3,0,0,0-.34-1.19c.77,1.16,4.29,2.29,5.5,2.95,1.84,1,3.69,2,5.46,3.09.38.29.71.59,1.11.87h.14"/><path class="cls-2" d="M602.06,224.58s21.38,7.08,35.71,1.31,15.84-10.49,24.89-5.77,10.31,5.77,23.14,3.41,14.33-5.77,19.86-1.57,31.94,2.62,31.94,2.62-38.47,14.68-71.67,11.53-53.31-7.34-53.31-7.34Z"/><path class="cls-3" d="M620.86,230.41s23.71-9.85,29.89-7.4,8.57,4.92,16.43,0,15.87-2.32,20.65,1.23,9.2,3.62,12,1.43,18.42,3.94,15.4,5.33c-1.78.82-22.4,5.45-42.93,5.13C649.48,235.79,626.63,232.34,620.86,230.41Z"/><path class="cls-4" d="M737.5,224.39a.44.44,0,0,1,.26.39.42.42,0,0,1-.27.39l-.25.12L686.12,248a14,14,0,0,1-3,1.09,55.53,55.53,0,0,1-11.37.88c-4.13,0-10.67.1-13.27-.3a22.94,22.94,0,0,1-6-1.68l0,0-49.4-22.2-1.49-.67a.41.41,0,0,1-.25-.41C602.14,225,666.52,250.36,737.5,224.39Z"/></svg>