<svg id="Layer_1" data-name="Layer 1" xmlns="http://www.w3.org/2000/svg" xmlns:xlink="http://www.w3.org/1999/xlink" viewBox="0 0 855.9 250"><defs><style>.cls-1{fill:url(#linear-gradient);}.cls-2{fill:url(#linear-gradient-2);}.cls-3{fill:#283e5e;}</style><linearGradient id="linear-gradient" x1="602.06" y1="227.37" x2="737.6" y2="227.37" gradientUnits="userSpaceOnUse"><stop offset="0" stop-color="#1b75bb"/><stop offset="0.21" stop-color="#26a9e0"/><stop offset="0.7" stop-color="#26a9e0" stop-opacity="0.65"/><stop offset="0.87" stop-color="#1f87c8" stop-opacity="0.88"/><stop offset="1" stop-color="#1b75bb"/></linearGradient><linearGradient id="linear-gradient-2" x1="620.86" y1="228.23" x2="715.62" y2="228.23" gradientUnits="userSpaceOnUse"><stop offset="0" stop-color="#1b75bb" stop-opacity="0.8"/><stop offset="0.21" stop-color="#26a9e0"/><stop offset="0.67" stop-color="#26a9e0" stop-opacity="0.87"/><stop offset="0.7" stop-color="#26a9e0" stop-opacity="0.8"/><stop offset="0.75" stop-color="#249fd9" stop-opacity="0.84"/><stop offset="1" stop-color="#1b75bb"/></linearGradient></defs><path class="cls-1" d="M602.06,224.58s21.38,7.08,35.71,1.31,15.84-10.49,24.89-5.77,10.31,5.77,23.14,3.41,14.33-5.77,19.86-1.57,31.94,2.62,31.94,2.62-38.47,14.68-71.67,11.53-53.31-7.34-53.31-7.34Z"/><path class="cls-2" d="M620.86,230.41s23.71-9.85,29.89-7.4,8.57,4.92,16.43,0,15.87-2.32,20.65,1.23,9.2,3.62,12,1.43,18.42,3.94,15.4,5.33c-1.78.82-22.4,5.45-42.93,5.13C649.48,235.79,626.63,232.34,620.86,230.41Z"/><path class="cls-3" d="M737.5,224.39a.44.44,0,0,1,.26.39.42.42,0,0,1-.27.39l-.25.12L686.12,248a14,14,0,0,1-3,1.09,55.53,55.53,0,0,1-11.37.88c-4.13,0-10.67.1-13.27-.3a22.94,22.94,0,0,1-6-1.68l0,0-49.4-22.2-1.49-.67a.41.41,0,0,1-.25-.41C602.14,225,666.52,250.36,737.5,224.39Z"/></svg>