<svg id="Layer_1" data-name="Layer 1" xmlns="http://www.w3.org/2000/svg" xmlns:xlink="http://www.w3.org/1999/xlink" viewBox="0 0 855.9 250"><defs><style>.cls-1{fill:url(#linear-gradient);}.cls-2{fill:url(#linear-gradient-2);}.cls-3{fill:url(#linear-gradient-3);}.cls-4{fill:url(#linear-gradient-4);}.cls-5{fill:url(#linear-gradient-5);}.cls-6{fill:url(#linear-gradient-6);}.cls-7{fill:url(#linear-gradient-7);}.cls-8{fill:url(#linear-gradient-8);}.cls-9{fill:#283e5e;}</style><linearGradient id="linear-gradient" x1="4224.7" y1="6185.86" x2="4234.35" y2="6169.84" gradientTransform="matrix(0.08, 0.75, -0.73, 0.32, 4916.92, -4887.07)" gradientUnits="userSpaceOnUse"><stop offset="0.13" stop-color="#26a9e0"/><stop offset="0.52" stop-color="#1b75bb"/><stop offset="0.62" stop-color="#208bcb"/><stop offset="0.73" stop-color="#239cd7"/><stop offset="0.85" stop-color="#25a6de"/><stop offset="1" stop-color="#26a9e0"/></linearGradient><linearGradient id="linear-gradient-2" x1="2219.42" y1="5251.17" x2="2229.12" y2="5235.08" gradientTransform="matrix(0.48, 0.63, -0.47, 0.71, 2068.85, -4890.38)" xlink:href="#linear-gradient"/><linearGradient id="linear-gradient-3" x1="3749.34" y1="5446.65" x2="3773.41" y2="5406.69" gradientTransform="matrix(0.41, 0.48, -0.42, 0.5, 1454.73, -4328)" xlink:href="#linear-gradient"/><linearGradient id="linear-gradient-4" x1="2992.9" y1="-2865.53" x2="3007.73" y2="-2890.15" gradientTransform="matrix(-0.19, 0.6, 0.45, 0.54, 2500.29, -3.28)" xlink:href="#linear-gradient"/><linearGradient id="linear-gradient-5" x1="270.54" y1="-796.03" x2="282.61" y2="-816.08" gradientTransform="matrix(0.07, 0.99, 0.93, 0.65, 1360.53, 460.62)" xlink:href="#linear-gradient"/><linearGradient id="linear-gradient-6" x1="607.54" y1="221.08" x2="730.91" y2="221.08" gradientTransform="matrix(1, 0, 0, 1, 0, 0)" xlink:href="#linear-gradient"/><linearGradient id="linear-gradient-7" x1="602.06" y1="227.37" x2="737.6" y2="227.37" gradientUnits="userSpaceOnUse"><stop offset="0" stop-color="#1b75bb"/><stop offset="0.21" stop-color="#26a9e0"/><stop offset="0.7" stop-color="#26a9e0" stop-opacity="0.65"/><stop offset="0.87" stop-color="#1f87c8" stop-opacity="0.88"/><stop offset="1" stop-color="#1b75bb"/></linearGradient><linearGradient id="linear-gradient-8" x1="620.86" y1="228.23" x2="715.62" y2="228.23" gradientUnits="userSpaceOnUse"><stop offset="0" stop-color="#1b75bb" stop-opacity="0.8"/><stop offset="0.21" stop-color="#26a9e0"/><stop offset="0.67" stop-color="#26a9e0" stop-opacity="0.87"/><stop offset="0.7" stop-color="#26a9e0" stop-opacity="0.8"/><stop offset="0.75" stop-color="#249fd9" stop-opacity="0.84"/><stop offset="1" stop-color="#1b75bb"/></linearGradient></defs><path class="cls-1" d="M706.85,227.1c6-4.48,11.2-9.4,13.77-16.77a4,4,0,0,0,.29-2.37c-.38-1.12-1.86-1.1-3.11-.67-3.5,1.2-6.68,4.63-8.53,8.34-1.58,3.17-3.35,8.67-2.41,11.5"/><path class="cls-2" d="M691.74,207a47.57,47.57,0,0,0-.22-12,5,5,0,0,0-.92-2.64c-.94-1-2.34-.14-3.25,1-2.44,3-3.37,8-2.94,12.39.36,3.75,1.75,9.12,3.9,11.4A22.88,22.88,0,0,0,691.74,207Z"/><path class="cls-3" d="M694.25,201.06C690,205.91,682,211.3,683.1,217.7c1.16,6.69,4.32,11.72,6.58,17.74,1.84-4.81,2.18-9.92,2.52-15.05.38-5.66,8.15-9.74,8.11-15.42,0-2.17-.33-4.77-2-5.58a3.06,3.06,0,0,0-3.38.94C694.69,200.57,694.47,200.81,694.25,201.06Z"/><path class="cls-4" d="M643.56,201.72c5.46,7,7.67,18.16,7.84,27.2,0,1.74,0,12.59-1.31,12.12s-5.76-18.78-6.42-21.25c-1-3.8-5.36-17.79-3.24-20.08C641.23,198.84,642.68,200.6,643.56,201.72Z"/><path class="cls-5" d="M632.35,211.76c-1.91-2.5-2.81-5.8-5.58-7-6.85-3-5.08-10.28,3-6.36,4.29,2.1,4.55,5.15,7.17,10.22,2.06,4,7.88,11,6.93,13.55-2.44-2.23-7.71-4.17-10-7C633.14,214.41,633,212.63,632.35,211.76Z"/><path class="cls-6" d="M647,243.75c1.2-.17,5.79-1.2,16.3-7.72,8.66-5.37,20.27-1.57,25.45.62a1.35,1.35,0,0,1,.74,1.64c-1.1,3.88,3,5.31,20.62-3.87,4.61-2.4,8.37-6.17,13.89-5.57,1.77.19,2.73-.89,4-1.92,1.61-1.31,3.38-3.26,2.76-5.52a4.75,4.75,0,0,0-1.84-.06c-1.22.15-.73-2.78-1.14-3.89-.28-.74-.41-2.29-1.49-2.27-1.42,0-3.84,4.83-5.27,4.3a1.3,1.3,0,0,1-.81-1.08,1,1,0,0,1,0-.24c.07-.63,1.53-1.65,1.86-2.19,1.89-3.15.41-5.39.34-6.21,0-.21-.1-.46-.3-.51a.53.53,0,0,0-.39.13c-1.12.7-6,7.85-7.21.29-.65-3.87-2.29.2-5.83,3-1.09.86-1.65-.34-2.44-.88a10.13,10.13,0,0,0-3.52-1.29c-4.17-1.11-3.07.53-6.48-2.1-6.78-5.23-16.89-13.49-25.87-8.51-11.93,6.62-25.38,4-40,14.05-.11.07-.26,0-.39,0-.4,0-.93.25-.85.64-.48-2.37-6.6-4.94-8.44-5s-2.67,0-3.3,1.37c-1.76,3.74-3.79.78-5.73-.11-3.33-1.52-3.33-.68-3.17,2.28.21,4.09-4,6,3.79,9.91a28.39,28.39,0,0,0,7,2.09c-1.1-.15-4.56-1.81-5.76-1.83h-.11c-.75,0-6.69,2.47.1,3.71,5.48,1,6.15,1.1,8.27,1.59a1.43,1.43,0,0,1,.44.19l1.59,1.05c-1.09,1.32-8.45,3.42-3.24,3.42a80.27,80.27,0,0,1,8.78.28c.77.09,3.24,1.79,3.42,2.58.15.63,0,1.29.18,1.91s.76,1.23,1.37,1a1.05,1.05,0,0,0,.6-1,3,3,0,0,0-.34-1.19c.77,1.16,4.29,2.29,5.5,2.95,1.84,1,3.69,2,5.46,3.09.38.29.71.59,1.11.87h.14"/><path class="cls-7" d="M602.06,224.58s21.38,7.08,35.71,1.31,15.84-10.49,24.89-5.77,10.31,5.77,23.14,3.41,14.33-5.77,19.86-1.57,31.94,2.62,31.94,2.62-38.47,14.68-71.67,11.53-53.31-7.34-53.31-7.34Z"/><path class="cls-8" d="M620.86,230.41s23.71-9.85,29.89-7.4,8.57,4.92,16.43,0,15.87-2.32,20.65,1.23,9.2,3.62,12,1.43,18.42,3.94,15.4,5.33c-1.78.82-22.4,5.45-42.93,5.13C649.48,235.79,626.63,232.34,620.86,230.41Z"/><path class="cls-9" d="M737.5,224.39a.44.44,0,0,1,.26.39.42.42,0,0,1-.27.39l-.25.12L686.12,248a14,14,0,0,1-3,1.09,55.53,55.53,0,0,1-11.37.88c-4.13,0-10.67.1-13.27-.3a22.94,22.94,0,0,1-6-1.68l0,0-49.4-22.2-1.49-.67a.41.41,0,0,1-.25-.41C602.14,225,666.52,250.36,737.5,224.39Z"/></svg>