<svg id="Layer_1" data-name="Layer 1" xmlns="http://www.w3.org/2000/svg" xmlns:xlink="http://www.w3.org/1999/xlink" viewBox="0 0 855.9 250"><defs><style>.cls-1{fill:url(#linear-gradient);}.cls-2{fill:url(#linear-gradient-2);}.cls-3{fill:url(#linear-gradient-3);}.cls-4{fill:url(#linear-gradient-4);}.cls-5{fill:url(#linear-gradient-5);}.cls-6{fill:url(#linear-gradient-6);}.cls-7{fill:#283e5e;}</style><linearGradient id="linear-gradient" x1="2020.3" y1="-2344.48" x2="2029.16" y2="-2359.18" gradientTransform="matrix(0.01, 0.9, 0.92, 0.17, 2751.51, -1235.1)" gradientUnits="userSpaceOnUse"><stop offset="0.13" stop-color="#26a9e0"/><stop offset="0.52" stop-color="#1b75bb"/><stop offset="0.62" stop-color="#208bcb"/><stop offset="0.73" stop-color="#239cd7"/><stop offset="0.85" stop-color="#25a6de"/><stop offset="1" stop-color="#26a9e0"/></linearGradient><linearGradient id="linear-gradient-2" x1="606.95" y1="221.08" x2="730.32" y2="221.08" gradientTransform="matrix(1, 0, 0, 1, 0, 0)" xlink:href="#linear-gradient"/><linearGradient id="linear-gradient-3" x1="4315.87" y1="5199.76" x2="4331.49" y2="5173.84" gradientTransform="matrix(0.24, 0.95, -0.95, 0.27, 4600.56, -5331.83)" xlink:href="#linear-gradient"/><linearGradient id="linear-gradient-4" x1="5606.44" y1="5274.94" x2="5616.09" y2="5258.92" gradientTransform="matrix(0.08, 0.98, -0.98, 0.11, 5440.5, -5885.31)" xlink:href="#linear-gradient"/><linearGradient id="linear-gradient-5" x1="601.47" y1="227.37" x2="737.01" y2="227.37" gradientUnits="userSpaceOnUse"><stop offset="0" stop-color="#1b75bb"/><stop offset="0.21" stop-color="#26a9e0"/><stop offset="0.7" stop-color="#26a9e0" stop-opacity="0.65"/><stop offset="0.87" stop-color="#1f87c8" stop-opacity="0.88"/><stop offset="1" stop-color="#1b75bb"/></linearGradient><linearGradient id="linear-gradient-6" x1="620.27" y1="228.23" x2="715.03" y2="228.23" gradientUnits="userSpaceOnUse"><stop offset="0" stop-color="#1b75bb" stop-opacity="0.8"/><stop offset="0.21" stop-color="#26a9e0"/><stop offset="0.67" stop-color="#26a9e0" stop-opacity="0.87"/><stop offset="0.7" stop-color="#26a9e0" stop-opacity="0.8"/><stop offset="0.75" stop-color="#249fd9" stop-opacity="0.84"/><stop offset="1" stop-color="#1b75bb"/></linearGradient></defs><path class="cls-1" d="M608.36,177.56a31.17,31.17,0,0,1-4.89-4.92c-3-3.79-6.06-9.67.72-8.42,3.94.73,7.34,3.61,9.7,7.13,1.85,2.77,4.83,8.72,3.68,11.53a38.12,38.12,0,0,1-7.31-3.89C609.61,178.54,609,178.06,608.36,177.56Z"/><path class="cls-2" d="M646.42,243.75c1.2-.17,5.79-1.2,16.3-7.72,8.66-5.37,20.27-1.57,25.45.62a1.36,1.36,0,0,1,.75,1.64c-1.1,3.88,2.94,5.31,20.62-3.87,4.6-2.4,8.36-6.17,13.88-5.57,1.77.19,2.73-.89,4-1.92,1.62-1.31,3.38-3.26,2.76-5.52a4.75,4.75,0,0,0-1.84-.06c-1.22.15-.73-2.78-1.14-3.89-.28-.74-.41-2.29-1.49-2.27-1.42,0-3.84,4.83-5.26,4.3a1.29,1.29,0,0,1-.82-1.08,1,1,0,0,1,0-.24c.07-.63,1.53-1.65,1.86-2.19,1.89-3.15.41-5.39.34-6.21,0-.21-.1-.46-.3-.51a.53.53,0,0,0-.39.13c-1.11.7-5.95,7.85-7.21.29-.64-3.87-2.29.2-5.83,3-1.08.86-1.65-.34-2.44-.88a10.13,10.13,0,0,0-3.52-1.29c-4.17-1.11-3.07.53-6.48-2.1-6.78-5.23-16.89-13.49-25.87-8.51-11.93,6.62-25.37,4-40,14.05-.11.07-.26,0-.39,0-.4,0-.93.25-.85.64-.48-2.37-6.6-4.94-8.44-5s-2.67,0-3.3,1.37c-1.76,3.74-3.79.78-5.73-.11-3.33-1.52-3.33-.68-3.17,2.28.21,4.09-4,6,3.79,9.91a28.39,28.39,0,0,0,7,2.09c-1.1-.15-4.56-1.81-5.76-1.83h-.11c-.75,0-6.69,2.47.1,3.71,5.48,1,6.15,1.1,8.27,1.59a1.43,1.43,0,0,1,.44.19q.79.51,1.59,1.05c-1.09,1.32-8.45,3.42-3.24,3.42a80.27,80.27,0,0,1,8.78.28c.77.09,3.24,1.79,3.43,2.58.14.63,0,1.29.17,1.91s.76,1.23,1.37,1a1.05,1.05,0,0,0,.6-1,3,3,0,0,0-.34-1.19c.77,1.16,4.29,2.29,5.5,2.95,1.84,1,3.7,2,5.46,3.09.38.29.72.59,1.11.87h.14"/><path class="cls-3" d="M713.71,163.34c-9.47,2.45-15.27,10.6-18.16,19.57-3,9.38-2.08,18.36-3.07,27.83,6-4.46,10-10.57,14.11-16.71,4.51-6.78,9.08-13.47,13-20.62,1.5-2.73,2.87-6.26,1.06-8.7a5.5,5.5,0,0,0-5.46-1.7Q714.43,163.16,713.71,163.34Z"/><path class="cls-4" d="M719.7,205.14c8-3.35,15.1-7.55,18.72-15.9a4.36,4.36,0,0,0,.47-2.89c-.48-1.58-2.43-2.13-4.09-2.07-4.67.16-9,3.26-11.55,7.25-2.18,3.41-4.7,9.69-3.54,13.64"/><path class="cls-5" d="M601.47,224.58s21.38,7.08,35.71,1.31,15.84-10.49,24.89-5.77,10.31,5.77,23.14,3.41,14.33-5.77,19.86-1.57S737,224.58,737,224.58s-38.47,14.68-71.67,11.53S612,228.77,612,228.77Z"/><path class="cls-6" d="M620.27,230.41s23.72-9.85,29.89-7.4,8.57,4.92,16.43,0,15.87-2.32,20.65,1.23,9.2,3.62,12,1.43,18.42,3.94,15.4,5.33c-1.77.82-22.4,5.45-42.93,5.13C648.89,235.79,626,232.34,620.27,230.41Z"/><path class="cls-7" d="M736.91,224.39a.44.44,0,0,1,.26.39.43.43,0,0,1-.26.39l-.26.12L685.53,248a13.84,13.84,0,0,1-2.95,1.09,55.53,55.53,0,0,1-11.37.88c-4.13,0-10.67.1-13.26-.3a22.94,22.94,0,0,1-6-1.68l0,0-49.4-22.2-1.49-.67a.43.43,0,0,1-.25-.41C601.55,225,665.93,250.36,736.91,224.39Z"/></svg>